<?xml version="1.0" standalone="no"?>
<!DOCTYPE svg PUBLIC "-//W3C//DTD SVG 1.1//EN" "http://www.w3.org/Graphics/SVG/1.1/DTD/svg11.dtd" >
<svg>
<metadata>
Created by FontForge 20090914 at Fri Feb 24 09:00:19 2012
 By root
Copyright (c) M. Klein  5/21-05
</metadata>
<defs>
<font id="MediaevalItalique" horiz-adv-x="333" >
  <font-face 
    font-family="MediaevalItalique"
    font-weight="500"
    font-style="italic"
    font-stretch="normal"
    units-per-em="1000"
    panose-1="2 0 6 4 7 0 0 2 0 3"
    ascent="800"
    descent="-200"
    x-height="401"
    cap-height="596"
    bbox="-220 -259 1154 867"
    underline-thickness="41"
    underline-position="-155"
    unicode-range="U+0005-U+2122"
  />
<missing-glyph horiz-adv-x="1000" 
 />
    <glyph glyph-name=".notdef" horiz-adv-x="1000" 
 />
    <glyph glyph-name="breve" 
d="M451 606h-20q-23 -35 -59.5 -55t-74.5 -20q-39 0 -63.5 20.5t-24.5 54.5h-21q0 -63 28 -99.5t77 -36.5q47 0 88 35.5t70 100.5z" />
    <glyph glyph-name="dotaccent" 
d="M367 513q0 21 -13 36t-33 15t-33.5 -14t-13.5 -34t13 -33t33 -13t33.5 12.5t13.5 30.5z" />
    <glyph glyph-name="ring" 
d="M430 559q0 19 -7 36.5t-19.5 30.5t-29 20.5t-35.5 7.5t-36 -7t-29.5 -19.5t-19.5 -30t-7 -36.5t7.5 -35.5t20 -29t29.5 -19.5t36 -7q38 0 64 26t26 63zM403 560q0 -26 -18.5 -44t-44.5 -18q-27 0 -46 19t-19 45t18.5 45t45.5 19q26 0 45 -19.5t19 -46.5z" />
    <glyph glyph-name="hungarumlaut" unicode="&#xa;" 
d="M457 614h-89l-62 -144h18zM328 614h-90l-61 -144h19z" />
    <glyph glyph-name="ogonek" 
d="M251 -150l-9 17q-20 -7 -31.5 -9t-26.5 -2q-48 0 -77.5 26t-29.5 68q0 14 3.5 26.5t14.5 30.5h-20q-22 -27 -31.5 -49t-9.5 -46q0 -42 29.5 -67.5t79.5 -25.5q27 0 51.5 7t56.5 24z" />
    <glyph glyph-name="caron" 
d="M477 615h-26l-158 -93l-69 93h-20l44 -145h61z" />
    <glyph glyph-name="dotlessi" unicode="&#xd;" horiz-adv-x="229" 
d="M254 377q0 24 -23 24q-17 0 -39 -9t-44.5 -24.5t-43.5 -36t-36 -43.5l35 6q26 30 45 44t39 20q5 -5 4 -11.5t-6 -14.5l-94 -176q-25 -47 -40.5 -84.5t-15.5 -57.5q0 -11 9.5 -18.5t22.5 -7.5q18 0 39 10t42 28t40.5 42.5t34.5 52.5q-11 2 -15 2h-11l-7 -11l-21 -27
l-12 -12l-24 -23q-8 -8 -17 -12t-15 -4l-5 2q0 10 1.5 15.5t5.5 12.5l30 57l14 23l89 174l14 40q4 8 4 19z" />
    <glyph glyph-name="fraction" horiz-adv-x="188" 
d="M324 632l-12 1h-13l-393 -617l-28 -48h9l13 -1h7l147 227q20 32 24 35l7 8q2 2 5 8z" />
    <glyph glyph-name="fi" horiz-adv-x="448" 
d="M512 598q0 25 -30.5 40.5t-74.5 15.5q-35 0 -63.5 -13t-50 -30.5t-36 -36t-20.5 -29.5q-17 -31 -33 -68t-31 -86l-67 2l-12 -2q-4 -9 -5 -14t-3 -17l13 -1h15h24q9 0 23 -2l-159 -491q-2 -8 -5.5 -16t-8.5 -18l-11 -23l-4 -6l-7 -10q-4 -7 -9.5 -11t-13.5 2
q-8 12 -14.5 18.5t-15.5 8.5l-10 1q-12 0 -21.5 -10t-9.5 -22q0 -35 44 -35q37 0 63.5 19t45.5 47.5t32 62.5t23 64l139 411l4 13l94 -2h12l45 2h5l-116 -322q-6 -17 -6.5 -27.5t2.5 -16.5t8.5 -8.5t10.5 -2.5q13 0 31 10t33 24l28 26q8 7 18 19.5t20 27t19 29t15 25.5
l-20 10l-8 -11l-34 -44t-25 -29q-17 -18 -29 -21v1q0 2 3 10l91 251l22 65l4 8q4 7 5.5 12t2.5 10q2 5 2 10t1 13l-12 1l-7.5 -3t-4.5 -2l-15 -9q-21 -14 -42.5 -20.5t-55.5 -4.5l-58 2l-25 -1h-3l25 74l23 58q9 24 24.5 47t34 38t38.5 17t38 -16l28 -28q7 -8 13.5 -11
t18.5 -7h5q13 0 21.5 9.5t8.5 22.5z" />
    <glyph glyph-name="fl" horiz-adv-x="396" 
d="M517 652l-21 1l-9 -10q-6 -6 -8.5 -8t-7.5 -4l-5 1l-9 4q-32 14 -64 12t-60 -13.5t-49.5 -28.5t-31.5 -33l-10 -15l-14 -18q-16 -20 -27.5 -43.5t-19.5 -44.5l-7 -20t-5 -16l-3 -11l-2 -5q-1 -1 -2 -3.5t-4 -6.5l-20 -1l-8 1l-11 1h-11h-14q-3 -5 -4 -8t-3 -5
q-1 -3 -2 -7t-4 -12l69 -7q-2 -10 -3.5 -15.5t-3.5 -11.5l-65 -216l-48 -154l-25 -65q-11 -31 -19 -50l-13 -30q-10 -19 -20 -23l-4 -1q-4 0 -8 5q-8 14 -11.5 19t-9.5 10q-10 6 -19 5.5t-15.5 -5t-10.5 -12t-4 -14.5q0 -40 55 -40q20 0 37.5 9t33 24.5t28.5 35.5t23 42
q18 39 31 72t24 67l100 320l6 23l2 7l80 2l65 -5l-115 -331q-4 -11 -3 -18.5t4.5 -12t9 -6.5t10.5 -2q9 0 24.5 9t33 22.5t33.5 29t27 29.5l41 51l7 10l-15 16l-25 -32l-38 -40l-16 -14q-2 -2 -5.5 -4.5t-5.5 -3.5l-8 -6l-1 -1q-1 -1 -2 -1l-1 -1l181 527zM429 578
q0 -12 -4 -28t-11 -35l-45 -128l-39 1h-30l-58 3q-7 0 -10.5 0.5t-8.5 1.5q4 18 13 45t23 58q27 65 56.5 94.5t63.5 29.5q22 0 36 -11.5t14 -28.5v-2z" />
    <glyph glyph-name="Lslash" horiz-adv-x="625" 
d="M678 167q-7 1 -9.5 2t-10.5 1l-7 -12l-25 -39t-19.5 -25t-20 -16.5t-25.5 -13.5q-37 -17 -77.5 -25t-99.5 -8h-148q-23 0 -31 7t-8 25q0 5 0.5 8t0.5 7l4 22l4 38l7 45l14 68l14 89l120 100l10 56l-120 -100l7 46l5 36l3 15l6 46l2 8q10 43 24 58t49 15h18l11 2q1 5 1 7
v6v10h-193l-38 1h-37q-1 -8 -3 -11v-13q26 0 49 -4.5t34 -12.5q5 -5 6.5 -10.5t1.5 -19.5l-36 -255l-118 -99l-10 -56l118 99l-23 -140l-4 -37q-2 -19 -9.5 -29.5t-21.5 -18.5q-14 -4 -18 -4.5t-7 -1.5l-65 -5q-2 -7 -2 -10v-7v-7h19h547l15 1l48 1l3 7.5t2 4.5q2 4 2 7
l22 67l10 33l5 19q2 3 2 12z" />
    <glyph glyph-name="lslash" horiz-adv-x="313" 
d="M454 523l-170 -139v1v-3l83 209l18 52v10l-27 -1l-91 -5l-2 -17q30 -7 39.5 -13t9.5 -15l-76 -196l-10 -28l-13 -31l-9 -22l-134 -108l-31 -23l-15 -45l163 130l-97 -232q-9 -21 -11 -33t0.5 -19t7.5 -9t11 -2q10 0 25 4.5t30 12.5t29.5 18t25.5 21l28 29q9 10 22 27.5
t23 34.5l-11 2q-2 0 -3.5 -0.5t-3.5 -0.5q-2 -1 -4 -1t-5 -1q-28 -41 -57 -66.5t-49 -28.5l-1 3q0 1 5 13l5 12t6 15l105 263l97 76l69 59q3 12 5.5 19.5t12.5 27.5z" />
    <glyph glyph-name="Zcaron" horiz-adv-x="631" 
d="M604 127q0 4 -7.5 7.5t-18.5 3.5q-7 0 -21 -17q-18 -28 -33 -45t-34.5 -26t-46.5 -11.5t-70 -2.5h-71h-58l-52 1l-10 -1q-3 0 -6.5 3t-3.5 5q0 5 2.5 10.5t10.5 10.5l26 37l58 72l48 61l38 46l58 73l32 37l59 70l58 71l22 27l10.5 13.5t4.5 8.5q0 9 -18 9h-28h-49h-60
h-26h-20l-61 2l-72 1h-57q-31 0 -54 8.5t-33 22.5q-5 8 -7 9t-7 1q-8 0 -12.5 -1t-7.5 -4t-5 -10t-5 -19l-9 -32.5l-10 -33.5t-9.5 -28.5t-6.5 -18.5l-1 -7q0 -5 5 -9t13 -4l8 -1q5 0 19 21q15 24 26.5 37.5t24 21t29.5 9.5t44 2h48l37 -1h5h2l32 1l24 -1h44h18h24q2 0 4 -1
t6 -2q2 -1 4 -3t2 -3l-4 -6l-19 -24l-28 -37l-47 -56l-24 -33l-14 -18l-14 -15l-53 -69l-49 -60l-35 -43l-39 -44l-20 -26l-16 -20l-32 -40l-24 -27q-10 -9 -13 -13t-3 -9q0 -8 10 -8l46 1l36 -1l48 1h27h65l94 -1h52h4h1h60h21l33 -1l24 -3q11 0 16.5 5t7.5 19l7 23
q6 14 12.5 32t8.5 29l3 15zM613 828h-26l-158 -93l-69 93h-20l44 -145h61z" />
    <glyph glyph-name="zcaron" horiz-adv-x="417" 
d="M489 -192q0 18 -7 30.5t-21 16.5q-9 4 -17.5 3t-15.5 -6t-11 -12.5t-4 -14.5l2 -10q5 -12 13 -14l19 -7l5 -3l2 -8q0 -8 -10 -12t-34 -4q-35 0 -56 24q-2 3 -3 5t-3 4q-4 4 -6 8l-8 17q-5 10 -10.5 28.5l-11.5 38l-11 36.5t-8 25q-5 13 -8.5 23t-7.5 18q-3 8 -6 13.5
t-8 10.5q-5 7 -13.5 13.5t-18 12.5t-19 11l-16.5 9l60 50l39 38l48 40l72 70l21 17q28 23 40 40.5t12 34.5q0 13 -10 22t-23 9q-17 0 -24.5 -12t-12.5 -35l-2 -10l-3 -7q-6 -5 -14 -6.5t-21 6.5l-26 18l-32 24q-52 40 -99 40q-25 0 -48 -9t-40.5 -25t-28 -36.5t-10.5 -43.5
q0 -27 16.5 -46.5t40.5 -19.5q18 0 31 9.5t18 27.5q-3 45 -33 45q-12 0 -18 -5t-10 -11q-2 -3 -3 -6.5t-3 -6.5l-2 -4l-2 -4l-4 1q-9 19 -7 34t11 26t22.5 17t26.5 6q28 0 50 -16l20 -13q25 -16 54 -26.5t56 -8.5l39 2q-13 -16 -23.5 -27t-19.5 -19l-146 -131l-38 -32
q-9 -8 -14.5 -10t-13.5 -2h-25q-3 0 -13 -2t-20.5 -7.5t-19 -14.5t-8.5 -23q0 -8 4 -16q7 -13 18 -15.5t22 0t20.5 9t14.5 11.5l16 16q12 12 23 10t20.5 -12.5t17.5 -28.5t14 -38l25 -88q10 -34 31.5 -63.5t49.5 -47.5q16 -10 30 -13t41 -3q86 0 86 65zM519 615h-26
l-158 -93l-69 93h-20l44 -145h61z" />
    <glyph glyph-name="space" unicode=" " horiz-adv-x="290" 
 />
    <glyph glyph-name="exclam" unicode="!" horiz-adv-x="219" 
d="M303 596q0 14 -10.5 22.5t-25.5 8.5q-19 0 -29 -11.5t-19 -38.5l-6 -17l-11 -44l-27 -123l-7 -36l-27 -101l-8 -25q-2 -5 -4 -21l-11 -57l10 -2l7 2l48 122l28 65l62 163q13 31 21 56q4 11 6.5 20.5t2.5 16.5zM149 44q0 20 -14 36.5t-34 16.5q-9 0 -21 -7q-15 -8 -24 -20
t-9 -26q0 -5 1 -8.5t1 -5.5l5 -14q5 -14 15.5 -22t26.5 -8q22 0 38 17.5t16 40.5h-1z" />
    <glyph glyph-name="quotedbl" unicode="&#x22;" horiz-adv-x="420" 
d="M457 644q0 17 -10.5 26.5t-28.5 9.5q-32 0 -52 -25.5t-24 -69.5l-20 -196h28l69 145q8 16 15 32.5t12 31.5t8 27t3 19zM277 643q0 17 -11 27t-28 10q-19 0 -32.5 -7t-22.5 -23.5t-15 -44t-10 -68.5l-16 -148h27l67 146l22 48l13 29t5.5 17t0.5 14z" />
    <glyph glyph-name="numbersign" unicode="#" horiz-adv-x="668" 
d="M624 177v48h-154l41 193h113v49h-104l43 203h-48l-42 -204h-218l43 204h-47l-43 -204h-165v-49h155l-41 -193h-114v-48h104l-42 -202h49l41 203h218l-43 -203h49l42 203h163zM463 418l-40 -193h-218l40 193h218z" />
    <glyph glyph-name="dollar" unicode="$" horiz-adv-x="438" 
d="M463 481q0 28 -15 53.5t-42 45.5l6 20l8 22l3 10h-26l-13 -38q-10 4 -17 6.5l-13 4.5t-12 3t-15 3l8 21h-13h-14l-7 -20q-32 -3 -59 -16t-46.5 -35t-30.5 -50.5t-11 -61.5q0 -58 44 -123l-101 -283q-10 13 -14 26.5t-6 31.5l-1 19q-1 21 -11.5 33t-23 13t-22.5 -8.5
t-10 -30.5q0 -29 21.5 -60t55.5 -53l-38 -109l-3 -14h25l39 110q17 -7 27.5 -9.5t29.5 -5.5q-2 -4 -2 -5q0 -2 -2 -7l-30 -83h27l34 94q21 2 30 3t22 5q26 7 48 22.5t38.5 37.5t25.5 48.5t9 54.5q0 21 -7.5 47t-16.5 40l-31 47l-5 9l86 245q7 -14 7 -31v-6l-1 -14v-6
q-1 -25 9 -37.5t23 -12.5t23 12t10 32zM373 566l-87 -246l-26 34l-14 21l73 212h1q14 0 28 -6t25 -15zM291 585l-63 -175q-10 15 -13 27.5t-3 37.5q0 29 11 53t30 39q9 8 20 13t16 5h2zM306 132q0 -25 -8 -46.5t-22.5 -38t-33.5 -26.5t-40 -11l76 209q28 -44 28 -87z
M259 246l-87 -236q-14 0 -26 3.5t-29 12.5l100 274l26 -35q8 -9 10.5 -11.5t5.5 -7.5z" />
    <glyph glyph-name="percent" unicode="%" horiz-adv-x="750" 
d="M737 218q0 56 -21 85.5t-62 29.5q-35 0 -67.5 -19t-58 -51t-41 -73t-15.5 -84q0 -51 25.5 -83t66.5 -32q42 0 88 40q38 35 61.5 85.5t23.5 101.5zM610 634l-17 1l-14 1l-394 -619l-30 -52h13h13l8 -1l149 229q10 15 15 24q6 9 8 10q3 4 5 6t4 6l3 5zM333 521
q0 56 -21 85.5t-62 29.5q-35 0 -67.5 -19t-58 -50.5t-40.5 -72.5t-15 -84q0 -51 25 -83.5t66 -32.5q23 0 44 10t44 30q39 35 62.5 85.5t23.5 101.5h-1zM688 259q0 -13 -4 -33t-10.5 -43t-15 -47t-18.5 -45q-18 -40 -37.5 -58t-39.5 -18q-18 0 -27 13.5t-9 45.5q0 30 11 72
t28 81q37 83 86 83q17 0 26.5 -13t9.5 -38zM283 563q0 -14 -3.5 -33.5t-10 -42.5t-15 -47t-18.5 -46q-18 -40 -37 -58t-40 -18q-18 0 -27 14t-9 46q0 30 11 71.5t28 80.5q37 83 86 83q17 0 26.5 -13t9.5 -37h-1z" />
    <glyph glyph-name="ampersand" unicode="&#x26;" horiz-adv-x="906" 
d="M981 412q0 33 -19 55.5t-48 22.5q-20 0 -34 -12.5t-14 -30.5q0 -17 12 -24.5t23 -5.5q12 2 18.5 13t-4.5 29q0 5 5 5q15 0 26 -13.5t11 -33.5q0 -28 -15 -46.5t-35 -18.5q-13 0 -26 5t-27 13t-28.5 18l-30.5 21q-31 22 -66 40t-77 18q-21 0 -41 -8t-35 -21.5t-24 -31.5
t-9 -37q0 -32 18 -53t45 -21q19 0 33 11t14 28q0 15 -7.5 25t-20.5 10q-15 0 -21.5 -9t-9.5 -32h-8q-6 0 -12 10t-6 27q0 28 15.5 43.5t44.5 15.5q14 0 32.5 -8.5t40.5 -24.5l50 -37l17 -12l6 -6l-4 -9l-11 -23l-3 -7l-12 -19l-16 -27l-10 -13l-16 -21l-6 -6l-22 -26
l-18 -20l-17 -17l-32 -25l-36 -24q-15 -9 -40 -17.5t-52 -15t-52.5 -10t-41.5 -3.5l-11 -1l-20 1l-12 1l-46 9q-20 5 -50 21t-52 35l297 329l25.5 28t26.5 28q11 12 21 27t18 30t12.5 28.5t4.5 23.5q0 18 -12 31.5t-31 13.5q-21 0 -37.5 -16t-16.5 -38q0 -18 8.5 -27
t28.5 -12q0 -5 -0.5 -7.5t-0.5 -4.5l-12 -22l-1 -1q-2 -2 -4 -5t-4 -5l-16 -20l-86 -95l-7 -5l-4 9q-8 14 -17 23.5t-19 12.5l-13 6q-7 2 -23.5 4.5t-21.5 2.5l-3 -1h-9h-3t-3.5 -0.5t-8.5 -1.5h-2l-2 -1q-7 -2 -14 -3.5t-14 -3.5l-13 -7l-12 -6q-11 -5 -21.5 -12.5
t-12.5 -9.5l-34 -29l-7 -9l-9 -12q-2 -2 -3 -4q-2 -4 -3 -7l-13 -23q-8 -13 -14 -29t-10.5 -32.5t-7 -32.5t-2.5 -28q0 -63 28.5 -105.5t68.5 -67.5t82.5 -35.5t71.5 -10.5q62 0 97 11l49 15q4 1 27 12l25 12l13 7l24 15l36 25l19 14l18 16l17 15.5t13 13.5l21 25l26 34
l17 26l7 11l10 16l13 25l26 44q12 -6 21 -9.5t17 -5.5t15.5 -2.5t17.5 -0.5q22 0 42.5 8.5t36 23.5t24.5 34t9 40zM368 352l-185 -205l-5 -6l-4 7l-4 7l-10 25q0 1 -1 7t-2.5 13t-2.5 13.5t0 8.5v2v20q0 9 0.5 14.5t0.5 7.5l12 45l16 30l17 24l6 6l8 9q25 29 47 40t45 11
q19 0 26.5 -4t7.5 -11v-2l-4 -12q-2 -4 -3 -7.5t-1 -8.5q0 -31 36 -34z" />
    <glyph glyph-name="quotesingle" unicode="'" horiz-adv-x="214" 
d="M262 643q0 17 -11.5 27t-28.5 10q-31 0 -51 -25.5t-24 -68.5l-21 -197h27l90 196q9 19 14 33t5 25z" />
    <glyph glyph-name="parenleft" unicode="(" horiz-adv-x="271" 
d="M433 639l-15 16q-14 -9 -23 -15.5l-17 -12.5t-15.5 -12.5l-17.5 -14.5q-60 -52 -107 -115t-79.5 -133.5t-49.5 -147.5t-17 -158q0 -75 18.5 -153.5t52.5 -150.5l19 10q-11 35 -19 65.5t-12.5 59.5t-6.5 57.5t-2 59.5q-1 93 19 184.5t58 177.5q38 84 86.5 149.5
t118.5 125.5z" />
    <glyph glyph-name="parenright" unicode=")" horiz-adv-x="271" 
d="M260 346q0 53 -7 100t-17.5 86.5t-23 71t-22.5 53.5l-17 -11l18 -69l11 -53q14 -69 13 -136.5t-11.5 -129t-28.5 -114.5t-38 -93l-33 -66l-16.5 -30.5t-11.5 -18.5l-19 -28q-4 -5 -8.5 -12l-7.5 -12l-16 -18q-20 -24 -47.5 -52.5t-59.5 -56.5l18 -13l11 7l38 28l27 23
q12 10 27.5 25.5l31 32.5t29.5 34t24 32q30 41 50 79t33.5 71.5t21.5 62.5t13 53q9 40 13.5 79t4.5 75z" />
    <glyph glyph-name="asterisk" unicode="*" horiz-adv-x="427" 
d="M523 465q-3 15 -5 21.5t-5 17.5l-2 3l-66 -15l-26 -7l-35 -11l-23 -9q-5 -2 -8 -2.5t-8 -2.5l3 12t4 14l14 40l8 27l15 42l9 28l-41 12q-2 -12 -4 -20.5l-4 -16.5t-5 -18l-7 -24l-25 -85l-110 127q-11 -8 -16 -13.5t-14 -16.5l112 -115l5 -5l-140 -29q-8 -2 -13 -3
t-14 -4l9 -41l49.5 11t40.5 11l34 10l15 4l21 6l5 1l-31 -104l-7 -21q-2 -7 -4 -13t-5 -19l10 -5t8 -3.5t9 -3t13 -3.5l5 23l3 23l30 109l4 11l8 -8l97 -110l11 -9q12 10 17 14.5t13 13.5q-10 13 -14 17.5t-7 7.5l-18 16l-41 41l-20 18q-8 7 -12 11l-10 10l145 30
q6 1 10.5 2t12.5 3z" />
    <glyph glyph-name="plus" unicode="+" horiz-adv-x="667" 
d="M599 296v48h-243v241h-48v-242h-240v-48h241v-239h48v240h242z" />
    <glyph glyph-name="comma" unicode="," horiz-adv-x="219" 
d="M155 41q0 32 -15.5 55t-36.5 23q-18 0 -32 -19.5t-14 -45.5q0 -8 4 -18t10 -17l16 -18q10 -12 6.5 -29t-16 -35t-31.5 -35.5t-38 -29.5l-26 -16l6 -17q53 24 86 55t51 60.5t24 53t6 33.5z" />
    <glyph glyph-name="hyphen" unicode="-" horiz-adv-x="260" 
d="M269 260l-26 2h-11l-10 -1l-36 1h-9l-13 1l-25 -1h-15l-18 -1q-6 -2 -15 0h-10l-9 -1l-7 -15l-10 -20l-3 -8q10 0 15.5 -0.5t10 -1t8 -1t8.5 -1.5q38 4 64.5 3t34.5 -3q5 1 6 1h7h15l8 -2l21 2l3 6l2 4l11 26z" />
    <glyph glyph-name="period" unicode="." horiz-adv-x="219" 
d="M143 40q0 23 -14 38t-35 15t-37 -16t-16 -38q0 -21 15.5 -37t35.5 -16q21 0 36 15.5t15 38.5z" />
    <glyph glyph-name="slash" unicode="/" horiz-adv-x="510" 
d="M484 641h-54l-404 -832h54z" />
    <glyph glyph-name="zero" unicode="0" horiz-adv-x="458" 
d="M478 189q19 67 -3 112q-20 42 -60 65t-93 23h-8l-8 -1h-9q-4 -1 -14.5 -4t-20.5 -7q-9 -4 -19.5 -9.5l-24.5 -13.5q-48 -28 -83.5 -72.5t-48.5 -92.5q-11 -41 -5.5 -76.5t25 -61.5t52 -41t74.5 -15q38 0 79.5 16.5t77.5 45.5q68 53 89 132zM439 196q-4 -13 -10.5 -29
t-11.5 -24l-6 -10l-6 -8q-12 -15 -29 -29.5t-36.5 -26t-39.5 -19.5t-37 -9l-11 -1h-8l-19 2l-12 1q-23 2 -42.5 16t-31.5 37q-13 23 -15 44t6 49q7 26 22 52t32 41l10 9l11 10q23 21 56 33t63 12q25 0 50 -10t35 -23l6 -8l10 -13q14 -17 17.5 -43.5t-3.5 -52.5z" />
    <glyph glyph-name="one" unicode="1" horiz-adv-x="458" 
d="M437 387l-15 -1l-24 -1l-48 -2l-41 1l-41 1q-15 0 -27 -0.5t-30 -2.5l-4 -20q12 -3 19 -3l32 -1l14 -3l8 -1q4 -3 5 -6l-1 -9l-9 -48l-9 -35l-14 -50l-17 -61l-11 -43l-3 -11l-15 -43q-2 -6 -4.5 -10t-7 -6.5t-12 -4.5t-20.5 -4l-14 -4l-11 -3l-2 -2q-1 -3 -1 -5t-1 -6
l-1 -10l10 1l9 1l38 3l31 3l21 1h30q18 0 26.5 -1.5t15.5 -2.5l14 -2l8 1l4 9q2 8 -2 11t-20 7l-4 1l-7 3l-9 2q-11 2 -14.5 6.5t-2.5 12.5l6 49l4 17l4 11l3 11l13 55l6 18l12 48v1l1 2l12 39l13 40q2 6 5.5 9.5t11 6t20.5 5t35 7.5l9 2q1 4 1.5 7.5t0.5 9.5z" />
    <glyph glyph-name="two" unicode="2" horiz-adv-x="458" 
d="M431 297q11 42 -13 67.5t-75 25.5q-17 0 -37.5 -5.5t-34.5 -13.5q-29 -17 -50.5 -39t-26.5 -40q-2 -11 8 -11q5 0 8 3l15 14q16 15 42 26.5t44 11.5q13 0 21 -6l10 -9q9 -8 10.5 -17.5t-2.5 -25.5q-9 -32 -45 -68l-8 -8l-23 -22l-24 -22l-27 -22l-17 -16l-13 -10l-42 -33
l-61 -50l-9 -7l-6 -20h323l9 25t7 25q3 9 0 13l-7 1l-9 -1h-12l-34 1h-91l-63 2h-5h-8h-11l5 4q10 8 15 12.5t12 9.5l20 15l32 23l33 23l25 16l13 11l22 16q32 23 53 50.5t27 50.5z" />
    <glyph glyph-name="three" unicode="3" horiz-adv-x="458" 
d="M403 309q4 15 0 30t-14 26t-25 18t-32 7q-23 0 -47.5 -14t-43.5 -37q-9 -11 -16 -21.5t-9 -17.5q0 -4 1 -7l7 -3q5 2 7.5 3.5t6.5 5.5l18 18q9 8 21 13t23 5q20 0 31 -15t5 -36q-2 -8 -5 -13t-14 -17l-25 -29q-3 -2 -7 -6.5t-15 -13.5l-24 -22t-13 -11l-34 -27l-29 -24
q-11 -9 -15.5 -14.5t-7.5 -10.5l2 -6q6 0 9 0.5t6 0.5l24 6l22 4l17 4h3l14 -3l9 -2q28 -14 38.5 -39.5t1.5 -59.5q-11 -41 -41.5 -79.5t-75.5 -70.5h-2l-5 -3l-10 -5l-5 -2q-4 -2 -13 -4t-26 -2h-11l-9 -1q-41 0 -47 -25q-3 -10 2 -17.5t13 -7.5q10 0 28 6l17 6
q12 5 24.5 9.5t30.5 14.5l13 7q42 23 71.5 47.5t60.5 62.5q9 10 18 24t17 29t14.5 30t9.5 28q5 23 4 36q-3 17 -10 30.5t-18 21.5q-10 8 -27.5 13.5t-32.5 7.5l-27 3l-9 1q4 3 7 5l7 4.5t9.5 6.5t14.5 12l24 19l21 17l16 12q20 15 36 36t21 36z" />
    <glyph glyph-name="four" unicode="4" horiz-adv-x="458" 
d="M455 407h-14l-3 -3q-12 -12 -21 -20l-20 -18l-15.5 -15.5t-9 -8.5t-6 -5.5l-6.5 -6.5l-39 -35l-32 -26l-35 -32l-40 -35l-24 -21l-28 -26l-38 -36l-17 -15l-33 -32l-37 -37l-6 -7l-9 -31h23h7l83 -1h57l42 1h11h12h17q-2 -11 -3 -18t-3 -12l-22 -79l-3 -13l-4 -9l-10 -35
l-4 -13h63q5 12 6.5 19t3.5 14l3 12l7 30l5 19l23 79l2 8h7h4h11l9 -1h4h7h46h17l4 9l5 19q2 5 1.5 7l-1.5 6q-4 4 -15 4h-26l-17 1l-13 1h-20q-4 0 -8 2l3 11l8 33l13 43l13 47l15 53l6 21l6 16l10 37l15 51l7 27l2 7zM358 298l-4 -15l-6 -24l-5 -15l-10 -35l-29 -103
l-9.5 -32l-8.5 -30h-19h-20h-71h-23q-14 0 -34 1q-14 1 -20 1q-5 0 -16 1l1 3l14 13l9 9l15 13l18 18l5 5l41 38l64 57l25 24l10 9l17 13l29 28l11 9.5t14 10.5z" />
    <glyph glyph-name="five" unicode="5" horiz-adv-x="458" 
d="M425 393l-4 1l-5 -1h-6l-37 -5l-24 -3h-16q-12 0 -24.5 -2t-23.5 -5l-7 -8l-6 -6t-4 -5.5t-6 -9.5l-11 -17l-13 -19l-5.5 -8t-11.5 -18l-10.5 -16.5l-6.5 -10.5q-5 -9 -7.5 -12.5t-6.5 -10.5q26 -21 39.5 -38t25.5 -42q9 -19 14.5 -34.5t7 -31.5t-0.5 -32.5t-8 -36.5
q-12 -47 -35.5 -82.5t-62.5 -70.5q-9 -8 -21 -16t-23 -14l-5 -2q-8 -5 -12.5 -7.5t-10.5 -4.5l-3 -1l-3 -2l-3 -1l-4 -2l-4 -2q-4 -3 -4 -4q-1 -5 9 -14q40 12 79 38.5t72 61.5t58 77t36 85q3 9 4.5 23t1.5 28q0 15 -1 28.5t-4 23.5q-5 19 -16.5 39.5t-28.5 39.5l-26 29
q-2 2 -4.5 6.5t-6.5 12.5v5q3 9 12 12.5t28 5.5l24 3l25 2l44 3q6 1 10 1.5t9 3.5q1 2 1.5 4t1.5 5q7 14 11 24.5t9 32.5z" />
    <glyph glyph-name="six" unicode="6" horiz-adv-x="458" 
d="M555 626l-1 9l-7 1q-3 0 -10 -2t-16.5 -5l-20.5 -6.5t-20 -7.5q-22 -9 -49.5 -23.5t-54.5 -31.5t-51.5 -34t-40.5 -30l-24 -21l-11 -9.5t-7 -7l-6.5 -7.5t-9.5 -10q-39 -48 -63 -87q-18 -30 -33 -63.5t-24 -65.5q-14 -53 -13 -89t18 -75q13 -30 41.5 -50.5t57.5 -20.5h11
q24 0 42.5 2.5t36 8.5t34 15.5t36.5 23.5q28 21 52 58.5t35 79.5q7 30 4 58q-2 8 -3.5 17.5t-2.5 12.5q-3 8 -11.5 20.5t-17.5 22.5q-38 26 -72 26q-7 0 -19 -2t-20 -4l-10 -3q-9 -3 -13.5 -5t-8.5 -6q2 -7 9 -15q19 4 29 4q23 0 41 -12.5t25 -32.5q5 -17 4 -42.5t-7 -50.5
q-5 -20 -14.5 -42.5t-20.5 -39.5q-7 -10 -14 -19t-10 -12l-4 -3l-9 -10q-6 -6 -13.5 -11t-20.5 -12q-12 -2 -19 -3.5t-15 -1.5q-59 0 -82 69q-8 24 -7.5 59.5t9.5 69.5q11 40 30.5 80t54.5 91q39 58 96.5 109t130.5 93l16.5 9l18.5 9.5l16.5 8t10.5 4.5q14 5 17 12z" />
    <glyph glyph-name="seven" unicode="7" horiz-adv-x="458" 
d="M504 385h-16h-2h-3h-10l-47 -2l-39 -1h-29h-47h-28l-17 1l-27 -1l-33 -2h-29l-10 -1q-12 -2 -16 -1.5t-9 -1.5q-5 -7 -6 -9v-3l-1 -6l-3 -6l-6 -22q-1 -5 -1.5 -8.5t1.5 -7.5l3 -1q7 1 11 1h12l87 1l30 1h13l33 -1l46 -4h16h18h6l4 -1l1 -3q-2 -7 -5.5 -12l-11.5 -17
l-19 -30l-32 -54l-22 -33l-121 -204l-4 -6l-8 -13l-15 -24l-37 -60q-23 -37 -28 -55l-1 -8q4 -4 9 -4q2 0 4 0.5t7 2.5l15 5l2 6q-1 13 0 17l4 8l9 14l9 14l8 12.5t5 8t4 7.5t6 10l25 39l23 35l14 21l17 26l28 38l42 71l24 38l21 32l20 32l10 15l15 23l31 46l16 25l11 15
l12 16q5 7 6.5 9.5t3.5 7.5z" />
    <glyph glyph-name="eight" unicode="8" horiz-adv-x="458" 
d="M490 443q6 21 0.5 43.5t-20.5 41.5q-13 17 -35 27t-49 10q-32 0 -54.5 -7t-51.5 -27q-30 -20 -51.5 -49.5t-30.5 -62.5q-8 -32 -1.5 -64.5t26.5 -54.5q8 -8 17.5 -15.5t26.5 -19.5l-23 -14q-24 -11 -40.5 -21t-29.5 -22q-24 -23 -37 -43.5t-20 -44.5q-20 -76 32 -107
q18 -11 40.5 -17.5t41.5 -6.5q14 0 32 3t37 11q11 4 25 13.5t30 23.5q24 21 43.5 52.5t27.5 60.5q12 46 -15 90q-15 23 -53 57l16 13l10 8l27 18l18 14l8 7q16 11 31.5 35.5t21.5 47.5zM429 434q-5 -17 -14 -33.5t-19 -28.5l-13 -15l-22 -23q-13 -13 -26 -20q-6 3 -9.5 5.5
l-6.5 4.5l-9 6l-15 11q-23 17 -33.5 44t-2.5 55q6 21 17.5 39t27.5 32t34 22t36 8q36 0 52 -30.5t3 -76.5zM353 112q-11 -43 -42 -70t-68 -27q-18 0 -34.5 6t-25.5 17q-10 12 -11 36.5t7 51.5q1 2 3.5 11t5.5 17q5 13 15.5 27.5t24 28t28.5 24t30 16.5q14 -5 23.5 -12
t18.5 -18q22 -27 27.5 -52t-2.5 -56z" />
    <glyph glyph-name="nine" unicode="9" horiz-adv-x="458" 
d="M456 170q12 46 8 86t-22 69.5t-48.5 46.5t-70.5 17q-32 0 -71 -15t-66 -37q-29 -23 -51.5 -60.5t-33.5 -75.5q-9 -32 -6 -60.5t15.5 -49.5t33 -33.5t47.5 -12.5q13 0 30.5 3.5t37.5 9.5l9 5q8 5 10.5 7t7.5 7l-2 9q-3 1 -4 1.5t-3 0.5l-4 -1l-23 -4l-19 -2q-40 0 -56 36
t0 94q9 34 22 58.5t33 44.5q25 26 47.5 36.5t52.5 10.5h7q3 0 13 -4l10 -5q3 -1 8.5 -6t10.5 -12q17 -20 22 -43q2 -7 3 -12.5t1.5 -11.5t-0.5 -14.5t-3 -22.5l-3 -20l-4 -25q-7 -26 -19 -54.5t-28 -58t-35 -57.5t-41 -53l-21 -24q-6 -6 -10 -11t-9 -10l-12 -11.5l-17 -15.5
q-15 -14 -29.5 -24t-27.5 -21l-6 -5l-7 -5q-5 -4 -8.5 -6l-6 -3.5l-5 -3t-6.5 -4.5l-20 -13q-8 -5 -19.5 -11.5t-18.5 -9.5l-13 -6l-6 -3l-7 -3l-5 -3l-11 -6q-7 -5 -8 -9t8 -10q11 2 20 4.5t29 10.5l23 9q30 12 61.5 28.5t59.5 34.5l18.5 13.5t28.5 23.5q38 33 67 62t48 55
q67 86 94 185z" />
    <glyph glyph-name="colon" unicode=":" horiz-adv-x="219" 
d="M238 344q0 20 -15 36.5t-35 16.5q-23 0 -37 -15t-15 -40l-1 -1q0 -22 14.5 -36.5t35.5 -14.5q22 0 37.5 16t15.5 38zM147 46q0 19 -16 33.5t-37 14.5q-23 0 -37.5 -15t-14.5 -39q0 -20 16.5 -35t36.5 -15q22 0 37 16.5t15 39.5z" />
    <glyph glyph-name="semicolon" unicode=";" horiz-adv-x="219" 
d="M251 349q0 20 -14 34.5t-34 14.5q-22 0 -38 -15.5t-16 -37.5t15 -37.5t36 -15.5q9 0 14.5 2t14.5 7q22 19 22 48zM146 32q0 36 -15.5 61t-38.5 25q-11 0 -19 -8t-13 -19t-8 -22t-3 -18q0 -23 18 -39l19 -16q3 -4 5.5 -10t2.5 -11q0 -20 -15.5 -43.5t-49.5 -47.5l-21 -15
l-8 -7l5 -19q14 6 21 10.5t20 14.5q100 76 100 164z" />
    <glyph glyph-name="less" unicode="&#x3c;" horiz-adv-x="667" 
d="M595 -24v48l-466 194l466 193v47l-523 -221v-38z" />
    <glyph glyph-name="equal" unicode="=" horiz-adv-x="667" 
d="M595 414v43h-523v-43h523zM595 187v44h-523v-44h523z" />
    <glyph glyph-name="greater" unicode="&#x3e;" horiz-adv-x="667" 
d="M595 214v39l-523 222v-47l466 -194l-466 -194v-47z" />
    <glyph glyph-name="question" unicode="?" horiz-adv-x="365" 
d="M416 508q0 23 -3.5 38t-12.5 30q-16 27 -45.5 43.5t-61.5 16.5q-53 0 -87.5 -28.5t-42.5 -78.5h10h6t9 1l3 9q25 74 96 74q27 0 52 -15t34.5 -40t-3.5 -57.5t-63 -67.5l-72 -51q-111 -79 -111 -168q0 -36 22 -62t53 -26q15 0 30 7t27 19t19.5 27t8.5 32q-7 6 -15 7
q-10 -29 -29 -49t-37 -20q-20 0 -34.5 13t-14.5 30q0 53 84 110l74 50l40 29q64 47 64 127zM201 47q0 21 -12 35.5t-29 14.5q-20 0 -35 -17t-15 -40l1 -5q2 -22 12.5 -34.5t27.5 -12.5q20 0 35 18t15 41z" />
    <glyph glyph-name="at" unicode="@" horiz-adv-x="817" 
d="M735 42h-21q-60 -100 -146.5 -153.5t-192.5 -53.5q-64 0 -114 22t-82.5 61.5t-45.5 94.5t-2 120q9 55 32 107.5t58 98.5q59 76 134 115t163 39q51 0 92 -17.5t67.5 -48.5t37.5 -74t3 -93q-8 -51 -33.5 -101.5t-62.5 -87.5q-23 -23 -52 -39t-49 -16q-14 0 -20.5 8.5
t-4.5 21.5v1q2 11 8 25.5l14 34.5l104 231l-61 -8l-18 -42h-2q-1 52 -54 52q-26 0 -57.5 -15.5t-65.5 -44.5q-24 -21 -45.5 -46.5t-38.5 -52t-28.5 -53t-14.5 -48.5q-7 -41 8.5 -66t46.5 -25q19 0 43.5 11t48.5 30l17 14l14.5 13l16.5 16l22 23l2 -1q-8 -20 -11 -30.5
t-5 -21.5q-9 -54 53 -54q41 0 81.5 21.5t74 57.5t57.5 84t33 102q9 57 -2.5 105t-40.5 82t-75 53t-104 19q-77 0 -147 -28.5t-126.5 -78t-95 -117t-50.5 -146.5q-12 -72 3 -132.5t52 -105t93 -69.5t127 -25q57 0 111 16.5t101 47t85.5 73t64.5 94.5zM524 265
q-2 -12 -8 -29.5t-13.5 -34.5t-15.5 -33t-14 -25q-11 -16 -30 -36.5t-39 -37.5q-37 -34 -71 -34q-20 0 -29.5 15.5t-4.5 41.5q3 20 19.5 53.5t39.5 67.5q35 53 69 81.5t61 28.5q21 0 31 -16t5 -42z" />
    <glyph glyph-name="A" unicode="A" horiz-adv-x="706" 
d="M700 13q0 13 -16 13q-23 0 -36.5 4t-26 19.5t-27 46.5t-37.5 85l-40 94l-32 66l-37 85l-38 86l-16 42l-24 48q-9 17 -16 17q-3 0 -13 -7l-10 -7q-14 -9 -21.5 -15t-13 -14.5t-11 -23.5t-14.5 -43l-21 -64l-21 -51l-21 -62l-26 -66l-30 -78l-13 -30l-15 -43
q-10 -27 -18.5 -43.5t-18 -25.5t-21.5 -12t-29 -3h-11q-20 0 -20 -14q0 -11 6.5 -15t29.5 -3l30 1q11 0 27.5 0.5t22.5 0.5l35 -1l29 -1h36h6q6 0 8 1t3 6t2 8.5t1 5.5q0 9 -16 9q-29 -1 -47 8t-18 25q0 12 7 33l41 119q6 17 10 21t20 3l30 -2l63 2l66 -2h35q8 -1 12 -5.5
t9 -15.5l14 -37l16 -34l13 -30l13 -26q0 -3 6 -21q2 -5 3 -9t1 -9q0 -21 -54 -21l-10 1q-8 0 -10 -3.5t-2 -9.5q0 -12 3.5 -15t18.5 -3h7q9 0 15.5 0.5t10.5 0.5l29 1h32h36l40 -1l36 -1h13q9 0 12 2.5t3 12.5zM424 287q0 -5 -8 -9t-20 -6h-34h-52h-34l-29 -1q-12 0 -12 9v3
l7 19l11 36l13 32l9 24l18 48q24 62 26 62q4 0 11 -16t24 -51l20 -43l23 -56l10 -25t8 -15z" />
    <glyph glyph-name="B" unicode="B" horiz-adv-x="600" 
d="M575 161q0 128 -193 164v4l15 2q126 32 126 120q0 51 -42 90q-30 26 -74.5 39t-112.5 13h-14l-64 -1l-30 -2h-14h-12l-16 2h-23l-29 1l-30 2h-10q-21 0 -21 -13t19 -14l12 -2h23q32 0 44.5 -16t12.5 -56v-4v-3v-17v-22l-3 -23l3 -36l-3 -29l3 -30v-20v-80l-4 -80v-28v-19
q0 -26 -2 -41t-11 -23.5t-26.5 -11.5t-48.5 -5q-19 -1 -19 -14q0 -14 18 -14q5 0 14.5 1l27.5 3q23 1 42 1.5t28 0.5h29h52l98 -5h15q48 0 88.5 12.5t70 34.5t45.5 52.5t16 66.5zM432 452q0 -57 -40 -89t-114 -32h-27h-13q-8 0 -11 1.5t-3 8.5v26v35v49v15v25v18v11
q0 23 11.5 31.5t40.5 11.5l28 3q57 0 92.5 -32t35.5 -82zM481 163q0 -54 -37 -91q-42 -43 -125 -43q-54 0 -75 18t-21 63v41v79v36v24q1 8 3 9.5t7 2.5q27 3 48 3h9l33 -1q18 -1 37 -5.5t35 -10.5q18 -7 34 -20t27.5 -29.5t18 -36t6.5 -39.5z" />
    <glyph glyph-name="C" unicode="C" horiz-adv-x="734" 
d="M691 144q0 6 -5.5 11t-14.5 5q-12 0 -17 -16q-9 -31 -21.5 -50.5t-34.5 -33.5q-29 -19 -68 -28.5t-84 -9.5q-21 0 -46.5 5.5t-52.5 13.5q-23 7 -40.5 15t-33 18.5t-29.5 24t-29 31.5q-32 39 -46.5 82.5t-14.5 103.5q0 30 9 61t25 59t38.5 51.5t49.5 40.5q79 48 158 48h5
h3q73 0 125 -32t75 -93q8 -17 18 -17q16 0 16 14l-4 15q-4 22 -7 43t-4 41q-1 9 -3 12.5t-9 6.5q-14 8 -30 12l-49 12q-20 4 -32 7t-20 4.5t-14 2.5t-12 1q-23 2 -37 3.5t-23 1.5q-66 0 -132.5 -20.5t-119.5 -55.5q-62 -42 -99 -104t-37 -128q0 -21 5.5 -48t15.5 -51
q11 -29 30 -53.5t54 -57.5q12 -12 23 -20.5t22.5 -16t25 -14.5t32.5 -15q26 -12 48.5 -20t44.5 -12.5t45.5 -6t51.5 -1.5q19 0 41.5 1.5t43.5 4t39.5 6.5t31.5 9l40 15q13 5 19.5 7t9.5 6t4.5 12t5.5 24l6 23l6 31z" />
    <glyph glyph-name="D" unicode="D" horiz-adv-x="780" 
d="M748 304q0 38 -12 75.5t-33.5 71t-51.5 60.5t-67 45q-32 15 -51 22t-37 12q-16 4 -34 7.5t-36.5 6.5t-35.5 4.5t-30 1.5h-31h-36l-40 -4l-44 -1l-51 -6l-60 -4l-24 -3l-22 -4q-23 -4 -23 -14q0 -16 13 -14l23 2l19 1q29 2 41 -10t14 -39l3 -33l1 -37l-1 -58l1 -42l-1 -18
l1 -62l-1 -35v-20v-31l-3 -33l3 -17l-3 -18v-16q0 -38 -19.5 -54.5t-66.5 -17.5q-12 -2 -17 -5t-5 -11q0 -14 17 -14l25 1l36 5l15 1q4 0 11.5 0.5t16.5 0.5h18h16h28h25l69 -2h28l17 -3h24q24 0 42.5 1t40.5 6q37 7 67 16.5t55.5 22.5t48.5 31t46 42q38 38 54.5 83
t16.5 107zM649 293q0 -60 -20.5 -109.5t-58 -85t-89 -55t-114.5 -19.5q-18 0 -34 2.5t-35 4.5q-39 9 -54 26t-15 53v17l-1 29l1 37l-1 53l1 83l-1 37l1 67l-1 55l1 36q1 17 4 26t12 14q17 10 38 14.5t55 4.5q56 0 97.5 -10.5t76.5 -31.5q20 -12 43.5 -29t34.5 -31
q11 -12 21 -29.5t17.5 -37.5t12.5 -40t6 -38l1 -14l1 -22v-7z" />
    <glyph glyph-name="E" unicode="E" horiz-adv-x="631" 
d="M606 110q0 14 -18 14q-8 0 -11 -3.5t-9 -14.5q-3 -4 -6.5 -10t-11.5 -18q-12 -17 -15.5 -22.5t-7.5 -9.5q-10 -9 -40.5 -13.5t-88.5 -4.5h-22t-33 1q-16 0 -27.5 0.5t-14.5 0.5q-14 1 -22.5 4t-14.5 7q-14 9 -19 33.5t-5 75.5v38l4 71v9v15q0 6 0.5 9t6.5 4.5t19 1.5h37
h34l43 -3q17 -1 28 -3.5t17 -8.5t9.5 -17.5t5.5 -30.5q2 -11 5 -15t11 -4q7 0 10.5 2t4.5 10l-2 43l1 23l1 60v16l1 14q1 8 -2.5 10.5t-12.5 2.5q-5 0 -8 -2t-7 -9l-7 -19q-5 -14 -10 -21.5t-14.5 -12t-26 -6t-44.5 -1.5l-55 -1l-31 1q-11 0 -14.5 3.5t-3.5 13.5l2 90l-2 65
q-1 26 6 41.5t18 22.5q8 3 27 5.5t49 1.5l39 -1l52 -4q25 -2 39.5 -5t22.5 -11t12 -23t7 -41q1 -15 18 -15q15 0 15 13v15v14v22l1 45q0 7 -0.5 10t-5 4.5t-15.5 2t-31 0.5l-50 1l-91 2h-49h-62l-43 -2q-32 -2 -66 0.5t-63 3.5q-22 1 -22 -11q0 -11 4 -15t18 -4
q28 -1 45.5 -4t26.5 -13.5t12 -30.5t2 -54l-2 -77v-161v-28v-45q-2 -16 -2 -28v-19q-1 -23 -2.5 -35t-6.5 -23q-7 -14 -26 -21.5t-52 -7.5q-23 0 -23 -13q0 -9 2.5 -12.5t11.5 -3.5l46 1q13 2 24 3t22.5 1.5t24.5 0.5h30h63h64l73 -1h114l39 -1q9 0 12.5 4t9.5 22l18 55
l6 17z" />
    <glyph glyph-name="F" unicode="F" horiz-adv-x="600" 
d="M547 502l-1 25v42v9q0 15 -6 18t-38 2l-54 -2l-130 -1h-122l-82 -2h-55q-17 2 -23 -0.5t-6 -9.5q0 -11 4.5 -15t17.5 -2q3 0 7.5 -1t12.5 -1q14 -1 21 -1q8 0 13 -1q9 -2 14.5 -7.5t9 -18t5 -33.5t3.5 -54l4 -97v-126v-77q0 -3 -1 -11t-2 -31q0 -22 -0.5 -26.5t-0.5 -7.5
q-1 -19 -6 -27q-5 -9 -21 -15t-52 -9q-14 -2 -19 -5.5t-5 -11.5q0 -13 18 -13q8 0 16.5 0.5t33.5 2.5q25 3 44 4t43 1q10 0 18.5 -1t19 -1.5t26 -1.5t41.5 -1h22q15 0 15 12q0 11 -3 14t-15 3q-27 1 -44.5 3.5t-27.5 8.5t-14 16.5t-4 26.5q-1 32 -1 66v52v89q0 8 5.5 10
t31.5 2h70q13 2 31 0.5t40 -2.5q8 -1 15 -1q8 0 14 -2q14 -5 24.5 -18t12.5 -31l2 -15q2 -9 5.5 -12t13.5 -3q12 0 11 10l-1 12l-1 23l-1 64l1 47v9q0 11 -2 14t-10 4q-8 -1 -11.5 -3.5t-4.5 -11.5q-1 -19 -4.5 -30.5t-14 -17.5t-29 -7.5t-49.5 -1.5h-20h-30h-44h-40
q-9 0 -12 5t-3 23v50v67l-1 24q-1 22 2.5 36.5t14 22t29.5 10.5t49 3h38h58q21 0 35 -1t23 -3t15 -6t11 -10q13 -23 19 -58q1 -9 3.5 -12t7.5 -3q14 0 17.5 4t2.5 25z" />
    <glyph glyph-name="G" unicode="G" horiz-adv-x="780" 
d="M742 245q0 10 -5 13t-22 2l-19 -1l-34 -1l-67 -1l-72 2l-35 1h-13q-15 0 -20.5 -2t-5.5 -8q0 -14 4.5 -17.5t21.5 -3.5h30q28 0 44.5 -2.5t24.5 -10.5t11 -23t5 -41l2 -27q4 -49 -40.5 -76t-125.5 -27q-60 0 -111 21.5t-87.5 59.5t-57.5 90.5t-21 114.5q0 56 22.5 104.5
t62 84.5t94 56.5t118.5 20.5q34 0 65 -8.5t55 -23.5t40.5 -36t22.5 -46q3 -12 6.5 -16t14.5 -4q17 0 15 16l-3 43l-2 41q-1 14 -7.5 20.5t-30.5 14.5q-53 17 -98 24t-91 7q-97 0 -178 -30t-134 -86q-21 -22 -35.5 -42.5t-24 -42.5t-15 -48t-8.5 -59q2 -45 9.5 -75.5
t23.5 -59.5q9 -17 24.5 -35t34 -35t39 -32.5t40.5 -25.5q42 -22 99 -35t114 -13q25 0 52 1.5t52.5 5t47.5 8.5t36 11l33 15q14 5 18 9t3 18l-2 40l-1 51q-1 32 0.5 47t6.5 22q6 6 18 10.5t24 4.5h11q21 0 21 15z" />
    <glyph glyph-name="H" unicode="H" horiz-adv-x="840" 
d="M808 17q0 11 -23 11h-10q-20 0 -36 7t-21 20q-5 8 -8.5 28t-2.5 44l1 33l-1 15v21l1 50l2 40v93l2 53l1 31l-1 25v28q0 30 13.5 39t54.5 9q17 0 22.5 4t5.5 15q0 8 -9 10h-13h-13l-24 -1l-37 -2h-33q-11 2 -20 2h-13l-35 1l-29 2h-23q-15 0 -20 -3t-5 -14q0 -8 6 -10.5
t29 -3.5q18 -1 30 -5t19 -13t9 -25t1 -40l-2 -36v-47l2 -10q0 -19 -0.5 -29t-4.5 -14.5t-12.5 -5.5t-24.5 -1l-60 -1l-44 -1l-85 1l-81 -3l-52 2q-31 2 -39.5 4.5t-8.5 11.5l1 36v27v27l-1 34l1 29v23q0 36 57 36h15q19 0 24 4t5 15q0 14 -17 13l-51 -3h-35l-37 -1l-27 1
l-50 2l-49 1h-3q-10 0 -12.5 -3t-2.5 -11q0 -10 3 -12t18 -4h12q35 0 46.5 -16.5t14.5 -58.5l3 -39l-1 -26l1 -35l-1 -44l1 -58l-1 -30l1 -29v-15l-1 -48l-2 -43v-15l2 -23q2 -25 -10 -40.5t-32 -16.5l-21 -1h-11q-21 -3 -21 -14t5 -13.5t16 -2.5h29l53 1h44h12h24
q10 0 18.5 -0.5t16.5 -0.5h23h19q11 0 14 2t3 12q0 14 -19 14q-46 1 -61.5 11t-15.5 40v30l-1 35l1 58l-1 46l1 40q0 8 8 9q15 2 29.5 2.5t42.5 0.5h21h36h45h89h34l24 2h60h9q10 0 10 -10l1 -46l1 -59l-1 -21l-1 -12l1 -63l-1 -18q-4 -25 -16.5 -34t-43.5 -9h-14
q-23 0 -23 -15q0 -10 3 -12.5t12 -2.5h14l15 1h21q5 0 13.5 0.5t19.5 0.5h24h28h26q12 0 28.5 -1t36.5 -1h18q12 0 17 4t5 15z" />
    <glyph glyph-name="I" unicode="I" horiz-adv-x="360" 
d="M324 8q0 15 -19 16q-29 3 -45 6.5t-24 14t-10 30.5t-2 56v44v91l2 197q0 37 1 57.5t7 30.5t18.5 12t36.5 3q22 2 28.5 4.5t6.5 13.5q0 12 -19 12l-51 -1l-94 -5l-62 2q-20 1 -28 1h-14q-11 0 -14.5 -2t-4.5 -10q-1 -11 5.5 -14.5t29.5 -3.5q45 0 56 -21q2 -3 3.5 -7
t2.5 -14.5t1.5 -31.5t0.5 -58l1 -245v-35l-1 -49l-2 -29q-2 -27 -14.5 -36.5t-45.5 -8.5q-21 1 -29.5 -3t-8.5 -12q0 -11 4.5 -15t17.5 -3l43 3l72 2l55 -1h46l37 -4q13 0 13 13z" />
    <glyph glyph-name="J" unicode="J" horiz-adv-x="360" 
d="M325 588q0 4 -2.5 7.5t-10.5 2.5l-53 -3q-6 0 -18.5 -1t-27.5 -2t-30 -1.5t-26 -0.5h-13l-44 3l-35 2h-6h-4q-18 0 -18 -13q0 -16 18 -16l18 -2l25 -1q27 -1 35.5 -13t8.5 -48q0 -13 0.5 -33t0.5 -37l1 -108l-1 -96l1 -42l1 -41l-1 -43l-1 -58l1 -45l-2 -57v-20
q0 -45 -15 -67.5t-41 -22.5q-10 0 -18 5t-10 12l-6 21q-5 17 -19.5 26.5t-31.5 9.5q-20 0 -33.5 -11t-13.5 -29q0 -29 29.5 -49t71.5 -20q24 0 43 3.5t34.5 11t30 20t30.5 30.5q11 13 20 28.5t14.5 35.5t7.5 45t0 58l-2 30v35v22l2 30v17l-2 51q-1 21 -1 31v21l1 60v33
l-1 43l-3 72v31q0 32 14.5 46.5t50.5 16.5q23 2 27 4t4 16z" />
    <glyph glyph-name="K" unicode="K" horiz-adv-x="706" 
d="M710 12q0 8 -4 11t-15 5q-33 0 -55.5 10.5t-43.5 34.5l-29 33l-28 26l-38 48l-39 43l-27 34l-37 38l-51 57l-8 8t-3 5q0 6 7.5 14t20.5 18l44 43l27 26l21 22l3.5 3t11.5 11l11 11t9 7q17 15 27.5 23.5t17.5 10.5q11 7 23.5 9.5t32.5 2.5h18q19 0 19 11q0 14 -7.5 16.5
t-36.5 2.5h-21l-22 -1h-17h-10h-14l-19 1l-27 2l-12 1l-29 -1q-14 -1 -17.5 -2.5t-3.5 -7.5q0 -14 3.5 -16t26.5 -3q23 0 32.5 -3.5t9.5 -9.5q0 -8 -14.5 -26.5t-58.5 -60.5q-29 -29 -48 -45.5l-32 -27.5l-33 -28.5t-18 -19.5q-16 -18 -27 -18q-4 0 -4 6l2 23l-2 20v30
l-2 40v33v38q0 27 10.5 36.5t36.5 9.5q27 0 35 3.5t8 14.5q0 9 -4 12.5t-17 2.5l-28 -1h-36h-41h-30h-30l-39 2h-24h-9q-19 0 -19 -11q0 -10 4 -13t15 -5l11 -1h15q29 0 43 -11.5t14 -31.5v-60v-27l3 -31v-15l-3 -26l3 -74l-3 -20l3 -58l-3 -38v-44l-1 -26l-1 -30
q0 -16 -4 -25.5t-13.5 -15.5t-26 -8t-43.5 -3q-10 0 -13 -2.5t-3 -7.5q0 -13 3.5 -15.5t17.5 -2.5h9l43 1q20 1 45 1h52h31l31 -1l34 -1q11 0 14.5 3t3.5 12q0 11 -4.5 14t-25.5 3q-22 0 -35 2t-19.5 7t-8 14.5t-1.5 25.5v22v43v42l2 37v22v12v11q0 5 1.5 8.5t5.5 9.5
l19 16.5t14 7.5q2 0 9 -6.5t14 -15.5l21 -23l36 -42l34 -38l28 -31l24 -26l23 -26l14 -18l12 -13q17 -17 17 -30q0 -9 -16 -11q-11 -1 -27.5 -1.5t-29.5 -0.5q-16 -2 -19.5 -5t-3.5 -15q0 -13 17 -13h11l39 3l42 1h16q11 0 22 0.5t22 0.5h18h22l27 -1h8q6 0 14 -1h22
q17 0 22.5 2.5t5.5 11.5z" />
    <glyph glyph-name="L" unicode="L" horiz-adv-x="570" 
d="M578 115q0 9 -10 9q-9 0 -12.5 -2t-7.5 -7l-9 -19l-16 -24q-14 -22 -19.5 -27.5t-18.5 -7.5q-14 -3 -36.5 -5t-44.5 -2h-10l-41 1q-42 1 -67.5 5t-38.5 10q-11 5 -17 11.5t-9 18.5t-4 32t-1 53v57l-1 50v12l1 52v27v44v16v30l1 49v18q0 28 16 41t54 12q18 0 25 2.5
t7 11.5q0 8 -3.5 10.5t-14.5 2.5h-27h-29h-21q-8 0 -10 -1h-46q-8 0 -27.5 1l-40.5 2l-34 1h-13q-11 0 -14.5 -2.5t-3.5 -10.5t3 -11.5t14 -3.5q78 0 78 -55v-28l1 -39v-40l1 -59l-1 -60v-18l-1 -36v-14l1 -50v-41v-9v-22l-1 -29q-2 -46 -77 -48q-22 0 -22 -15q0 -13 18 -13
l30 3l27 1q6 0 18 0.5t27 0.5h33h32h62h46h49l76 -1l62 -1l19 -3q9 0 12.5 5t10.5 28l9 32l13 42z" />
    <glyph glyph-name="M" unicode="M" horiz-adv-x="900" 
d="M874 7q0 10 -4 13t-16 3q-16 0 -30.5 3.5t-25.5 8.5q-7 4 -11.5 8.5t-7.5 12t-4 19.5t-2 31l-1 32v32l-2 52v38l-1 29v36l-1 36l1 54l-1 19l-2 54q-2 31 1 41.5t9 17.5q14 16 47 16h13l8 -1q9 0 12 4t3 12q0 12 -9 12h-22h-2h-15h-35h-19h-27h-29l-17 2q-5 0 -7 -2.5
t-6 -8.5l-10 -25l-29 -62l-32 -63l-16 -36l-28 -57l-26 -56l-32 -61l-29 -63q-2 -9 -7 -14.5t-7 -5.5q-5 0 -8.5 6t-8.5 17l-13 26l-23 55l-20 47l-16 34l-25 53l-19 42l-21 45l-32 70l-23 50q-4 8 -6.5 10t-10.5 2h-20h-42h-9l-26 1l-36 2l-32 1q-22 0 -22 -13q0 -9 3 -13
t15 -5l26 -2q18 -2 31.5 -7.5t27.5 -17.5q6 -4 9 -7.5t4.5 -8.5t1.5 -14v-24v-48l-3 -66l-3 -57l-3 -45l-5 -50l-2 -69q-1 -23 -5 -50t-8 -38q-10 -29 -49 -33q-20 -2 -31.5 -3t-17 -3.5t-6.5 -6t-1 -10.5q0 -13 16 -13l11 3h31l32 1l50 1q20 1 39 0t28 -2l21 -4q17 0 17 14
q0 11 -3 13t-15 3q-44 4 -57.5 13t-13.5 35v46l3 24v24l3 64l4 88l1 101q0 22 4 35.5t9 13.5q2 0 11 -22l27 -49l25 -63l26 -53l17 -36l22 -53l20 -46l17.5 -40.5l14.5 -33.5l16 -43l10 -31q5 -15 12 -15q8 0 11 2t5 13l12 30l15 31l29 62l36 75l9 21l25 54l33 73l13 29
l16 28l22 44l20 36l8 15q4 0 5.5 -10t1.5 -23v-51l1 -36l3 -35l-3 -48l3 -46v-59l1 -37v-69q0 -11 -0.5 -18t-1.5 -11.5t-4 -8t-7 -7.5q-8 -5 -18 -8t-27 -5h-10q-20 0 -20 -14q0 -16 16 -16h11l27 1l42 4l39 1h5h4h15q10 0 25 -1q12 -1 20.5 -1.5t13.5 -2.5l38 -2q6 0 11 4
t5 10z" />
    <glyph glyph-name="N" unicode="N" horiz-adv-x="870" 
d="M841 578q0 13 -4.5 16.5t-16.5 3.5h-26l-38 -2l-37 -1h-9q-5 0 -15.5 1.5t-33.5 1.5h-25h-18q-20 0 -20 -12q0 -11 5.5 -14.5t20.5 -2.5q44 1 59.5 -17t14.5 -68l-1 -51l1 -66l-1 -50l1 -84v-61v-21l2 -12q0 -2 -2 -5t-4 -3q-4 0 -10.5 5t-11.5 13l-22 21l-48 53l-42 43
l-48 46q-13 13 -34.5 36.5l-53.5 60.5l-10.5 12l-8.5 9.5t-9 9.5l-12 12l-55 57l-60 60l-16 17q-5 7 -8 8.5t-12 1.5l-17 2h-42l-67 2h-11h-16h-9h-9h-7q-19 0 -19 -10q0 -12 4 -15.5t27 -4.5q10 0 17.5 -1t15 -4t17.5 -9t25 -16q7 -5 10.5 -8.5t5.5 -9t2.5 -14.5t0.5 -24
v-35q0 -27 1.5 -46t1.5 -33v-20l-1 -36l1 -60l-1 -48v-54l-2 -34v-32q0 -30 -16.5 -42.5t-60.5 -14.5q-13 0 -15.5 -3t-2.5 -12q0 -11 6 -13t26 -2t33.5 0.5t36.5 0.5h28h32l29 -1h18h14q11 0 13.5 3t2.5 14q0 12 -16 12h-18q-30 0 -50 18q-9 8 -12 17t-3 31v42v3v34v37v25
v12v112l-2 67v37v6q0 17 1.5 22.5t4.5 5.5q1 0 7.5 -5.5l12.5 -10.5l34 -37l18 -18l28 -29l52 -50l83 -83l58 -61l49 -47l46 -50l33 -33l31 -31l16.5 -17l12.5 -13t11 -12l12 -14q4 -6 6.5 -7.5t7.5 -1.5q11 0 13.5 1.5t2.5 9.5l-1 29q-1 27 -2 51t-1 47v17v42l-1 59v32v66
l-2 42l2 40v24l1 39l2 40q2 29 14 40.5t44 11.5h9h7q25 0 25 10z" />
    <glyph glyph-name="O" unicode="O" horiz-adv-x="811" 
d="M780 311q0 63 -29.5 117.5t-80 95.5t-117.5 64.5t-143 23.5q-113 0 -198 -47t-142 -138q-18 -29 -27.5 -63t-12.5 -86q3 -34 9 -60.5t18.5 -50t32 -46.5t49.5 -50q48 -44 113.5 -67t138.5 -23q40 0 80 8.5t88 27.5q45 18 79.5 43.5t69.5 69.5q37 45 55 86.5t17 94.5z
M678 268q0 -49 -22.5 -99t-59.5 -85q-15 -14 -36 -26t-45.5 -20.5t-51 -13.5t-53.5 -5q-91 0 -156 53q-33 27 -55.5 53t-36.5 57.5t-20 70.5t-6 90q0 57 16.5 94t51.5 72q37 35 86 54t100 19q69 0 129 -30t99 -85q32 -44 46 -92t14 -107z" />
    <glyph glyph-name="P" unicode="P" horiz-adv-x="570" 
d="M552 416q0 41 -20.5 76t-56.5 60t-86 39t-109 14h-12l-30 -1h-35l-46 -5l-41 -1q-6 -2 -21 -3t-28 -3l-15 -2q-11 -2 -14 -5t-3 -10q0 -14 13 -13l19 1l28 1q23 2 35 -12q3 -4 4.5 -7.5t2 -9.5t1 -16t0.5 -28v-37l1 -32v-21l3 -96l-3 -91l3 -46v-54q0 -27 -3 -43.5
t-11 -26.5t-23.5 -14t-39.5 -6q-20 -2 -25 -4.5t-5 -12.5q0 -13 14 -13h7l30 1l42 4q16 2 29 1.5t33 -0.5h43l36 -1l41 -1q13 0 13 9q0 17 -16 17h-17q-36 0 -51 16t-15 51v41l2 40v49l2 62l-4 97v17v21v37v39q0 25 1.5 39.5t6.5 22.5t13.5 10.5t23.5 2.5h7h10
q78 0 121.5 -40t43.5 -110q0 -59 -31.5 -94.5t-87.5 -38.5l-14 -3h-20q-4 0 -7.5 -2t-3.5 -7q0 -16 23 -16l38 -1q2 0 7 0.5t12 1.5q17 2 26.5 3.5t14.5 2.5q23 5 43 12.5t36 20.5q31 25 48 55.5t17 62.5z" />
    <glyph glyph-name="Q" unicode="Q" horiz-adv-x="811" 
d="M780 314q0 13 -1.5 24t-6.5 27q-6 22 -13 39t-15 31.5t-18.5 28.5t-25.5 30q-51 57 -126 87.5t-161 30.5q-82 0 -152.5 -25t-121.5 -71q-51 -47 -78.5 -100t-29.5 -112l-1 -23q-2 -58 24.5 -107.5t82.5 -100.5q20 -19 47.5 -35.5t58.5 -28.5t62.5 -18.5t59.5 -6.5h9
q21 0 32 -8.5t25 -35.5l6 -12q14 -29 44 -56t69 -46q24 -11 64.5 -19.5t81.5 -8.5q12 0 28.5 1.5t31.5 3.5q10 2 14.5 4.5t4.5 10.5l-3 8l-3 7l-7 1h-6h-13l-29 2q-32 2 -57 7.5t-45 16.5t-36 28t-30 42l-8 18l-8 10l-18 28l-6 8q0 4 7 7t33 12q25 9 46.5 20t40.5 24.5
t37 31t37 39.5q36 42 54.5 90t18.5 96zM677 276q0 -23 -3 -42.5t-9.5 -38.5t-17 -38.5t-25.5 -41.5q-15 -21 -38 -38.5t-50.5 -30t-59 -19.5t-64.5 -7q-17 0 -36 3t-37.5 8t-35.5 12.5t-29 15.5q-103 72 -127 176q-5 23 -7 45t-2 43q0 62 13 102t45 74q38 40 88 61.5
t104 21.5q57 0 108.5 -20t89.5 -56q10 -9 21 -23t21 -29.5t18.5 -31.5t13.5 -31q4 -11 7.5 -25.5t6 -30t4 -31t1.5 -28.5z" />
    <glyph glyph-name="R" unicode="R" horiz-adv-x="676" 
d="M678 14q0 5 -5.5 7.5t-22.5 4.5q-11 1 -18 2.5t-12 3t-9.5 4.5l-11.5 8q-14 11 -34 31.5t-37 46.5l-22 32l-25 38l-30 43q-5 8 -12.5 17.5t-18.5 21.5l-14.5 16t-10.5 10l-13 12q0 3 8 5.5t20 7.5q24 6 45 19t37 29.5t25 36t9 39.5q0 31 -21.5 63t-52.5 52
q-28 17 -63 24.5t-85 7.5h-14h-24l-30 -1h-7l-33 1h-30l-41 2h-34h-36h-6q-11 0 -15 -3t-4 -12q0 -10 7 -12t35 -2q22 0 35 -2.5t20 -9t9 -19t2 -33.5v-36v-67l-1 -49l-1 -17l1 -34l1 -21l-1 -24v-46l-1 -51v-33l-2 -26v-34q0 -19 -17 -30t-47 -13q-27 -2 -33.5 -3.5
t-6.5 -12.5q0 -14 18 -14l34 4q19 2 43 2h42h6h7h19l36 -2l27 -3h18h22q11 2 14 4t3 9q0 8 -2 11t-10 3h-19q-10 0 -22 1.5t-21 5.5q-12 5 -17 12t-5 23v36l-1 50l1 32l-1 51v31v29q0 6 4 7.5t26 1.5q26 0 50 -13t44 -42l21 -31l21 -28l39 -66l13 -15l26 -37
q11 -16 26.5 -34t28.5 -30q8 -6 12.5 -9t13.5 -2l35 3l24 1h28h15h18q7 0 9 3t2 12zM432 446q0 -29 -14.5 -54.5t-38.5 -39.5q-20 -11 -51 -16.5t-84 -5.5q-15 0 -18.5 4t-3.5 18l1 46v33v15v17v46v25q0 21 14 28.5t49 7.5q32 0 53 -5.5t38 -17.5q26 -20 40.5 -46t14.5 -55z
" />
    <glyph glyph-name="S" unicode="S" horiz-adv-x="510" 
d="M452 170q0 57 -35.5 96.5t-116.5 74.5q-53 23 -79 37t-40 26q-20 17 -29 35.5t-9 41.5q0 20 9.5 38t25.5 31t37.5 20.5t46.5 7.5q38 0 69.5 -20.5t41.5 -52.5l7 -23q3 -9 7.5 -11.5t15.5 -2.5q13 0 13 14l-1 10l-2 20l-1 18l-2 18l-1 21q0 6 -1 10t-5 6.5t-11 5t-20 5.5
q-14 3 -24.5 6t-22 4.5t-25 2.5t-31.5 1t-32.5 -2.5t-32.5 -7.5q-15 -4 -26.5 -8t-21.5 -9t-19.5 -11.5t-20.5 -15.5q-28 -24 -39.5 -51.5t-11.5 -67.5q0 -24 4.5 -41.5t16 -32.5t31.5 -29t50 -30l56 -30l49 -23q17 -8 34 -20.5t30 -26.5q17 -17 23 -32.5t6 -39.5t-10 -45
t-27.5 -36.5t-41 -24.5t-50.5 -9q-48 0 -86.5 24t-53.5 62q-8 20 -10.5 24.5t-8.5 4.5q-8 0 -13.5 -4.5t-5.5 -9.5l2 -20q2 -9 3 -14.5t1.5 -10.5l1 -10.5t1.5 -14.5l4 -19q0 -10 5 -13.5t31 -10.5q26 -8 59 -14.5t60 -6.5q45 0 84.5 13t77.5 39q33 23 48.5 55t15.5 79z" />
    <glyph glyph-name="T" unicode="T" horiz-adv-x="631" 
d="M626 625q0 15 -26 15q-2 0 -11 -11q-11 -18 -30 -25.5t-60 -7.5h-33l-58 -3h-32h-40h-40l-27 2h-34h-33h-41h-18h-40q-7 0 -16.5 5.5t-14.5 12.5q-9 11 -15 16t-14 5q-19 0 -19 -20v-12l2 -12l-2 -13l-1 -24q0 -11 -1 -18t-1.5 -13.5t-2 -15t-2.5 -22.5l-2 -10
q3 -13 22 -13q8 0 11.5 4.5t7.5 15.5q8 34 27 52.5t46 20.5q16 1 25.5 2t10.5 1h36l33 2l19 -2h14q14 -2 14 -19l-2 -20l2 -36v-55v-48v-49v-4v-13v-12t0.5 -16.5t0.5 -24.5l1 -39v-5v-2l-1 -57l1 -37l-2 -35q-1 -18 -5.5 -29t-14 -18t-26 -10t-41.5 -5q-14 -1 -19.5 -4
t-5.5 -11q0 -15 22 -15l40 1l41 4l43 2h30h30l39 -1l33 -1h8h6q18 0 18 14q0 8 -4.5 10t-21.5 4l-20 2q-21 2 -34 6.5t-20 15.5t-9.5 30.5t-1.5 50.5l1 35l-1 51v64l-1 74v54v13l1 29v17v24v11l-1 24l-1 18q0 5 3 10t6 5l46 -1h11h7h47q23 0 37.5 -1.5t23 -6.5t12.5 -13.5
t6 -21.5q1 -8 2.5 -10.5t1.5 -3.5l-2 -27q0 -8 26 -8q6 0 9 2.5t4 12.5l2 27l4 30l2 13l4 22l2 19l6 25z" />
    <glyph glyph-name="U" unicode="U" horiz-adv-x="811" 
d="M779 581q0 8 -3.5 11t-14.5 3h-29t-35 -2h-26h-36l-40 2h-24l-7 1q-19 0 -19 -13q0 -7 3 -10.5t12 -3.5q25 -3 40 -6t22.5 -9t9.5 -17.5t2 -30.5l1 -74v-89v-86q0 -61 -12.5 -104.5t-39.5 -71t-68.5 -40.5t-99.5 -13q-51 0 -92.5 14t-64.5 40q-20 21 -27.5 47.5
t-9.5 70.5l-4 72l1 83l-2 60l1 37v42q0 20 1 24t3 8q1 7 3 13.5t8 8.5q10 9 24 12.5t39 5.5q16 2 22 4.5t6 10.5q0 9 -4.5 12t-16.5 3h-21l-24 -1q-21 -1 -40 -3t-39 -2q-11 0 -18.5 1t-17 2.5t-23 2.5t-37.5 2l-33 1q-19 0 -19 -15q0 -11 16 -13l27 -2q16 -1 26.5 -5
t16.5 -12.5t8.5 -21.5t3.5 -33l2 -60v-63v-55v-69l-2 -51v-14q0 -104 65 -151q35 -26 90.5 -41.5t119.5 -15.5q43 0 77 7t67 21q19 8 32.5 14.5t23.5 14t18 16.5t17 23q10 16 17.5 31t12 32.5t6.5 39t3 50.5q1 19 1 30v15l-1 31l1 39v89v54l1 37q1 25 15.5 35.5t49.5 9.5
q22 -1 28.5 2t6.5 13z" />
    <glyph glyph-name="V" unicode="V" horiz-adv-x="676" 
d="M672 575q0 11 -2.5 15.5t-13.5 4.5l-16 -2l-38 -3h-4h-5l-30 2h-24l-51 3h-20q-16 0 -16 -18q0 -14 22 -14q68 0 68 -24q0 -8 -3.5 -18.5t-11.5 -32.5l-10 -28l-11 -29l-16 -40l-22 -53l-12 -22l-18 -48l-34 -74l-13 -31l-7 -18q-7 -18 -11 -18q-10 0 -14 17l-11 23
l-16 35l-14 30l-25 51l-19 49l-15 34l-7 16l-7 15l-13 28l-18 48l-20 41l-6 18l-3 14q0 11 11 15t42 5q27 1 27 12q0 17 -15 17h-11h-17l-30 -2l-35 -1q-15 -1 -23.5 -1.5t-23.5 -0.5q-18 0 -35.5 0.5t-32.5 2.5l-22 3h-6q-13 0 -13 -13q0 -7 3.5 -12t8.5 -5h17
q23 -2 37 -11t25 -32l16 -32l26 -53l16 -36l20 -43l10 -21l20 -48l8 -15l9 -25l21 -44l21 -45l10 -27l33 -68q12 -24 19 -40t13 -34q3 -7 5.5 -9t8.5 -2q8 0 11 2.5t7 10.5l7 25l10 22l21 53l21 50l26 62l10 20l13 26l7 22l18 36l21 44l12 26l8 21l8 19l12 24l17 43l12 25
l9 21q14 31 51 31q14 2 18.5 4t4.5 7z" />
    <glyph glyph-name="W" unicode="W" horiz-adv-x="944" 
d="M938 578q0 11 -2.5 14t-12.5 3l-15 -2h-22h-17h-11h-29q-8 0 -14.5 1t-10.5 1h-24q-16 0 -16 -11q0 -10 4.5 -13t18.5 -7q14 -2 21.5 -9.5t7.5 -15.5q0 -5 -2 -15t-10 -27l-17 -39l-7 -21l-43 -101l-18 -53l-27 -61l-22 -61l-15 -33q-2 -8 -4.5 -11.5t-4.5 -3.5
q-5 0 -15 18l-32 62l-7 17l-26 48l-18 36l-8 25q0 3 4 10t9 19l24 54l15 30l26 55l8 16l19 35.5t13.5 18.5t13.5 7.5t18 1.5q14 1 18.5 3.5t4.5 11.5t-2 12t-11 3l-24 -1l-27 -2h-20h-7h-16h-22l-24 2q-15 1 -15 -12q0 -11 3.5 -14t14.5 -3q35 0 35 -24q0 -11 -9.5 -36
t-26.5 -60l-29 -60q-4 -11 -7.5 -17.5t-7.5 -6.5q-2 0 -5 5t-7 13l-22 45l-17 42l-15 27q-6 14 -12 30.5t-6 23.5q0 20 40 20q11 0 14 2.5t3 12.5q0 12 -15 12l-18 -2h-28h-39l-33 -1h-8l-26 1l-34 2q-22 1 -22 -18q0 -13 25 -13q20 0 36 -17.5t39 -65.5l7 -14l6 -12l7 -14
t10 -19l40 -76l13 -27l12 -25q10 -20 10 -22q0 -7 -10 -25l-23 -47l-7 -14l-27 -54l-11 -22l-6 -4q-6 0 -13 19q-3 9 -10 23l-16 32l-49 96l-7 13l-37 78l-23 47.5l-26 54.5q-19 38 -24.5 53t-5.5 24q0 18 28 18q18 0 18 12q0 11 -3 14t-13 5h-14l-14 -2l-30 -1l-28 -2
l-31 2h-26l-39 1q-19 0 -19 -12q0 -9 3 -13t13 -5q13 -2 22 -5t16 -8.5t13 -14.5t14 -23l13 -24l41 -73l10 -26l23 -45l10 -20l45 -94l28 -52l11 -26l35 -68l27 -65l7 -19q5 -12 6.5 -14.5t8.5 -4.5q6 -1 11 -1h8q5 0 8.5 4t5.5 15q4 17 23 57l36 78l11 24l26 53l9 13l8 -10
l12 -22l22 -40q23 -41 42 -83t30 -71q4 -11 7.5 -13t18.5 -2q12 0 14.5 2t3.5 14q4 15 10.5 36t23.5 61l35 85l24 58l16 42l36 93q7 19 17 41.5l20 43.5l19 39t15 29q19 34 54 37q12 3 15.5 5.5t3.5 8.5z" />
    <glyph glyph-name="X" unicode="X" horiz-adv-x="706" 
d="M704 12q0 17 -22 16q-29 -3 -53.5 10.5t-47.5 40.5l-27 31l-18.5 22l-10.5 13t-7 9.5t-9 12.5l-39 49l-40 50l-27 34q-7 11 -10 14t-3 5l5 10l7 9l17 22l23 28l9 10l33 40l36 43l18 21q17 19 28.5 30t23.5 17t26.5 9t37.5 6l16 2q9 0 12 2.5t3 7.5q0 10 -3.5 13.5
t-16.5 3.5h-30h-15l-24 -1h-27h-23l-44 3h-28q-21 0 -26.5 -2.5t-5.5 -10.5v-8t3 -4.5t9.5 -2t20.5 -1.5q35 -3 35 -21q0 -15 -22 -43l-32 -41l-29 -37l-19 -22l-17 -20l-9 -10l-12 -13.5t-5 -3.5q-8 0 -17 17l-19 23l-24 29l-10 14l-21 24l-9 12l-12 14l-18 22l-12 14
q-6 7 -10 15t-4 13q0 9 19 12l14 2h17l13 2l10 1q6 0 9.5 3t3.5 6q0 20 -19 20h-7l-25 -2h-42l-24 -1l-50 1q-21 0 -33.5 0.5t-20.5 1t-13.5 1t-12.5 0.5q-15 0 -24 -0.5t-13 -2t-5 -4.5t-1 -9q0 -10 4.5 -11t27.5 -3q13 -1 22 -3t17 -7t15.5 -13l18.5 -20l12 -14
q10 -12 16.5 -19t11 -12.5l8.5 -10l9 -10.5l35 -44l14 -14l7 -11l21 -24l15 -19q11 -13 22 -27.5t17 -19.5q9 -9 9 -13q0 -11 -20 -29l-29 -33l-20 -23l-23 -29l-61 -71l-17 -23q-12 -16 -23.5 -26t-25 -16t-30.5 -9.5t-39 -5.5q-18 -1 -18 -15q0 -8 3.5 -11t14.5 -3h9h28
l32 4l20 1l30 1h12h13l33 -1h33l11 -1q14 0 14 10q0 11 -3 16t-12 4l-28 -2q-16 -1 -26.5 5t-10.5 17q0 8 6.5 20.5t23.5 33.5l24 30l18 22l16 20l25 28l11 13l7 8l18 21l4.5 4.5t3.5 2.5q6 0 16 -12l33 -40l32 -39l33 -44l28 -32q11 -13 14.5 -20.5t3.5 -14.5
q0 -11 -14.5 -16t-52.5 -5q-11 -2 -15.5 -4.5t-4.5 -11.5t8.5 -11.5t43.5 -1.5l40 1h36h24h8l42 -1h48h31q12 0 15.5 2t3.5 11z" />
    <glyph glyph-name="Y" unicode="Y" horiz-adv-x="676" 
d="M671 575q0 17 -16 17l-21 -2l-36 -1h-27h-15h-8l-37 1q-1 2 -9 2h-18h-10q-10 0 -13 -3t-3 -13t10 -10h24q21 0 33.5 -6.5t12.5 -17.5q0 -3 -3 -8t-9 -16l-17 -21.5t-15 -18.5l-21 -24l-15 -20l-16 -18l-12 -14l-29 -36q-24 -30 -31 -30q-2 0 -9.5 7t-24.5 29l-31 32
l-39 48l-15 23l-11 12q-26 28 -34.5 42.5t-8.5 22.5q0 14 26 14l19 2h11q23 0 23 10q0 11 -4.5 14.5t-18.5 3.5h-5q-2 0 -4 -1h-28l-38 -2h-26h-30l-33 2l-33 3h-27q-5 1 -9 1q-18 0 -18 -11t6.5 -14.5t27.5 -3.5q23 0 40.5 -13.5t47.5 -51.5l37 -47l25 -32l17 -20l42 -51
l24 -31l11 -16l14 -20q3 -5 4.5 -10t1.5 -16v-22v-12v-26v-14v-20l1 -17v-15v-21q0 -33 -6 -54t-17 -26q-22 -11 -60 -11q-16 0 -20.5 -3t-4.5 -14q0 -13 18 -13l31 4l30 1l30 1h17h17h20q10 0 26 -1l15 -1h33h28l17 -3q12 0 12 11q0 6 -1 9.5t-4.5 5t-10.5 2t-19 1.5
q-38 2 -53.5 14.5t-15.5 41.5v14v62l1 29v8v9v8v6l-1 29q-1 17 0.5 28.5t6.5 22t13.5 22t21.5 26.5l26 30l10 12l37 45l36 39l30 36l18 21l13 14q12 13 25 18t34 5q17 0 17 11z" />
    <glyph glyph-name="Z" unicode="Z" horiz-adv-x="631" 
d="M604 127q0 4 -7.5 7.5t-18.5 3.5q-7 0 -21 -17q-18 -28 -33 -45t-34.5 -26t-46.5 -11.5t-70 -2.5h-71h-58l-52 1l-10 -1q-3 0 -6.5 3t-3.5 5q0 5 2.5 10.5t10.5 10.5l26 37l58 72l48 61l38 46l58 73l32 37l59 70l58 71l22 27l10.5 13.5t4.5 8.5q0 9 -18 9h-28h-49h-60
h-26h-20l-61 2l-72 1h-57q-31 0 -54 8.5t-33 22.5q-5 8 -7 9t-7 1q-8 0 -12.5 -1t-7.5 -4t-5 -10t-5 -19l-9 -32.5l-10 -33.5t-9.5 -28.5t-6.5 -18.5l-1 -7q0 -5 5 -9t13 -4l8 -1q5 0 19 21q15 24 26.5 37.5t24 21t29.5 9.5t44 2h48l37 -1h5h2l32 1l24 -1h44h18h24q2 0 4 -1
t6 -2q2 -1 4 -3t2 -3l-4 -6l-19 -24l-28 -37l-47 -56l-24 -33l-14 -18l-14 -15l-53 -69l-49 -60l-35 -43l-39 -44l-20 -26l-16 -20l-32 -40l-24 -27q-10 -9 -13 -13t-3 -9q0 -8 10 -8l46 1l36 -1l48 1h27h65l94 -1h52h4h1h60h21l33 -1l24 -3q11 0 16.5 5t7.5 19l7 23
q6 14 12.5 32t8.5 29l3 15z" />
    <glyph glyph-name="bracketleft" unicode="[" horiz-adv-x="302" 
d="M479 625h-188l-243 -854h186l5 20h-164l233 815h166z" />
    <glyph glyph-name="backslash" unicode="\" horiz-adv-x="510" 
d="M484 -18l-404 832h-54l405 -832h53z" />
    <glyph glyph-name="bracketright" unicode="]" horiz-adv-x="302" 
d="M323 625h-187l-5 -20h164l-229 -816h-165l-5 -19h188z" />
    <glyph glyph-name="asciicircum" unicode="^" horiz-adv-x="422" 
d="M460 327l-208 350h-14l-211 -350h46l171 287l171 -287h45z" />
    <glyph glyph-name="underscore" unicode="_" horiz-adv-x="500" 
d="M508 -216v41h-516v-41h516z" />
    <glyph glyph-name="grave" unicode="`" 
d="M402 471l-70 144h-91l145 -144h16z" />
    <glyph glyph-name="a" unicode="a" horiz-adv-x="406" 
d="M412 379l-1 7q-7 3 -10.5 3.5t-9.5 0.5h-9q-3 0 -11 -1l-6 -6q-3 -1 -8 -15q-1 -2 -2 -4.5t-3 -6.5q-21 9 -44.5 7t-45 -8.5t-38.5 -16t-26 -15.5q-2 -2 -7.5 -5t-11.5 -8q-6 -4 -11.5 -8.5l-10.5 -8.5l-9 -8l-18 -16q-8 -6 -29 -32l-28.5 -37t-17.5 -28
q-37 -82 -37 -129q0 -24 10 -41t28 -17h9h9l24 4l13 4l32 16q15 8 38.5 28.5t45.5 45.5l21 24q13 14 23 29l-14 -31l-9 -23l-8 -17l-13 -34q-2 -8 -3.5 -16.5t0 -15t7 -11t18.5 -4.5q21 0 50 18.5t55 47.5l31 35l8 10l-7 7t-9 7l-7 -9l-8 -9l-14 -15l-29 -27
q-8 -8 -14.5 -12l-18.5 -11l-3 2l127 339zM327 304q0 -8 -2 -12l-4 -22l-14 -34l-10 -21q-12 -26 -32 -52t-46 -52l-41 -41l-21 -15q-11 -8 -19 -13q-4 -2 -8 -3t-9 -3l-9 -1h-9q-10 0 -16.5 8.5t-6.5 22.5q0 20 12.5 52.5t31.5 62.5l19 33l20 26l28 34q10 12 23.5 22.5
t27.5 18.5t28 13t25 5q15 0 23.5 -8t8.5 -21z" />
    <glyph glyph-name="b" unicode="b" horiz-adv-x="406" 
d="M432 330q0 32 -16 53.5t-40 21.5q-28 0 -62.5 -24.5t-66.5 -66.5l-13 -17l-23 -27l-53 -73l142 453l-73 -4l-18 -1l-14 -1l-18 -2l-1 -20h11q11 0 21 -2.5t15 -5.5q8 -9 7 -17t-6 -24l-131 -405l-19 -68q-4 -14 -7 -32.5t-3 -28.5q0 -26 17.5 -41t46.5 -15q14 0 31.5 5
t41.5 16l18 8q44 20 83 55t68 78.5t45.5 91.5t16.5 93zM380 329q0 -17 -8 -43.5t-26 -62.5q-20 -42 -36.5 -67.5t-34.5 -46.5q-9 -11 -26 -29l-21 -21.5t-25.5 -23.5t-27.5 -18.5t-27 -7.5q-12 0 -21 9t-9 22q0 15 5 34.5t13.5 41t20 42.5t24.5 38l18 24q37 49 63 77
t43.5 42t28 17.5t16.5 3.5q30 0 30 -31z" />
    <glyph glyph-name="c" unicode="c" horiz-adv-x="271" 
d="M337 341q0 25 -16.5 43.5t-39.5 18.5q-25 0 -56 -18q-15 -9 -25 -16t-20 -16.5t-21 -24l-28 -36.5q-28 -37 -45 -71t-26 -62.5t-12 -50.5t-3 -35q0 -87 55 -87q30 0 64.5 27t62.5 72l25 42l2 8h-12q-4 0 -6 -1q-2 0 -4 -0.5t-5 -0.5q-29 -46 -56 -71t-44 -25
q-11 0 -15.5 6.5t-4.5 29.5q0 25 7.5 56t18.5 61.5t23.5 57t21.5 42.5q21 37 39.5 55.5t32.5 18.5q9 0 14 -9t8 -16q1 -6 3 -9q3 -6 6 -10t11 -10q25 -8 35 4t10 27z" />
    <glyph glyph-name="d" unicode="d" horiz-adv-x="406" 
d="M514 657q-5 1 -6.5 1.5t-3.5 0.5q-2 1 -7 1l-7 -1q-9 -4 -16 -6t-16 -3t-23.5 -1.5t-38.5 -0.5h-17l-6 -19l14 -4q26 -7 37 -13t11 -13q0 -10 -10 -40l-63 -205q-12 17 -25.5 23.5t-32.5 6.5q-20 0 -42.5 -8.5t-45.5 -24t-45 -37t-41 -47.5q-12 -16 -28 -43.5l-30 -52.5
q-15 -29 -22.5 -58.5t-7.5 -56.5q0 -38 11.5 -58.5t36.5 -20.5q32 0 77 31.5t94 84.5l30 32l-28 -93l-5 -19q-3 -12 -3 -22l4 -12q10 -2 14 -2q8 0 25 9.5t33 21.5q21 17 46 43.5t44 54.5q-5 5 -7 7.5t-10 5.5l-28 -32q-9 -11 -16 -17.5t-12 -10.5l-18 -16q-4 -2 -5.5 -3.5
t-3.5 -2.5l-2 -1l148 475l13 37l16 50l11 33q0 1 2 5q0 2 2 8zM347 309q0 -2 -2 -11.5t-7 -25.5l-8 -25q-11 -35 -29 -66.5t-47 -64.5q-36 -41 -65 -62t-47 -21q-17 0 -26.5 10.5t-9.5 30.5q0 7 1 10t2 6.5l3 10.5l6 21q2 7 8.5 21l15 31t18.5 34t19 30l23 35q10 15 24 29.5
t29.5 25.5t31 17.5t28.5 6.5q7 0 13 -5t10 -11.5t6.5 -14t2.5 -12.5z" />
    <glyph glyph-name="e" unicode="e" horiz-adv-x="292" 
d="M318 325q0 30 -18 51.5t-45 21.5q-21 0 -45 -12.5t-40 -30.5l-13 -15l-15 -16l-29 -42l-13 -20t-15 -27q-8 -15 -13 -27.5t-8 -21.5q-7 -22 -12 -48.5t-5 -43.5q0 -51 19.5 -82t53.5 -31q26 0 54 17.5t53 49.5q16 20 26.5 39t15.5 39q-8 2 -11 2h-6h-8q-7 -19 -15 -32.5
t-19 -27.5l-10 -12q-12 -14 -27.5 -24t-27.5 -10q-15 0 -25 12.5t-13.5 33t-0.5 48t14 57.5l53 12l31 9q17 5 24 8t16 10l17 12l13 6q2 2 5.5 6t7.5 10q9 11 13.5 17.5t7.5 13.5q10 23 10 48zM277 347q0 -20 -6.5 -39.5t-18.5 -34.5l-10 -12t-10 -11q-8 -7 -16 -11.5
l-17 -9.5q-8 -6 -19 -10.5t-21 -8t-18 -5.5t-11 -2l2 6l25 56q10 22 23 42.5t26.5 36t25.5 24.5t21 9q10 0 17 -8.5t7 -21.5z" />
    <glyph glyph-name="f" unicode="f" horiz-adv-x="219" 
d="M446 592q0 22 -21.5 37.5t-51.5 15.5q-24 0 -49 -12.5t-44 -34.5q-36 -41 -49 -68q-18 -37 -31 -74l-26 -76l-68 -3q-8 0 -12 -0.5l-12 -1.5q-2 -9 -2.5 -14t-1.5 -16l79 2l6 -1l-121 -409q-17 -57 -34.5 -90t-38.5 -56q-18 -14 -27.5 -18t-21.5 -4q-8 0 -12 2t-12 9
l-5 9l-9 15q-8 14 -21.5 15.5t-22.5 -3.5q-15 -11 -15 -30q0 -23 20.5 -34t55.5 -11q38 0 66 14.5t57 50.5q10 12 22.5 29t19.5 30q7 12 15 29.5t15.5 36l14.5 37.5t12 36l26 87l2 11l9 24q2 4 3 9t3 12l9 31l19 64l20 74l7 21l2 8l80 3q4 13 4 20v11l-22 1l-41 -1l-11 1
l1 5l25 88q18 65 45.5 104t50.5 39q20 0 23 -15l3 -12q3 -13 14.5 -22t24.5 -9q11 0 19.5 10t8.5 24z" />
    <glyph glyph-name="g" unicode="g" horiz-adv-x="323" 
d="M384 361l-1 24q-12 2 -16.5 1.5t-8.5 -0.5l-12 -2q-14 -2 -27 0.5t-18 4.5l-10 5q-8 4 -24.5 6.5t-22.5 2.5q-42 0 -73.5 -21.5t-52.5 -52.5t-31 -65.5t-10 -60.5q0 -23 7 -44t10 -24l35 -39l-48 -29q-3 -3 -12 -6q-19 -8 -29.5 -20t7.5 -30q3 -5 10 -9l15 -14l14 -11
l-5 -2q-55 -22 -89.5 -38.5t-54 -30t-26.5 -25.5t-7 -25q0 -23 31 -51q10 -9 27.5 -18t37 -16.5t40 -12t37.5 -5.5l53 -2h20h13l30 3q63 6 102 33.5t39 69.5q0 81 -117 121l-27 9l-25 11l-31 17q-14 10 -19.5 17.5t-5.5 15.5t14.5 18.5t34.5 14.5l22 4q30 5 57.5 26
t48.5 50.5t33.5 64.5t12.5 69q0 20 -2.5 33t-8.5 29l3 -1l14 -4q8 -2 13.5 -3l10.5 -2h8q4 0 9 1q4 5 4.5 7t0.5 6zM282 326q0 -32 -12 -71.5t-34 -79.5q-10 -18 -17.5 -29.5t-15.5 -18.5t-17.5 -10.5t-21.5 -5.5q-18 3 -29 17t-11 35q0 29 23 94q23 66 44 93t46 27
q21 0 33 -13t12 -38zM287 -159q0 -11 -3 -18t-12 -13q-27 -18 -59 -27.5t-70 -7.5l-49 2l-11 1q-6 2 -9 2t-9 2q-7 2 -13.5 3.5t-13.5 3.5q-6 2 -11 3.5t-9 4.5l-11 6l-6 3l-22 16q-14 15 -14 35q0 8 3 16.5t6 10.5l10 8l6 6q6 6 32 20l26 15.5t21 11t19.5 8t22.5 7.5
l82 -32q46 -17 70 -40t24 -47z" />
    <glyph glyph-name="h" unicode="h" horiz-adv-x="417" 
d="M425 310q0 42 -16 67t-47 25q-15 0 -32.5 -6.5t-38.5 -23t-45.5 -44.5t-53.5 -71l-21 -30l34 92l14 35l21 56l33 100l11 28l23 67l13 33l4 14h-23q-8 0 -16.5 -1t-18.5 -2l-67 -6l-2 -15q12 -5 18 -7t19 -4q8 -2 11.5 -5.5t-2.5 -20.5l-163 -465l-45 -111q-3 -8 -3 -15
q0 -20 23 -20q12 0 18 6.5t13 20.5l47 105l12 27q9 20 22 42.5t39 55.5l39 51q14 18 29 34t29 28t25.5 18.5t18.5 6.5q23 0 24.5 -32t-10.5 -80q-6 -23 -13.5 -46.5l-15 -45t-15 -39.5t-12.5 -29l-15 -33q-11 -25 -23.5 -40.5t-19.5 -15.5q-4 0 -12 7l-5 7q-8 11 -13.5 16
t-15.5 5q-20 0 -27.5 -11t-4.5 -23.5t15.5 -23.5t30.5 -11q63 0 129 93q16 22 30.5 53t26 63.5t18 64t6.5 56.5z" />
    <glyph glyph-name="i" unicode="i" horiz-adv-x="229" 
d="M313 583q0 17 -12.5 29.5t-29.5 12.5q-21 0 -35 -13.5t-14 -34.5v-3q2 -17 13 -28t28 -11q23 0 36.5 12.5t13.5 35.5zM269 378q0 23 -27 23q-5 0 -11 -1t-11 -3l-19 -8q-2 0 -4.5 -1.5t-4.5 -2.5l-22 -13l-17 -11q-17 -11 -36.5 -33t-35.5 -43l37 8q14 17 31.5 32
t25.5 20l17 9l12 1l2 -6q0 -2 -1 -3q0 -1 -2 -7l-96 -184q-29 -56 -42 -89t-13 -53q0 -14 9 -21t23 -7q18 0 39.5 10.5t42.5 29t40.5 43.5t34.5 54h-27q-5 -10 -7 -13t-4 -5l-11 -14l-6 -7q-5 -6 -13.5 -14.5t-18.5 -17t-19.5 -14t-17.5 -5.5q-3 0 -4 2t1 10q2 7 5.5 14.5
l7.5 15.5l27 52l18 30l19 36l10 21l13 25l28 59q13 28 20 48t7 33z" />
    <glyph glyph-name="j" unicode="j" horiz-adv-x="208" 
d="M288 573q0 15 -8.5 25.5t-22.5 10.5q-19 0 -32.5 -12t-13.5 -30q0 -14 11 -23t25 -9q19 0 30 10t11 28zM240 392q0 8 -10 17q-50 0 -102 -48q-17 -16 -37 -38t-34 -41q5 -5 8.5 -7.5t9.5 -5.5q17 22 35 40.5t27 25.5q1 1 4.5 3.5t8.5 5.5q10 8 15 8q8 0 7 -15
q-1 -8 -4 -17.5t-7 -18.5l-125 -299l-13 -29l-18 -44l-21 -44l-16 -28q-14 -27 -28.5 -44t-43.5 -29q-11 -3 -16 -4t-14 -1h-2q-9 5 -10 10l-4 14q-3 11 -13 19.5t-20 8.5q-5 0 -17 -3q-11 -7 -15.5 -13.5t-4.5 -17.5q0 -21 20.5 -33.5t50.5 -12.5t58.5 9.5t49.5 26.5
q24 19 42.5 42t33 47t24.5 46t17 39l140 334q5 13 9.5 27t7.5 27t5 24.5t2 18.5z" />
    <glyph glyph-name="k" unicode="k" horiz-adv-x="521" 
d="M515 41q0 52 -55 62q-21 0 -33.5 -9t-12.5 -25q0 -18 16.5 -23.5t30.5 -0.5l17 7h1q11 0 11 -11q0 -16 -17.5 -28.5t-41.5 -12.5q-29 0 -61.5 23.5t-58.5 64.5l-21 33l-15 24t-10.5 19.5t-7.5 19t-6 22.5q41 -5 71.5 -5.5t52.5 3t37.5 9t27.5 12.5q32 18 52.5 46.5
t20.5 56.5q0 30 -23.5 49.5t-58.5 19.5q-31 0 -65 -15.5t-69 -47.5l-20 -18l-33.5 -31t-33.5 -30l169 380l4 13h-22l-10 -2l-34 -8q-14 -3 -28.5 -4t-31.5 -1h-12l-6 -18l11 -4l19 -5q16 -4 16 -20q0 -14 -4 -23l-218 -489l-13 -28l-11 -23q-10 -20 -10 -26l4 -12
q29 -9 39 -2t18 23l97 197l2 3l17 -47.5t18.5 -42t24 -39.5t33.5 -40q57 -63 148 -63q35 0 60 19t25 48zM486 328q0 -20 -16 -37.5t-44 -30.5t-66.5 -20.5t-84.5 -7.5q-11 0 -20 1.5t-23 5.5q16 14 40 32.5t41 28.5q35 21 74 33.5t69 12.5q15 0 22.5 -5t7.5 -13z" />
    <glyph glyph-name="l" unicode="l" horiz-adv-x="219" 
d="M338 643v10h-26l-92 -5l-1 -18q30 -8 39 -13.5t9 -13.5l-223 -556q-4 -11 -8 -24t-4 -19q0 -20 21 -20q11 0 25.5 5t30 12.5t29.5 17.5t25 21l29 29q9 9 22 27t23 35l-12 2q-4 0 -6 -1q-2 0 -4 -0.5t-6 -0.5q-27 -41 -56 -66.5t-49 -29.5l-1 2q0 2 5 14l5 12t6 15
l202 513z" />
    <glyph glyph-name="m" unicode="m" horiz-adv-x="625" 
d="M653 362q0 15 -8.5 25t-22.5 10q-15 0 -35 -8t-41 -22t-42 -33t-39 -41l-8 -10l-14 -14l-51 -56l-17 -22l17 32q22 42 35.5 74t18.5 55q9 47 -30 47q-26 0 -49.5 -12t-55.5 -40l-13 -11l-23 -24l-21 -23l-11 -13l-23 -25l-25 -29l-5 -6l55 110l11 27q2 4 3 7l2 6
q2 8 2 10q0 10 -9 16.5t-20 6.5q-10 0 -22.5 -5.5t-25 -12.5t-22.5 -14.5t-14 -11.5l-25 -23q-11 -10 -17.5 -17t-11.5 -13.5t-10 -14t-11 -17.5q10 -2 13 -2q4 0 12 -1l7 8l7 10q9 11 43 42q11 11 21 17t15 6l4 -1l-139 -277l-22 -42l-7 -13q-8 -11 -8 -20l3 -9
q10 -4 18 -3.5t19 1.5q5 5 9 8.5t8 8.5q1 2 5 6q4 8 5.5 12t6.5 11l27 47l2 5l5 7l16.5 26l17 25l15 21l9.5 13l20 23l5 7q2 2 3.5 4t3.5 4q3 4 12 13l22 24q55 59 81.5 82t40.5 23q3 0 6.5 -4t3.5 -12q0 -6 -1 -13t-7 -20.5t-17.5 -36.5t-32.5 -60l-99 -177l-16 -25
q-4 -6 -4 -10t-1 -11q9 -3 15 -3q12 -2 35 1q9 8 13 14t12 19l9 15l32 51q9 15 21.5 32l26 34t28 33.5l27.5 31.5l70 77l27 26l20 17q17 14 25.5 18t16.5 4q3 0 4.5 -2t0.5 -10q-2 -7 -5.5 -16.5l-8.5 -22.5q-11 -24 -28.5 -54l-36.5 -60l-110 -179q-3 -6 -4 -9t-1 -11
q5 -7 9.5 -8.5t13.5 -1.5q20 0 44.5 9.5t48.5 25t45.5 36.5t35.5 44l-21 5l-51 -44l-27 -19q-3 -2 -6.5 -3t-6.5 -3l-5 -2q1 5 4 11t11 16t18 24t23 34l24 39q4 7 19.5 31.5t32.5 56.5t31 64t14 54z" />
    <glyph glyph-name="n" unicode="n" horiz-adv-x="427" 
d="M437 372q0 16 -11 25.5t-28 9.5q-15 0 -30 -6.5t-29 -16.5t-26.5 -21.5t-21.5 -21.5l-11 -12.5t-8 -9.5q-28 -32 -53 -64.5l-49 -66.5l45 117l11 32q6 16 9 26.5t3.5 18t-2 13t-8.5 11.5h-10q-9 0 -15 -4t-14 -8l-11 -6q-14 -8 -29.5 -21t-30 -30t-28 -36.5t-22.5 -38.5
q8 0 10.5 -0.5t4.5 -0.5l9 1l6 9q25 33 43 52t28 19q3 0 5 -4l-63 -164l-36 -85l-20 -52q-13 -33 -13 -41l3 -10q5 -1 8 -1.5t7 -0.5q5 -1 10 -0.5t13 1.5q7 5 9.5 8.5t7.5 13.5l48 99l52 83q10 16 32 43l24 29q81 97 109 97q6 0 10.5 -8t-7.5 -34l-104 -233
q-11 -24 -17 -43.5t-8 -34.5v-1q0 -21 28 -21q17 0 38 11.5t38 28.5q8 8 18 19.5t19.5 25l19 27t15.5 25.5l-27 1q-25 -38 -45.5 -60.5t-33.5 -26.5l-2 4l109 255q11 24 16 47.5t5 31.5z" />
    <glyph glyph-name="o" unicode="o" horiz-adv-x="354" 
d="M358 281q0 58 -22 90t-64 32q-35 0 -69.5 -23t-64.5 -58l-11 -13l-10 -13q-12 -16 -23.5 -39t-20.5 -48.5t-14.5 -51.5t-5.5 -47q0 -58 22.5 -91t65.5 -33q39 0 70.5 17t63.5 55q35 40 52 75q15 32 23 70t8 78zM315 330q0 -30 -13 -75t-36 -95q-19 -41 -35 -68.5
t-30.5 -45t-28.5 -25t-29 -7.5q-39 0 -39 43q0 16 4.5 38t12 47t18 51.5t23.5 51.5q31 61 63 95t57 34q15 0 24 -11.5t9 -32.5z" />
    <glyph glyph-name="p" unicode="p" horiz-adv-x="406" 
d="M412 255q0 49 -17.5 78.5t-40.5 45t-44.5 20.5t-30.5 5h-2q-8 1 -12 1h-9l-27 -1l15 39l9 28l6 23l2 10q0 6 -10 15h-22h-14q-5 -8 -8.5 -14.5t-5.5 -16.5l-6 -24l-25 -69l-8 -2q-27 -6 -44.5 -10.5t-26.5 -7.5l-17 -6q-26 -9 -26 -24l1 -6q11 -5 18 -4t21 7l15 4
q6 2 7 2l2 1h1l18 4l20 4l8 2q-3 -12 -6 -21l-6 -18l-6.5 -19.5l-8.5 -24.5l-163 -456q-5 -16 -10.5 -25t-8.5 -12l-6 -3q-4 0 -7 -0.5t-7 -1.5l-7 -2l-27 -3l-11 -2l-14 -2l-11 -2q-4 -9 -4 -14v-7h21h15t15 -1q5 1 8.5 1.5t8.5 1.5q10 1 28 0l31 -2h34l16 -1h56l3 7v4
l-4 7l-7 4q-9 2 -13 2.5t-8 0.5l-26 1q-2 0 -4 1q-3 0 -12 3l-4 3v4q0 7 5 18l15 38q26 65 39.5 105t23.5 61l5 -2q20 -8 45.5 -11.5t55.5 6.5l39 13q19 6 46 26t45 39q7 7 15.5 18t16.5 24t14.5 25.5l11.5 22.5q9 20 15 46t6 44zM349 261q0 -18 -6 -44.5t-14 -49.5
q-9 -25 -23 -48t-34 -43q-26 -26 -49 -42t-62 -16q-45 0 -45 34q0 18 9 42l37 107l14 39l9 24l10 27l22 72q8 1 13 1h11q57 0 82.5 -24.5t25.5 -78.5z" />
    <glyph glyph-name="q" unicode="q" horiz-adv-x="427" 
d="M454 402l-9 4h-6q-6 -5 -9.5 -8.5t-7.5 -6.5q-3 -4 -6 -7.5t-8 -8.5q-19 13 -40.5 21.5t-36.5 8.5q-12 0 -27 -4t-34 -15l-29 -18q-11 -8 -18.5 -13t-11.5 -9l-52 -48l-31 -32q-12 -12 -23.5 -27t-21 -30t-17 -28t-11.5 -21q-8 -18 -14 -45t-6 -47q0 -42 15.5 -65.5
t45.5 -23.5q14 0 34 6.5t42 20.5q10 7 26 21t33.5 32t34.5 38.5t31 39.5l17 25q-2 -10 -7 -20l-4 -12t-4 -13l-92 -273q-8 -23 -13.5 -36.5t-12.5 -21t-17.5 -10.5t-27.5 -4l-23 -2l-28 -2q-6 -3 -7 -5.5t-2 -8.5q10 -10 17 -10l17 2h33l36 1l109 -2l26 2l1 9l-1 8
q-7 6 -16 6l-39 4q-6 4 -6 9l8 35l8 25l10 32l14 42l21 57q5 12 6 16.5t2 7.5q0 3 1 7.5t5 16.5l11 36l25 64l62 186l5 17l18 49q3 8 4 13t1 15zM366 332q0 -15 -6.5 -37t-17.5 -42l-18 -35l-36 -53l-18.5 -25.5t-14 -18l-12.5 -14l-13 -13.5l-33 -32q-34 -33 -61 -33
q-20 0 -29 11.5t-9 37.5q0 31 15.5 65.5t36 65t40.5 53.5t30 33q44 43 70.5 62t43.5 19q14 0 23 -12t9 -32z" />
    <glyph glyph-name="r" unicode="r" horiz-adv-x="302" 
d="M401 353q0 20 -15.5 35.5t-36.5 15.5t-39 -10t-31 -26l-11 -14l-8 -11q-5 -7 -13 -19.5l-17.5 -28l-19.5 -33l-19 -34.5l-32 -63l4 12l12 25l9 23l10 26l20 61q10 31 12 48.5t0 26.5q-4 11 -16 14q-2 1 -3 1t-3 1q-22 -1 -41 -13t-43 -39q-23 -26 -36.5 -43.5
t-23.5 -38.5l28 1l28 39q14 18 22 27t23 20q1 -1 2.5 -1.5t2.5 -1.5q1 -2 0.5 -4t-2.5 -9l-62 -191l-44 -121q-5 -13 -5 -22q0 -21 27 -21q7 0 11.5 1t8 5t7 11.5l9.5 20.5l10 23l4 9q4 15 14 33l35 67l24 45l24 41l37 59q9 15 18 28t17 20t14 7t11 -11l1 -10
q2 -19 8.5 -26.5t24.5 -7.5q19 0 31 15t12 38z" />
    <glyph glyph-name="s" unicode="s" horiz-adv-x="292" 
d="M334 348q0 24 -18.5 39t-45.5 15q-18 0 -36 -4t-30 -11q-14 -8 -28.5 -25.5t-23.5 -45t-9 -64.5t15 -83l13 -40q10 -30 8.5 -51t-9 -34.5t-19 -19.5t-21.5 -6q-19 0 -26 18l-10 22q-7 15 -19 22t-23.5 6t-20 -9.5t-8.5 -23.5q0 -31 22.5 -48t62.5 -17q26 0 50 9.5t42 26
t29 37.5t11 45q0 26 -7.5 54t-15.5 53q-5 14 -9 27.5t-7 27.5q-8 30 -8 53q0 17 9 28t23 11q12 0 17 -3t20 -21q9 -11 20 -17.5t22 -6.5q14 0 22 10.5t8 25.5z" />
    <glyph glyph-name="t" unicode="t" horiz-adv-x="250" 
d="M339 383l-52 -1l-14 1h-11l-6 1l-6 1q2 8 3 10l41 95q7 15 7 21l-1 11q-12 3 -16.5 3.5t-12.5 0.5h-11t-12 -2q-8 -14 -9 -18l-25 -66l-24 -54l-17 -2l-67 -2q-6 -12 -7 -15t-1 -6t-1 -9h21l17 1l41 -1l-123 -289q-1 -3 -5 -9l-3 -9l-5 -13q-2 -5 -3 -10t-1 -10
q0 -24 26 -24q20 0 40 13l35 24q32 22 57.5 51.5l51.5 58.5l-5 5q-3 4 -6 5.5t-8 3.5q-37 -45 -68 -74t-45 -29l-5 1l-2 3l125 295q5 2 11 2l19 2h25l18 1h14l13 1q5 8 6 13.5t1 18.5z" />
    <glyph glyph-name="u" unicode="u" horiz-adv-x="427" 
d="M456 393l-1.5 3l-0.5 1q-3 4 -10 6q-5 1 -12 1t-21 -2q-17 -38 -33 -70t-42 -63l-22 -27l-58 -67l-61 -62q-31 -31 -52.5 -48.5t-32.5 -22.5l-3 -1l2 8l11.5 28t12.5 28l88 173l33 73q4 9 6 14.5t2 10.5q0 12 -7.5 20t-18.5 8q-9 0 -22 -5.5t-27.5 -15.5t-29.5 -22.5
t-28 -25.5l-21 -22q-8 -9 -13 -14t-8 -9.5l-5.5 -8.5t-5.5 -11l20 -5l7 7l11 12l17.5 17l17.5 17l7 7l20.5 19t15.5 9l2 -2q0 -2 -2 -6.5t-8 -16.5l-122 -245q-11 -23 -19 -44t-8 -31q0 -11 5 -16.5t12.5 -6t16 2t16.5 6.5l31 19q4 4 17 12l29 23q12 9 27.5 23.5l32.5 31
t33 34l30 33.5l58 68l-69 -158q-11 -27 -15.5 -41.5t-4.5 -28.5q0 -8 2.5 -12t7.5 -11q12 -3 17 -3q15 0 35.5 15.5t40 36.5t35.5 43t23 36l-22 3l-7 -8l-9 -13l-15 -20t-14 -15l-19 -17q-2 -1 -6 -5t-6 -4q1 8 2.5 12.5t6.5 16.5l110 273z" />
    <glyph glyph-name="v" unicode="v" horiz-adv-x="344" 
d="M382 358q0 21 -9 36.5t-24 15.5q-7 0 -13 -5t-11 -12q-4 -7 -6.5 -18t-2.5 -18l6 -30l5 -34v-16q0 -41 -15.5 -68t-29.5 -47l-28.5 -36.5t-20 -24t-16 -17t-15.5 -14.5l-24 -21l-12 -8l-17 -13l-12 -6l-11 -7l-8 -2l-5 1q-3 10 -1.5 18t9.5 28l71 180q10 25 16 42t9.5 30
t4.5 24t1 23q0 22 -9.5 36t-26.5 14q-26 0 -51 -26q-23 -24 -42.5 -56.5t-32.5 -69.5h9q3 0 6 0.5t10 0.5q20 46 38 72.5t29 26.5q3 0 6.5 -4.5t3.5 -13.5t-2 -18t-12 -34l-87 -224q-5 -14 -8.5 -25.5t-3.5 -22.5v-1q0 -14 14 -27q14 -5 26 -5q68 0 165 106q41 44 66 84.5
t38.5 75.5t18 63t4.5 47z" />
    <glyph glyph-name="w" unicode="w" horiz-adv-x="531" 
d="M581 366q0 37 -31 37q-14 0 -22.5 -15.5t-7.5 -36.5l1 -33q2 -49 -16.5 -89t-59.5 -83q-34 -35 -66 -60t-76 -45q19 33 36.5 72t30.5 77.5t20.5 72.5t7.5 57q0 32 -9 56t-24 26q-3 1 -7 1q-3 0 -7 1h-2q-12 0 -25 -7t-22 -20l-16 -22l-9 -13l-10 -15l-8 -18l-8 -17
l19 -11l23 37q13 23 29 28q5 2 10 -1.5t5 -20.5q0 -14 -1.5 -25t-5.5 -22.5t-11 -25.5t-19 -33l-21 -34.5t-18.5 -26.5t-20.5 -23l-26 -25q-28 -25 -53.5 -42t-45.5 -25l24 47q6 12 13.5 29.5l15 35.5l14.5 35.5t11 30.5q9 29 14 56.5t5 47.5q0 38 -11.5 59t-36.5 21
q-13 0 -27 -9t-26.5 -24.5t-23.5 -36.5t-18 -46l18 -7l7 10q18 30 27.5 42t17.5 12t11.5 -8t3 -20.5t-3.5 -27t-6.5 -28t-6.5 -23.5t-4 -13q-8 -24 -17 -48t-18 -45l-16.5 -37t-11.5 -23l-34 -63q-4 -7 -4 -15q0 -14 11 -14.5t23 4.5q13 5 27.5 13t27.5 16q54 35 86.5 60
t52.5 46q10 11 17.5 21l14.5 20l19 31q-6 -19 -17 -43t-22 -44l-24 -44l-12 -19l-21 -32l-10 -13l-1 -13q3 -2 5 -2.5t4 -1.5q2 0 3 -0.5t3 -0.5l6 2l12.5 4l12.5 4l53 24q57 25 107.5 66t88.5 89.5t60 100t22 98.5z" />
    <glyph glyph-name="x" unicode="x" horiz-adv-x="500" 
d="M559 359q0 13 -5.5 23t-15 14t-23.5 0t-32 -19l-127 -107l-36 -34l-23 -20l-3 4l-19 36l-32 53q-29 48 -50.5 70t-41.5 22q-12 0 -21.5 -9t-16 -22t-10 -26.5t-3.5 -22.5q0 -24 6 -38.5t23 -28.5l3 20l8 55l5 5l7 2q6 0 14 -7.5t16 -21.5l30 -51l26 -41q2 -5 5.5 -11.5
t7.5 -15.5l4 -10l-74 -72l-38 -34l-25 -19q-14 -11 -21 -14.5t-13 -3.5t-10.5 4.5t-4.5 11.5q0 5 9 28l5 13q-13 4 -19 4q-14 0 -24.5 -7t-18 -17t-11.5 -20.5t-4 -17.5q0 -21 13 -34t35 -13q14 0 32 9t37 23t38 31.5l37 34.5l71 69l48 -80q6 -9 15 -24q5 -9 13 -20
t17.5 -21t20.5 -16t23 -4q16 2 26 15t13 24q7 25 7 35q0 15 -3 28t-10 22q-3 2 -5 2.5t-10 0.5l-1 -14l2 -16q0 -13 -7.5 -22.5t-15.5 -9.5q-5 0 -10 3t-14 16t-23 39.5l-38 73.5l-4 8l69 67l56 46l39 27q1 1 12 4q7 3 12 3l4 -2q7 -7 6 -13.5t-6 -13.5q-2 -3 -3.5 -5.5
t-3.5 -4.5l-9 -11q17 -6 24.5 -4.5t16.5 6.5q29 23 29 66z" />
    <glyph glyph-name="y" unicode="y" 
d="M363 368q0 33 -27 33q-17 0 -23.5 -12t-6.5 -35v-13l1 -21q1 -34 -5 -69t-15.5 -66.5t-20.5 -57t-19 -38.5l-39 -67l-12 -20l8 37q3 14 5.5 35l5.5 48q7 78 4.5 131.5t-12.5 86.5t-25.5 47.5t-33.5 14.5h-5q-2 0 -7 -1q-18 -8 -33 -27t-22 -42l-15 -52l-5 -20q8 -8 13 -8
l8 1l4 11q14 42 24.5 60.5t22.5 18.5q11 0 17 -11t9 -43l2 -20l4 -107q1 -11 0.5 -20t-1.5 -17l-4 -38q-5 -45 -12 -76.5t-16 -54.5t-20.5 -41t-26.5 -34l-16 -18q-5 -5 -8.5 -9t-7.5 -6l-21 -17l-7 -5q-3 -3 -5 -4l-8 -4l-12 -7q-46 -28 -86 -28q-19 0 -27 4q-3 1 -9 7
q-2 2 -4.5 5t-6.5 7q-10 12 -23 17.5t-27 5.5q-11 0 -18.5 -8.5t-7.5 -19.5q0 -23 28.5 -35t76.5 -12h20q20 3 60 17q32 12 56.5 26.5t50.5 36.5l19 16l38 39l17 21l19 24l49 69l15 22l16 25q11 18 22.5 44t21.5 52.5t17.5 48.5l10.5 31l21 71q8 28 11 43t3 28z" />
    <glyph glyph-name="z" unicode="z" horiz-adv-x="417" 
d="M489 -192q0 18 -7 30.5t-21 16.5q-9 4 -17.5 3t-15.5 -6t-11 -12.5t-4 -14.5l2 -10q5 -12 13 -14l19 -7l5 -3l2 -8q0 -8 -10 -12t-34 -4q-35 0 -56 24q-2 3 -3 5t-3 4q-4 4 -6 8l-8 17q-5 10 -10.5 28.5l-11.5 38l-11 36.5t-8 25q-5 13 -8.5 23t-7.5 18q-3 8 -6 13.5
t-8 10.5q-5 7 -13.5 13.5t-18 12.5t-19 11l-16.5 9l60 50l39 38l48 40l72 70l21 17q28 23 40 40.5t12 34.5q0 13 -10 22t-23 9q-17 0 -24.5 -12t-12.5 -35l-2 -10l-3 -7q-6 -5 -14 -6.5t-21 6.5l-26 18l-32 24q-52 40 -99 40q-25 0 -48 -9t-40.5 -25t-28 -36.5t-10.5 -43.5
q0 -27 16.5 -46.5t40.5 -19.5q18 0 31 9.5t18 27.5q-3 45 -33 45q-12 0 -18 -5t-10 -11q-2 -3 -3 -6.5t-3 -6.5l-2 -4l-2 -4l-4 1q-9 19 -7 34t11 26t22.5 17t26.5 6q28 0 50 -16l20 -13q25 -16 54 -26.5t56 -8.5l39 2q-13 -16 -23.5 -27t-19.5 -19l-146 -131l-38 -32
q-9 -8 -14.5 -10t-13.5 -2h-25q-3 0 -13 -2t-20.5 -7.5t-19 -14.5t-8.5 -23q0 -8 4 -16q7 -13 18 -15.5t22 0t20.5 9t14.5 11.5l16 16q12 12 23 10t20.5 -12.5t17.5 -28.5t14 -38l25 -88q10 -34 31.5 -63.5t49.5 -47.5q16 -10 30 -13t41 -3q86 0 86 65z" />
    <glyph glyph-name="braceleft" unicode="{" horiz-adv-x="480" 
d="M411 -257v17q-54 14 -82.5 43t-28.5 73q0 13 3.5 32t8 39.5t8 41.5t3.5 38q0 56 -39 102t-106 69v2q69 24 107 68.5t38 100.5q0 17 -3.5 38t-7.5 41q-5 21 -8.5 39.5t-3.5 32.5q0 89 111 116v17q-40 -5 -74 -22t-58.5 -42t-38 -57t-13.5 -68q0 -20 3.5 -40.5t8 -40
t8 -37.5t3.5 -32q0 -41 -31 -70t-81 -36v-20q50 -6 81 -35t31 -70q0 -13 -3.5 -31l-7.5 -38t-7.5 -39.5t-3.5 -34.5q0 -39 13 -72.5t37 -59t57.5 -42.5t75.5 -23z" />
    <glyph glyph-name="bar" unicode="|" horiz-adv-x="496" 
d="M269 -18v831h-43v-831h43z" />
    <glyph glyph-name="braceright" unicode="}" horiz-adv-x="480" 
d="M359 188v20q-50 7 -80.5 36t-30.5 69q0 13 3.5 31l7.5 38q5 20 8 39.5t3 34.5q0 39 -13 72.5t-37 59.5t-58 42.5t-75 22.5v-17q54 -13 82 -42.5t28 -73.5q0 -13 -3 -31.5t-8 -39.5q-4 -20 -7.5 -41t-3.5 -39q0 -55 38.5 -101t105.5 -70v-2q-68 -23 -106 -67.5t-38 -101.5
q0 -17 3.5 -37.5t7.5 -40.5q5 -21 8 -39.5t3 -32.5q0 -90 -110 -117v-17q40 6 73.5 22.5t58 42t38 57.5t13.5 68q0 20 -3 40.5t-8 40.5l-7.5 37.5t-3.5 31.5q0 41 30.5 70t80.5 35z" />
    <glyph glyph-name="asciitilde" unicode="~" horiz-adv-x="667" 
d="M593 387h-21q-5 -44 -28.5 -67.5t-63.5 -23.5q-19 0 -41.5 7t-66.5 25l-80 33q-41 16 -64 21.5t-43 5.5t-40.5 -9t-35.5 -25q-17 -19 -25 -41.5t-10 -57.5h21q18 89 90 89q18 0 40.5 -6.5t67.5 -24.5l81 -33q39 -16 60 -21t43 -5q50 0 82.5 37.5t33.5 95.5z" />
    <glyph glyph-name="quotesinglbase" unicode="&#x201a;" horiz-adv-x="219" 
d="M155 41q0 32 -15.5 55t-36.5 23q-18 0 -32 -19.5t-14 -45.5q0 -8 4 -18t10 -17l16 -18q10 -12 6.5 -29t-16 -35t-31.5 -35.5t-38 -29.5l-26 -16l6 -17q53 24 86 55t51 60.5t24 53t6 33.5z" />
    <glyph glyph-name="florin" unicode="&#x192;" horiz-adv-x="488" 
d="M490 623q0 26 -20.5 41.5t-50.5 15.5q-9 0 -19 -1.5t-19 -5.5q-18 -8 -31.5 -19t-25 -29t-23 -44.5t-24.5 -64.5q-11 -30 -17.5 -46t-17.5 -24q-9 -7 -27 -11q-9 -2 -20.5 -2.5t-27.5 -2.5l-9 -38h86l-54 -221l-42 -206q-15 -75 -34.5 -109t-43.5 -34q-9 0 -9 6l2 6l4 5
q2 2 4 7.5t2 10.5q0 16 -13.5 23t-21.5 7q-17 0 -29 -13.5t-12 -30.5q0 -26 17.5 -41t44.5 -15q58 0 103.5 59.5t77.5 176.5l50 187l40 182h85l10 38h-87l21 126q5 30 10 49t12 30t15 15t19 4q9 0 12 -2.5t3 -7.5l-1 -5l-2 -6q-7 -10 -7 -20q0 -15 11 -23t24 -7.5t24 10
t11 30.5z" />
    <glyph glyph-name="quotedblbase" unicode="&#x201e;" horiz-adv-x="417" 
d="M358 17q0 32 -14 55t-33 23q-17 0 -30 -22q-9 -18 -11.5 -31t-1.5 -22t4 -14t4 -6l16 -19q11 -13 11 -21q0 -20 -26.5 -49.5t-68.5 -55.5l7 -17q43 23 71 47.5t44 48t22 45t6 38.5zM157 20q0 29 -13.5 52t-30.5 23q-12 0 -19.5 -8.5t-13.5 -18.5q-9 -15 -11 -28t0 -23
t6.5 -17t8.5 -11l14 -15q4 -6 4 -14q0 -23 -25.5 -52t-70.5 -54l9 -15q31 13 57 33t45 44t29.5 51t10.5 53z" />
    <glyph glyph-name="ellipsis" unicode="&#x2026;" horiz-adv-x="1000" 
d="M886 44q0 22 -15 37t-38 15t-37.5 -15.5t-14.5 -39.5q0 -20 16 -35t37 -15t36.5 15.5t15.5 37.5zM553 43q0 23 -15.5 38t-37.5 15t-37 -15.5t-15 -37.5q0 -21 15.5 -36.5t36.5 -15.5q22 0 37.5 15t15.5 37zM219 44q0 22 -15 37t-38 15q-22 0 -37 -15t-15 -38
q0 -21 15.5 -36.5t37.5 -15.5t37 15.5t15 37.5z" />
    <glyph glyph-name="dagger" unicode="&#x2020;" horiz-adv-x="438" 
d="M499 405q0 17 -14 29t-35 12q-10 0 -22 -1.5t-26 -6.5l-39 -13q-12 -4 -25 -6t-21 -2h-12q3 12 10.5 26.5t17.5 28.5l27 37q27 36 33 62t1 42t-17.5 23.5t-22.5 7.5q-30 0 -46 -25t-14 -76l2 -57q1 -24 -1.5 -37t-7.5 -32h-11q-25 0 -55 9l-53 17q-20 6 -35.5 4t-26 -8.5
t-16 -16.5t-5.5 -19q0 -17 14.5 -29t35.5 -12q23 0 55 13l28 11l19 7t14.5 4.5t13.5 2t17 0.5q-5 -17 -19 -40.5t-28 -39.5l-27 -31v-22q0 -64 -12.5 -130.5t-30.5 -130.5l-71 -248h17l96 291q13 41 26 74t25.5 61.5t26 53.5l28.5 51q-11 20 -17 44.5t3 65.5l8 1
q8 0 19 -2.5t31 -9.5l24 -8l41 -15q18 -6 32 -4t24 8.5t15.5 16.5t5.5 19z" />
    <glyph glyph-name="daggerdbl" unicode="&#x2021;" horiz-adv-x="417" 
d="M499 448q0 15 -11.5 26t-26.5 11q-10 0 -21.5 -2.5t-42.5 -13.5q-19 -6 -34 -8.5t-33 -3.5q6 17 14.5 34t19.5 32l19 27q11 16 17.5 34t6.5 30q0 17 -9 28.5t-23 11.5q-24 0 -38.5 -24t-14.5 -64v-34q0 -18 -3.5 -38.5t-8.5 -34.5q-5 -1 -9.5 -1.5t-7.5 -0.5
q-5 0 -11.5 1t-14.5 3q-9 2 -16 4t-12 4l-35 13q-12 4 -27 4q-18 0 -30.5 -10.5t-12.5 -26.5t12 -26.5t30 -10.5q16 0 36 6l23 8q16 5 33 9t28 4l7 -1q-8 -32 -25 -57.5t-45 -49.5q6 -20 8 -31t2 -27q0 -35 -13 -77t-33 -72q-5 -8 -9.5 -14t-10 -12t-13 -13.5t-18.5 -17.5
q4 -6 8.5 -15t7.5 -21.5t2.5 -30t-7.5 -40.5h-13q-13 0 -30 4q-14 1 -23 5l-16 6l-31 9q-8 3 -19 3q-19 0 -31 -10t-12 -26q0 -17 12 -27.5t32 -10.5q12 0 20 3l44 14q31 10 61 10q-5 -15 -15.5 -34.5t-21.5 -35.5l-15 -20q-11 -16 -18 -33t-7 -31q0 -18 10 -29.5t24 -11.5
q22 0 36 21.5t15 56.5l1 39q0 15 0.5 25.5t2 18.5t3.5 16t5 18l11 1q28 0 61 -11l39 -13q5 -2 10.5 -3t10.5 -1q20 0 31.5 10.5t11.5 27.5q0 16 -11 26t-28 10q-9 0 -19.5 -2.5t-41.5 -12.5q-24 -8 -36.5 -9.5t-32.5 -2.5q12 37 28.5 62t42.5 45q-7 18 -8.5 29t-1.5 29
q0 48 21 98q8 19 15 33t15.5 26t19 24t25.5 26q-11 17 -14 28.5t-3 28.5q0 14 1 23t6 26l4 1h9q23 0 56 -11q29 -10 42 -13.5t23 -3.5q19 0 30 10t11 27z" />
    <glyph glyph-name="circumflex" unicode="&#x2c6;" 
d="M425 470l-44 145h-61l-168 -145h26l158 93l69 -93h20z" />
    <glyph glyph-name="perthousand" unicode="&#x2030;" horiz-adv-x="906" 
d="M891 218q0 112 -80 112q-35 0 -67 -19t-57 -50t-40 -71.5t-15 -83.5q0 -50 25 -81t63 -31q44 0 87 39q38 34 61 84t23 101zM330 521q0 112 -80 112q-35 0 -67 -19t-57 -50t-40 -71t-15 -83q0 -50 24.5 -81.5t63.5 -31.5q42 0 86 39q38 35 61.5 85t23.5 100zM610 218
q0 112 -80 112q-35 0 -67 -19t-57 -50t-40 -71.5t-15 -83.5q0 -50 24.5 -81t63.5 -31q41 0 86 39q38 35 61.5 84.5t23.5 100.5zM546 632l-12 1h-13l-393 -617l-29 -48h10l13 -1h7l147 227q19 31 23 35l8 8q1 1 2 3t3 5zM846 259q0 -14 -3.5 -34t-10 -43t-15 -47t-18.5 -45
q-35 -77 -79 -77q-38 0 -38 61q0 30 10.5 72.5t28.5 81.5q37 84 88 84q37 0 37 -53zM285 563q0 -14 -3.5 -34t-10 -43t-15.5 -47t-19 -46q-35 -77 -79 -77q-38 0 -38 62q0 30 11 72t28 81q37 84 88 84q38 0 38 -52zM565 259q0 -14 -3.5 -34t-10 -43t-15.5 -47t-19 -45
q-35 -77 -79 -77q-37 0 -37 61q0 30 10.5 72.5t28.5 81.5q37 84 88 84q37 0 37 -53z" />
    <glyph glyph-name="Scaron" unicode="&#x160;" horiz-adv-x="510" 
d="M452 170q0 57 -35.5 96.5t-116.5 74.5q-53 23 -79 37t-40 26q-20 17 -29 35.5t-9 41.5q0 20 9.5 38t25.5 31t37.5 20.5t46.5 7.5q38 0 69.5 -20.5t41.5 -52.5l7 -23q3 -9 7.5 -11.5t15.5 -2.5q13 0 13 14l-1 10l-2 20l-1 18l-2 18l-1 21q0 6 -1 10t-5 6.5t-11 5t-20 5.5
q-14 3 -24.5 6t-22 4.5t-25 2.5t-31.5 1t-32.5 -2.5t-32.5 -7.5q-15 -4 -26.5 -8t-21.5 -9t-19.5 -11.5t-20.5 -15.5q-28 -24 -39.5 -51.5t-11.5 -67.5q0 -24 4.5 -41.5t16 -32.5t31.5 -29t50 -30l56 -30l49 -23q17 -8 34 -20.5t30 -26.5q17 -17 23 -32.5t6 -39.5t-10 -45
t-27.5 -36.5t-41 -24.5t-50.5 -9q-48 0 -86.5 24t-53.5 62q-8 20 -10.5 24.5t-8.5 4.5q-8 0 -13.5 -4.5t-5.5 -9.5l2 -20q2 -9 3 -14.5t1.5 -10.5l1 -10.5t1.5 -14.5l4 -19q0 -10 5 -13.5t31 -10.5q26 -8 59 -14.5t60 -6.5q45 0 84.5 13t77.5 39q33 23 48.5 55t15.5 79z
M561 828h-26l-158 -93l-69 93h-20l44 -145h61z" />
    <glyph glyph-name="guilsinglleft" unicode="&#x2039;" horiz-adv-x="240" 
d="M318 404h-18l-238 -205l113 -205h15l-71 207l185 187q5 5 7 7.5z" />
    <glyph glyph-name="OE" unicode="&#x152;" horiz-adv-x="979" 
d="M964 627v1q0 2 -0.5 5.5t-1.5 8.5l-420 -5l-47 3l-20 2h-34q-71 0 -136.5 -32t-115.5 -86t-79.5 -124.5t-29.5 -148.5q0 -51 16.5 -96t48.5 -80q38 -45 85 -63.5t122 -16.5l358 10l195 -5q10 20 21.5 62.5t22.5 93.5q-8 0 -11.5 -0.5t-10.5 -2.5l-5 -8q-24 -39 -47 -62.5
t-53 -36.5t-72.5 -17t-106.5 -4h-27q-10 0 -19 0.5l-17.5 1t-20.5 2.5l48 254q3 17 4.5 23.5t4.5 17.5l19 5t17.5 3.5t21.5 2.5t32 2l60 4l43 1q29 1 40 -8t9 -35l-4 -52l19 -1l39 192q2 7 2.5 9.5t1.5 8.5l-18 -1l-4 -8l-27 -53t-18 -19q-8 -5 -30.5 -7.5t-48.5 -4.5
l-134 -7h-12l34 201q3 17 6.5 33t7.5 25l219 5q12 0 19.5 -2t12 -9.5t7 -21.5t4.5 -37l1 -10h3l9 2l3 11q6 22 10 40.5t4 33.5zM568 471q0 -30 -5 -72t-16 -94q-16 -76 -31 -123.5t-36 -84.5q-21 -36 -57 -57.5t-80 -21.5h-3q-41 0 -74.5 15.5t-57 44t-36.5 68.5t-13 90
q0 29 4.5 61t13.5 64.5t21 63t27 56.5q36 64 95 101.5t125 37.5q123 0 123 -149z" />
    <glyph glyph-name="quoteleft" unicode="&#x2018;" horiz-adv-x="219" 
d="M327 634l-11 17l-14 -8q-5 -4 -9.5 -6.5t-6.5 -4.5l-40 -33l-18 -18l-22 -28q-3 -4 -5.5 -8t-4.5 -9l-10 -24l-7 -30l-1 -7q0 -37 14 -63t34 -26q11 0 23 12q10 11 15 23t7 22.5t1 18.5t-2 11l-5 9l-3 6l-6 7l-11 8q-6 5 -10.5 12t-4.5 12q0 9 6.5 21t18 26t28 28
t36.5 27z" />
    <glyph glyph-name="quoteright" unicode="&#x2019;" horiz-adv-x="219" 
d="M298 564q0 35 -14.5 60.5t-34.5 25.5q-4 0 -7 -2t-11 -10q-12 -12 -19 -27.5t-7 -31.5q0 -24 24 -43l9 -7q9 -6 9 -16l-2 -9q-9 -20 -34.5 -47t-57.5 -50v-4q0 -5 10 -9q29 13 53.5 33t42.5 42.5t28.5 47t10.5 47.5z" />
    <glyph glyph-name="quotedblleft" unicode="&#x201c;" horiz-adv-x="417" 
d="M536 629q-2 5 -3 7t-5 8q-62 -30 -99 -79t-37 -100q0 -35 13 -57t34 -22q6 0 12 3q13 8 22 27t9 38q0 9 -2.5 17.5t-7.5 13.5l-19 18q-11 10 -8 23.5t15 29.5t30.5 33l38.5 34zM335 627q-2 8 -3.5 11t-5.5 9l-22 -15q-37 -25 -59.5 -48.5t-35 -44.5t-16.5 -39t-4 -33
q0 -32 14 -56.5t33 -24.5q10 0 20 10q6 8 12 20.5t8.5 25.5t0.5 26t-11 22l-15 15q-11 10 -7.5 24.5t15.5 30.5t30 31.5t36 28.5z" />
    <glyph glyph-name="quotedblright" unicode="&#x201d;" horiz-adv-x="417" 
d="M495 570q0 29 -14 54q-6 10 -14 16t-15 6q-13 0 -24 -11q-11 -12 -17.5 -28t-6.5 -30q0 -17 15 -35l19 -22q7 -9 1.5 -22.5t-19.5 -29.5t-34 -33t-41 -31l12 -16q64 32 101 81t37 101zM295 568q0 31 -14 54.5t-31 23.5q-11 0 -19.5 -7.5t-14.5 -17.5t-9.5 -21t-3.5 -18
q0 -15 6 -25t13 -18.5l13 -15.5t6 -15q0 -20 -25.5 -48.5t-68.5 -55.5l9 -15q31 14 56.5 34t44 44t28.5 49.5t10 51.5z" />
    <glyph glyph-name="bullet" unicode="&#x2022;" horiz-adv-x="350" 
d="M298 331q0 25 -9.5 47.5t-26 39t-39 26t-47.5 9.5q-26 0 -48 -9.5t-39 -26.5t-26.5 -39.5t-9.5 -47.5t9.5 -47.5t26.5 -39t39 -26t48 -9.5q25 0 47.5 9.5t39 26.5t26 39t9.5 48z" />
    <glyph glyph-name="endash" unicode="&#x2013;" horiz-adv-x="500" 
d="M506 169v45h-512v-45h512z" />
    <glyph glyph-name="emdash" unicode="&#x2014;" horiz-adv-x="1000" 
d="M1006 169v45h-1012v-45h1012z" />
    <glyph glyph-name="tilde" unicode="&#x2dc;" 
d="M440 578h-15q-6 -33 -17 -46.5t-32 -13.5q-10 0 -21 4.5t-33 17.5q-64 38 -94 38q-40 0 -63.5 -29.5t-23.5 -78.5h16q6 60 48 60q11 0 24 -5.5t39 -19.5l28 -16q20 -11 33.5 -15t28.5 -4q38 0 58.5 27.5t23.5 80.5z" />
    <glyph glyph-name="trademark" unicode="&#x2122;" horiz-adv-x="980" 
d="M963 268v17q-18 1 -29 3.5t-16 9t-6.5 19t-1.5 33.5v228q0 21 1.5 34t7 20t16 9.5t28.5 2.5v18h-136l-129 -279l-133 279h-140v-18q18 0 29 -2t17 -9t7.5 -20.5t1.5 -35.5v-228q0 -21 -2 -33.5t-7.5 -19t-16.5 -9t-29 -2.5v-17h150v17h-18q-14 0 -23 2.5t-14 9.5t-7 20
t-2 33v235h2l149 -317h16l147 321h2v-240q0 -20 -2 -32t-8 -19t-17.5 -9.5t-30.5 -3.5v-17h194zM391 564l-10 98h-356l-10 -98h16q8 39 27.5 54t65.5 15h37v-284q0 -20 -1.5 -31.5t-6.5 -18.5t-14.5 -9.5t-26.5 -4.5v-17h183v17q-17 1 -27 4t-15.5 9.5t-7 19t-1.5 32.5v283
h36q47 0 67.5 -15t27.5 -54h16z" />
    <glyph glyph-name="scaron" unicode="&#x161;" horiz-adv-x="292" 
d="M334 348q0 24 -18.5 39t-45.5 15q-18 0 -36 -4t-30 -11q-14 -8 -28.5 -25.5t-23.5 -45t-9 -64.5t15 -83l13 -40q10 -30 8.5 -51t-9 -34.5t-19 -19.5t-21.5 -6q-19 0 -26 18l-10 22q-7 15 -19 22t-23.5 6t-20 -9.5t-8.5 -23.5q0 -31 22.5 -48t62.5 -17q26 0 50 9.5t42 26
t29 37.5t11 45q0 26 -7.5 54t-15.5 53q-5 14 -9 27.5t-7 27.5q-8 30 -8 53q0 17 9 28t23 11q12 0 17 -3t20 -21q9 -11 20 -17.5t22 -6.5q14 0 22 10.5t8 25.5zM458 615h-26l-158 -93l-69 93h-20l44 -145h61z" />
    <glyph glyph-name="guilsinglright" unicode="&#x203a;" horiz-adv-x="240" 
d="M237 198l-114 206h-14l71 -206l-200 -204l18 -1z" />
    <glyph glyph-name="oe" unicode="&#x153;" horiz-adv-x="458" 
d="M497 343q0 23 -16 40.5t-38 17.5q-12 0 -25.5 -5.5t-27 -14t-25.5 -17.5l-21 -16q-26 53 -77 53q-24 0 -49 -11t-45 -31q-18 -18 -38.5 -43t-32.5 -45q-11 -19 -20.5 -42t-16.5 -47t-11 -47t-4 -42q0 -56 17.5 -82t58.5 -26q47 0 105 55l14 13l3 2q6 -37 18.5 -53
t36.5 -16q32 0 63 24q11 8 24.5 21.5t27 29t25.5 32t20 30.5q-5 2 -7 3l-4 2q-5 0 -10 1q-34 -47 -65.5 -73.5t-49.5 -26.5q-17 0 -22.5 14t-4 35.5t8.5 47.5t15 51l2 8l7 3l50 22.5t32 15.5q12 7 20.5 13.5t19.5 17.5q18 18 30 42t12 44zM460 345q0 -24 -12.5 -46.5
t-39.5 -45.5l-22 -18q-11 -8 -21 -12.5t-32 -10.5q8 22 15 44.5t16 44.5q14 35 33 54t36 19q27 0 27 -29zM312 328q0 -21 -9.5 -55t-23 -70t-29.5 -69.5t-29 -54.5q-8 -14 -20 -27t-25.5 -22.5t-26 -15.5t-22.5 -6q-32 0 -32 40v3q0 35 14.5 83.5t40.5 101.5q21 43 39.5 74
t32.5 46q9 9 22 15.5t24 6.5q20 0 32 -13.5t12 -36.5z" />
    <glyph glyph-name="Ydieresis" unicode="&#x178;" horiz-adv-x="676" 
d="M671 575q0 17 -16 17l-21 -2l-36 -1h-27h-15h-8l-37 1q-1 2 -9 2h-18h-10q-10 0 -13 -3t-3 -13t10 -10h24q21 0 33.5 -6.5t12.5 -17.5q0 -3 -3 -8t-9 -16l-17 -21.5t-15 -18.5l-21 -24l-15 -20l-16 -18l-12 -14l-29 -36q-24 -30 -31 -30q-2 0 -9.5 7t-24.5 29l-31 32
l-39 48l-15 23l-11 12q-26 28 -34.5 42.5t-8.5 22.5q0 14 26 14l19 2h11q23 0 23 10q0 11 -4.5 14.5t-18.5 3.5h-5q-2 0 -4 -1h-28l-38 -2h-26h-30l-33 2l-33 3h-27q-5 1 -9 1q-18 0 -18 -11t6.5 -14.5t27.5 -3.5q23 0 40.5 -13.5t47.5 -51.5l37 -47l25 -32l17 -20l42 -51
l24 -31l11 -16l14 -20q3 -5 4.5 -10t1.5 -16v-22v-12v-26v-14v-20l1 -17v-15v-21q0 -33 -6 -54t-17 -26q-22 -11 -60 -11q-16 0 -20.5 -3t-4.5 -14q0 -13 18 -13l31 4l30 1l30 1h17h17h20q10 0 26 -1l15 -1h33h28l17 -3q12 0 12 11q0 6 -1 9.5t-4.5 5t-10.5 2t-19 1.5
q-38 2 -53.5 14.5t-15.5 41.5v14v62l1 29v8v9v8v6l-1 29q-1 17 0.5 28.5t6.5 22t13.5 22t21.5 26.5l26 30l10 12l37 45l36 39l30 36l18 21l13 14q12 13 25 18t34 5q17 0 17 11zM585 722q0 17 -11 28.5t-27 11.5q-17 0 -28.5 -11.5t-11.5 -27.5q0 -17 12 -28t29 -11
q16 0 26.5 11t10.5 27zM407 722q0 17 -11 29t-28 11q-16 0 -27 -11.5t-11 -28.5q0 -16 11.5 -27t28.5 -11q16 0 26.5 11t10.5 27z" />
    <glyph glyph-name="exclamdown" unicode="&#xa1;" horiz-adv-x="219" 
d="M235 351q0 26 -13.5 43.5t-36.5 17.5t-38 -18.5t-15 -46.5q0 -19 14.5 -33t34.5 -14q23 0 38.5 17.5t15.5 33.5zM166 244l-12 1h-7l-144 -365l-5 -15l-7 -19q-12 -32 -12 -47q0 -12 10 -20.5t23 -8.5q26 0 40 21t24 66l3 14l5 19l11 63l10 35l6 27l5 26l4 18l10 30l9 41
l9 26l17 76z" />
    <glyph glyph-name="cent" unicode="&#xa2;" horiz-adv-x="302" 
d="M356 538h-28l-69 -134q-17 -2 -27 -5t-24 -11q-24 -14 -49.5 -34t-45.5 -41q-25 -27 -46 -57.5t-36 -61.5t-23 -60.5t-8 -53.5q0 -65 48 -87l-60 -117h29l59 115q18 2 31.5 6.5t30.5 16.5q13 9 27.5 23t28 30t25 34t19.5 35h-31q-56 -90 -102 -96l157 313l2 -3l8 -16
q9 -17 20 -21.5t21 -1t16.5 13t6.5 21.5q0 36 -49 56l59 114l3.5 8.5t6.5 13.5zM237 363l-161 -314q-14 14 -14 33q0 17 6 41t16.5 51t25 55t31.5 54q23 36 48 57t48 23z" />
    <glyph glyph-name="sterling" unicode="&#xa3;" horiz-adv-x="625" 
d="M597 593q0 20 -24.5 31.5t-61.5 11.5q-36 0 -57.5 -4t-40.5 -15q-14 -8 -29 -20t-29 -27t-26 -31.5t-21 -32.5l-20 -38l-9 -21q-5 -15 -9 -22l-6 -20q-1 -3 -2.5 -8t-5.5 -13l-40 -128q-6 -20 -10.5 -37l-8.5 -32l-19 -87l-115 -2h-11q-3 0 -13 -2l-1 -9q0 -5 4 -14
l57 -1l30 -2l18 -1l23 -2l-9 -33l-7 -36l-27 -104l-1.5 -4.5t-2.5 -3.5q-2 -1 -3.5 -2t-3.5 -3l-11 -8l-6 -4l-11 -5.5t-10 -7.5l-19 -16q-14 -11 -22 -25t-8 -28q0 -11 7.5 -18t18.5 -7q9 0 19.5 5.5t20.5 13.5t17.5 17.5t10.5 17.5l7 19q4 11 8 16.5t16 16.5q10 5 16.5 7
t14.5 2q24 0 51 -15t65 -48l17 -15q22 -20 35.5 -26.5t33.5 -6.5q21 0 43.5 6.5t42.5 17t37 25t27 30.5l12 21l8 20l4 20q2 6 2 12t1 11v1q0 20 -13.5 35t-31.5 15q-20 0 -28.5 -17.5t-0.5 -33.5l13 -24q7 -12 6.5 -24.5t-5.5 -23.5t-13 -20.5t-15 -15.5q-11 -9 -19.5 -12.5
t-17.5 -3.5h-10q-3 2 -6 2.5t-6 2.5l-42 34l-13 9l-12 10l-10 5l-34 25l-19 10l-8 3l-7 4q-10 4 -28 6.5t-41 -3.5l-20 -5l-4 -2l-9 -3l-8 -4l-3 -1l17 32l16 30l9 19l6 10l15 36l12 32l3 7q6 1 10 1h13l106 2l5 11l3 8l3 11q-12 2 -18 2.5t-14 0.5h-26l-28 2l-41 1
q2 16 4 23.5l4 15.5l32 119l10 41l9 32q5 19 7 32.5t4 19.5l3 8l12 44l16 47q3 10 12.5 29t14.5 27l22 33q12 18 27 26t30.5 8.5t29.5 -4.5t23 -14l27 -25q15 -13 27 -13q14 0 23.5 12t9.5 29z" />
    <glyph glyph-name="currency" unicode="&#xa4;" horiz-adv-x="734" 
d="M691 144q0 6 -5.5 11t-14.5 5q-12 0 -17 -16q-9 -31 -21.5 -50.5t-34.5 -33.5q-29 -19 -68 -28.5t-84 -9.5q-21 0 -46.5 5.5t-52.5 13.5q-23 7 -40.5 15t-33 18.5t-29.5 24t-29 31.5q-8 9 -14 18t-12 19h336v44h-356q-15 45 -15 105q0 38 14 78h357v43h-336q16 28 38 51
t49 40q79 48 158 48h5h3q73 0 125 -32t75 -93q8 -17 18 -17q16 0 16 14l-4 15q-4 22 -7 43t-4 41q-1 9 -3 12.5t-9 6.5q-14 8 -30 12l-49 12q-20 4 -32 7t-20 4.5t-14 2.5t-12 1q-23 2 -37 3.5t-23 1.5q-66 0 -132.5 -20.5t-119.5 -55.5q-29 -20 -53 -44.5t-41 -52.5h-84
v-43h61q-9 -23 -14 -46t-5 -46q0 -20 5 -44t13 -47h-60v-44h81q11 -17 27 -34.5t39 -40.5q12 -12 23 -20.5t22.5 -16t25 -14.5t32.5 -15q26 -12 48.5 -20t44.5 -12.5t45.5 -6t51.5 -1.5q19 0 41.5 1.5t43.5 4t39.5 6.5t31.5 9l40 15l19.5 7.5t9.5 6.5t4.5 11.5t5.5 23.5
l6 23l6 31z" />
    <glyph glyph-name="yen" unicode="&#xa5;" horiz-adv-x="625" 
d="M771 615v23h-6q-8 0 -12.5 -0.5t-12.5 -2.5l-73 -3h-10q-4 0 -9 1l-52 5q-2 0 -5 0.5t-7 0.5q-11 0 -18 -1t-19 -3v-20l27 1q33 2 51 -7t18 -23q0 -4 -2 -8t-8 -14l-8 -13l-13 -16l-5 -6.5t-3 -3.5l-41 -42h-235l-33 75q-5 11 -7.5 17.5t-7.5 17.5q4 8 7.5 10t17.5 4
l17 2l9 1l28 2v8v16q-10 -2 -21 -3.5t-17 -1.5l-40 -1l-18 1h-40l-25 2l-22 3q-8 1 -15.5 1.5t-16.5 0.5h-20l-1 -17l27 -3l9 -2l11 -1q13 -1 20.5 -6.5t13 -15t9.5 -22t11 -27.5l27 -61h-62l-37 -2l-4 -18h112l54 -127l8 -16l-174 -2l-34 1l-5 -20h222l6 -12l-63 -188
l-22 -51q-4 -8 -6.5 -12t-9.5 -11q-7 -4 -11 -5t-11 -2l-70 -7q-2 -6 -2.5 -9t-2.5 -10l30 -1q13 0 17 1l19 2l42 1l18 -1l16 1l35 -4l21 1l11 -1h6h6q4 0 8 1l14 2h21h27l1 8v8l-28 3l-29 1q-26 1 -35 11t-7.5 27.5t10 40.5t17.5 50l39 113l15 44h223l5 20h-210l44 48
l21 24l69 70h109l5 19l-7 2h-19h-66l58 57q32 32 57 49t48 22l15 3zM542 463l-133 -137q-1 -1 -10 -6h-2l-60 144h116z" />
    <glyph glyph-name="brokenbar" unicode="&#xa6;" horiz-adv-x="496" 
d="M272 460v356h-49v-357zM272 -21v358h-49v-358h49z" />
    <glyph glyph-name="section" unicode="&#xa7;" horiz-adv-x="438" 
d="M468 542q0 47 -31.5 76t-81.5 29q-48 0 -89.5 -29t-73 -78.5t-49.5 -115t-18 -138.5q0 -52 8 -105t18 -105q5 -25 9 -48.5l8 -46.5q8 -46 8 -80q0 -88 -66 -88q-33 0 -36 35l-2 30q-2 21 -12 35.5t-27 14.5q-18 0 -29 -16.5t-11 -40.5q0 -47 39 -80q19 -13 32 -17t36 -4
q32 0 60.5 12.5t57.5 41.5l5 5q24 24 44 58.5t34.5 75t22 85t7.5 88.5q0 16 -1.5 40.5t-4 51t-6 53t-7.5 47.5l-22 121q-8 46 -5.5 75.5t11.5 47t22 24.5t27 7q23 0 30.5 -18t11 -39.5t10.5 -39.5t30 -18q19 0 30 15t11 39zM279 80q0 -117 -64 -209l-5 -6.5t-4 -4.5
q7 28 8.5 65t-1 74.5t-6.5 72t-8 58.5l-12 74q-3 16 -5 35t-3.5 38t-2.5 36.5t-1 31.5q0 66 22 124t58 91q-13 -54 -10.5 -122.5t11.5 -134.5l16 -119q4 -26 5.5 -52t1.5 -52z" />
    <glyph glyph-name="dieresis" unicode="&#xa8;" 
d="M428 509q0 17 -11 28.5t-27 11.5q-17 0 -28.5 -11.5t-11.5 -27.5q0 -17 12 -28t29 -11q16 0 26.5 11t10.5 27zM250 509q0 17 -11 29t-28 11q-16 0 -27 -11.5t-11 -28.5q0 -16 11.5 -27t28.5 -11q16 0 26.5 11t10.5 27z" />
    <glyph glyph-name="copyright" unicode="&#xa9;" horiz-adv-x="760" 
d="M726 331q0 72 -27 135t-74 110t-110 74t-135 27t-135 -27t-110 -74t-74 -110t-27 -135t27 -135t74 -110t110 -74t135 -27t135 27t110 74t74 110t27 135zM696 331q0 -66 -25 -123.5t-67.5 -100t-100 -67.5t-123.5 -25t-123.5 25t-100 67.5t-67.5 100t-25 123.5t25 123.5
t67.5 100t100 67.5t123.5 25t123.5 -25t100 -67.5t67.5 -100t25 -123.5zM569 210l-18 10q-56 -79 -152 -79q-78 0 -120 52t-42 149q0 88 42.5 139t114.5 51q113 0 148 -115h19l-10 137h-19q-8 -19 -17 -21t-23.5 2.5l-36.5 11.5t-55 7q-52 0 -96.5 -17t-77.5 -47.5
t-51.5 -72t-18.5 -89.5q0 -46 17.5 -85.5t47.5 -69t71.5 -46t89.5 -16.5q119 0 187 99z" />
    <glyph glyph-name="ordfeminine" unicode="&#xaa;" horiz-adv-x="260" 
d="M327 629v6v10q-5 2 -9 3t-10 1h-7q-3 0 -10 -1l-5 -4q-2 -2 -2 -4l-4 -6l-1 -3q-8 1 -12.5 1.5t-7.5 0.5q-17 0 -40.5 -7t-38.5 -17l-24 -16q-26 -16 -57 -55q-8 -10 -15 -23t-12.5 -27t-9 -27.5t-3.5 -23.5q0 -40 38 -40q19 0 41 10l11 5q5 2 9.5 5t9.5 6l29 25l11 12
l-4 -7l-7 -18q-5 -12 -4.5 -19.5t4 -11.5t9 -5.5t11.5 -1.5q14 0 34.5 11.5t36.5 28.5l20 21l9 10q-5 6 -8 8.5t-11 7.5l-10 -12l-5.5 -5.5t-5.5 -4.5l-28 -25l-1 -1zM260 593q0 -9 -8 -28l-4 -10q-7 -17 -22 -37t-34 -37l-25.5 -23t-18 -14t-12.5 -6.5t-11 -1.5
q-12 0 -12 15q0 11 8 29.5t19 34.5l12 20l12 15l18 21l10.5 10t11.5 8l12 7q11 8 16 9t12 1q16 0 16 -13z" />
    <glyph glyph-name="guillemotleft" unicode="&#xab;" horiz-adv-x="385" 
d="M458 394h-15l-208 -197l69 -195h13q-1 7 -1 10t-1 8l-22 178zM309 403h-18l-231 -197l-7 -8l112 -206l14 1l-69 207z" />
    <glyph glyph-name="logicalnot" unicode="&#xac;" horiz-adv-x="1341" 
d="M1154 41q0 52 -55 62q-21 0 -33.5 -9t-12.5 -25q0 -18 16.5 -23.5t30.5 -0.5l17 7h1q11 0 11 -11q0 -16 -17.5 -28.5t-41.5 -12.5q-29 0 -61.5 23.5t-58.5 64.5l-21 33l-15 24t-10.5 19.5t-7.5 19t-6 22.5q41 -5 71.5 -5.5t52.5 3t37.5 9t27.5 12.5q32 18 52.5 46.5
t20.5 56.5q0 30 -23.5 49.5t-58.5 19.5q-31 0 -65 -15.5t-69 -47.5l-20 -18l-33.5 -31t-33.5 -30l169 380l4 13h-22l-10 -2l-34 -8q-14 -3 -28.5 -4t-31.5 -1h-12l-6 -18l11 -4l19 -5q16 -4 16 -20q0 -14 -4 -23l-205 -461l-4 1l-51 -44l-27 -19q-3 -2 -6.5 -3t-6.5 -3
l-5 -2q1 5 4 11t11 16t18 24t23 34l24 39q4 7 19.5 31.5t32.5 56.5t31 64t14 54q0 15 -8.5 25t-22.5 10q-15 0 -35 -8t-41 -22t-42 -33t-39 -41l-8 -10l-14 -14l-51 -56l-17 -22l17 32q22 42 35.5 74t18.5 55q9 47 -30 47q-26 0 -49.5 -12t-55.5 -40l-13 -11l-23 -24
l-21 -23l-11 -13l-23 -25l-25 -29l-5 -6l55 110l11 27q2 4 3 7l2 6q2 8 2 10q0 10 -9 16.5t-20 6.5q-10 0 -22.5 -5.5t-25 -12.5t-22.5 -14.5t-14 -11.5l-25 -23q-11 -10 -17.5 -17t-11.5 -13.5t-10 -14t-11 -17.5q10 -2 13 -2q4 0 12 -1l7 8l7 10q9 11 43 42q11 11 21 17
t15 6l4 -1l-139 -277l-22 -42l-7 -13q-8 -11 -8 -20l3 -9q10 -4 18 -3.5t19 1.5q5 5 9 8.5t8 8.5q1 2 5 6q4 8 5.5 11.5t6.5 11.5l27 47l2 5l5 7l16.5 26l17 25l15 21l9.5 13l20 23l5 7q2 2 3.5 4t3.5 4q3 4 12 13l22 24q55 59 81.5 82t40.5 23q3 0 6.5 -4t3.5 -12
q0 -6 -1 -13t-7 -20.5t-17.5 -36.5t-32.5 -60l-99 -177l-16 -25q-4 -6 -4 -10t-1 -11q9 -3 15 -3q12 -2 35 1q9 8 13 14t12 19l9 15l32 51q9 15 21.5 32l26 34t28 33.5l27.5 31.5l70 77l27 26l20 17q17 14 25.5 18t16.5 4q3 0 4.5 -2t0.5 -10q-2 -7 -5.5 -16.5l-8.5 -22.5
q-11 -24 -28.5 -54l-36.5 -60l-110 -179q-3 -6 -4 -9t-1 -11q5 -7 9.5 -8.5t13.5 -1.5q29 0 65.5 18t66.5 47q-5 -13 -12 -25q-10 -20 -10 -26l4 -12q29 -9 39 -2t18 23l97 197l2 3l17 -47.5t18.5 -42t24 -39.5t33.5 -40q57 -63 148 -63q35 0 60 19t25 48zM1125 328
q0 -20 -16 -37.5t-44 -30.5t-66.5 -20.5t-84.5 -7.5q-11 0 -20 1.5t-23 5.5q16 14 40 32.5t41 28.5q35 21 74 33.5t69 12.5q15 0 22.5 -5t7.5 -13z" />
    <glyph glyph-name="registered" unicode="&#xae;" horiz-adv-x="760" 
d="M726 331q0 72 -27 135t-74 110t-110 74t-135 27t-135 -27t-110 -74t-74 -110t-27 -135t27 -135t74 -110t110 -74t135 -27t135 27t110 74t74 110t27 135zM696 331q0 -66 -25 -123.5t-67.5 -100t-100 -67.5t-123.5 -25t-123.5 25t-100 67.5t-67.5 100t-25 123.5t25 123.5
t67.5 100t100 67.5t123.5 25t123.5 -25t100 -67.5t67.5 -100t25 -123.5zM575 121v17q-18 1 -30 9.5t-29 33.5l-103 145q109 28 109 109q0 49 -39.5 79t-105.5 30h-189v-17q15 0 24.5 -2.5t14 -9t6 -20t1.5 -35.5v-255q0 -23 -1.5 -36t-7 -20t-15.5 -9t-27 -2v-17h179v17
q-32 0 -45 7t-13 23v151h37l144 -198h90zM443 429q0 -42 -32 -65.5t-92 -23.5h-15v175q14 5 22 6t19 1q43 0 70.5 -26t27.5 -67z" />
    <glyph glyph-name="macron" unicode="&#xaf;" 
d="M469 516h-285l-13 -45h285z" />
    <glyph glyph-name="degree" unicode="&#xb0;" horiz-adv-x="399" 
d="M406 528q0 31 -12 58.5t-32 47.5t-47.5 32t-58.5 12t-58.5 -12t-47.5 -32t-32 -47.5t-12 -58.5t12 -58t32 -47.5t47.5 -32.5t58.5 -12t58.5 12t47.5 32t32 47.5t12 58.5zM364 529q0 -23 -8.5 -43t-23 -34.5t-34.5 -23t-43 -8.5t-42.5 8.5t-34 23t-23 34.5t-8.5 43
q0 22 8.5 42t23 34.5t34 23t42.5 8.5t43 -8.5t34.5 -23t23 -34.5t8.5 -42z" />
    <glyph glyph-name="plusminus" unicode="&#xb1;" horiz-adv-x="667" 
d="M596 376v43h-242v242h-43v-242h-240v-43h240v-240h43v240h242zM596 -18v43h-525v-43h525z" />
    <glyph glyph-name="twosuperior" unicode="&#xb2;" horiz-adv-x="281" 
d="M342 559q0 35 -26 56t-71 21q-85 0 -120 -95h31q19 34 36.5 47.5t43.5 13.5q45 0 45 -45q0 -23 -12 -43.5t-41 -46.5l-61 -54l-117 -98l-4 -15h223l12 44h-158l142 107q41 31 59 56.5t18 51.5z" />
    <glyph glyph-name="threesuperior" unicode="&#xb3;" horiz-adv-x="281" 
d="M323 587q0 22 -19 35.5t-48 13.5q-35 0 -59.5 -16.5t-35.5 -46.5l25 -10q21 41 53 41q25 0 25 -22q0 -19 -13 -32.5t-33 -26.5q-10 -6 -21 -11.5l-22 -11.5l-22 -13.5t-22 -14.5q4 -8 6.5 -11.5t10.5 -8.5q27 22 44.5 26.5t28.5 0t15.5 -15t4.5 -17.5q0 -22 -18 -48
t-45 -46q-26 -18 -53 -26t-70 -10l-5 -20l22 -1q43 -3 83.5 10t72 35.5t51 52t19.5 59.5q0 24 -11.5 37.5t-37.5 22.5q22 12 36.5 21.5t22.5 18t11.5 16.5t3.5 19z" />
    <glyph glyph-name="acute" unicode="&#xb4;" 
d="M404 615h-92l-70 -144h17z" />
    <glyph glyph-name="mu" unicode="&#xb5;" horiz-adv-x="500" 
d="M481 105h-18q-20 -41 -34 -55t-33 -14q-28 0 -28 42q0 20 6 38l92 314h-74l-54 -185l-16.5 -55t-13.5 -36t-16 -28t-24 -32q-22 -29 -47.5 -44.5t-48.5 -15.5q-18 0 -29 8t-16.5 20t-5.5 27t4 29l90 312h-75l-107 -367q-18 -62 -35 -101.5t-29.5 -65l-20.5 -41.5t-8 -31
q0 -17 9.5 -28t25.5 -11q47 0 54 82q3 37 5.5 59.5t5.5 40t7.5 34l11.5 40.5q14 -29 31.5 -41t45.5 -12q23 0 42.5 7.5t45.5 26.5q12 8 20.5 15.5t16.5 16t16 19.5t17 26l2 -2q-2 -10 -2.5 -19.5t-0.5 -15.5q0 -32 17.5 -53t46.5 -21q15 0 33 6t32 17q11 8 19 16.5t15 19
t13 24.5t12 34z" />
    <glyph glyph-name="paragraph" unicode="&#xb6;" horiz-adv-x="453" 
d="M457 635v27h-241q-105 0 -162.5 -48.5t-57.5 -136.5q0 -50 22 -91q24 -45 70.5 -68.5t127.5 -23.5h14v-510h36v851h91v-851h35v851h65z" />
    <glyph glyph-name="periodcentered" unicode="&#xb7;" horiz-adv-x="354" 
d="M252 310q0 23 -14 38.5t-35 15.5t-36.5 -16.5t-15.5 -38.5q0 -21 15 -37t35 -16q22 0 36.5 15.5t14.5 38.5z" />
    <glyph glyph-name="periodcentered" unicode="&#x2219;" horiz-adv-x="354" 
d="M252 310q0 23 -14 38.5t-35 15.5t-36.5 -16.5t-15.5 -38.5q0 -21 15 -37t35 -16q22 0 36.5 15.5t14.5 38.5z" />
    <glyph glyph-name="cedilla" unicode="&#xb8;" 
d="M194 -116q0 55 -65 72l35 51h-31l-70 -93h10q55 0 55 -42q0 -27 -28 -44t-75 -17q-11 0 -19 0.5t-22 2.5l-8 -18q26 -5 39.5 -6.5t27.5 -1.5q31 0 58.5 7.5t48 20.5t32.5 30.5t12 37.5z" />
    <glyph glyph-name="onesuperior" unicode="&#xb9;" horiz-adv-x="281" 
d="M297 636h-33q-24 -26 -56 -45.5t-83 -39.5l3 -26q15 5 25.5 9t20.5 8.5t20 9.5t24 13l-86 -265h56z" />
    <glyph glyph-name="ordmasculine" unicode="&#xba;" horiz-adv-x="229" 
d="M283 571q0 37 -16 57.5t-46 20.5q-24 0 -49 -14t-43 -35l-14 -16q-9 -10 -17 -24t-14 -30t-9.5 -32t-3.5 -29q0 -37 17 -58t47 -21t56.5 15t47 40t32.5 57.5t12 68.5zM242 601q0 -17 -8 -43.5t-23 -56.5q-23 -47 -40.5 -66t-34.5 -19q-9 0 -13.5 4.5t-4.5 16.5
q0 24 12 56.5t29 61t35.5 48.5t32.5 20q6 0 10.5 -5.5t4.5 -16.5z" />
    <glyph glyph-name="guillemotright" unicode="&#xbb;" horiz-adv-x="385" 
d="M394 198l-111 204l-15 2l70 -207l-198 -203h16q6 5 9 7t7 6zM212 199l-69 196h-13l25 -197l-167 -195h18z" />
    <glyph glyph-name="onequarter" unicode="&#xbc;" horiz-adv-x="740" 
d="M734 332h-30l-238 -214l-4 -26h134l-31 -95h58l31 96h70l9 33h-69zM599 634l-17 1l-14 1l-394 -619l-30 -52h13h13l8 -1l149 229q10 15 15 24q6 9 8 10q3 4 5 6t4 6l3 5zM252 636h-34q-23 -26 -55 -45.5t-83 -39.5l2 -26q15 5 26 9t21 8.5t19.5 9.5l23.5 13l-86 -265h57z
M647 245l-40 -120h-92z" />
    <glyph glyph-name="onehalf" unicode="&#xbd;" horiz-adv-x="740" 
d="M757 256q0 35 -26 55.5t-71 20.5q-84 0 -120 -94h33q18 35 35 47.5t44 12.5q44 0 44 -44q0 -23 -11.5 -43.5t-41.5 -46.5l-60 -54l-117 -98l-4 -15h222l13 44h-158l142 107q40 31 58 56.5t18 51.5zM587 634l-17 1l-14 1l-394 -619l-30 -52h13h14l7 -1l149 229
q10 15 15 24q6 9 8 10q3 4 5 6t4 6l3 5zM252 636h-34q-23 -26 -55 -45.5t-83 -39.5l2 -26q15 5 26 9t21 8.5t19.5 9.5l23.5 13l-86 -265h57z" />
    <glyph glyph-name="threequarters" unicode="&#xbe;" horiz-adv-x="740" 
d="M734 332h-30l-238 -214l-4 -26h134l-31 -95h58l31 96h70l9 33h-69zM593 634l-17 1l-14 1l-394 -619l-30 -52h13h14l7 -1l149 229q10 15 15 24q6 9 8 10q3 4 5 6t4 6l3 5zM276 587q0 22 -18.5 35.5t-47.5 13.5q-35 0 -59.5 -16.5t-35.5 -46.5l26 -10q20 41 53 41
q24 0 24 -22q0 -19 -12.5 -32.5t-32.5 -26.5l-21.5 -11.5l-21.5 -11.5q-11 -7 -22.5 -13.5t-22.5 -14.5q4 -8 7 -11.5t11 -8.5q27 22 44.5 26.5t28 0t15 -15t4.5 -17.5q0 -22 -17.5 -48t-44.5 -46q-26 -18 -53 -26t-71 -10l-5 -20l23 -1q43 -2 83.5 10.5t72 35t51 52
t19.5 59.5q0 24 -11.5 38t-38.5 22q22 12 36.5 21.5t23 18t11.5 16.5t3 19h-1zM647 245l-40 -120h-92z" />
    <glyph glyph-name="questiondown" unicode="&#xbf;" horiz-adv-x="365" 
d="M304 354q0 25 -12 41.5t-31 16.5q-23 0 -38.5 -19t-15.5 -46q0 -23 17 -38q13 -13 25 -13q22 0 38.5 18t16.5 40zM292 182q0 22 -9.5 43t-25.5 33q-10 8 -22 13t-17 5q-17 0 -33.5 -7.5t-29.5 -20t-21.5 -29.5t-10.5 -36q7 -4 10 -5t11 -1q30 68 66 68q33 0 44 -31v-11
q0 -20 -10 -37t-25 -31.5t-32.5 -27t-32.5 -21.5l-55.5 -36t-52 -42t-39 -51.5t-15.5 -65.5q0 -32 7 -52t25 -39q38 -41 93 -41q56 0 91.5 29t44.5 83h-8h-9t-14 -1q-7 -23 -14 -35.5t-16 -21.5l-7 -7q-14 -9 -30 -14t-27 -5q-39 0 -65 23t-26 56q0 29 31 63q8 8 18 16.5
t22 17.5l24 17l27 19q27 19 53.5 41.5t46.5 49.5q14 20 23.5 45t9.5 47z" />
    <glyph glyph-name="Agrave" unicode="&#xc0;" horiz-adv-x="706" 
d="M700 13q0 13 -16 13q-23 0 -36.5 4t-26 19.5t-27 46.5t-37.5 85l-40 94l-32 66l-37 85l-38 86l-16 42l-24 48q-9 17 -16 17q-3 0 -13 -7l-10 -7q-14 -9 -21.5 -15t-13 -14.5t-11 -23.5t-14.5 -43l-21 -64l-21 -51l-21 -62l-26 -66l-30 -78l-13 -30l-15 -43
q-10 -27 -18.5 -43.5t-18 -25.5t-21.5 -12t-29 -3h-11q-20 0 -20 -14q0 -11 6.5 -15t29.5 -3l30 1q11 0 27.5 0.5t22.5 0.5l35 -1l29 -1h36h6q6 0 8 1t3 6t2 8.5t1 5.5q0 9 -16 9q-29 -1 -47 8t-18 25q0 12 7 33l41 119q6 17 10 21t20 3l30 -2l63 2l66 -2h35q8 -1 12 -5.5
t9 -15.5l14 -37l16 -34l13 -30l13 -26q0 -3 6 -21q2 -5 3 -9t1 -9q0 -21 -54 -21l-10 1q-8 0 -10 -3.5t-2 -9.5q0 -12 3.5 -15t18.5 -3h7q9 0 15.5 0.5t10.5 0.5l29 1h32h36l40 -1l36 -1h13q9 0 12 2.5t3 12.5zM424 287q0 -5 -8 -9t-20 -6h-34h-52h-34l-29 -1q-12 0 -12 9v3
l7 19l11 36l13 32l9 24l18 48q24 62 26 62q4 0 11 -16t24 -51l20 -43l23 -56l10 -25t8 -15zM746 684l-70 144h-91l145 -144h16z" />
    <glyph glyph-name="Aacute" unicode="&#xc1;" horiz-adv-x="706" 
d="M700 13q0 13 -16 13q-23 0 -36.5 4t-26 19.5t-27 46.5t-37.5 85l-40 94l-32 66l-37 85l-38 86l-16 42l-24 48q-9 17 -16 17q-3 0 -13 -7l-10 -7q-14 -9 -21.5 -15t-13 -14.5t-11 -23.5t-14.5 -43l-21 -64l-21 -51l-21 -62l-26 -66l-30 -78l-13 -30l-15 -43
q-10 -27 -18.5 -43.5t-18 -25.5t-21.5 -12t-29 -3h-11q-20 0 -20 -14q0 -11 6.5 -15t29.5 -3l30 1q11 0 27.5 0.5t22.5 0.5l35 -1l29 -1h36h6q6 0 8 1t3 6t2 8.5t1 5.5q0 9 -16 9q-29 -1 -47 8t-18 25q0 12 7 33l41 119q6 17 10 21t20 3l30 -2l63 2l66 -2h35q8 -1 12 -5.5
t9 -15.5l14 -37l16 -34l13 -30l13 -26q0 -3 6 -21q2 -5 3 -9t1 -9q0 -21 -54 -21l-10 1q-8 0 -10 -3.5t-2 -9.5q0 -12 3.5 -15t18.5 -3h7q9 0 15.5 0.5t10.5 0.5l29 1h32h36l40 -1l36 -1h13q9 0 12 2.5t3 12.5zM424 287q0 -5 -8 -9t-20 -6h-34h-52h-34l-29 -1q-12 0 -12 9v3
l7 19l11 36l13 32l9 24l18 48q24 62 26 62q4 0 11 -16t24 -51l20 -43l23 -56l10 -25t8 -15zM748 828h-92l-70 -144h17z" />
    <glyph glyph-name="Acircumflex" unicode="&#xc2;" horiz-adv-x="706" 
d="M700 13q0 13 -16 13q-23 0 -36.5 4t-26 19.5t-27 46.5t-37.5 85l-40 94l-32 66l-37 85l-38 86l-16 42l-24 48q-9 17 -16 17q-3 0 -13 -7l-10 -7q-14 -9 -21.5 -15t-13 -14.5t-11 -23.5t-14.5 -43l-21 -64l-21 -51l-21 -62l-26 -66l-30 -78l-13 -30l-15 -43
q-10 -27 -18.5 -43.5t-18 -25.5t-21.5 -12t-29 -3h-11q-20 0 -20 -14q0 -11 6.5 -15t29.5 -3l30 1q11 0 27.5 0.5t22.5 0.5l35 -1l29 -1h36h6q6 0 8 1t3 6t2 8.5t1 5.5q0 9 -16 9q-29 -1 -47 8t-18 25q0 12 7 33l41 119q6 17 10 21t20 3l30 -2l63 2l66 -2h35q8 -1 12 -5.5
t9 -15.5l14 -37l16 -34l13 -30l13 -26q0 -3 6 -21q2 -5 3 -9t1 -9q0 -21 -54 -21l-10 1q-8 0 -10 -3.5t-2 -9.5q0 -12 3.5 -15t18.5 -3h7q9 0 15.5 0.5t10.5 0.5l29 1h32h36l40 -1l36 -1h13q9 0 12 2.5t3 12.5zM424 287q0 -5 -8 -9t-20 -6h-34h-52h-34l-29 -1q-12 0 -12 9v3
l7 19l11 36l13 32l9 24l18 48q24 62 26 62q4 0 11 -16t24 -51l20 -43l23 -56l10 -25t8 -15zM769 683l-44 145h-61l-168 -145h26l158 93l69 -93h20z" />
    <glyph glyph-name="Atilde" unicode="&#xc3;" horiz-adv-x="706" 
d="M700 13q0 13 -16 13q-23 0 -36.5 4t-26 19.5t-27 46.5t-37.5 85l-40 94l-32 66l-37 85l-38 86l-16 42l-24 48q-9 17 -16 17q-3 0 -13 -7l-10 -7q-14 -9 -21.5 -15t-13 -14.5t-11 -23.5t-14.5 -43l-21 -64l-21 -51l-21 -62l-26 -66l-30 -78l-13 -30l-15 -43
q-10 -27 -18.5 -43.5t-18 -25.5t-21.5 -12t-29 -3h-11q-20 0 -20 -14q0 -11 6.5 -15t29.5 -3l30 1q11 0 27.5 0.5t22.5 0.5l35 -1l29 -1h36h6q6 0 8 1t3 6t2 8.5t1 5.5q0 9 -16 9q-29 -1 -47 8t-18 25q0 12 7 33l41 119q6 17 10 21t20 3l30 -2l63 2l66 -2h35q8 -1 12 -5.5
t9 -15.5l14 -37l16 -34l13 -30l13 -26q0 -3 6 -21q2 -5 3 -9t1 -9q0 -21 -54 -21l-10 1q-8 0 -10 -3.5t-2 -9.5q0 -12 3.5 -15t18.5 -3h7q9 0 15.5 0.5t10.5 0.5l29 1h32h36l40 -1l36 -1h13q9 0 12 2.5t3 12.5zM424 287q0 -5 -8 -9t-20 -6h-34h-52h-34l-29 -1q-12 0 -12 9v3
l7 19l11 36l13 32l9 24l18 48q24 62 26 62q4 0 11 -16t24 -51l20 -43l23 -56l10 -25t8 -15zM784 791h-15q-6 -33 -17 -46.5t-32 -13.5q-10 0 -21 4.5t-33 17.5q-64 38 -94 38q-40 0 -63.5 -29.5t-23.5 -78.5h16q6 60 48 60q11 0 24 -5.5t39 -19.5l28 -16q20 -11 33.5 -15
t28.5 -4q38 0 58.5 27.5t23.5 80.5z" />
    <glyph glyph-name="Adieresis" unicode="&#xc4;" horiz-adv-x="691" 
d="M474 670q0 20 -15 35t-35 15q-22 0 -36.5 -15t-14.5 -37q0 -20 15 -35t36 -15q20 0 35 15t15 37zM271 670q0 20 -15 35t-35 15q-21 0 -35 -15t-14 -37q0 -20 14.5 -34.5t35.5 -14.5t35 14.5t14 36.5zM700 13q0 13 -16 13q-23 0 -36.5 4t-26 19.5t-27 46.5t-37.5 85
l-40 94l-32 66l-37 85l-38 86l-16 42l-24 48q-9 17 -16 17q-3 0 -13 -7l-10 -7q-14 -9 -21.5 -15t-13 -14.5t-11 -23.5t-14.5 -43l-21 -64l-21 -51l-21 -62l-26 -66l-30 -78l-13 -30l-15 -43q-10 -27 -18.5 -43.5t-18 -25.5t-21.5 -12t-29 -3h-11q-20 0 -20 -14
q0 -11 6.5 -15t29.5 -3l30 1q11 0 27.5 0.5t22.5 0.5l35 -1l29 -1h36h6q6 0 8 1t3 6t2 8.5t1 5.5q0 9 -16 9q-29 -1 -47 8t-18 25q0 12 7 33l41 119q6 17 10 21t20 3l30 -2l63 2l66 -2h35q8 -1 12 -5.5t9 -15.5l14 -37l16 -34l13 -30l13 -26q0 -3 6 -21q2 -5 3 -9t1 -9
q0 -21 -54 -21l-10 1q-8 0 -10 -3.5t-2 -9.5q0 -12 3.5 -15t18.5 -3h7q9 0 15.5 0.5t10.5 0.5l29 1h32h36l40 -1l36 -1h13q9 0 12 2.5t3 12.5zM424 287q0 -5 -8 -9t-20 -6h-34h-52h-34l-29 -1q-12 0 -12 9v3l7 19l11 36l13 32l9 24l18 48q24 62 26 62q4 0 11 -16t24 -51
l20 -43l23 -56l10 -25t8 -15z" />
    <glyph glyph-name="Aring" unicode="&#xc5;" horiz-adv-x="706" 
d="M700 13q0 13 -16 13q-23 0 -36.5 4t-26 19.5t-27 46.5t-37.5 85l-40 94l-32 66l-37 85l-38 86l-16 42l-24 48q-9 17 -16 17q-3 0 -13 -7l-10 -7q-14 -9 -21.5 -15t-13 -14.5t-11 -23.5t-14.5 -43l-21 -64l-21 -51l-21 -62l-26 -66l-30 -78l-13 -30l-15 -43
q-10 -27 -18.5 -43.5t-18 -25.5t-21.5 -12t-29 -3h-11q-20 0 -20 -14q0 -11 6.5 -15t29.5 -3l30 1q11 0 27.5 0.5t22.5 0.5l35 -1l29 -1h36h6q6 0 8 1t3 6t2 8.5t1 5.5q0 9 -16 9q-29 -1 -47 8t-18 25q0 12 7 33l41 119q6 17 10 21t20 3l30 -2l63 2l66 -2h35q8 -1 12 -5.5
t9 -15.5l14 -37l16 -34l13 -30l13 -26q0 -3 6 -21q2 -5 3 -9t1 -9q0 -21 -54 -21l-10 1q-8 0 -10 -3.5t-2 -9.5q0 -12 3.5 -15t18.5 -3h7q9 0 15.5 0.5t10.5 0.5l29 1h32h36l40 -1l36 -1h13q9 0 12 2.5t3 12.5zM424 287q0 -5 -8 -9t-20 -6h-34h-52h-34l-29 -1q-12 0 -12 9v3
l7 19l11 36l13 32l9 24l18 48q24 62 26 62q4 0 11 -16t24 -51l20 -43l23 -56l10 -25t8 -15zM774 772q0 19 -7 36.5t-19.5 30.5t-29 20.5t-35.5 7.5t-36 -7t-29.5 -19.5t-19.5 -30t-7 -36.5t7.5 -35.5t20 -29t29.5 -19.5t36 -7q38 0 64 26t26 63zM747 773q0 -26 -18.5 -44
t-44.5 -18q-27 0 -46 19t-19 45t18.5 45t45.5 19q26 0 45 -19.5t19 -46.5z" />
    <glyph glyph-name="AE" unicode="&#xc6;" horiz-adv-x="885" 
d="M869 637h-528l-1 -18l26 -2q23 -2 41 -5t30 -7q-8 -17 -23 -40.5l-26 -40.5l-305 -450q-9 -13 -15.5 -21t-15.5 -13t-22 -9t-33 -9l-29 -7l-1 -19l10 1l7 1q11 2 26.5 2.5t35.5 -0.5l133 -3v17l-9 2l-30 3q-25 2 -34 7t-9 13q0 7 7.5 21.5t17.5 25.5l155 232h157
l-24 -128l-39 -158q-16 -7 -37.5 -12t-41.5 -7l-38 -3l-3 -15l58 -1l185 5l316 -5l43 139q2 6 2 8t1 7q-7 2 -10.5 2.5t-9.5 2.5q-21 -38 -44.5 -64.5t-54 -42.5t-70.5 -23t-92 -7q-45 0 -75 4t-54 13l57 288l197 3q38 1 50 -8.5t10 -38.5l-3 -51l18 -1l10 56l12 56l14 53
l14 51q-7 2 -10 2h-8l-7 -14q-8 -17 -13 -26.5l-8.5 -16.5t-7 -12.5t-9.5 -13.5q-14 -5 -24.5 -7.5t-22.5 -4t-27.5 -2.5t-39.5 -1l-116 -2h-24l39 210q2 12 3.5 19t2.5 12.5t2.5 10.5l3.5 12l9 3q14 3 43 4t73 2l58 1l20 -1l35 -2q11 -1 17.5 -3t10.5 -7t6 -14.5t4 -24.5
l4 -34h15l14 91zM488 606v-5q0 -2 -1 -7l-39 -207l-10 -48h-129h-14l175 271l18 -1v-3z" />
    <glyph glyph-name="Ccedilla" unicode="&#xc7;" horiz-adv-x="734" 
d="M691 144q0 6 -5.5 11t-14.5 5q-12 0 -17 -16q-9 -31 -21.5 -50.5t-34.5 -33.5q-29 -19 -68 -28.5t-84 -9.5q-21 0 -46.5 5.5t-52.5 13.5q-23 7 -40.5 15t-33 18.5t-29.5 24t-29 31.5q-32 39 -46.5 82.5t-14.5 103.5q0 30 9 61t25 59t38.5 51.5t49.5 40.5q79 48 158 48h5
h3q73 0 125 -32t75 -93q8 -17 18 -17q16 0 16 14l-4 15q-4 22 -7 43t-4 41q-1 9 -3 12.5t-9 6.5q-14 8 -30 12l-49 12q-20 4 -32 7t-20 4.5t-14 2.5t-12 1q-23 2 -37 3.5t-23 1.5q-66 0 -132.5 -20.5t-119.5 -55.5q-62 -42 -99 -104t-37 -128q0 -21 5.5 -48t15.5 -51
q11 -29 30 -53.5t54 -57.5q12 -12 23 -20.5t22.5 -16t25 -14.5t32.5 -15q26 -12 48.5 -20t44.5 -12.5t45.5 -6t51.5 -1.5q19 0 41.5 1.5t43.5 4t39.5 6.5t31.5 9l40 15q13 5 19.5 7t9.5 6t4.5 12t5.5 24l6 23l6 31zM340 -116q0 55 -65 72l35 51h-31l-70 -93h10q55 0 55 -42
q0 -27 -28 -44t-75 -17q-11 0 -19 0.5t-22 2.5l-8 -18q26 -5 39.5 -6.5t27.5 -1.5q31 0 58.5 7.5t48 20.5t32.5 30.5t12 37.5z" />
    <glyph glyph-name="Egrave" unicode="&#xc8;" horiz-adv-x="631" 
d="M606 110q0 14 -18 14q-8 0 -11 -3.5t-9 -14.5q-3 -4 -6.5 -10t-11.5 -18q-12 -17 -15.5 -22.5t-7.5 -9.5q-10 -9 -40.5 -13.5t-88.5 -4.5h-22t-33 1q-16 0 -27.5 0.5t-14.5 0.5q-14 1 -22.5 4t-14.5 7q-14 9 -19 33.5t-5 75.5v38l4 71v9v15q0 6 0.5 9t6.5 4.5t19 1.5h37
h34l43 -3q17 -1 28 -3.5t17 -8.5t9.5 -17.5t5.5 -30.5q2 -11 5 -15t11 -4q7 0 10.5 2t4.5 10l-2 43l1 23l1 60v16l1 14q1 8 -2.5 10.5t-12.5 2.5q-5 0 -8 -2t-7 -9l-7 -19q-5 -14 -10 -21.5t-14.5 -12t-26 -6t-44.5 -1.5l-55 -1l-31 1q-11 0 -14.5 3.5t-3.5 13.5l2 90l-2 65
q-1 26 6 41.5t18 22.5q8 3 27 5.5t49 1.5l39 -1l52 -4q25 -2 39.5 -5t22.5 -11t12 -23t7 -41q1 -15 18 -15q15 0 15 13v15v14v22l1 45q0 7 -0.5 10t-5 4.5t-15.5 2t-31 0.5l-50 1l-91 2h-49h-62l-43 -2q-32 -2 -66 0.5t-63 3.5q-22 1 -22 -11q0 -11 4 -15t18 -4
q28 -1 45.5 -4t26.5 -13.5t12 -30.5t2 -54l-2 -77v-161v-28v-45q-2 -16 -2 -28v-19q-1 -23 -2.5 -35t-6.5 -23q-7 -14 -26 -21.5t-52 -7.5q-23 0 -23 -13q0 -9 2.5 -12.5t11.5 -3.5l46 1q13 2 24 3t22.5 1.5t24.5 0.5h30h63h64l73 -1h114l39 -1q9 0 12.5 4t9.5 22l18 55
l6 17zM580 684l-70 144h-91l145 -144h16z" />
    <glyph glyph-name="Eacute" unicode="&#xc9;" horiz-adv-x="631" 
d="M606 110q0 14 -18 14q-8 0 -11 -3.5t-9 -14.5q-3 -4 -6.5 -10t-11.5 -18q-12 -17 -15.5 -22.5t-7.5 -9.5q-10 -9 -40.5 -13.5t-88.5 -4.5h-22t-33 1q-16 0 -27.5 0.5t-14.5 0.5q-14 1 -22.5 4t-14.5 7q-14 9 -19 33.5t-5 75.5v38l4 71v9v15q0 6 0.5 9t6.5 4.5t19 1.5h37
h34l43 -3q17 -1 28 -3.5t17 -8.5t9.5 -17.5t5.5 -30.5q2 -11 5 -15t11 -4q7 0 10.5 2t4.5 10l-2 43l1 23l1 60v16l1 14q1 8 -2.5 10.5t-12.5 2.5q-5 0 -8 -2t-7 -9l-7 -19q-5 -14 -10 -21.5t-14.5 -12t-26 -6t-44.5 -1.5l-55 -1l-31 1q-11 0 -14.5 3.5t-3.5 13.5l2 90l-2 65
q-1 26 6 41.5t18 22.5q8 3 27 5.5t49 1.5l39 -1l52 -4q25 -2 39.5 -5t22.5 -11t12 -23t7 -41q1 -15 18 -15q15 0 15 13v15v14v22l1 45q0 7 -0.5 10t-5 4.5t-15.5 2t-31 0.5l-50 1l-91 2h-49h-62l-43 -2q-32 -2 -66 0.5t-63 3.5q-22 1 -22 -11q0 -11 4 -15t18 -4
q28 -1 45.5 -4t26.5 -13.5t12 -30.5t2 -54l-2 -77v-161v-28v-45q-2 -16 -2 -28v-19q-1 -23 -2.5 -35t-6.5 -23q-7 -14 -26 -21.5t-52 -7.5q-23 0 -23 -13q0 -9 2.5 -12.5t11.5 -3.5l46 1q13 2 24 3t22.5 1.5t24.5 0.5h30h63h64l73 -1h114l39 -1q9 0 12.5 4t9.5 22l18 55
l6 17zM582 828h-92l-70 -144h17z" />
    <glyph glyph-name="Ecircumflex" unicode="&#xca;" horiz-adv-x="631" 
d="M606 110q0 14 -18 14q-8 0 -11 -3.5t-9 -14.5q-3 -4 -6.5 -10t-11.5 -18q-12 -17 -15.5 -22.5t-7.5 -9.5q-10 -9 -40.5 -13.5t-88.5 -4.5h-22t-33 1q-16 0 -27.5 0.5t-14.5 0.5q-14 1 -22.5 4t-14.5 7q-14 9 -19 33.5t-5 75.5v38l4 71v9v15q0 6 0.5 9t6.5 4.5t19 1.5h37
h34l43 -3q17 -1 28 -3.5t17 -8.5t9.5 -17.5t5.5 -30.5q2 -11 5 -15t11 -4q7 0 10.5 2t4.5 10l-2 43l1 23l1 60v16l1 14q1 8 -2.5 10.5t-12.5 2.5q-5 0 -8 -2t-7 -9l-7 -19q-5 -14 -10 -21.5t-14.5 -12t-26 -6t-44.5 -1.5l-55 -1l-31 1q-11 0 -14.5 3.5t-3.5 13.5l2 90l-2 65
q-1 26 6 41.5t18 22.5q8 3 27 5.5t49 1.5l39 -1l52 -4q25 -2 39.5 -5t22.5 -11t12 -23t7 -41q1 -15 18 -15q15 0 15 13v15v14v22l1 45q0 7 -0.5 10t-5 4.5t-15.5 2t-31 0.5l-50 1l-91 2h-49h-62l-43 -2q-32 -2 -66 0.5t-63 3.5q-22 1 -22 -11q0 -11 4 -15t18 -4
q28 -1 45.5 -4t26.5 -13.5t12 -30.5t2 -54l-2 -77v-161v-28v-45q-2 -16 -2 -28v-19q-1 -23 -2.5 -35t-6.5 -23q-7 -14 -26 -21.5t-52 -7.5q-23 0 -23 -13q0 -9 2.5 -12.5t11.5 -3.5l46 1q13 2 24 3t22.5 1.5t24.5 0.5h30h63h64l73 -1h114l39 -1q9 0 12.5 4t9.5 22l18 55
l6 17zM603 683l-44 145h-61l-168 -145h26l158 93l69 -93h20z" />
    <glyph glyph-name="Edieresis" unicode="&#xcb;" horiz-adv-x="631" 
d="M606 110q0 14 -18 14q-8 0 -11 -3.5t-9 -14.5q-3 -4 -6.5 -10t-11.5 -18q-12 -17 -15.5 -22.5t-7.5 -9.5q-10 -9 -40.5 -13.5t-88.5 -4.5h-22t-33 1q-16 0 -27.5 0.5t-14.5 0.5q-14 1 -22.5 4t-14.5 7q-14 9 -19 33.5t-5 75.5v38l4 71v9v15q0 6 0.5 9t6.5 4.5t19 1.5h37
h34l43 -3q17 -1 28 -3.5t17 -8.5t9.5 -17.5t5.5 -30.5q2 -11 5 -15t11 -4q7 0 10.5 2t4.5 10l-2 43l1 23l1 60v16l1 14q1 8 -2.5 10.5t-12.5 2.5q-5 0 -8 -2t-7 -9l-7 -19q-5 -14 -10 -21.5t-14.5 -12t-26 -6t-44.5 -1.5l-55 -1l-31 1q-11 0 -14.5 3.5t-3.5 13.5l2 90l-2 65
q-1 26 6 41.5t18 22.5q8 3 27 5.5t49 1.5l39 -1l52 -4q25 -2 39.5 -5t22.5 -11t12 -23t7 -41q1 -15 18 -15q15 0 15 13v15v14v22l1 45q0 7 -0.5 10t-5 4.5t-15.5 2t-31 0.5l-50 1l-91 2h-49h-62l-43 -2q-32 -2 -66 0.5t-63 3.5q-22 1 -22 -11q0 -11 4 -15t18 -4
q28 -1 45.5 -4t26.5 -13.5t12 -30.5t2 -54l-2 -77v-161v-28v-45q-2 -16 -2 -28v-19q-1 -23 -2.5 -35t-6.5 -23q-7 -14 -26 -21.5t-52 -7.5q-23 0 -23 -13q0 -9 2.5 -12.5t11.5 -3.5l46 1q13 2 24 3t22.5 1.5t24.5 0.5h30h63h64l73 -1h114l39 -1q9 0 12.5 4t9.5 22l18 55
l6 17zM606 722q0 17 -11 28.5t-27 11.5q-17 0 -28.5 -11.5t-11.5 -27.5q0 -17 12 -28t29 -11q16 0 26.5 11t10.5 27zM428 722q0 17 -11 29t-28 11q-16 0 -27 -11.5t-11 -28.5q0 -16 11.5 -27t28.5 -11q16 0 26.5 11t10.5 27z" />
    <glyph glyph-name="Igrave" unicode="&#xcc;" horiz-adv-x="360" 
d="M324 8q0 15 -19 16q-29 3 -45 6.5t-24 14t-10 30.5t-2 56v44v91l2 197q0 37 1 57.5t7 30.5t18.5 12t36.5 3q22 2 28.5 4.5t6.5 13.5q0 12 -19 12l-51 -1l-94 -5l-62 2q-20 1 -28 1h-14q-11 0 -14.5 -2t-4.5 -10q-1 -11 5.5 -14.5t29.5 -3.5q45 0 56 -21q2 -3 3.5 -7
t2.5 -14.5t1.5 -31.5t0.5 -58l1 -245v-35l-1 -49l-2 -29q-2 -27 -14.5 -36.5t-45.5 -8.5q-21 1 -29.5 -3t-8.5 -12q0 -11 4.5 -15t17.5 -3l43 3l72 2l55 -1h46l37 -4q13 0 13 13zM398 684l-70 144h-91l145 -144h16z" />
    <glyph glyph-name="Iacute" unicode="&#xcd;" horiz-adv-x="360" 
d="M324 8q0 15 -19 16q-29 3 -45 6.5t-24 14t-10 30.5t-2 56v44v91l2 197q0 37 1 57.5t7 30.5t18.5 12t36.5 3q22 2 28.5 4.5t6.5 13.5q0 12 -19 12l-51 -1l-94 -5l-62 2q-20 1 -28 1h-14q-11 0 -14.5 -2t-4.5 -10q-1 -11 5.5 -14.5t29.5 -3.5q45 0 56 -21q2 -3 3.5 -7
t2.5 -14.5t1.5 -31.5t0.5 -58l1 -245v-35l-1 -49l-2 -29q-2 -27 -14.5 -36.5t-45.5 -8.5q-21 1 -29.5 -3t-8.5 -12q0 -11 4.5 -15t17.5 -3l43 3l72 2l55 -1h46l37 -4q13 0 13 13zM400 828h-92l-70 -144h17z" />
    <glyph glyph-name="Icircumflex" unicode="&#xce;" horiz-adv-x="360" 
d="M324 8q0 15 -19 16q-29 3 -45 6.5t-24 14t-10 30.5t-2 56v44v91l2 197q0 37 1 57.5t7 30.5t18.5 12t36.5 3q22 2 28.5 4.5t6.5 13.5q0 12 -19 12l-51 -1l-94 -5l-62 2q-20 1 -28 1h-14q-11 0 -14.5 -2t-4.5 -10q-1 -11 5.5 -14.5t29.5 -3.5q45 0 56 -21q2 -3 3.5 -7
t2.5 -14.5t1.5 -31.5t0.5 -58l1 -245v-35l-1 -49l-2 -29q-2 -27 -14.5 -36.5t-45.5 -8.5q-21 1 -29.5 -3t-8.5 -12q0 -11 4.5 -15t17.5 -3l43 3l72 2l55 -1h46l37 -4q13 0 13 13zM421 683l-44 145h-61l-168 -145h26l158 93l69 -93h20z" />
    <glyph glyph-name="Idieresis" unicode="&#xcf;" horiz-adv-x="360" 
d="M324 8q0 15 -19 16q-29 3 -45 6.5t-24 14t-10 30.5t-2 56v44v91l2 197q0 37 1 57.5t7 30.5t18.5 12t36.5 3q22 2 28.5 4.5t6.5 13.5q0 12 -19 12l-51 -1l-94 -5l-62 2q-20 1 -28 1h-14q-11 0 -14.5 -2t-4.5 -10q-1 -11 5.5 -14.5t29.5 -3.5q45 0 56 -21q2 -3 3.5 -7
t2.5 -14.5t1.5 -31.5t0.5 -58l1 -245v-35l-1 -49l-2 -29q-2 -27 -14.5 -36.5t-45.5 -8.5q-21 1 -29.5 -3t-8.5 -12q0 -11 4.5 -15t17.5 -3l43 3l72 2l55 -1h46l37 -4q13 0 13 13zM424 722q0 17 -11 28.5t-27 11.5q-17 0 -28.5 -11.5t-11.5 -27.5q0 -17 12 -28t29 -11
q16 0 26.5 11t10.5 27zM246 722q0 17 -11 29t-28 11q-16 0 -27 -11.5t-11 -28.5q0 -16 11.5 -27t28.5 -11q16 0 26.5 11t10.5 27z" />
    <glyph glyph-name="Eth" unicode="&#xd0;" horiz-adv-x="760" 
d="M753 402q0 20 -6 48.5t-15 47.5q-8 18 -20.5 35t-34.5 40q-37 36 -83 52q-17 6 -42 11.5t-45 5.5l-244 -1l-28 -1l-21 -1l-75 3q-1 -4 -1.5 -5l-1.5 -3v-5l1 -9q11 -2 16.5 -3.5t19.5 -1.5q35 -2 48 -4.5t15 -7.5q1 -3 -2 -16q-2 -6 -3.5 -13.5l-3.5 -17.5l-14 -79
l-30 -140h-90l-7 -34h90l-43 -236q-3 -16 -6 -25t-9 -13.5t-16 -6.5t-28 -4l-43 -4v-23l113 1l43 3l84 -1q32 -1 70 4t76 15q47 11 81 26.5t69 41.5q29 22 46 37t34 34q50 56 78 121.5t28 128.5zM665 393q0 -14 -3 -33t-7.5 -38.5t-10.5 -37.5t-12 -30l-21 -42
q-8 -16 -22.5 -36t-31.5 -37l-21.5 -22.5t-19.5 -17t-21 -14.5l-26 -16l-17 -10q-19 -11 -48.5 -19.5t-60.5 -14.5l-32 -6h-14q-29 0 -47.5 2t-28.5 6.5t-13.5 12.5t-3.5 20q0 5 1 12.5t3 16.5q2 8 3.5 17.5t3.5 18.5l38 179h226l7 34h-226l29 146l4 22l3 26l4 17l12 54l1 8
q8 2 19.5 2.5t24.5 0.5q29 0 58 -1.5t71 -7.5q31 -5 53 -13.5t42 -24.5q39 -31 62 -78t23 -96h-1z" />
    <glyph glyph-name="Ntilde" unicode="&#xd1;" horiz-adv-x="870" 
d="M841 578q0 13 -4.5 16.5t-16.5 3.5h-26l-38 -2l-37 -1h-9q-5 0 -15.5 1.5t-33.5 1.5h-25h-18q-20 0 -20 -12q0 -11 5.5 -14.5t20.5 -2.5q44 1 59.5 -17t14.5 -68l-1 -51l1 -66l-1 -50l1 -84v-61v-21l2 -12q0 -2 -2 -5t-4 -3q-4 0 -10.5 5t-11.5 13l-22 21l-48 53l-42 43
l-48 46q-13 13 -34.5 36.5l-53.5 60.5l-10.5 12l-8.5 9.5t-9 9.5l-12 12l-55 57l-60 60l-16 17q-5 7 -8 8.5t-12 1.5l-17 2h-42l-67 2h-11h-16h-9h-9h-7q-19 0 -19 -10q0 -12 4 -15.5t27 -4.5q10 0 17.5 -1t15 -4t17.5 -9t25 -16q7 -5 10.5 -8.5t5.5 -9t2.5 -14.5t0.5 -24
v-35q0 -27 1.5 -46t1.5 -33v-20l-1 -36l1 -60l-1 -48v-54l-2 -34v-32q0 -30 -16.5 -42.5t-60.5 -14.5q-13 0 -15.5 -3t-2.5 -12q0 -11 6 -13t26 -2t33.5 0.5t36.5 0.5h28h32l29 -1h18h14q11 0 13.5 3t2.5 14q0 12 -16 12h-18q-30 0 -50 18q-9 8 -12 17t-3 31v42v3v34v37v25
v12v112l-2 67v37v6q0 17 1.5 22.5t4.5 5.5q1 0 7.5 -5.5l12.5 -10.5l34 -37l18 -18l28 -29l52 -50l83 -83l58 -61l49 -47l46 -50l33 -33l31 -31l16.5 -17l12.5 -13t11 -12l12 -14q4 -6 6.5 -7.5t7.5 -1.5q11 0 13.5 1.5t2.5 9.5l-1 29q-1 27 -2 51t-1 47v17v42l-1 59v32v66
l-2 42l2 40v24l1 39l2 40q2 29 14 40.5t44 11.5h9h7q25 0 25 10zM664 791h-15q-6 -33 -17 -46.5t-32 -13.5q-10 0 -21 4.5t-33 17.5q-64 38 -94 38q-40 0 -63.5 -29.5t-23.5 -78.5h16q6 60 48 60q11 0 24 -5.5t39 -19.5l28 -16q20 -11 33.5 -15t28.5 -4q38 0 58.5 27.5
t23.5 80.5z" />
    <glyph glyph-name="Ograve" unicode="&#xd2;" horiz-adv-x="811" 
d="M780 311q0 63 -29.5 117.5t-80 95.5t-117.5 64.5t-143 23.5q-113 0 -198 -47t-142 -138q-18 -29 -27.5 -63t-12.5 -86q3 -34 9 -60.5t18.5 -50t32 -46.5t49.5 -50q48 -44 113.5 -67t138.5 -23q40 0 80 8.5t88 27.5q45 18 79.5 43.5t69.5 69.5q37 45 55 86.5t17 94.5z
M678 268q0 -49 -22.5 -99t-59.5 -85q-15 -14 -36 -26t-45.5 -20.5t-51 -13.5t-53.5 -5q-91 0 -156 53q-33 27 -55.5 53t-36.5 57.5t-20 70.5t-6 90q0 57 16.5 94t51.5 72q37 35 86 54t100 19q69 0 129 -30t99 -85q32 -44 46 -92t14 -107zM574 684l-70 144h-91l145 -144h16z
" />
    <glyph glyph-name="Oacute" unicode="&#xd3;" horiz-adv-x="811" 
d="M780 311q0 63 -29.5 117.5t-80 95.5t-117.5 64.5t-143 23.5q-113 0 -198 -47t-142 -138q-18 -29 -27.5 -63t-12.5 -86q3 -34 9 -60.5t18.5 -50t32 -46.5t49.5 -50q48 -44 113.5 -67t138.5 -23q40 0 80 8.5t88 27.5q45 18 79.5 43.5t69.5 69.5q37 45 55 86.5t17 94.5z
M678 268q0 -49 -22.5 -99t-59.5 -85q-15 -14 -36 -26t-45.5 -20.5t-51 -13.5t-53.5 -5q-91 0 -156 53q-33 27 -55.5 53t-36.5 57.5t-20 70.5t-6 90q0 57 16.5 94t51.5 72q37 35 86 54t100 19q69 0 129 -30t99 -85q32 -44 46 -92t14 -107zM576 828h-92l-70 -144h17z" />
    <glyph glyph-name="Ocircumflex" unicode="&#xd4;" horiz-adv-x="811" 
d="M780 311q0 63 -29.5 117.5t-80 95.5t-117.5 64.5t-143 23.5q-113 0 -198 -47t-142 -138q-18 -29 -27.5 -63t-12.5 -86q3 -34 9 -60.5t18.5 -50t32 -46.5t49.5 -50q48 -44 113.5 -67t138.5 -23q40 0 80 8.5t88 27.5q45 18 79.5 43.5t69.5 69.5q37 45 55 86.5t17 94.5z
M678 268q0 -49 -22.5 -99t-59.5 -85q-15 -14 -36 -26t-45.5 -20.5t-51 -13.5t-53.5 -5q-91 0 -156 53q-33 27 -55.5 53t-36.5 57.5t-20 70.5t-6 90q0 57 16.5 94t51.5 72q37 35 86 54t100 19q69 0 129 -30t99 -85q32 -44 46 -92t14 -107zM597 683l-44 145h-61l-168 -145h26
l158 93l69 -93h20z" />
    <glyph glyph-name="Otilde" unicode="&#xd5;" horiz-adv-x="811" 
d="M780 311q0 63 -29.5 117.5t-80 95.5t-117.5 64.5t-143 23.5q-113 0 -198 -47t-142 -138q-18 -29 -27.5 -63t-12.5 -86q3 -34 9 -60.5t18.5 -50t32 -46.5t49.5 -50q48 -44 113.5 -67t138.5 -23q40 0 80 8.5t88 27.5q45 18 79.5 43.5t69.5 69.5q37 45 55 86.5t17 94.5z
M678 268q0 -49 -22.5 -99t-59.5 -85q-15 -14 -36 -26t-45.5 -20.5t-51 -13.5t-53.5 -5q-91 0 -156 53q-33 27 -55.5 53t-36.5 57.5t-20 70.5t-6 90q0 57 16.5 94t51.5 72q37 35 86 54t100 19q69 0 129 -30t99 -85q32 -44 46 -92t14 -107zM612 791h-15q-6 -33 -17 -46.5
t-32 -13.5q-10 0 -21 4.5t-33 17.5q-64 38 -94 38q-40 0 -63.5 -29.5t-23.5 -78.5h16q6 60 48 60q11 0 24 -5.5t39 -19.5l28 -16q20 -11 33.5 -15t28.5 -4q38 0 58.5 27.5t23.5 80.5z" />
    <glyph glyph-name="Odieresis" unicode="&#xd6;" horiz-adv-x="809" 
d="M538 690q0 20 -14.5 35t-35.5 15q-22 0 -36 -15t-14 -37q0 -20 14.5 -35t35.5 -15t35.5 15t14.5 37zM337 690q0 20 -15.5 35t-36.5 15q-20 0 -34.5 -15t-14.5 -37q0 -20 15 -34.5t35 -14.5q21 0 36 14.5t15 36.5zM780 311q0 63 -29.5 117.5t-80 95.5t-117.5 64.5
t-143 23.5q-113 0 -198 -47t-142 -138q-18 -29 -27.5 -63t-12.5 -86q3 -34 9 -60.5t18.5 -50t32 -46.5t49.5 -50q48 -44 113.5 -67t138.5 -23q40 0 80 8.5t88 27.5q45 18 79.5 43.5t69.5 69.5q37 45 55 86.5t17 94.5zM678 268q0 -49 -22.5 -99t-59.5 -85q-15 -14 -36 -26
t-45.5 -20.5t-51 -13.5t-53.5 -5q-91 0 -156 53q-33 27 -55.5 53t-36.5 57.5t-20 70.5t-6 90q0 57 16.5 94t51.5 72q37 35 86 54t100 19q69 0 129 -30t99 -85q32 -44 46 -92t14 -107z" />
    <glyph glyph-name="multiply" unicode="&#xd7;" horiz-adv-x="668" 
d="M576 528l-34 34l-207 -208l-209 208l-32 -34l206 -209l-207 -205l34 -35l208 206l205 -206l34 35l-205 205z" />
    <glyph glyph-name="Oslash" unicode="&#xd8;" horiz-adv-x="677" 
d="M673 363q0 7 -1 18.5l-2 23t-2.5 20.5t-1.5 11l-9 37l-3 10l-2 9l-6 13l-5 11q-4 8 -14.5 24t-21.5 30l56 67l-15 13l-56 -66q-30 31 -68.5 48.5t-76.5 17.5q-26 0 -55 -3t-47 -8l-31 -9l-29 -14l-20 -11l-9 -5l-6 -3l-6 -5l-12 -9l-11 -12l-17 -15q-17 -16 -33 -35.5
t-19 -25.5l-7 -13l-8 -11l-5 -10l-20 -44q-6 -14 -12 -31.5t-10 -36t-6.5 -36.5t-2.5 -33q0 -28 4 -57.5t10 -45.5l6 -16l6 -20q3 -11 16 -32t29 -44l-57 -68l14 -12l58 67l20 -17q27 -23 65 -38t76 -12l46 4q16 2 43.5 11.5t51.5 22.5l10 4l16.5 11.5t21.5 16.5l22 18.5
t18 18.5l8 10l9 10l33 44q19 26 31.5 52.5t21.5 61.5q5 19 8 31.5t4.5 22t2 18t0.5 21.5zM557 544l-376 -442q-10 22 -16.5 48t-8.5 49l-2 32l-2 12v4q0 34 5.5 66.5t13.5 62t18 54.5t19 43l9 18q17 33 41 60t58 47q28 17 53 23.5t57 6.5q18 0 38 -6.5t38 -18t32.5 -27
t22.5 -32.5zM594 386q0 -30 -7.5 -69t-18.5 -67l-9 -22l-4 -15l-4.5 -11.5t-6.5 -14.5l-20 -42q-8 -17 -21 -35.5t-21 -26.5l-6 -6l-11 -14q-10 -12 -25.5 -22.5t-33.5 -18t-38 -12t-38 -4.5q-12 0 -27 3l-9 2l-18 7l-7 2q-7 2 -21 9.5t-22 15.5l-9 10l-8 8q-4 2 -10 12
l-7 9l374 440q6 -10 11 -26.5t8.5 -35t6 -38.5t2.5 -38z" />
    <glyph glyph-name="Ugrave" unicode="&#xd9;" horiz-adv-x="811" 
d="M779 581q0 8 -3.5 11t-14.5 3h-29t-35 -2h-26h-36l-40 2h-24l-7 1q-19 0 -19 -13q0 -7 3 -10.5t12 -3.5q25 -3 40 -6t22.5 -9t9.5 -17.5t2 -30.5l1 -74v-89v-86q0 -61 -12.5 -104.5t-39.5 -71t-68.5 -40.5t-99.5 -13q-51 0 -92.5 14t-64.5 40q-20 21 -27.5 47.5
t-9.5 70.5l-4 72l1 83l-2 60l1 37v42q0 20 1 24t3 8q1 7 3 13.5t8 8.5q10 9 24 12.5t39 5.5q16 2 22 4.5t6 10.5q0 9 -4.5 12t-16.5 3h-21l-24 -1q-21 -1 -40 -3t-39 -2q-11 0 -18.5 1t-17 2.5t-23 2.5t-37.5 2l-33 1q-19 0 -19 -15q0 -11 16 -13l27 -2q16 -1 26.5 -5
t16.5 -12.5t8.5 -21.5t3.5 -33l2 -60v-63v-55v-69l-2 -51v-14q0 -104 65 -151q35 -26 90.5 -41.5t119.5 -15.5q43 0 77 7t67 21q19 8 32.5 14.5t23.5 14t18 16.5t17 23q10 16 17.5 31t12 32.5t6.5 39t3 50.5q1 19 1 30v15l-1 31l1 39v89v54l1 37q1 25 15.5 35.5t49.5 9.5
q22 -1 28.5 2t6.5 13zM595 684l-70 144h-91l145 -144h16z" />
    <glyph glyph-name="Uacute" unicode="&#xda;" horiz-adv-x="811" 
d="M779 581q0 8 -3.5 11t-14.5 3h-29t-35 -2h-26h-36l-40 2h-24l-7 1q-19 0 -19 -13q0 -7 3 -10.5t12 -3.5q25 -3 40 -6t22.5 -9t9.5 -17.5t2 -30.5l1 -74v-89v-86q0 -61 -12.5 -104.5t-39.5 -71t-68.5 -40.5t-99.5 -13q-51 0 -92.5 14t-64.5 40q-20 21 -27.5 47.5
t-9.5 70.5l-4 72l1 83l-2 60l1 37v42q0 20 1 24t3 8q1 7 3 13.5t8 8.5q10 9 24 12.5t39 5.5q16 2 22 4.5t6 10.5q0 9 -4.5 12t-16.5 3h-21l-24 -1q-21 -1 -40 -3t-39 -2q-11 0 -18.5 1t-17 2.5t-23 2.5t-37.5 2l-33 1q-19 0 -19 -15q0 -11 16 -13l27 -2q16 -1 26.5 -5
t16.5 -12.5t8.5 -21.5t3.5 -33l2 -60v-63v-55v-69l-2 -51v-14q0 -104 65 -151q35 -26 90.5 -41.5t119.5 -15.5q43 0 77 7t67 21q19 8 32.5 14.5t23.5 14t18 16.5t17 23q10 16 17.5 31t12 32.5t6.5 39t3 50.5q1 19 1 30v15l-1 31l1 39v89v54l1 37q1 25 15.5 35.5t49.5 9.5
q22 -1 28.5 2t6.5 13zM597 828h-92l-70 -144h17z" />
    <glyph glyph-name="Ucircumflex" unicode="&#xdb;" horiz-adv-x="811" 
d="M779 581q0 8 -3.5 11t-14.5 3h-29t-35 -2h-26h-36l-40 2h-24l-7 1q-19 0 -19 -13q0 -7 3 -10.5t12 -3.5q25 -3 40 -6t22.5 -9t9.5 -17.5t2 -30.5l1 -74v-89v-86q0 -61 -12.5 -104.5t-39.5 -71t-68.5 -40.5t-99.5 -13q-51 0 -92.5 14t-64.5 40q-20 21 -27.5 47.5
t-9.5 70.5l-4 72l1 83l-2 60l1 37v42q0 20 1 24t3 8q1 7 3 13.5t8 8.5q10 9 24 12.5t39 5.5q16 2 22 4.5t6 10.5q0 9 -4.5 12t-16.5 3h-21l-24 -1q-21 -1 -40 -3t-39 -2q-11 0 -18.5 1t-17 2.5t-23 2.5t-37.5 2l-33 1q-19 0 -19 -15q0 -11 16 -13l27 -2q16 -1 26.5 -5
t16.5 -12.5t8.5 -21.5t3.5 -33l2 -60v-63v-55v-69l-2 -51v-14q0 -104 65 -151q35 -26 90.5 -41.5t119.5 -15.5q43 0 77 7t67 21q19 8 32.5 14.5t23.5 14t18 16.5t17 23q10 16 17.5 31t12 32.5t6.5 39t3 50.5q1 19 1 30v15l-1 31l1 39v89v54l1 37q1 25 15.5 35.5t49.5 9.5
q22 -1 28.5 2t6.5 13zM618 683l-44 145h-61l-168 -145h26l158 93l69 -93h20z" />
    <glyph glyph-name="Udieresis" unicode="&#xdc;" horiz-adv-x="795" 
d="M557 690q0 20 -14 35t-36 15t-36.5 -15t-14.5 -37q0 -20 15.5 -35t35.5 -15q22 0 36 15t14 37zM356 690q0 20 -15 35t-36 15q-20 0 -35 -15t-15 -37q0 -20 15 -34.5t35 -14.5q21 0 36 14.5t15 36.5zM779 581q0 8 -3.5 11t-14.5 3h-29t-35 -2h-26h-36l-40 2h-24l-7 1
q-19 0 -19 -13q0 -7 3 -10.5t12 -3.5q25 -3 40 -6t22.5 -9t9.5 -17.5t2 -30.5l1 -74v-89v-86q0 -61 -12.5 -104.5t-39.5 -71t-68.5 -40.5t-99.5 -13q-51 0 -92.5 14t-64.5 40q-20 21 -27.5 47.5t-9.5 70.5l-4 72l1 83l-2 60l1 37v42q0 20 1 24t3 8q1 7 3 13.5t8 8.5
q10 9 24 12.5t39 5.5q16 2 22 4.5t6 10.5q0 9 -4.5 12t-16.5 3h-21l-24 -1q-21 -1 -40 -3t-39 -2q-11 0 -18.5 1t-17 2.5t-23 2.5t-37.5 2l-33 1q-19 0 -19 -15q0 -11 16 -13l27 -2q16 -1 26.5 -5t16.5 -12.5t8.5 -21.5t3.5 -33l2 -60v-63v-55v-69l-2 -51v-14
q0 -104 65 -151q35 -26 90.5 -41.5t119.5 -15.5q43 0 77 7t67 21q19 8 32.5 14.5t23.5 14t18 16.5t17 23q10 16 17.5 31t12 32.5t6.5 39t3 50.5q1 19 1 30v15l-1 31l1 39v89v54l1 37q1 25 15.5 35.5t49.5 9.5q22 -1 28.5 2t6.5 13z" />
    <glyph glyph-name="Yacute" unicode="&#xdd;" horiz-adv-x="676" 
d="M671 575q0 17 -16 17l-21 -2l-36 -1h-27h-15h-8l-37 1q-1 2 -9 2h-18h-10q-10 0 -13 -3t-3 -13t10 -10h24q21 0 33.5 -6.5t12.5 -17.5q0 -3 -3 -8t-9 -16l-17 -21.5t-15 -18.5l-21 -24l-15 -20l-16 -18l-12 -14l-29 -36q-24 -30 -31 -30q-2 0 -9.5 7t-24.5 29l-31 32
l-39 48l-15 23l-11 12q-26 28 -34.5 42.5t-8.5 22.5q0 14 26 14l19 2h11q23 0 23 10q0 11 -4.5 14.5t-18.5 3.5h-5q-2 0 -4 -1h-28l-38 -2h-26h-30l-33 2l-33 3h-27q-5 1 -9 1q-18 0 -18 -11t6.5 -14.5t27.5 -3.5q23 0 40.5 -13.5t47.5 -51.5l37 -47l25 -32l17 -20l42 -51
l24 -31l11 -16l14 -20q3 -5 4.5 -10t1.5 -16v-22v-12v-26v-14v-20l1 -17v-15v-21q0 -33 -6 -54t-17 -26q-22 -11 -60 -11q-16 0 -20.5 -3t-4.5 -14q0 -13 18 -13l31 4l30 1l30 1h17h17h20q10 0 26 -1l15 -1h33h28l17 -3q12 0 12 11q0 6 -1 9.5t-4.5 5t-10.5 2t-19 1.5
q-38 2 -53.5 14.5t-15.5 41.5v14v62l1 29v8v9v8v6l-1 29q-1 17 0.5 28.5t6.5 22t13.5 22t21.5 26.5l26 30l10 12l37 45l36 39l30 36l18 21l13 14q12 13 25 18t34 5q17 0 17 11zM561 828h-92l-70 -144h17z" />
    <glyph glyph-name="Thorn" unicode="&#xde;" horiz-adv-x="552" 
d="M560 327q0 16 -4.5 33.5t-12.5 34t-18.5 30.5t-21.5 23l-20 15l-18 11l-8 4l-8 5l-8 3q-9 4 -14 5.5t-7 2.5l-23 4q-23 5 -39 5t-19 -1l-23 -2l-15 -1h-22l16 82q2 9 7 15t15.5 10.5t27 7.5t41.5 5l13 2l-2 25l-20 -3l-12 -1l-13 -1l-45 -1h-3l-45 -1l-129 7l-3 -11
q-2 -5 -2 -7t-2 -9q15 -3 17 -3l9 1l11 1h25l13 -2q6 -1 9 -1q4 0 6 -1t3.5 -1.5t3.5 -2.5l3 -6v-5l-2 -17q-2 -13 -2.5 -22.5t-2.5 -16.5l-14 -67l-2 -19l-4 -18l-7 -42l-11 -55l-3 -21l-4 -21l-3 -27l-7 -36l-3 -23l-26 -119l-1 -11l-9 -33q-4 -13 -24 -20.5t-66 -12.5
l-12 -2v-25l22 3l12 1l13 1l51 2l95 -2l22 -2l14 -1l13 -1l12 -2q1 5 1 8q0 5 0.5 10t1.5 10q-5 2 -8 2.5t-6 1.5t-7 1.5t-11 0.5l-9 1q-25 3 -33.5 8t-8.5 13q0 7 5 24q2 8 3 15.5l2 15.5l71 371q15 4 35.5 4.5t34.5 -1.5l33 -6q15 -3 34.5 -15.5t30.5 -26.5
q30 -37 34.5 -74.5t-5 -69.5t-27.5 -56.5t-32 -34.5q-8 -5 -16.5 -11t-16.5 -11l-4 -3l-2 -1l-25 -10q-4 0 -6 -1q-3 0 -7 -2l-11 -2l-13 -1h-10l-38 1l-12 2l-1 -8l-2 -7v-5q12 -3 14 -4h6l44 -7q4 -1 14 -1h11l43 7q7 0 15 3l28 9l28 13l28 18l9 6l7 7l8 8q14 12 27 33
t17 38l3 12q4 14 6.5 26t2.5 26z" />
    <glyph glyph-name="germandbls" unicode="&#xdf;" horiz-adv-x="417" 
d="M541 560q0 41 -23 64t-65 27l-12 1q-35 -2 -59 -11t-53 -29l-16 -11q-13 -9 -29 -27t-32 -40.5t-30.5 -48t-25.5 -49.5l-29 -64l-16 -42l-21 -58l-53 -188l-10 -43l-16 -56l-4 -19l-14 -56l-2 -11q-5 -27 -15 -50t-23 -40t-28.5 -27t-31.5 -10q-10 0 -10 2v15
q0 10 -4 19.5t-11.5 15.5t-18.5 6t-25 -9q-13 -11 -13 -26q0 -22 24 -35t56 -13q23 0 39 5.5t37 21.5q18 14 34.5 35t25.5 46l22 61l54 201l24 93l13 45l16 48l11 29l10 29l12 29q20 49 36 80.5t31 54.5q70 103 152 103q23 0 37.5 -15.5t14.5 -41.5q0 -17 -9.5 -32.5
t-31.5 -40.5l-7 -8q-4 -2 -8 -6l-73 -57l-15 -12q-12 -10 -23.5 -23t-21 -27.5t-15 -28t-5.5 -24.5q0 -14 3 -31.5t7 -31.5l25 -84q1 -3 3 -11l6 -34q2 -6 1.5 -12.5t-0.5 -13.5q0 -24 -8 -44.5t-19 -26.5l-8 -5q-6 -5 -9.5 -5.5t-8.5 -0.5q-16 0 -28.5 14t-16.5 37
q-7 13 -14 16l-9 3l-8 1q-12 0 -28 -14q-4 -13 -4 -20q0 -14 8 -26t21.5 -21t31 -14t37.5 -5q22 0 42.5 12t36.5 32.5t25.5 46t9.5 52.5q0 13 -1 23.5t-3.5 22t-6.5 25t-11 33.5l-15 43l-14 46q0 3 -0.5 6.5t-0.5 7.5q0 40 53 70l67 37q41 23 63.5 54.5t22.5 65.5z" />
    <glyph glyph-name="agrave" unicode="&#xe0;" horiz-adv-x="406" 
d="M412 379l-1 7q-7 3 -10.5 3.5t-9.5 0.5h-9q-3 0 -11 -1l-6 -6q-3 -1 -8 -15q-1 -2 -2 -4.5t-3 -6.5q-21 9 -44.5 7t-45 -8.5t-38.5 -16t-26 -15.5q-2 -2 -7.5 -5t-11.5 -8q-6 -4 -11.5 -8.5l-10.5 -8.5l-9 -8l-18 -16q-8 -6 -29 -32l-28.5 -37t-17.5 -28
q-37 -82 -37 -129q0 -24 10 -41t28 -17h9h9l24 4l13 4l32 16q15 8 38.5 28.5t45.5 45.5l21 24q13 14 23 29l-14 -31l-9 -23l-8 -17l-13 -34q-2 -8 -3.5 -16.5t0 -15t7 -11t18.5 -4.5q21 0 50 18.5t55 47.5l31 35l8 10l-7 7t-9 7l-7 -9l-8 -9l-14 -15l-29 -27
q-8 -8 -14.5 -12l-18.5 -11l-3 2l127 339zM327 304q0 -8 -2 -12l-4 -22l-14 -34l-10 -21q-12 -26 -32 -52t-46 -52l-41 -41l-21 -15q-11 -8 -19 -13q-4 -2 -8 -3t-9 -3l-9 -1h-9q-10 0 -16.5 8.5t-6.5 22.5q0 20 12.5 52.5t31.5 62.5l19 33l20 26l28 34q10 12 23.5 22.5
t27.5 18.5t28 13t25 5q15 0 23.5 -8t8.5 -21zM422 471l-70 144h-91l145 -144h16z" />
    <glyph glyph-name="aacute" unicode="&#xe1;" horiz-adv-x="406" 
d="M412 379l-1 7q-7 3 -10.5 3.5t-9.5 0.5h-9q-3 0 -11 -1l-6 -6q-3 -1 -8 -15q-1 -2 -2 -4.5t-3 -6.5q-21 9 -44.5 7t-45 -8.5t-38.5 -16t-26 -15.5q-2 -2 -7.5 -5t-11.5 -8q-6 -4 -11.5 -8.5l-10.5 -8.5l-9 -8l-18 -16q-8 -6 -29 -32l-28.5 -37t-17.5 -28
q-37 -82 -37 -129q0 -24 10 -41t28 -17h9h9l24 4l13 4l32 16q15 8 38.5 28.5t45.5 45.5l21 24q13 14 23 29l-14 -31l-9 -23l-8 -17l-13 -34q-2 -8 -3.5 -16.5t0 -15t7 -11t18.5 -4.5q21 0 50 18.5t55 47.5l31 35l8 10l-7 7t-9 7l-7 -9l-8 -9l-14 -15l-29 -27
q-8 -8 -14.5 -12l-18.5 -11l-3 2l127 339zM327 304q0 -8 -2 -12l-4 -22l-14 -34l-10 -21q-12 -26 -32 -52t-46 -52l-41 -41l-21 -15q-11 -8 -19 -13q-4 -2 -8 -3t-9 -3l-9 -1h-9q-10 0 -16.5 8.5t-6.5 22.5q0 20 12.5 52.5t31.5 62.5l19 33l20 26l28 34q10 12 23.5 22.5
t27.5 18.5t28 13t25 5q15 0 23.5 -8t8.5 -21zM424 615h-92l-70 -144h17z" />
    <glyph glyph-name="acircumflex" unicode="&#xe2;" horiz-adv-x="406" 
d="M412 379l-1 7q-7 3 -10.5 3.5t-9.5 0.5h-9q-3 0 -11 -1l-6 -6q-3 -1 -8 -15q-1 -2 -2 -4.5t-3 -6.5q-21 9 -44.5 7t-45 -8.5t-38.5 -16t-26 -15.5q-2 -2 -7.5 -5t-11.5 -8q-6 -4 -11.5 -8.5l-10.5 -8.5l-9 -8l-18 -16q-8 -6 -29 -32l-28.5 -37t-17.5 -28
q-37 -82 -37 -129q0 -24 10 -41t28 -17h9h9l24 4l13 4l32 16q15 8 38.5 28.5t45.5 45.5l21 24q13 14 23 29l-14 -31l-9 -23l-8 -17l-13 -34q-2 -8 -3.5 -16.5t0 -15t7 -11t18.5 -4.5q21 0 50 18.5t55 47.5l31 35l8 10l-7 7t-9 7l-7 -9l-8 -9l-14 -15l-29 -27
q-8 -8 -14.5 -12l-18.5 -11l-3 2l127 339zM327 304q0 -8 -2 -12l-4 -22l-14 -34l-10 -21q-12 -26 -32 -52t-46 -52l-41 -41l-21 -15q-11 -8 -19 -13q-4 -2 -8 -3t-9 -3l-9 -1h-9q-10 0 -16.5 8.5t-6.5 22.5q0 20 12.5 52.5t31.5 62.5l19 33l20 26l28 34q10 12 23.5 22.5
t27.5 18.5t28 13t25 5q15 0 23.5 -8t8.5 -21zM445 470l-44 145h-61l-168 -145h26l158 93l69 -93h20z" />
    <glyph glyph-name="atilde" unicode="&#xe3;" horiz-adv-x="406" 
d="M412 379l-1 7q-7 3 -10.5 3.5t-9.5 0.5h-9q-3 0 -11 -1l-6 -6q-3 -1 -8 -15q-1 -2 -2 -4.5t-3 -6.5q-21 9 -44.5 7t-45 -8.5t-38.5 -16t-26 -15.5q-2 -2 -7.5 -5t-11.5 -8q-6 -4 -11.5 -8.5l-10.5 -8.5l-9 -8l-18 -16q-8 -6 -29 -32l-28.5 -37t-17.5 -28
q-37 -82 -37 -129q0 -24 10 -41t28 -17h9h9l24 4l13 4l32 16q15 8 38.5 28.5t45.5 45.5l21 24q13 14 23 29l-14 -31l-9 -23l-8 -17l-13 -34q-2 -8 -3.5 -16.5t0 -15t7 -11t18.5 -4.5q21 0 50 18.5t55 47.5l31 35l8 10l-7 7t-9 7l-7 -9l-8 -9l-14 -15l-29 -27
q-8 -8 -14.5 -12l-18.5 -11l-3 2l127 339zM327 304q0 -8 -2 -12l-4 -22l-14 -34l-10 -21q-12 -26 -32 -52t-46 -52l-41 -41l-21 -15q-11 -8 -19 -13q-4 -2 -8 -3t-9 -3l-9 -1h-9q-10 0 -16.5 8.5t-6.5 22.5q0 20 12.5 52.5t31.5 62.5l19 33l20 26l28 34q10 12 23.5 22.5
t27.5 18.5t28 13t25 5q15 0 23.5 -8t8.5 -21zM460 578h-15q-6 -33 -17 -46.5t-32 -13.5q-10 0 -21 4.5t-33 17.5q-64 38 -94 38q-40 0 -63.5 -29.5t-23.5 -78.5h16q6 60 48 60q11 0 24 -5.5t39 -19.5l28 -16q20 -11 33.5 -15t28.5 -4q38 0 58.5 27.5t23.5 80.5z" />
    <glyph glyph-name="adieresis" unicode="&#xe4;" horiz-adv-x="406" 
d="M412 379l-1 7q-7 3 -10.5 3.5t-9.5 0.5h-9q-3 0 -11 -1l-6 -6q-3 -1 -8 -15q-1 -2 -2 -4.5t-3 -6.5q-21 9 -44.5 7t-45 -8.5t-38.5 -16t-26 -15.5q-2 -2 -7.5 -5t-11.5 -8q-6 -4 -11.5 -8.5l-10.5 -8.5l-9 -8l-18 -16q-8 -6 -29 -32l-28.5 -37t-17.5 -28
q-37 -82 -37 -129q0 -24 10 -41t28 -17h9h9l24 4l13 4l32 16q15 8 38.5 28.5t45.5 45.5l21 24q13 14 23 29l-14 -31l-9 -23l-8 -17l-13 -34q-2 -8 -3.5 -16.5t0 -15t7 -11t18.5 -4.5q21 0 50 18.5t55 47.5l31 35l8 10l-7 7t-9 7l-7 -9l-8 -9l-14 -15l-29 -27
q-8 -8 -14.5 -12l-18.5 -11l-3 2l127 339zM327 304q0 -8 -2 -12l-4 -22l-14 -34l-10 -21q-12 -26 -32 -52t-46 -52l-41 -41l-21 -15q-11 -8 -19 -13q-4 -2 -8 -3t-9 -3l-9 -1h-9q-10 0 -16.5 8.5t-6.5 22.5q0 20 12.5 52.5t31.5 62.5l19 33l20 26l28 34q10 12 23.5 22.5
t27.5 18.5t28 13t25 5q15 0 23.5 -8t8.5 -21zM448 509q0 17 -11 28.5t-27 11.5q-17 0 -28.5 -11.5t-11.5 -27.5q0 -17 12 -28t29 -11q16 0 26.5 11t10.5 27zM270 509q0 17 -11 29t-28 11q-16 0 -27 -11.5t-11 -28.5q0 -16 11.5 -27t28.5 -11q16 0 26.5 11t10.5 27z" />
    <glyph glyph-name="aring" unicode="&#xe5;" horiz-adv-x="406" 
d="M412 379l-1 7q-7 3 -10.5 3.5t-9.5 0.5h-9q-3 0 -11 -1l-6 -6q-3 -1 -8 -15q-1 -2 -2 -4.5t-3 -6.5q-21 9 -44.5 7t-45 -8.5t-38.5 -16t-26 -15.5q-2 -2 -7.5 -5t-11.5 -8q-6 -4 -11.5 -8.5l-10.5 -8.5l-9 -8l-18 -16q-8 -6 -29 -32l-28.5 -37t-17.5 -28
q-37 -82 -37 -129q0 -24 10 -41t28 -17h9h9l24 4l13 4l32 16q15 8 38.5 28.5t45.5 45.5l21 24q13 14 23 29l-14 -31l-9 -23l-8 -17l-13 -34q-2 -8 -3.5 -16.5t0 -15t7 -11t18.5 -4.5q21 0 50 18.5t55 47.5l31 35l8 10l-7 7t-9 7l-7 -9l-8 -9l-14 -15l-29 -27
q-8 -8 -14.5 -12l-18.5 -11l-3 2l127 339zM327 304q0 -8 -2 -12l-4 -22l-14 -34l-10 -21q-12 -26 -32 -52t-46 -52l-41 -41l-21 -15q-11 -8 -19 -13q-4 -2 -8 -3t-9 -3l-9 -1h-9q-10 0 -16.5 8.5t-6.5 22.5q0 20 12.5 52.5t31.5 62.5l19 33l20 26l28 34q10 12 23.5 22.5
t27.5 18.5t28 13t25 5q15 0 23.5 -8t8.5 -21zM450 559q0 19 -7 36.5t-19.5 30.5t-29 20.5t-35.5 7.5t-36 -7t-29.5 -19.5t-19.5 -30t-7 -36.5t7.5 -35.5t20 -29t29.5 -19.5t36 -7q38 0 64 26t26 63zM423 560q0 -26 -18.5 -44t-44.5 -18q-27 0 -46 19t-19 45t18.5 45t45.5 19
q26 0 45 -19.5t19 -46.5z" />
    <glyph glyph-name="ae" unicode="&#xe6;" horiz-adv-x="490" 
d="M517 326q0 28 -14 47t-36 19q-14 0 -31 -8t-40 -26q5 20 7 30q0 5 -0.5 9.5t-0.5 9.5q-5 2 -9 2h-5l-10 -1l-13 -22l-7 -14q-14 4 -22 5.5t-20 1.5q-29 0 -56 -11.5t-51.5 -29.5t-45.5 -39t-38 -40q-52 -57 -77 -106.5t-25 -97.5q0 -35 14 -53.5t41 -18.5q40 0 79.5 26
t74.5 64l5 6q-5 -17 -6.5 -25t-1.5 -18q0 -51 52 -51q31 0 61 14t55.5 34.5t45 44t28.5 42.5q-5 3 -7 5t-10 6l-7 -9l-15 -18q-15 -18 -32 -33.5t-33.5 -26.5t-31.5 -17.5t-27 -6.5q-14 0 -17.5 11.5t-0.5 31.5q3 22 11.5 44l16.5 42l8 3l76 35t49 28q32 23 49 51t17 60z
M482 336q0 -19 -10 -40t-28 -41t-42 -37.5t-52 -27.5l-13 -5q-2 -2 -4 -2q-1 0 -3 -1q6 16 18 41t27 51q29 50 49.5 72t35.5 22q22 0 22 -32zM345 342l-25 -56l-7 -16l-17 -38l-39 -77q-8 -17 -14 -27.5l-9 -15.5q-14 -20 -32 -36t-36 -27.5t-32.5 -18t-21.5 -6.5
q-31 0 -31 35q0 12 5.5 29.5t14.5 37.5t20.5 40.5t23.5 37.5l30 41q18 24 38 43.5t40.5 33.5t39 22t33.5 8q11 0 19 -10z" />
    <glyph glyph-name="ccedilla" unicode="&#xe7;" horiz-adv-x="271" 
d="M337 341q0 25 -16.5 43.5t-39.5 18.5q-25 0 -56 -18q-15 -9 -25 -16t-20 -16.5t-21 -24l-28 -36.5q-28 -37 -45 -71t-26 -62.5t-12 -50.5t-3 -35q0 -87 55 -87q30 0 64.5 27t62.5 72l25 42l2 8h-12q-4 0 -6 -1q-2 0 -4 -0.5t-5 -0.5q-29 -46 -56 -71t-44 -25
q-11 0 -15.5 6.5t-4.5 29.5q0 25 7.5 56t18.5 61.5t23.5 57t21.5 42.5q21 37 39.5 55.5t32.5 18.5q9 0 14 -9t8 -16q1 -6 3 -9q3 -6 6 -10t11 -10q25 -8 35 4t10 27zM263 -116q0 55 -65 72l35 51h-31l-70 -93h10q55 0 55 -42q0 -27 -28 -44t-75 -17q-11 0 -19 0.5t-22 2.5
l-8 -18q26 -5 39.5 -6.5t27.5 -1.5q31 0 58.5 7.5t48 20.5t32.5 30.5t12 37.5z" />
    <glyph glyph-name="egrave" unicode="&#xe8;" horiz-adv-x="292" 
d="M318 325q0 30 -18 51.5t-45 21.5q-21 0 -45 -12.5t-40 -30.5l-13 -15l-15 -16l-29 -42l-13 -20t-15 -27q-8 -15 -13 -27.5t-8 -21.5q-7 -22 -12 -48.5t-5 -43.5q0 -51 19.5 -82t53.5 -31q26 0 54 17.5t53 49.5q16 20 26.5 39t15.5 39q-8 2 -11 2h-6h-8q-7 -19 -15 -32.5
t-19 -27.5l-10 -12q-12 -14 -27.5 -24t-27.5 -10q-15 0 -25 12.5t-13.5 33t-0.5 48t14 57.5l53 12l31 9q17 5 24 8t16 10l17 12l13 6q2 2 5.5 6t7.5 10q9 11 13.5 17.5t7.5 13.5q10 23 10 48zM277 347q0 -20 -6.5 -39.5t-18.5 -34.5l-10 -12t-10 -11q-8 -7 -16 -11.5
l-17 -9.5q-8 -6 -19 -10.5t-21 -8t-18 -5.5t-11 -2l2 6l25 56q10 22 23 42.5t26.5 36t25.5 24.5t21 9q10 0 17 -8.5t7 -21.5zM383 471l-70 144h-91l145 -144h16z" />
    <glyph glyph-name="eacute" unicode="&#xe9;" horiz-adv-x="292" 
d="M318 325q0 30 -18 51.5t-45 21.5q-21 0 -45 -12.5t-40 -30.5l-13 -15l-15 -16l-29 -42l-13 -20t-15 -27q-8 -15 -13 -27.5t-8 -21.5q-7 -22 -12 -48.5t-5 -43.5q0 -51 19.5 -82t53.5 -31q26 0 54 17.5t53 49.5q16 20 26.5 39t15.5 39q-8 2 -11 2h-6h-8q-7 -19 -15 -32.5
t-19 -27.5l-10 -12q-12 -14 -27.5 -24t-27.5 -10q-15 0 -25 12.5t-13.5 33t-0.5 48t14 57.5l53 12l31 9q17 5 24 8t16 10l17 12l13 6q2 2 5.5 6t7.5 10q9 11 13.5 17.5t7.5 13.5q10 23 10 48zM277 347q0 -20 -6.5 -39.5t-18.5 -34.5l-10 -12t-10 -11q-8 -7 -16 -11.5
l-17 -9.5q-8 -6 -19 -10.5t-21 -8t-18 -5.5t-11 -2l2 6l25 56q10 22 23 42.5t26.5 36t25.5 24.5t21 9q10 0 17 -8.5t7 -21.5zM385 615h-92l-70 -144h17z" />
    <glyph glyph-name="ecircumflex" unicode="&#xea;" horiz-adv-x="292" 
d="M318 325q0 30 -18 51.5t-45 21.5q-21 0 -45 -12.5t-40 -30.5l-13 -15l-15 -16l-29 -42l-13 -20t-15 -27q-8 -15 -13 -27.5t-8 -21.5q-7 -22 -12 -48.5t-5 -43.5q0 -51 19.5 -82t53.5 -31q26 0 54 17.5t53 49.5q16 20 26.5 39t15.5 39q-8 2 -11 2h-6h-8q-7 -19 -15 -32.5
t-19 -27.5l-10 -12q-12 -14 -27.5 -24t-27.5 -10q-15 0 -25 12.5t-13.5 33t-0.5 48t14 57.5l53 12l31 9q17 5 24 8t16 10l17 12l13 6q2 2 5.5 6t7.5 10q9 11 13.5 17.5t7.5 13.5q10 23 10 48zM277 347q0 -20 -6.5 -39.5t-18.5 -34.5l-10 -12t-10 -11q-8 -7 -16 -11.5
l-17 -9.5q-8 -6 -19 -10.5t-21 -8t-18 -5.5t-11 -2l2 6l25 56q10 22 23 42.5t26.5 36t25.5 24.5t21 9q10 0 17 -8.5t7 -21.5zM406 470l-44 145h-61l-168 -145h26l158 93l69 -93h20z" />
    <glyph glyph-name="edieresis" unicode="&#xeb;" horiz-adv-x="292" 
d="M318 325q0 30 -18 51.5t-45 21.5q-21 0 -45 -12.5t-40 -30.5l-13 -15l-15 -16l-29 -42l-13 -20t-15 -27q-8 -15 -13 -27.5t-8 -21.5q-7 -22 -12 -48.5t-5 -43.5q0 -51 19.5 -82t53.5 -31q26 0 54 17.5t53 49.5q16 20 26.5 39t15.5 39q-8 2 -11 2h-6h-8q-7 -19 -15 -32.5
t-19 -27.5l-10 -12q-12 -14 -27.5 -24t-27.5 -10q-15 0 -25 12.5t-13.5 33t-0.5 48t14 57.5l53 12l31 9q17 5 24 8t16 10l17 12l13 6q2 2 5.5 6t7.5 10q9 11 13.5 17.5t7.5 13.5q10 23 10 48zM277 347q0 -20 -6.5 -39.5t-18.5 -34.5l-10 -12t-10 -11q-8 -7 -16 -11.5
l-17 -9.5q-8 -6 -19 -10.5t-21 -8t-18 -5.5t-11 -2l2 6l25 56q10 22 23 42.5t26.5 36t25.5 24.5t21 9q10 0 17 -8.5t7 -21.5zM409 509q0 17 -11 28.5t-27 11.5q-17 0 -28.5 -11.5t-11.5 -27.5q0 -17 12 -28t29 -11q16 0 26.5 11t10.5 27zM231 509q0 17 -11 29t-28 11
q-16 0 -27 -11.5t-11 -28.5q0 -16 11.5 -27t28.5 -11q16 0 26.5 11t10.5 27z" />
    <glyph glyph-name="igrave" unicode="&#xec;" horiz-adv-x="229" 
d="M254 377q0 24 -23 24q-17 0 -39 -9t-44.5 -24.5t-43.5 -36t-36 -43.5l35 6q26 30 45 44t39 20q5 -5 4 -11.5t-6 -14.5l-94 -176q-25 -47 -40.5 -84.5t-15.5 -57.5q0 -11 9.5 -18.5t22.5 -7.5q18 0 39 10t42 28t40.5 42.5t34.5 52.5q-11 2 -15 2h-11l-7 -11l-21 -27
l-12 -12l-24 -23q-8 -8 -17 -12t-15 -4l-5 2q0 10 1.5 15.5t5.5 12.5l30 57l14 23l89 174l14 40q4 8 4 19zM351 471l-70 144h-91l145 -144h16z" />
    <glyph glyph-name="iacute" unicode="&#xed;" horiz-adv-x="229" 
d="M254 377q0 24 -23 24q-17 0 -39 -9t-44.5 -24.5t-43.5 -36t-36 -43.5l35 6q26 30 45 44t39 20q5 -5 4 -11.5t-6 -14.5l-94 -176q-25 -47 -40.5 -84.5t-15.5 -57.5q0 -11 9.5 -18.5t22.5 -7.5q18 0 39 10t42 28t40.5 42.5t34.5 52.5q-11 2 -15 2h-11l-7 -11l-21 -27
l-12 -12l-24 -23q-8 -8 -17 -12t-15 -4l-5 2q0 10 1.5 15.5t5.5 12.5l30 57l14 23l89 174l14 40q4 8 4 19zM353 615h-92l-70 -144h17z" />
    <glyph glyph-name="icircumflex" unicode="&#xee;" horiz-adv-x="229" 
d="M254 377q0 24 -23 24q-17 0 -39 -9t-44.5 -24.5t-43.5 -36t-36 -43.5l35 6q26 30 45 44t39 20q5 -5 4 -11.5t-6 -14.5l-94 -176q-25 -47 -40.5 -84.5t-15.5 -57.5q0 -11 9.5 -18.5t22.5 -7.5q18 0 39 10t42 28t40.5 42.5t34.5 52.5q-11 2 -15 2h-11l-7 -11l-21 -27
l-12 -12l-24 -23q-8 -8 -17 -12t-15 -4l-5 2q0 10 1.5 15.5t5.5 12.5l30 57l14 23l89 174l14 40q4 8 4 19zM374 470l-44 145h-61l-168 -145h26l158 93l69 -93h20z" />
    <glyph glyph-name="idieresis" unicode="&#xef;" horiz-adv-x="229" 
d="M254 377q0 24 -23 24q-17 0 -39 -9t-44.5 -24.5t-43.5 -36t-36 -43.5l35 6q26 30 45 44t39 20q5 -5 4 -11.5t-6 -14.5l-94 -176q-25 -47 -40.5 -84.5t-15.5 -57.5q0 -11 9.5 -18.5t22.5 -7.5q18 0 39 10t42 28t40.5 42.5t34.5 52.5q-11 2 -15 2h-11l-7 -11l-21 -27
l-12 -12l-24 -23q-8 -8 -17 -12t-15 -4l-5 2q0 10 1.5 15.5t5.5 12.5l30 57l14 23l89 174l14 40q4 8 4 19zM377 509q0 17 -11 28.5t-27 11.5q-17 0 -28.5 -11.5t-11.5 -27.5q0 -17 12 -28t29 -11q16 0 26.5 11t10.5 27zM199 509q0 17 -11 29t-28 11q-16 0 -27 -11.5
t-11 -28.5q0 -16 11.5 -27t28.5 -11q16 0 26.5 11t10.5 27z" />
    <glyph glyph-name="eth" unicode="&#xf0;" horiz-adv-x="396" 
d="M428 543l-7 23l-102 -27q-13 32 -32 60.5t-41 45.5l-20 -15l12 -14l15 -20q3 -5 6 -9t5 -7l24 -50l-88 -27l8 -23l88 24q10 -31 14 -58.5t5 -58.5q-15 8 -24.5 10t-22.5 2q-31 0 -65.5 -21.5t-66.5 -59.5q-38 -47 -59.5 -101.5t-21.5 -106.5q0 -60 23 -93t66 -33
t83.5 28.5t72 75t50.5 106t19 122.5q0 95 -39 199zM314 327q0 -22 -6.5 -51t-18.5 -62t-29 -69t-38 -72q-38 -63 -76 -63q-44 0 -44 44v4q0 22 5.5 49t15.5 54.5t22.5 54.5t26.5 51q29 48 59 76.5t52 28.5q14 0 23 -12t9 -33h-1z" />
    <glyph glyph-name="ntilde" unicode="&#xf1;" horiz-adv-x="427" 
d="M437 372q0 16 -11 25.5t-28 9.5q-15 0 -30 -6.5t-29 -16.5t-26.5 -21.5t-21.5 -21.5l-11 -12.5t-8 -9.5q-28 -32 -53 -64.5l-49 -66.5l45 117l11 32q6 16 9 26.5t3.5 18t-2 13t-8.5 11.5h-10q-9 0 -15 -4t-14 -8l-11 -6q-14 -8 -29.5 -21t-30 -30t-28 -36.5t-22.5 -38.5
q8 0 10.5 -0.5t4.5 -0.5l9 1l6 9q25 33 43 52t28 19q3 0 5 -4l-63 -164l-36 -85l-20 -52q-13 -33 -13 -41l3 -10q5 -1 8 -1.5t7 -0.5q5 -1 10 -0.5t13 1.5q7 5 9.5 8.5t7.5 13.5l48 99l52 83q10 16 32 43l24 29q81 97 109 97q6 0 10.5 -8t-7.5 -34l-104 -233
q-11 -24 -17 -43.5t-8 -34.5v-1q0 -21 28 -21q17 0 38 11.5t38 28.5q8 8 18 19.5t19.5 25l19 27t15.5 25.5l-27 1q-25 -38 -45.5 -60.5t-33.5 -26.5l-2 4l109 255q11 24 16 47.5t5 31.5zM487 578h-15q-6 -33 -17 -46.5t-32 -13.5q-10 0 -21 4.5t-33 17.5q-64 38 -94 38
q-40 0 -63.5 -29.5t-23.5 -78.5h16q6 60 48 60q11 0 24 -5.5t39 -19.5l28 -16q20 -11 33.5 -15t28.5 -4q38 0 58.5 27.5t23.5 80.5z" />
    <glyph glyph-name="ograve" unicode="&#xf2;" horiz-adv-x="354" 
d="M358 281q0 58 -22 90t-64 32q-35 0 -69.5 -23t-64.5 -58l-11 -13l-10 -13q-12 -16 -23.5 -39t-20.5 -48.5t-14.5 -51.5t-5.5 -47q0 -58 22.5 -91t65.5 -33q39 0 70.5 17t63.5 55q35 40 52 75q15 32 23 70t8 78zM315 330q0 -30 -13 -75t-36 -95q-19 -41 -35 -68.5
t-30.5 -45t-28.5 -25t-29 -7.5q-39 0 -39 43q0 16 4.5 38t12 47t18 51.5t23.5 51.5q31 61 63 95t57 34q15 0 24 -11.5t9 -32.5zM413 471l-70 144h-91l145 -144h16z" />
    <glyph glyph-name="oacute" unicode="&#xf3;" horiz-adv-x="354" 
d="M358 281q0 58 -22 90t-64 32q-35 0 -69.5 -23t-64.5 -58l-11 -13l-10 -13q-12 -16 -23.5 -39t-20.5 -48.5t-14.5 -51.5t-5.5 -47q0 -58 22.5 -91t65.5 -33q39 0 70.5 17t63.5 55q35 40 52 75q15 32 23 70t8 78zM315 330q0 -30 -13 -75t-36 -95q-19 -41 -35 -68.5
t-30.5 -45t-28.5 -25t-29 -7.5q-39 0 -39 43q0 16 4.5 38t12 47t18 51.5t23.5 51.5q31 61 63 95t57 34q15 0 24 -11.5t9 -32.5zM415 615h-92l-70 -144h17z" />
    <glyph glyph-name="ocircumflex" unicode="&#xf4;" horiz-adv-x="354" 
d="M358 281q0 58 -22 90t-64 32q-35 0 -69.5 -23t-64.5 -58l-11 -13l-10 -13q-12 -16 -23.5 -39t-20.5 -48.5t-14.5 -51.5t-5.5 -47q0 -58 22.5 -91t65.5 -33q39 0 70.5 17t63.5 55q35 40 52 75q15 32 23 70t8 78zM315 330q0 -30 -13 -75t-36 -95q-19 -41 -35 -68.5
t-30.5 -45t-28.5 -25t-29 -7.5q-39 0 -39 43q0 16 4.5 38t12 47t18 51.5t23.5 51.5q31 61 63 95t57 34q15 0 24 -11.5t9 -32.5zM436 470l-44 145h-61l-168 -145h26l158 93l69 -93h20z" />
    <glyph glyph-name="otilde" unicode="&#xf5;" horiz-adv-x="354" 
d="M358 281q0 58 -22 90t-64 32q-35 0 -69.5 -23t-64.5 -58l-11 -13l-10 -13q-12 -16 -23.5 -39t-20.5 -48.5t-14.5 -51.5t-5.5 -47q0 -58 22.5 -91t65.5 -33q39 0 70.5 17t63.5 55q35 40 52 75q15 32 23 70t8 78zM315 330q0 -30 -13 -75t-36 -95q-19 -41 -35 -68.5
t-30.5 -45t-28.5 -25t-29 -7.5q-39 0 -39 43q0 16 4.5 38t12 47t18 51.5t23.5 51.5q31 61 63 95t57 34q15 0 24 -11.5t9 -32.5zM451 578h-15q-6 -33 -17 -46.5t-32 -13.5q-10 0 -21 4.5t-33 17.5q-64 38 -94 38q-40 0 -63.5 -29.5t-23.5 -78.5h16q6 60 48 60q11 0 24 -5.5
t39 -19.5l28 -16q20 -11 33.5 -15t28.5 -4q38 0 58.5 27.5t23.5 80.5z" />
    <glyph glyph-name="odieresis" unicode="&#xf6;" horiz-adv-x="354" 
d="M358 281q0 58 -22 90t-64 32q-35 0 -69.5 -23t-64.5 -58l-11 -13l-10 -13q-12 -16 -23.5 -39t-20.5 -48.5t-14.5 -51.5t-5.5 -47q0 -58 22.5 -91t65.5 -33q39 0 70.5 17t63.5 55q35 40 52 75q15 32 23 70t8 78zM315 330q0 -30 -13 -75t-36 -95q-19 -41 -35 -68.5
t-30.5 -45t-28.5 -25t-29 -7.5q-39 0 -39 43q0 16 4.5 38t12 47t18 51.5t23.5 51.5q31 61 63 95t57 34q15 0 24 -11.5t9 -32.5zM439 509q0 17 -11 28.5t-27 11.5q-17 0 -28.5 -11.5t-11.5 -27.5q0 -17 12 -28t29 -11q16 0 26.5 11t10.5 27zM261 509q0 17 -11 29t-28 11
q-16 0 -27 -11.5t-11 -28.5q0 -16 11.5 -27t28.5 -11q16 0 26.5 11t10.5 27z" />
    <glyph glyph-name="divide" unicode="&#xf7;" horiz-adv-x="668" 
d="M363 523q0 12 -9 20.5t-21 8.5t-21.5 -8t-9.5 -19q-1 -14 8.5 -23.5t22.5 -9.5q12 0 21 9t9 22zM596 299v42h-524v-42h524zM363 121q0 12 -8.5 21t-21.5 9t-22 -9t-9 -21q0 -13 9 -21.5t22 -8.5t21.5 8.5t8.5 21.5z" />
    <glyph glyph-name="oslash" unicode="&#xf8;" horiz-adv-x="354" 
d="M376 374q-2 8 -3.5 12t-6.5 13l-27 -30q-14 19 -29.5 26.5t-38.5 7.5q-70 0 -138 -89l-16 -21q-12 -16 -23.5 -39t-20 -47.5t-13.5 -49.5t-5 -44q0 -18 2 -30.5t8 -34.5l-24 -28l6 -31q8 8 12 13t7 8t5.5 6t5.5 6q14 -20 29.5 -27.5t42.5 -7.5q35 0 65 17t64 57
q27 32 43 58t24 60l5 20q12 49 9 88t-8 56zM316 341l-197 -230l-6 -6l-2 -3q6 37 26 85.5t46 93.5q42 73 77 88l12 5q3 2 10 2q29 0 34 -35zM314 300l-14 -56q-4 -17 -12.5 -39t-19 -45t-22.5 -44.5l-22 -38.5q-20 -33 -39 -48t-39 -15q-41 0 -41 39z" />
    <glyph glyph-name="ugrave" unicode="&#xf9;" horiz-adv-x="427" 
d="M456 393l-1.5 3l-0.5 1q-3 4 -10 6q-5 1 -12 1t-21 -2q-17 -38 -33 -70t-42 -63l-22 -27l-58 -67l-61 -62q-31 -31 -52.5 -48.5t-32.5 -22.5l-3 -1l2 8l11.5 28t12.5 28l88 173l33 73q4 9 6 14.5t2 10.5q0 12 -7.5 20t-18.5 8q-9 0 -22 -5.5t-27.5 -15.5t-29.5 -22.5
t-28 -25.5l-21 -22q-8 -9 -13 -14t-8 -9.5l-5.5 -8.5t-5.5 -11l20 -5l7 7l11 12l17.5 17l17.5 17l7 7l20.5 19t15.5 9l2 -2q0 -2 -2 -6.5t-8 -16.5l-122 -245q-11 -23 -19 -44t-8 -31q0 -11 5 -16.5t12.5 -6t16 2t16.5 6.5l31 19q4 4 17 12l29 23q12 9 27.5 23.5l32.5 31
t33 34l30 33.5l58 68l-69 -158q-11 -27 -15.5 -41.5t-4.5 -28.5q0 -8 2.5 -12t7.5 -11q12 -3 17 -3q15 0 35.5 15.5t40 36.5t35.5 43t23 36l-22 3l-7 -8l-9 -13l-15 -20t-14 -15l-19 -17q-2 -1 -6 -5t-6 -4q1 8 2.5 12.5t6.5 16.5l110 273zM449 471l-70 144h-91l145 -144h16
z" />
    <glyph glyph-name="uacute" unicode="&#xfa;" horiz-adv-x="427" 
d="M456 393l-1.5 3l-0.5 1q-3 4 -10 6q-5 1 -12 1t-21 -2q-17 -38 -33 -70t-42 -63l-22 -27l-58 -67l-61 -62q-31 -31 -52.5 -48.5t-32.5 -22.5l-3 -1l2 8l11.5 28t12.5 28l88 173l33 73q4 9 6 14.5t2 10.5q0 12 -7.5 20t-18.5 8q-9 0 -22 -5.5t-27.5 -15.5t-29.5 -22.5
t-28 -25.5l-21 -22q-8 -9 -13 -14t-8 -9.5l-5.5 -8.5t-5.5 -11l20 -5l7 7l11 12l17.5 17l17.5 17l7 7l20.5 19t15.5 9l2 -2q0 -2 -2 -6.5t-8 -16.5l-122 -245q-11 -23 -19 -44t-8 -31q0 -11 5 -16.5t12.5 -6t16 2t16.5 6.5l31 19q4 4 17 12l29 23q12 9 27.5 23.5l32.5 31
t33 34l30 33.5l58 68l-69 -158q-11 -27 -15.5 -41.5t-4.5 -28.5q0 -8 2.5 -12t7.5 -11q12 -3 17 -3q15 0 35.5 15.5t40 36.5t35.5 43t23 36l-22 3l-7 -8l-9 -13l-15 -20t-14 -15l-19 -17q-2 -1 -6 -5t-6 -4q1 8 2.5 12.5t6.5 16.5l110 273zM451 615h-92l-70 -144h17z" />
    <glyph glyph-name="ucircumflex" unicode="&#xfb;" horiz-adv-x="427" 
d="M456 393l-1.5 3l-0.5 1q-3 4 -10 6q-5 1 -12 1t-21 -2q-17 -38 -33 -70t-42 -63l-22 -27l-58 -67l-61 -62q-31 -31 -52.5 -48.5t-32.5 -22.5l-3 -1l2 8l11.5 28t12.5 28l88 173l33 73q4 9 6 14.5t2 10.5q0 12 -7.5 20t-18.5 8q-9 0 -22 -5.5t-27.5 -15.5t-29.5 -22.5
t-28 -25.5l-21 -22q-8 -9 -13 -14t-8 -9.5l-5.5 -8.5t-5.5 -11l20 -5l7 7l11 12l17.5 17l17.5 17l7 7l20.5 19t15.5 9l2 -2q0 -2 -2 -6.5t-8 -16.5l-122 -245q-11 -23 -19 -44t-8 -31q0 -11 5 -16.5t12.5 -6t16 2t16.5 6.5l31 19q4 4 17 12l29 23q12 9 27.5 23.5l32.5 31
t33 34l30 33.5l58 68l-69 -158q-11 -27 -15.5 -41.5t-4.5 -28.5q0 -8 2.5 -12t7.5 -11q12 -3 17 -3q15 0 35.5 15.5t40 36.5t35.5 43t23 36l-22 3l-7 -8l-9 -13l-15 -20t-14 -15l-19 -17q-2 -1 -6 -5t-6 -4q1 8 2.5 12.5t6.5 16.5l110 273zM472 470l-44 145h-61l-168 -145
h26l158 93l69 -93h20z" />
    <glyph glyph-name="udieresis" unicode="&#xfc;" horiz-adv-x="427" 
d="M456 393l-1.5 3l-0.5 1q-3 4 -10 6q-5 1 -12 1t-21 -2q-17 -38 -33 -70t-42 -63l-22 -27l-58 -67l-61 -62q-31 -31 -52.5 -48.5t-32.5 -22.5l-3 -1l2 8l11.5 28t12.5 28l88 173l33 73q4 9 6 14.5t2 10.5q0 12 -7.5 20t-18.5 8q-9 0 -22 -5.5t-27.5 -15.5t-29.5 -22.5
t-28 -25.5l-21 -22q-8 -9 -13 -14t-8 -9.5l-5.5 -8.5t-5.5 -11l20 -5l7 7l11 12l17.5 17l17.5 17l7 7l20.5 19t15.5 9l2 -2q0 -2 -2 -6.5t-8 -16.5l-122 -245q-11 -23 -19 -44t-8 -31q0 -11 5 -16.5t12.5 -6t16 2t16.5 6.5l31 19q4 4 17 12l29 23q12 9 27.5 23.5l32.5 31
t33 34l30 33.5l58 68l-69 -158q-11 -27 -15.5 -41.5t-4.5 -28.5q0 -8 2.5 -12t7.5 -11q12 -3 17 -3q15 0 35.5 15.5t40 36.5t35.5 43t23 36l-22 3l-7 -8l-9 -13l-15 -20t-14 -15l-19 -17q-2 -1 -6 -5t-6 -4q1 8 2.5 12.5t6.5 16.5l110 273zM475 509q0 17 -11 28.5t-27 11.5
q-17 0 -28.5 -11.5t-11.5 -27.5q0 -17 12 -28t29 -11q16 0 26.5 11t10.5 27zM297 509q0 17 -11 29t-28 11q-16 0 -27 -11.5t-11 -28.5q0 -16 11.5 -27t28.5 -11q16 0 26.5 11t10.5 27z" />
    <glyph glyph-name="yacute" unicode="&#xfd;" 
d="M404 615h-92l-70 -144h17zM823 368q0 33 -27 33q-17 0 -23.5 -12t-6.5 -35v-13l1 -21q1 -34 -5 -69t-15.5 -66.5t-20.5 -57t-19 -38.5l-39 -67l-12 -20l8 37q3 14 5.5 35l5.5 48q7 78 4.5 131.5t-12.5 86.5t-25.5 47.5t-33.5 14.5h-5q-2 0 -7 -1q-18 -8 -33 -27t-22 -42
l-15 -52l-5 -20q8 -8 13 -8l8 1l4 11q14 42 24.5 60.5t22.5 18.5q11 0 17 -11t9 -43l2 -20l4 -107q1 -11 0.5 -20t-1.5 -17l-4 -38q-5 -45 -12 -76.5t-16 -54.5t-20.5 -41t-26.5 -34l-16 -18q-5 -5 -8.5 -9t-7.5 -6l-21 -17l-7 -5q-3 -3 -5 -4l-8 -4l-12 -7q-46 -28 -86 -28
q-19 0 -27 4q-3 1 -9 7q-2 2 -4.5 5t-6.5 7q-10 12 -23 17.5t-27 5.5q-11 0 -18.5 -8.5t-7.5 -19.5q0 -23 28.5 -35t76.5 -12h20q20 3 60 17q32 12 56.5 26.5t50.5 36.5l19 16l38 39l17 21l19 24l49 69l15 22l16 25q11 18 22.5 44t21.5 52.5t17.5 48.5l10.5 31l21 71
q8 28 11 43t3 28z" />
    <glyph glyph-name="thorn" unicode="&#xfe;" horiz-adv-x="406" 
d="M412 255q0 49 -17.5 78t-40.5 45t-45 21t-30 5h-2q-8 0 -12 0.5t-9 -0.5h-28l40 138l13 34l9 28l7 22l1 11q0 7 -9 13l-21 1q-4 1 -6 0.5t-7 -1.5q-11 -12 -15 -29l-6 -24l-4 -14l-18 -48l-42 -141l-8 -2l-44 -10t-27 -8l-17 -6q-26 -9 -26 -23l2 -6q11 -5 17.5 -3.5
t20.5 7.5q5 2 11 3t11 3h3l18 5l20 4l8 2q-3 -12 -6 -21.5t-5.5 -18.5t-6 -19.5l-8.5 -24.5l-163 -456q-6 -16 -11 -25t-8 -12l-7 -4q-5 0 -13 -2l-8 -2l-27 -3l-11 -2l-13 -2l-12 -2l-3 -7.5t-1 -5.5v-7h21q10 0 15 0.5t15 -1.5q9 3 17 3q5 1 12 1h16l31 -2h34l16 -1h56
l3 7v3l-4 7l-7 3q-9 2 -13 2.5t-8 0.5l-26 1q-1 1 -4 1q-3 1 -12 3l-5 4v4q0 3 1.5 7t3.5 11l15 38q26 65 39.5 105t23.5 62l6 -2q20 -8 45.5 -12t55.5 7l39 13q19 6 46 25.5t45 38.5q7 7 15 18t16 24t14.5 25.5l11.5 22.5q9 20 15.5 46.5t6.5 43.5zM349 261
q0 -18 -5.5 -44.5t-13.5 -49.5q-10 -25 -24 -48.5t-34 -42.5l-6 -6l-7 -6q-17 -15 -30 -24t-23.5 -14.5t-21 -7t-23.5 -1.5q-46 0 -46 35q0 8 2.5 19t6.5 23l37 107l14 39l9 24l10 27l23 73h24q57 0 83 -24t26 -79h-1z" />
    <glyph glyph-name="ydieresis" unicode="&#xff;" 
d="M363 368q0 33 -27 33q-17 0 -23.5 -12t-6.5 -35v-13l1 -21q1 -34 -5 -69t-15.5 -66.5t-20.5 -57t-19 -38.5l-39 -67l-12 -20l8 37q3 14 5.5 35l5.5 48q7 78 4.5 131.5t-12.5 86.5t-25.5 47.5t-33.5 14.5h-5q-2 0 -7 -1q-18 -8 -33 -27t-22 -42l-15 -52l-5 -20q8 -8 13 -8
l8 1l4 11q14 42 24.5 60.5t22.5 18.5q11 0 17 -11t9 -43l2 -20l4 -107q1 -11 0.5 -20t-1.5 -17l-4 -38q-5 -45 -12 -76.5t-16 -54.5t-20.5 -41t-26.5 -34l-16 -18q-5 -5 -8.5 -9t-7.5 -6l-21 -17l-7 -5q-3 -3 -5 -4l-8 -4l-12 -7q-46 -28 -86 -28q-19 0 -27 4q-3 1 -9 7
q-2 2 -4.5 5t-6.5 7q-10 12 -23 17.5t-27 5.5q-11 0 -18.5 -8.5t-7.5 -19.5q0 -23 28.5 -35t76.5 -12h20q20 3 60 17q32 12 56.5 26.5t50.5 36.5l19 16l38 39l17 21l19 24l49 69l15 22l16 25q11 18 22.5 44t21.5 52.5t17.5 48.5l10.5 31l21 71q8 28 11 43t3 28zM437 509
q0 17 -11 28.5t-27 11.5q-17 0 -28.5 -11.5t-11.5 -27.5q0 -17 12 -28t29 -11q16 0 26.5 11t10.5 27zM259 509q0 17 -11 29t-28 11q-16 0 -27 -11.5t-11 -28.5q0 -16 11.5 -27t28.5 -11q16 0 26.5 11t10.5 27z" />
    </font>
</defs>
</svg>
