<?xml version="1.0" standalone="no"?>
<!DOCTYPE svg PUBLIC "-//W3C//DTD SVG 1.1//EN" "http://www.w3.org/Graphics/SVG/1.1/DTD/svg11.dtd" >
<svg xmlns="http://www.w3.org/2000/svg" xmlns:xlink="http://www.w3.org/1999/xlink" version="1.1">
<metadata>
Created by FontForge 20200314 at Sun Sep  7 13:57:23 2014
 By Unknown
Copyright (c) 2008 by Gilles Le Corre. All rights reserved.
</metadata>
<defs>
<font id="1589_Humane_BordeauxW00-It" horiz-adv-x="343" >
  <font-face 
    font-family="1589_Humane_Bordeaux"
    font-weight="400"
    font-style="italic"
    font-stretch="normal"
    units-per-em="1000"
    panose-1="2 10 5 2 6 0 0 9 0 3"
    ascent="800"
    descent="-200"
    x-height="332"
    cap-height="538"
    bbox="-224 -293.071 1286 838"
    underline-thickness="50"
    underline-position="-175"
    slope="-12"
    unicode-range="U+0020-FB06"
  />
<missing-glyph horiz-adv-x="500" 
d="M63 0v718h375v-718h-375zM125 63h250v593h-250v-593z" />
    <glyph glyph-name="AE" unicode="AE" horiz-adv-x="965" 
d="M585 302v2q0 3 4 10q1 5 2.5 8.5t7.5 6.5q7 13 10 19q3 11 6 35q1 16 -12 17q-26 1 -31 -20q-8 -31 -8 -32h-3q-29 3 -63 -44q-3 -4 -20 -15.5t-16 -14.5l1 -9q6 -5 15 -5q5 0 14 3t13 3q8 -4 24 -9q16 0 32 13.5t24 31.5zM639 503l16 8q5 6 4.5 16t3.5 15l10 5
q13 6 21 3l18 -26q6 -5 14 -2q12 4 13 4q5 0 9 -5q52 2 103 5q2 0 9.5 9.5t18.5 9.5q28 0 45 -30q14 -25 14 -55q0 -32 -36 -32q-8 0 -14 1l-26 27q1 12 -8 24.5t-20 12.5q-13 0 -39.5 -2.5t-39.5 -2.5q-7 0 -9.5 -4t-3.5 -7q-1 -9 -4 -22q-6 -3 -15 -11q-3 -7 -13 -29
q0 -7 -31 -72v-2q-2 -47 26 -47q64 0 72 1q36 6 57 37h7q12 -12 12 -17q0 -6 -6 -19q-1 -3 -4 -39q-1 -28 -9.5 -45t-17.5 -17t-9 21q1 30 -75 30q-28 0 -78 -4q-23 -46 -23 -56v-1q4 -13 4 -15q0 -3 -7.5 -17t-7.5 -40q0 -7 -10 -13.5t-10 -17.5q0 -7 19 -29q4 -3 11 -10
q2 -1 3 -1q7 0 36 4q22 3 36 0q7 3 31 8q18 3 33 15q25 3 49 5q5 2 35 35q5 -3 11 -14q14 -11 13 -25q-2 -5 -9 -11.5t-8 -23.5q-6 -13 -21 -30q-7 0 -29 -2q-18 -2 -29 -2q-14 0 -19 4q-11 0 -33.5 6t-33.5 6q-18 0 -26 -10.5t-19 -10.5q-7 0 -11 3h-3q-7 0 -17 6.5
t-14 6.5q1 0 -21 -11q-6 1 -17 0q-3 3 -8 11q-13 -2 -17.5 -6t-6.5 -5h-3q-5 -5 -19 -11q-43 -4 -62 -4q-16 0 -36 16v2q-27 15 -26 29q0 14 27 13l12 15q43 0 72 18q14 15 32 43l2 8q0 8 2 22q1 4 6.5 8.5t5.5 16.5q0 9 6 17q1 7 1 12q1 12 -10 21l-17 1h-14
q-19 -9 -55 -10q-41 -1 -57 -7q-32 -10 -56 -45q-8 -13 -16.5 -26.5t-9.5 -29.5l-18 -15.5t-19 -29.5q0 -7 8 -19t8 -20q-1 -10 -21 -12q-26 -3 -32 -8q-13 -9 -94 -12q-62 -3 -100 -2q-12 1 -22 19.5t-10 31.5q1 10 11 21t20 11q5 -1 11 -4l22 -2q36 -2 52.5 11t20.5 14
q13 1 36 20q3 -2 7 -2q16 0 33 16q14 15 21 32q1 3 21 4q11 0 18 20q9 25 17 31q38 7 55 53q8 2 21 7q18 9 29 32q9 18 25 18q16 18 51 52q20 0 49 26q24 22 37 44q21 16 41 34q2 0 11 12t10 10z" />
    <glyph glyph-name="ae" unicode="ae" 
d="M180 64q-2 5 -2 9v31q-23 -14 -53 -46q-41 -45 -48 -51q-13 -4 -32 -16q-14 -10 -35 -11l-7 5q-2 7 -2 18v65q0 18 21 58q10 8 39 51q22 35 45 38q6 1 10 8t4 13l11 16q7 11 15 11q23 3 47 22q21 18 53 18q10 0 22.5 1t21.5 1q3 0 12 9t12 9q2 0 3 -1l30 14q20 10 40 10
q50 0 48 -47l-1 -8q0 -15 -18.5 -38.5t-33.5 -31.5q-23 -6 -48 -15q-4 -4 -12 -14q0 1 -20 1q-10 0 -17 -4q-4 -13 -4 -29q0 -3 -16 -22t-19 -26v-11q5 -11 11 -22.5t14 -11.5q3 0 11 -1q7 -1 11 0q5 0 7 4q11 3 20 16.5t17 27.5q6 3 15 3q18 0 18 -16q0 -20 -57 -78
q-5 -4 -26 -10q-4 -5 -9 -10.5t-8 -5.5q-10 0 -18 5q-11 7 -15 8q-10 6 -32 11l-6 15q-2 6 -12 14t-7 14zM388 302q0 16 -17 16q-22 0 -58 -58q0 -12 -13 -36q4 -4 13 -4l7 1q21 18 42 35q26 25 26 46zM233 245q0 13 -19 13q-23 0 -109 -89q-4 -4 -6 -14t-3.5 -13t-11.5 -12
q-4 -5 -4 -18q0 -29 11 -29q6 3 15 17q36 11 57 42q8 14 16 29l12 -1l2 2q0 8 4 25q6 5 35 39q1 5 1 9z" />
    <glyph glyph-name="OE" unicode="OE" horiz-adv-x="955" 
d="M927 457q0 -32 -36 -32q-8 0 -14 2l-26 27q1 11 -8 23.5t-20 12.5q-13 0 -39.5 -2t-38 -2t-14 -12t-4.5 -22q-6 -3 -15 -11q-9 -22 -34 -69q-10 -15 -10 -34q0 -47 26 -47q64 0 72 1q36 6 57 37h7q12 -12 12 -17t-6 -18q-1 -4 -4 -40q-2 -28 -10 -44.5t-17 -16.5t-9 20
q1 30 -75 30q-30 0 -88 -4q-6 -1 -11 -21q-4 -16 -4 -27q0 -4 3 -12t3 -11q0 -4 -7.5 -18t-7.5 -40q0 -6 -10 -13t-10 -17q0 -6 14 -23t19 -17q7 0 36 3q22 3 36 0q7 4 31 8q18 4 33 16q25 2 49 4q5 2 34 35q6 -3 12 -14q14 -10 13 -24q-2 -6 -9 -12.5t-8 -22.5
q-6 -13 -21 -30q-7 -1 -29 -3q-18 -1 -29 -1q-14 0 -19 4q-11 0 -33.5 5.5t-33.5 5.5q-18 0 -26 -10.5t-19 -10.5q-10 0 -14.5 9t-10.5 9q-65 0 -83 -6q-7 -8 -29 -17q-43 -4 -62 -4q-16 0 -36 15v8q5 9 20 23q10 2 25 13t27 11q8 0 9 8q2 15 14 29q18 20 21 26q1 11 5 32
q1 4 6 9t5 17q0 9 11 21t13 17v12q0 2 9.5 25t9.5 36l-1 7q-4 5 -4 9q0 3 13 24t15 27q3 1 8.5 28.5t15.5 39.5v47q-4 7 -12 10q-6 1 -17 0q-16 -1 -17 -1q-11 0 -19 4q-3 4 -3 11q0 10 26 25q23 14 29 14q5 0 16 -15q107 1 211 7q2 1 9.5 10t18.5 9q28 0 45 -29
q14 -26 14 -56zM544 299q0 -15 -18 -33q-20 -21 -24 -49q3 -6 6 -11l1 -6q0 -7 -6.5 -12.5t-13.5 -9.5l1 -12q0 -17 -64 -77q-66 -63 -98 -67q-7 -9 -23 -24q-6 -5 -32.5 -9.5t-37.5 -4.5q-15 0 -34 5q-22 7 -46 9h-3q-8 11 -11.5 14t-14.5 4q-5 0 -10 4q-12 8 -32.5 30.5
t-22.5 34.5q-1 5 -10 11t-12 10.5t-8 37.5q-5 30 -5 41q0 21 7 44q4 4 9 25t5 29q0 4 -2.5 9t-2.5 9q0 5 8.5 13.5t10.5 14.5q9 36 42 59q12 9 12 21q0 3 -1 8v8q0 11 8 17q3 -1 7 -1q15 0 21 18q15 1 35.5 19.5t33.5 18.5q8 0 13 7l10 14h8q8 -1 11 4l4 -1q4 0 14.5 6.5
t14.5 7.5q9 3 70 3q17 0 43.5 -13t39.5 -13q6 0 10.5 -9.5t9.5 -10.5q7 2 11 2h2q10 -7 27 -23v-4q-1 -19 10.5 -26t11.5 -11q0 -3 -2.5 -8t-2.5 -9q0 -24 20 -59v-55zM465 359q0 29 -23 43v4q0 5 2 14t2 14q0 26 -22 42.5t-49 16.5q-7 0 -13 -1q-6 7 -11.5 14t-13.5 7
q-7 0 -16.5 -11.5t-17.5 -10.5h-3q-7 7 -12 7q-11 0 -33.5 -25.5t-26.5 -37.5q-20 -18 -23 -20q-10 -13 -8 -28q-2 -3 -15 -9q-8 -4 -5 -21q-2 -4 -13 -27q-9 -17 -9 -28q0 -4 4 -10t3 -10q-8 -4 -18 -13q-12 -27 -12 -62q0 -11 6 -23t5 -17v-6q-7 -5 -15 -11q-4 -4 -4 -19
q0 -18 4 -31q5 -6 14 -16q2 -47 66 -59q13 -12 25 -12q28 0 37 13h2q36 -2 74 54q16 28 33 57q17 9 34.5 30.5t15.5 36.5q19 26 19 56q0 13 -5 24v9q5 6 16 16q6 56 6 50z" />
    <glyph glyph-name="oe" unicode="oe" horiz-adv-x="445" 
d="M183 49q-6 -6 -17 -16q-9 -2 -25 -10q-10 -8 -20 -14.5t-29 -6.5q-53 0 -62 43q-16 24 -16 53q0 21 8 39q9 8 9 17q-1 -25 -1 19q0 7 10 17.5t10 32.5q0 15 49.5 63t64.5 48q11 0 19 6q13 9 17 11q6 -6 19 -14l13 1q23 -19 23 -55v-16q22 26 46 56q13 0 36 11t47 11
q50 0 47 -47v-8q-1 -14 -19.5 -37.5t-32.5 -31.5q-23 -7 -48 -15q-4 -5 -13 -14q1 0 -19 0q-31 0 -41 -43q-8 -9 -21 -31v-11q4 -3 14 -24q8 -17 17 -17q2 0 11 -1h10q5 1 7 4q12 3 20.5 17t17.5 28q6 3 14 3q18 0 18 -17q0 -19 -57 -77q-4 -4 -25 -11q-4 -4 -9 -10t-9 -6
q-9 0 -18.5 6.5t-13.5 7.5q-13 0 -39 1q-5 4 -5 18q0 7 -7 20zM384 301q0 17 -16 17q-18 0 -48 -42q-26 -38 -26 -46q0 -10 15 -10l7 1q22 17 43 35q25 24 25 45zM216 252q0 40 -27 38l-8 -1q-12 -1 -49.5 -47t-37.5 -55q0 -6 3.5 -16.5t3.5 -15.5q0 -4 -5 -9
q-20 -8 -20 -43q0 -52 23 -52l9 1q30 26 44 49q1 8 6 22q9 7 25 22q7 21 7 32.5t4 19.5q4 3 19 20q3 22 3 35z" />
    <glyph glyph-name="ellipsis" unicode="&#x2e;&#x2e;&#x2e;" horiz-adv-x="643" 
d="M418 126q5 -8 5 -17q0 -11 -9 -27.5t-9 -24.5q0 -3 1 -7q-6 -3 -17 -12q-3 -2 -15.5 -16.5t-15.5 -14.5h-46q-4 0 -10 6q-9 9 -12 11q-8 0 -23 4q-9 5 -22 17q-2 2 -2 16v46q0 2 7.5 9.5l9.5 9.5q0 6 1 17q12 8 25 20q6 6 14 6h71q33 -19 47 -43zM620 126q5 -8 5 -17
q0 -11 -9 -27.5t-9 -24.5q0 -3 1 -7q-6 -3 -17 -12q-3 -2 -16 -16.5t-15 -14.5h-46q-5 0 -12 7.5t-10 9.5q-8 0 -23 4q-9 5 -22 17q-2 2 -2 16v46q0 2 7.5 9.5l9.5 9.5q0 6 1 17q12 8 24 20q7 6 15 6h71q33 -19 47 -43zM208 129q5 -9 5 -17q0 -11 -9.5 -27.5t-9.5 -24.5
q0 -3 2 -7q-6 -4 -17 -12q-3 -2 -16 -16.5t-15 -14.5h-46q-5 0 -12 7.5t-11 9.5q-8 0 -23 4q-8 5 -21 17q-2 1 -2 16v46q0 2 7.5 9.5l9.5 9.5v17q13 8 25 20q6 6 15 6h70q34 -19 48 -43z" />
    <glyph glyph-name="uniE004" unicode="ij" horiz-adv-x="411" 
d="M228 528q0 -12 -12 -19v-1q0 -9 -10 -22t-17 -13q-8 0 -13 11q-10 2 -20 6t-10 28l2 7q17 19 23 23q11 8 29 8q11 0 19.5 -8.5t8.5 -19.5zM200 308q-16 -25 -34 -59v-30q0 -5 -4 -12q-28 -15 -34 -34q2 -6 2 -15q0 -8 -19.5 -38t-19.5 -44q0 -6 6 -10l13 3q53 109 76 109
q2 0 2 -5q0 -6 -4.5 -22.5t-4.5 -18.5q0 -10 -38.5 -63t-48.5 -51q-11 -2 -27 -9q-4 -6 -8.5 -12t-11.5 -6q-16 0 -29 23q5 11 10 23q2 6 2 27q0 7 9.5 12.5t10.5 10.5q1 4 0 12q-2 9 -2 11q0 7 18 35t16 48q1 0 11 7q5 4 5 18q0 15 -9 22q2 0 -28 -2q-4 2 -4 10q0 6 18 26
q22 22 24 27q1 1 22 20q10 0 24.5 10t22.5 10q11 0 22.5 -11t11.5 -22zM401 492q0 -13 -20 -13l-7 -3l-8 -14t-12 -7q-50 0 -50 12q0 18 22 37.5t41 19.5q11 0 22.5 -11t11.5 -21zM268 37q2 -3 2 -8q0 -8 -11 -28.5t-20 -39.5q-13 -23 -28 -29q-8 -8 -24 -21q-3 -8 -10 -22
q-2 -3 -49 -56q-35 -40 -35 -57q0 -3 -5 -7q-13 -1 -38 -5q-3 -1 -23 -18.5t-40 -17.5q-17 0 -41 15.5t-24 31.5q0 3 15 25q26 10 37 10q15 0 32 -12t20 -12q10 0 22 16q8 12 15 24q1 0 26.5 13.5t38.5 36.5q1 8 5 24q13 11 18 36q11 10 12 13v16t27 69q3 0 14 3
q15 67 15 76q26 26 29 31q9 14 9 44q0 25 -15 36q-7 1 -31 -36q-13 -22 -27 -44l-13 -2q-4 0 -7 11q0 2 -1 2t-4 -3q-2 -1 -2 2q0 1 23 33.5t23 33.5q13 16 66 61q59 49 71 49q8 0 14.5 -9t6.5 -17q0 -10 -4 -29t-4 -28.5t-4.5 -14.5t-14.5 -14q-10 -12 -15.5 -27t-10.5 -30
q-5 -6 -11 -20q-1 -5 0 -14q2 -11 2 -15q0 -10 -8 -22q-11 -16 -12 -20q-5 -10 -11 -34z" />
    <glyph glyph-name="uniEEC5" unicode="ct" horiz-adv-x="512" 
d="M528 311q0 -32 -22 -32q-9 0 -15 10.5t-12 10.5q-58 0 -76 -31q-1 -2 -2.5 -22.5t-14.5 -35.5q-9 -9 -17 -29l-13 -32q-1 -10 -5 -29q-1 -3 -9 -10t-8 -14q0 -9 6.5 -16t14.5 -7q21 0 39 24q10 1 22.5 9t18.5 8q3 0 8 -11q0 -8 -9 -17q-12 -10 -14 -15q0 -9 -2 -15
q-8 -6 -23 -7q-16 -17 -32 -33q-21 -20 -38 -20q-7 0 -14 3q-13 1 -31 17t-18 28q0 8 6 16q13 7 23.5 32t10.5 44q0 10 2 18q35 40 35 84q0 30 -16 38l-6 7q-2 24 -2 19q0 10 38 33.5t38 53.5q0 5 -2 13t-2 13t7.5 16t7.5 30q0 12 11.5 25.5t11.5 20.5l-8 9q-7 3 -16 4
q-6 0 -18 -1t-16 -1h-57q-12 0 -34.5 7t-33.5 7q-13 0 -17 -4q-9 -8 -13 -9q-54 -27 -54 -88q0 -13 8 -25.5t8 -31t22 -35t22 -23.5q-5 -13 -16 -14q11 1 -22 1q-52 0 -52 -39q0 -13 -19 -28.5t-19 -24.5q0 -3 1 -9.5t1 -9.5q0 -9 -9 -17t-10 -10q4 -4 4 -19q0 -4 -1 -12
v-13q0 -56 37 -56q8 0 14 11t10 13l12 -1q6 4 43 43q31 33 42 33q15 0 15 -15q0 -3 -26.5 -43t-29.5 -42q-7 -6 -20 -18q-6 -4 -20 -9q-6 -3 -19 -19l-5 1q-4 0 -16 -9t-30 -9q-30 0 -45 20l-1 6q-31 30 -31 51q0 6 9 39l5 6q4 10 4 39q0 20 13 35q0 18 38 70q2 18 12 28
q4 3 26 17h1q12 0 21.5 14.5t9.5 26.5q0 23 -18 53l-7.5 15.5t-7.5 28.5q0 46 44 81q41 33 89 33q23 0 61.5 -7t63.5 -7q3 1 7 1q3 0 24 -7l7 -6q7 -3 18 -3q6 0 22 2.5t25 1.5l10 -1l6 -9l1 -11q0 -12 -10.5 -34.5t-10.5 -34.5q0 -4 1 -9q-11 -11 -12 -13.5t-1 -18.5
t-18.5 -34.5t-18.5 -27.5q0 -19 20 -19q11 0 34.5 3t34.5 3q7 0 16 -8q3 -6 3 -15z" />
    <glyph glyph-name="uniEECB" unicode="ft" horiz-adv-x="449" 
d="M252 336q4 1 10 1q7 0 24 -3.5t25 -3.5q4 0 19 45q19 56 31 78l9 36q5 18 -17 34q-17 13 -27 13q-17 0 -23 -22q-9 0 -28 -7q-8 -9 -22 -26q-10 -4 -20 -18q2 -5 2 -9q0 -1 -11.5 -15t-11.5 -26q0 -4 2 -9.5t2 -6.5t-10 -15t-10 -31l1 -5q14 -11 55 -10zM464 304
q0 -8 -3 -13q-32 -23 -36 -23q-2 0 -11 9t-16 9q-16 0 -38 -28v-3q0 -10 -14 -29t-14 -32q0 -5 3 -10.5t3 -7.5q0 -5 -5 -14q-13 -3 -19 -19t-10 -31q-9 -7 -9 -13q0 -17 14 -17q11 0 26 13t23 13h14q4 -3 7 -16q-27 -50 -75 -52q-17 -15 -27 -22q-13 0 -24.5 -9.5
t-17.5 -9.5t-14 8v56q2 5 22 41q14 23 14 44q0 13 9.5 28t10.5 36v6q17 5 17 34q0 22 -11 28q-2 -2 -56 3h-3q-10 0 -21.5 3t-12.5 3q-20 0 -20 -36q-11 -11 -21 -21.5t-10 -31.5q0 -6 4 -15.5t4 -15.5l-1 -6q-6 -5 -16 -17v-5q1 -6 -7 -19.5t-8 -31.5q0 -10 -14 -29.5
t-14 -34.5q0 -13 10 -29q0 -4 -14 -31t-18 -30q-1 -14 -11.5 -25t-10.5 -34q0 -11 -15 -19q-20 -11 -26 -19q-4 -1 -18 -2q-16 -17 -47 -17q-21 0 -41 -22q-17 -1 -27 -3q-12 5 -12 24q0 15 8.5 29.5t22.5 14.5q12 0 24 -13h11q13 -1 19 5q11 10 14 11l8 -1q11 0 14 9
q0 9 1 18q5 7 13 19q1 7 4 22q8 7 16 21q0 4 -1 10.5t-1 10.5q0 10 12.5 19t12.5 17q11 14 13 34v37v4q15 15 16.5 20t1.5 26q12 26 27 72q15 24 15 52q0 29 -11 35q-5 3 -34 3q-7 0 -16 7t-9 14q0 26 47.5 27.5t48.5 28.5l2 4q16 8 28 33t11 43q5 3 13 11v19q38 36 75 73
q20 12 119 12q47 0 47 -45q0 -6 -1 -13h1q3 -4 -4.5 -41t-18.5 -54q-5 -6 -11.5 -25.5t-6.5 -26.5t5 -12q7 -28 30 -26q8 6 11 11q7 -1 27 -15q3 -7 3 -15z" />
    <glyph glyph-name="uniEECE" unicode="fft" horiz-adv-x="611" 
d="M358 477q-37 32 -43 32q-16 0 -21 -19q-9 0 -28 -6q-7 -8 -21 -23q-9 -4 -19 -16q2 -4 2 -8q0 -1 -11 -13.5t-11 -22.5q0 -4 2 -8.5t2 -5.5q0 -2 -9.5 -14t-9.5 -27v-4q10 -7 23 -9q8 8 52 10q37 3 37 28l3 4q15 8 27 33t11 43q5 3 13 11zM400 335q14 3 40 1q34 -3 36 -3
q4 0 23 51q22 59 36 80l-1 -1q3 11 3 20q0 25 -19 41q-14 12 -23 12q-17 0 -22 -22q-10 0 -29 -7q-7 -9 -22 -26q-1 -1 -12 -8q-3 -7 -7 -12q1 -4 1 -7q0 -1 -11 -15t-11 -26q0 -4 2 -9.5t2 -6.5t-10 -15t-10 -31v-5q13 -10 34 -11zM629 307q0 -7 -3 -13q-32 -23 -36 -23
q-2 0 -10.5 9t-16.5 9q-16 0 -37 -28v-3q0 -10 -14.5 -29t-14.5 -32q0 -5 3.5 -10.5t3.5 -7.5q0 -5 -6 -14q-13 -3 -18.5 -19t-10.5 -31q-9 -7 -9 -13q0 -16 14 -16q12 0 26.5 13t22.5 12h14q5 -3 7 -16q-27 -50 -75 -52q-16 -15 -26 -22q-13 0 -24.5 -9.5t-17.5 -9.5t-15 8
v56q2 5 23 41q13 23 13 45q0 12 10 27t10 36v6q18 5 18 34q0 22 -11 28q-2 -2 -32 1q-34 2 -32 2q-3 0 1 1l-27 2q-20 0 -19 -36q-11 -11 -21 -21.5t-10 -31.5q0 -6 4 -15.5t4 -15.5l-1 -6q-7 -5 -16 -17v-5q3 -62 -46 -87q2 -7 8 -16q0 -4 -13.5 -27.5t-17.5 -26.5
q-1 -12 -10.5 -21.5t-9.5 -30.5q0 -10 -15 -17q-19 -9 -25 -16q-4 -1 -17 -2q-15 -15 -46 -15q-20 0 -38 -19q-17 -1 -27 -3q-11 5 -11 21q0 13 8 26t21 13q12 0 24 -12h10q12 0 18 5q11 9 14 10l7 -1q11 0 12.5 7.5t2.5 15.5q5 7 12 17q1 7 4 19q8 6 16 19q0 3 -1 9t-1 9
q0 10 12 17.5t11 15.5q7 7 7 20q0 4 -1 12v12q0 12 7 17l6 5q6 5 15 4v11q11 26 26 72q16 24 16 52q0 25 -7 31.5t-24 6.5q-16 -13 -34 -13q-10 0 -18.5 5.5t-9.5 5.5q-19 0 -19 -32q-10 -9 -20 -18.5t-10 -28.5q0 -5 4 -13.5t4 -13.5l-1 -5q-6 -4 -15 -15v-5q0 -6 -6 -16
q-9 -14 -13 -24q0 -3 1 -7q-2 -1 -3 -3q-3 -5 -10 -16q-2 -9 -2 -7l-7 -7q-11 -16 -11 -28q0 -13 10 -30q0 -3 -14.5 -30.5t-17.5 -29.5q-1 -15 -11.5 -25.5t-10.5 -34.5q0 -11 -15 -19q-20 -10 -26 -18q-4 -1 -18 -2q-16 -18 -47 -18q-22 0 -41 -21q-17 -2 -27 -3
q-12 5 -12 24q0 15 8.5 29t22.5 14q12 0 24 -13h11q13 0 19 5q11 10 14 12l8 -1q11 0 12.5 8.5t2.5 17.5q5 7 12 20q1 7 5 21q8 7 16 22q0 3 -1 10t-1 10q0 11 12.5 19.5t12.5 17.5q11 13 13 33v37v5q6 6 16 5q10 9 12 15v20q0 3 12 28.5t14 35.5q14 21 14 46t-10 30
q-5 3 -33 3q-7 0 -15.5 6.5t-8.5 11.5q0 24 46 25t46 24l3 4q14 7 26 29t11 38q4 3 12 10v16q36 33 72 65q19 10 114 10q21 0 33 -10q28 30 46.5 35.5t102.5 5.5q48 0 48 -45v-4.5v-8.5q5 -21 -18 -70.5t-23 -45.5q0 -5 -2 -14t-2 -14q0 -7 5 -12q4 -17 25 -16q6 -2 15 1
q8 -1 27 -15q3 -7 3 -15z" />
    <glyph glyph-name="uniFB00" unicode="ff" horiz-adv-x="414" 
d="M358 477q-37 32 -43 32q-16 0 -21 -19q-9 0 -28 -6q-7 -8 -21 -23q-9 -4 -19 -16q2 -4 2 -8q0 -1 -11 -13.5t-11 -22.5q0 -4 2 -8.5t2 -5.5q0 -2 -9.5 -14t-9.5 -27v-4q10 -7 23 -9q8 8 52 10q37 3 37 28l3 4q15 8 27 33t11 43q5 3 13 11zM77 53q0 -13 10 -30
q0 -3 -14.5 -30.5t-17.5 -29.5q-1 -15 -11.5 -25.5t-10.5 -34.5q0 -11 -15 -19q-20 -10 -26 -18q-4 -1 -18 -2q-16 -18 -47 -18q-22 0 -41 -21q-17 -2 -27 -3q-12 5 -12 24q0 15 8.5 29t22.5 14q12 0 24 -13h11q13 0 19 5q11 10 14 12l8 -1q11 0 12.5 8.5t2.5 17.5
q5 7 12 20q1 7 5 21q8 7 16 22q0 3 -1 10t-1 10q0 11 12.5 19.5t12.5 17.5q11 13 13 33v37v5q6 6 16 5q10 9 12 15v20q0 3 12 28.5t14 35.5q14 21 14 46t-10 30q-5 3 -33 3q-7 0 -15.5 6.5t-8.5 11.5q0 24 46 25t46 24l3 4q14 7 26 29t11 38q4 3 12 10v16q36 33 72 65
q19 10 114 10q21 0 33 -10q28 30 46.5 35.5t102.5 5.5q48 0 48 -45q0 -17 -8 -32q-9 -20 -25 -20q-8 0 -17 8l-3 16q-47 43 -51 43q-17 0 -22 -22q-10 0 -29 -7q-7 -9 -22 -26q-1 -1 -12 -8q-3 -7 -7 -12q1 -4 1 -7q0 -1 -11 -15t-11 -26q0 -4 2 -9.5t2 -6.5t-10 -15
t-10 -31v-5q13 -10 59 -10q12 0 12 -18q0 -17 -16 -29.5t-33 -12.5q-9 0 -18.5 6.5t-10.5 6.5q-20 0 -19 -36q-11 -11 -21 -21.5t-10 -31.5q0 -6 4 -15.5t4 -15.5l-1 -6q-7 -5 -16 -17v-5q3 -62 -46 -87q2 -7 8 -16q0 -4 -13.5 -27.5t-17.5 -26.5q-1 -12 -10.5 -21.5
t-9.5 -30.5q0 -10 -15 -17q-19 -9 -25 -16q-4 -1 -17 -2q-15 -15 -46 -15q-20 0 -38 -19q-17 -1 -27 -3q-11 5 -11 21q0 13 8 26t21 13q12 0 24 -12h10q12 0 18 5q11 9 14 10l7 -1q11 0 12.5 7.5t2.5 15.5q5 7 12 17q1 7 4 19q8 6 16 19q0 3 -1 9t-1 9q0 10 12 17.5t11 15.5
q7 7 7 20q0 4 -1 12v12q0 12 7 17l6 5q6 5 15 4v11q11 26 26 72q16 24 16 52q0 25 -7 31.5t-24 6.5q-16 -13 -34 -13q-10 0 -18.5 5.5t-9.5 5.5q-19 0 -19 -32q-10 -9 -20 -18.5t-10 -28.5q0 -5 4 -13.5t4 -13.5l-1 -5q-6 -4 -15 -15v-5q0 -6 -6 -16q-9 -14 -13 -24
q0 -3 1 -7q-2 -1 -3 -3q-3 -5 -10 -16q-2 -9 -2 -7l-7 -7q-11 -16 -11 -28z" />
    <glyph glyph-name="uniFB01" unicode="fi" horiz-adv-x="372" 
d="M336 311q-15 -25 -33 -58q-1 -2 -1 -30q0 -6 -4 -13q-28 -15 -34 -33q2 -7 2 -16q0 -7 -19.5 -37.5t-19.5 -44.5q0 -9 10 -15l2 -1q40 40 51 40q13 0 13 -17q0 -9 -32 -38t-43 -27q-11 -1 -26 -9q-4 -5 -9 -11t-12 -6q-16 0 -28 22q5 12 9 23q2 7 2 28q0 6 10 11.5
t11 11.5q0 4 -1 12t-1 11q0 7 17.5 34.5t16.5 47.5q0 1 10 7q6 4 6 18q0 2 3.5 22t3.5 29q0 7 -2 8q-18 1 -19 1v0h-3h-9l-2 2q-18 6 -15 6q-20 0 -20 -36q-11 -11 -21 -21.5t-10 -31.5q0 -6 4 -15.5t4 -15.5l-1 -6q-6 -5 -16 -17v-5q1 -6 -7 -19.5t-8 -31.5
q0 -10 -14 -29.5t-14 -34.5q0 -13 10 -29q0 -4 -14 -31t-18 -30q-1 -14 -11.5 -25t-10.5 -34q0 -11 -15 -19q-20 -11 -26 -19q-4 -1 -18 -2q-16 -17 -47 -17q-21 0 -41 -22q-17 -1 -27 -3q-12 5 -12 24q0 15 8.5 29.5t22.5 14.5q12 0 24 -13h11q13 -1 19 5q11 10 14 11l8 -1
q11 0 14 9q0 9 1 18q5 7 13 19q1 7 4 22q8 7 16 21q0 4 -1 10.5t-1 10.5q0 10 12.5 19t12.5 17q11 14 13 34v37v4q15 15 16.5 20t1.5 26q12 26 27 72q15 24 15 52q0 29 -11 35q-5 3 -34 3q-7 0 -16 7t-9 14q0 26 47.5 27.5t48.5 28.5l2 4q16 8 28 33t11 43q5 3 13 11v19
q38 36 75 73q20 12 119 12q47 0 47 -45q0 -17 -7 -32q-10 -20 -25 -20q-9 0 -18 8l-3 16q-46 43 -50 43q-17 0 -23 -22q-9 0 -28 -7q-8 -9 -22 -26q-10 -4 -20 -18q2 -5 2 -9q0 -1 -11.5 -15t-11.5 -26q0 -4 2 -9.5t2 -6.5t-10 -15t-10 -31l1 -5q13 -11 58 -10q11 0 25.5 4
t21.5 4q11 0 22.5 -11t11.5 -22z" />
    <glyph glyph-name="uniFB02" unicode="fl" horiz-adv-x="442" 
d="M436 494q0 -11 -17.5 -44t-19.5 -61v-4q-13 -18 -27 -36q-3 -7 -3 -51q0 -4 -8.5 -10.5t-9.5 -9.5q0 1 0 -25q0 -10 -11 -20t-10 -31q-17 -11 -15 -46q-21 -14 -21 -40q0 -46 0 -37q7 -8 12 -8q4 0 32 18t31 18q4 0 9 -4v-10q-8 -6 -9 -16.5t-2 -12.5t-24.5 -21.5
t-25.5 -20.5q-9 1 -17 1q-18 0 -30 -20.5t-29 -20.5q-14 0 -30.5 10.5t-16.5 22.5q0 7 15 20q4 5 5 13.5t3 11.5q8 6 19 21q-2 -5 -2 21q0 3 7.5 20t7.5 45q0 18 17 31q1 14 8 30t7 47q0 17 9.5 21t9.5 33q0 5 17.5 35t18.5 35q-1 -4 -1 37q0 9 10.5 21t10.5 21.5t1 11
t1 7.5l-7 13q-4 6 -6 12q-16 14 -19 14q-17 0 -23 -22q-9 0 -28 -7q-8 -9 -22 -26q-10 -4 -20 -18q2 -5 2 -9q0 -1 -11.5 -15t-11.5 -26q0 -4 2 -9.5t2 -6.5t-10 -15t-10 -31l1 -5q13 -10 58 -10q13 0 13 -18q0 -17 -16.5 -29.5t-32.5 -12.5q-10 0 -19 6.5t-10 6.5
q-20 0 -20 -36q-11 -11 -21 -21.5t-10 -31.5q0 -6 4 -15.5t4 -15.5l-1 -6q-6 -5 -16 -17v-5q1 -6 -7 -19.5t-8 -31.5q0 -10 -14 -29.5t-14 -34.5q0 -13 10 -29q0 -4 -14 -31t-18 -30q-1 -14 -11.5 -25t-10.5 -34q0 -11 -15 -19q-20 -11 -26 -19q-4 -1 -18 -2
q-16 -17 -47 -17q-21 0 -41 -22q-17 -1 -27 -3q-12 5 -12 24q0 15 8.5 29.5t22.5 14.5q12 0 24 -13h11q13 -1 19 5q11 10 14 11l8 -1q11 0 14 9q0 9 1 18q5 7 13 19q1 7 4 22q8 7 16 21q0 4 -1 10.5t-1 10.5q0 10 12.5 19t12.5 17q11 14 13 34v37v4q15 15 16.5 20t1.5 26
q12 26 27 72q15 24 15 52q0 29 -11 35q-5 3 -34 3q-7 0 -16 7t-9 14q0 26 47.5 27.5t48.5 28.5l2 4q16 8 28 33t11 43q5 3 13 11v19q38 36 75 73q20 12 119 12q43 0 47 -40l6 -6q0 -4 1 -13v-13z" />
    <glyph glyph-name="uniFB03" unicode="ffi" horiz-adv-x="576" 
d="M358 477q-37 32 -43 32q-16 0 -21 -19q-9 0 -28 -6q-7 -8 -21 -23q-9 -4 -19 -16q2 -4 2 -8q0 -1 -11 -13.5t-11 -22.5q0 -4 2 -8.5t2 -5.5q0 -2 -9.5 -14t-9.5 -27v-4q10 -7 23 -9q8 8 52 10q37 3 37 28l3 4q15 8 27 33t11 43q5 3 13 11zM549 308q-16 -25 -34 -59v-30
q0 -5 -4 -12q-29 -15 -34 -34q1 -6 1 -15q0 -8 -19 -38t-19 -44q0 -9 9 -16h2q41 39 52 39q12 0 12 -16q0 -9 -32 -38t-42 -27q-11 -2 -27 -9q-4 -6 -8.5 -12t-11.5 -6q-16 0 -29 23q5 11 10 23q2 6 2 27q0 7 9.5 12.5t10.5 10.5q1 4 0 12q-2 9 -2 11q0 7 18 35t16 48
q1 0 10 7q6 4 6 18q0 2 3.5 20.5t3.5 26.5q0 7 -2 9q-29 2 -42 1q-1 0 -8 3q-6 -2 -12 -2q-9 0 -18.5 6.5t-10.5 6.5q-20 0 -19 -36q-11 -11 -21 -21.5t-10 -31.5q0 -6 4 -15.5t4 -15.5l-1 -6q-7 -5 -16 -17v-5q3 -62 -46 -87q2 -7 8 -16q0 -4 -13.5 -27.5t-17.5 -26.5
q-1 -12 -10.5 -21.5t-9.5 -30.5q0 -10 -15 -17q-19 -9 -25 -16q-7 -3 -20 -6q-11 -11 -43 -11q-20 0 -38 -19q-10 0 -28 -2q-7 3 -7 16q0 43 26 43q12 0 24 -12l11 -4q4 -2 8 -2q5 0 11 9t12 12l7 -1q11 0 12.5 7.5t2.5 15.5q5 7 12 17q1 7 4 19q8 6 16 19q0 3 -1 9t-1 9
q0 10 12 17.5t11 15.5q7 7 7 20q0 4 -1 12v12q0 12 7 17l6 5q6 5 15 4v11q11 26 26 72q16 24 16 52q0 25 -7 31.5t-24 6.5q-16 -13 -34 -13q-10 0 -18.5 5.5t-9.5 5.5q-19 0 -19 -32q-10 -9 -20 -18.5t-10 -28.5q0 -5 4 -13.5t4 -13.5l-1 -5q-6 -4 -15 -15v-5q0 -6 -6 -16
q-9 -14 -13 -24q0 -3 1 -7q-2 -1 -3 -3q-3 -5 -10 -16q-2 -9 -2 -7l-7 -7q-11 -16 -11 -28q0 -13 10 -30q0 -3 -14.5 -30.5t-17.5 -29.5q-1 -15 -14 -26t-13 -34q0 -11 -13 -19q-18 -10 -23 -18q-11 -5 -27 -11q-8 -8 -17 -9q6 0 -21 0q-22 0 -41 -21q-17 -2 -27 -3
q-12 5 -12 24q0 15 8.5 29t22.5 14q12 0 24 -13l9 -5q5 -3 8 -3q6 0 13.5 11t13.5 14l10 -6q11 0 12 10.5t1 20.5q5 7 12 20q1 7 5 21q8 7 16 22q0 3 -1 10t-1 10q0 11 12.5 19.5t12.5 17.5q11 13 13 33v37v5q6 6 16 5q10 9 12 15v20q0 3 12 28.5t14 35.5q14 21 14 46
t-10 30q-5 3 -33 3q-7 0 -15.5 6.5t-8.5 11.5q0 24 46 25t46 24l3 4q14 7 26 29t11 38q4 3 12 10v16q36 33 72 65q19 10 114 10q21 0 33 -10q28 30 46.5 35.5t102.5 5.5q48 0 48 -45q0 -17 -8 -32q-9 -20 -25 -20q-8 0 -17 8l-3 16q-47 43 -51 43q-17 0 -22 -22
q-10 0 -29 -7q-7 -9 -22 -26q-1 -1 -12 -8q-3 -7 -7 -12q1 -4 1 -7q0 -1 -11 -15t-11 -26q0 -4 2 -9.5t2 -6.5t-10 -15t-10 -31v-5q13 -10 59 -10q9 1 30 1q10 0 31 2t29 2q11 0 22.5 -11t11.5 -22z" />
    <glyph glyph-name="uniFB04" unicode="ffl" horiz-adv-x="604" 
d="M358 477q-37 32 -43 32q-16 0 -21 -19q-9 0 -28 -6q-7 -8 -21 -23q-9 -4 -19 -16q2 -4 2 -8q0 -1 -11 -13.5t-11 -22.5q0 -4 2 -8.5t2 -5.5q0 -2 -9.5 -14t-9.5 -27v-4q10 -7 23 -9q8 8 52 10q37 3 37 28l3 4q15 8 27 33t11 43q5 3 13 11zM601 500q0 -11 -17.5 -44
t-19.5 -61v-4q-13 -18 -27 -36q-3 -7 -3 -51q0 -4 -8.5 -10.5t-9.5 -9.5q0 1 0 -25q0 -10 -11 -20t-10 -31q-17 -11 -15 -46q-21 -14 -21 -40q0 -46 0 -37q7 -8 12 -8q4 0 32 18t31 18q4 0 9 -4v-10q-8 -6 -9 -16.5t-2 -12.5t-24.5 -21.5t-25.5 -20.5q-9 1 -17 1
q-18 0 -30 -20.5t-29 -20.5q-14 0 -30.5 10.5t-16.5 22.5q0 7 14 20q5 5 6 13.5t3 11.5q8 6 19 21q-2 -6 -2 21q0 3 7.5 20t7.5 45q0 18 17 31q1 14 8 30t7 47q0 17 9.5 21t9.5 33q0 5 17.5 35t18.5 34.5t7 19.5q6 12 6 20.5t7.5 21t8.5 21.5q2 14 -1.5 19t-3.5 6
q-25 24 -30 24q-17 0 -22 -22q-10 0 -29 -7q-7 -9 -22 -26q-1 -1 -12 -8q-3 -7 -7 -12q1 -4 1 -7q0 -1 -11 -15t-11 -26q0 -4 2 -9.5t2 -6.5t-10 -15t-10 -31v-5q13 -10 59 -10q12 0 12 -18q0 -17 -16 -29.5t-33 -12.5q-9 0 -18.5 6.5t-10.5 6.5q-20 0 -19 -36
q-11 -11 -21 -21.5t-10 -31.5q0 -6 4 -15.5t4 -15.5l-1 -6q-7 -5 -16 -17v-5q3 -62 -46 -87q2 -7 8 -16q0 -4 -13.5 -27.5t-17.5 -26.5q-1 -12 -10.5 -21.5t-9.5 -30.5q0 -10 -15 -17q-19 -9 -25 -16q-4 -1 -17 -2q-15 -15 -46 -15q-20 0 -38 -19q-17 -1 -27 -3
q-11 5 -11 21q0 13 8 26t21 13q12 0 24 -12h10q12 0 18 5q11 9 14 10l7 -1q11 0 12.5 7.5t2.5 15.5q5 7 12 17q1 7 4 19q8 6 16 19q0 3 -1 9t-1 9q0 10 12 17.5t11 15.5q7 7 7 20q0 4 -1 12v12q0 12 7 17l6 5q6 5 15 4v11q11 26 26 72q16 24 16 52q0 25 -7 31.5t-24 6.5
q-16 -13 -34 -13q-10 0 -18.5 5.5t-9.5 5.5q-19 0 -19 -32q-10 -9 -20 -18.5t-10 -28.5q0 -5 4 -13.5t4 -13.5l-1 -5q-6 -4 -15 -15v-5q0 -6 -6 -16q-9 -14 -13 -24q0 -3 1 -7q-2 -1 -3 -3q-3 -5 -10 -16q-2 -9 -2 -7l-7 -7q-11 -16 -11 -28q0 -13 10 -30q0 -3 -14.5 -30.5
t-17.5 -29.5q-1 -15 -11.5 -25.5t-10.5 -34.5q0 -11 -15 -19q-20 -10 -26 -18q-4 -1 -18 -2q-16 -18 -47 -18q-22 0 -41 -21q-17 -2 -27 -3q-12 5 -12 24q0 15 8.5 29t22.5 14q12 0 24 -13h11q13 0 19 5q11 10 14 12l8 -1q11 0 12.5 8.5t2.5 17.5q5 7 12 20q1 7 5 21
q8 7 16 22q0 3 -1 10t-1 10q0 11 12.5 19.5t12.5 17.5q11 13 13 33v37v5q6 6 16 5q10 9 12 15v20q0 3 12 28.5t14 35.5q14 21 14 46t-10 30q-5 3 -33 3q-7 0 -15.5 6.5t-8.5 11.5q0 24 46 25t46 24l3 4q14 7 26 29t11 38q4 3 12 10v16q36 33 72 65q19 10 114 10q21 0 33 -10
q28 30 46.5 35.5t102.5 5.5q43 0 47 -39l2 -1q0 -4 1 -13v-13z" />
    <glyph glyph-name="uniFB06" unicode="st" horiz-adv-x="525" 
d="M540 295q0 -8 -3 -21q-13 -7 -17 -13q-18 -2 -25 -2q-15 0 -27 9t-17 9q-17 0 -29 -29q-9 -22 -10 -42q7 -8 7 -10q0 -4 -8 -10t-9 -9.5t-1 -11t-21.5 -35.5t-21.5 -56q0 -14 13 -14q4 0 14.5 8t11.5 9h16q4 2 10 12t14 10q16 0 16 -22l-2 -7q-10 -11 -32 -30
q-14 -7 -40 -23q-13 -3 -32 -16q-14 -11 -35 -11q-27 0 -44 21q13 14 16 26q0 2 1 30q-2 6 -2 10t15 31t17 41q7 7 18 22q-1 -1 -1 22q0 8 9.5 24.5t9.5 27.5q0 6 -5 15t-11 9q-2 0 -6 -2.5t-6 -2.5q-4 0 -4 6q0 22 23 28q11 3 36 23.5t27 29.5q-1 -3 -1 25q0 6 2 10
q26 22 26 40q0 12 -9 26t-19 14q-4 0 -11.5 -2t-11.5 -2q1 0 -19 10t-39 10q-7 0 -21 -3t-22 -3q-34 0 -64 13q-6 -5 -9 -9l-21 -9q-12 -14 -25 -28q-14 -17 -14 -34q0 -21 22 -30l6 -6q-4 -8 -4 -16q0 -27 36 -36q5 -2 17 -14q7 -9 15 -17v-10q-10 -7 -19 -13.5t-29 -6.5
q-7 0 -21 4.5t-21 4.5q-14 0 -23.5 -12t-9.5 -26q0 -16 10.5 -24.5t11.5 -14.5q3 -13 4 -15q3 -5 21 -25q12 -13 12 -31q0 -12 -9 -30t-9 -29q0 -4 -26 -29.5t-31 -27.5q-22 -9 -48 -9q-31 0 -41 15q-9 12 -9 42q0 10 1 16q8 10 14 10q2 0 21 -10t27 -12q12 -14 22 -14
q13 0 25 13t12 27q0 13 -12 21l-4 13q3 13 3 16q0 10 -8 17q-11 8 -12 10.5t-1 12.5q0 6 -9 19.5t-9 28.5q0 23 18 46l2 15q7 7 20 21q32 5 25 5q8 0 15.5 7t7.5 16q0 6 -18 24.5t-18 30.5v64q-1 2 -1 6q0 28 25 40q14 5 28 11q56 16 144 16q1 0 21.5 -7.5t34.5 -7.5
q21 0 53 6q6 10 29 32.5t32 22.5q14 0 23 -13.5t9 -27.5q0 -22 -15 -31v-8q1 -13 -12 -27t-13 -30q0 -5 2.5 -13t2.5 -12t-9.5 -9.5t-11.5 -11.5l1 -4q0 -4 -8.5 -22t-8.5 -34q0 -13 6 -18q8 0 18 12l12 -6t13 -5q6 0 12 10t14 10l8 -1q3 -4 6 -11z" />
    <glyph glyph-name=".notdef" horiz-adv-x="500" 
d="M63 0v718h375v-718h-375zM125 63h250v593h-250v-593z" />
    <glyph glyph-name="glyph1" horiz-adv-x="0" 
 />
    <glyph glyph-name="glyph1" horiz-adv-x="0" 
 />
    <glyph glyph-name="glyph2" 
 />
    <glyph glyph-name="space" unicode=" " 
 />
    <glyph glyph-name="exclam" unicode="!" horiz-adv-x="312" 
d="M192 450q-3 -11 -3 -13v0q1 1 2 3v-1q-1 -4 -5 -19l7 -16q6 -4 3 -19l-25 -109q-2 -23 -5 -46q-4 -27 -16 -31q-2 -2 2.5 -9.5t3.5 -9.5q-4 -16 -14 -17q1 -1 5 -4.5t1 -14.5q-3 -10 0 -13q8 -8 36 -7q6 0 25 16q17 13 21 10q4 11 5.5 25t4.5 24q-1 1 -8 4t-6 7l1 1
l18 12q5 12 12 35q1 16 6 45l60 131q3 6 3 16q0 50 -43 50q-23 0 -55 -19q-17 -12 -36 -31zM233 93l-25 8l-45 -5q-24 -5 -33 -14t-25 -48q-2 -5 -2 -11q0 -27 22 -26q10 -9 20 -9q6 0 30 11q26 2 31 15q12 5 22 22.5t10 35.5q0 12 -5 21z" />
    <glyph glyph-name="quotedbl" unicode="&#x22;" horiz-adv-x="448" 
d="M434 531q13 -50 -11 -86q-9 -6 -24 -22l-14 -20q-10 -13 -18 -13q-3 0 -5 1q-8 -2 -22.5 11.5t-10.5 21.5q6 12 24 26q24 16 26 19q1 6 -5 10t-11 8q1 11 -11 24.5t-12 21.5q0 27 39 29q16 0 21 -3q11 -10 34 -28zM313 528q13 -50 -11 -85q-9 -7 -24 -23q-7 -10 -13 -20
q-10 -13 -19 -13q-3 0 -5 1q-7 -2 -22 11.5t-11 21.5q6 12 25 26q23 16 25 19q1 6 -5 10t-11 8q1 11 -11 24.5t-12 21.5q0 27 39 29q16 1 21 -3q11 -10 34 -28z" />
    <glyph glyph-name="numbersign" unicode="#" horiz-adv-x="407" 
d="M201 330h60l-1 60h-60zM382 307q0 -6 -9.5 -25.5t-10.5 -30.5q-17 -6 -28 -13l1 -26q0 -11 -5.5 -27t-11.5 -16q-4 0 -18.5 9.5t-22.5 10.5q-9 32 -20 44h-54v-17q0 -12 -7.5 -28t-15.5 -16q-5 0 -25 9.5t-30 10.5q-16 38 -33 47l-3 8h-52q-11 5 -11 21q0 21 5 28
q10 10 20 21l8 3q5 0 15 -1h15q7 0 15 1l-2 81h-3h-57q-10 4 -10 15q0 16 7.5 22l17.5 14l7 2q6 0 15 -1h15q9 0 18 2l4 2v3l-1 57q5 10 21 10q20 1 28 -4q10 -10 21 -19l3 -8q-1 -10 -1 -30v-5h83l-1 53q3 10 15 10q15 1 21 -5q7 -10 15 -19l2 -7v-30v-1h23q12 0 27.5 -6
t15.5 -12q0 -4 -10 -18t-10 -22q-25 -7 -37 -14l1 -60h7q12 0 27.5 -8t15.5 -15z" />
    <glyph glyph-name="dollar" unicode="$" horiz-adv-x="432" 
d="M425 649q0 -21 -20 -38q-35 -29 -37 -32q-14 -18 -18 -43q7 -2 15 -2h42l5 -10v-46q0 -19 -14 -33v-13q0 -3 -26 -29h-7l-4 13q0 3 3 12t3 14q0 8 -23 34l-10 10q-2 -2 -5 -3v-17q-31 -30 -32.5 -35.5t-1.5 -56.5q2 -2 2 -7q0 -15 -18 -24q-2 -15 -8 -25v-6q0 -16 19 -35
q17 -15 33 -30v-3q0 -6 16.5 -34t16.5 -35q0 -4 -2 -11.5t-2 -10.5q-8 -8 -10 -18q1 -10 1 -21v-2q-9 -10 -28 -47q-11 -21 -51 -41q-7 -6 -25 -14q-2 5 -9 5q-6 0 -16 -3t-14 -4q-21 -21 -33 -21q-6 0 -13 1q-5 -10 -6 -23l-14 -13q-8 -36 -18 -42t-51 -6q-13 0 -13 35
q20 25 39 69q-14 3 -23 3q-2 0 -14 -5.5t-21 -5.5q-8 0 -15 4q-2 8 -2 18q0 18 12.5 40t12.5 26q0 5 -3 15.5t-3 15.5l3 8q9 9 12 20q5 19 6 21q8 7 17 7l8 -5q2 -3 2 -28q0 -13 8.5 -22t8.5 -12q0 -4 -2.5 -12t-2.5 -13q0 -26 12 -34q20 47 23 53q1 2 1 12q1 11 -2 13
q5 11 22 17l-1 15l14 19l2 31q13 14 31 58q-5 1 -13 2q-5 3 -6 12t-3 12q-6 9 -19 17q-16 10 -19 13v4q0 9 -8 28t-8 33q0 28 6 45q5 4 7 7v15q0 9 30 30q26 18 40 24q6 19 18 19q4 0 10 -3t9 -3q30 0 44 11l8 7q4 10 3 26q6 9 10 26.5t7 24.5q15 17 39 55q-5 1 37 1
q36 0 36 -24zM180 30q44 0 65 41q11 2 29 13q0 10 12.5 25t12.5 28q0 23 -21 40q-4 20 -20 36q-5 6 -11 11q-8 -16 -9 -43l-15 -17l-3 -22q-3 0 -20.5 -44.5t-18.5 -49.5l-15 -13v-4q7 -1 14 -1zM270 488q-23 0 -44.5 -18t-22.5 -41q-19 -14 -19 -34q0 -18 22 -41
q8 -9 16 -16q16 51 16 74l1 20l13 16l2 20l20 14v6h-4z" />
    <glyph glyph-name="percent" unicode="%" horiz-adv-x="650" 
d="M488 567q0 -16 -33.5 -39.5t-33.5 -60.5q0 -18 -17 -26l-1 -13q-27 -23 -28.5 -26.5t-1.5 -42.5q2 -2 2 -6q0 -11 -16 -18q-2 -21 -19 -29q-2 -13 -1 -52q-13 -12 -15 -42l-13 -13l-3 -16q-3 -1 -18.5 -34.5t-15.5 -36.5l-13 -11v-22q-14 -10 -16 -30l-13 -11
q-7 -26 -16 -31t-44 -5q-12 0 -12 27q19 20 38 59q27 58 31 64q1 2 1 9q0 9 -2 10q4 9 19 13v11l12 15l2 24q16 14 39 72t23 82l2 14l11 13l2 15l18 11q-1 -2 -1 17q0 10 11 18.5t9 28.5q4 13 15 38q13 13 34 41q-4 1 32 1q32 0 32 -18zM315 470q0 -12 -15 -25.5t-15 -28.5
q0 -6 1 -13q-4 -7 -29 -30t-31 -22q-6 -5 -9.5 -8t-22.5 -3l-7 -6q-11 -4 -20 -4l-9 2q-9 9 -11 9q-5 0 -8 -9q-3 -2 -7 -2q-6 0 -17.5 11.5t-32.5 9.5q-4 5 -28 21q-15 10 -13 29q-11 11 -12 14t-1 18q-10 7 -10 20q0 9 5 25.5t5 25.5t25 34q22 23 37 32q16 1 20 10l4 -1
q5 0 13 1.5t13 1.5q22 12 33 12l13 -3l9 -8l8 -1q7 -1 20 -6q22 -13 45 -26q9 -8 22 -41q1 -3 6 -5.5t5 -7.5t7 -13t7 -13zM230 443q0 24 -19 39v13q0 5 -4 9l-5 5q-1 5 -2.5 14t-19 11t-17.5 13q0 6 -7 6q-9 -8 -19 -8q-2 0 -9.5 -7.5t-11.5 -9.5q-9 0 -20 -4
q-11 -16 -11 -50q-17 -27 -17 -35q0 -11 19.5 -28t19.5 -19q-1 -3 -1 -6t11.5 -7t18.5 -9q2 -1 8 -2t9 -1q8 0 33 4q16 14 30 27.5t14 44.5zM633 138q0 -12 -15 -25.5t-15 -29.5q0 -5 2 -12q-5 -8 -30 -30.5t-31 -21.5q-5 -5 -9 -8t-23 -3l-6 -7q-12 -3 -20 -3l-10 2
q-8 9 -11 9q-5 0 -8 -10q-3 -2 -6 -2q-6 0 -17.5 11.5t-33.5 10.5q-4 5 -28 21q-14 10 -12 28q-12 12 -13 15t0 18q-11 7 -11 20q0 8 5 24.5t5 26t26 34.5q22 23 36 32q16 0 21 10l4 -1q4 0 12.5 1.5t13.5 1.5q21 11 32 11l14 -2l8 -8l9 -2q7 0 19 -5q23 -13 45 -27
q9 -7 22 -40q2 -3 7 -5.5t5 -8t6.5 -13t6.5 -12.5zM549 111q0 24 -19 38v14q0 5 -4.5 8.5t-5 7t-2.5 13.5q-1 7 -18.5 9.5t-17.5 13.5q0 5 -7 6q-10 -8 -19 -8q-3 0 -10.5 -8t-10.5 -9q-9 -1 -20 -4q-12 -16 -12 -50q-17 -27 -17 -36q0 -10 19.5 -27t20.5 -20q-1 -3 -1 -5
q0 -3 11.5 -7t17.5 -10q3 0 9 -1t9 -1q8 0 33 4q15 14 31 28q13 13 13 44z" />
    <glyph glyph-name="ampersand" unicode="&#x26;" horiz-adv-x="685" 
d="M671 431q0 -9 -4.5 -19.5t-4.5 -14.5q0 -7 8 -11q-1 -8 -13 -10t-16 -6q0 -21 -18.5 -35.5t-40.5 -14.5q-11 0 -20 5l-7 1q-3 2 -46 43l-9 -9q1 2 1 -34q0 -51 -23 -77q1 8 1 -21q0 -6 -1 -11q-11 -9 -13 -17v-21q0 -16 -51 -63q-2 -10 -6 -24q-3 -6 -11.5 -12.5
t-15.5 -12.5l-10 -1q-4 1 -9 1q-15 0 -34 -23q-24 -28 -31 -33q-7 2 -15 2q-16 0 -27.5 -12t-24.5 -12q-8 0 -20 3q-8 19 -31 15q-10 12 -22 13q18 -2 -24 -2q-11 0 -17.5 9t-23.5 10h-3q-18 21 -59 58q1 -7 1 19q0 10 -8 28t-8 27v47q0 24 17.5 65.5t18.5 67.5v3q1 1 35 46
q12 16 23 18q15 2 30 15q23 19 27 21l4 -1q10 0 24 20l13 3q5 -6 17 -15q2 -1 28 -9.5t28 -8.5q20 0 37 21q25 30 30 33q10 2 30 10q17 12 20 37q-1 -5 -1 44q0 15 11.5 28t26.5 13q17 0 32 -11t15 -27q0 -21 -24 -47q-20 -19 -39 -39q-3 -7 -11 -18q-4 -2 -16 0
q-10 -12 -35 -31q-10 -2 -28 -10q-10 -8 -47 -52l-1 1q-13 0 -68 -52q-18 -6 -16 -6q-15 -10 -38 -34q-26 -28 -38 -38q-4 -6 -24 -26q-15 -16 -15 -29q0 -7 -6.5 -13.5t-6.5 -7.5q0 -5 5.5 -12t5.5 -11t-2 -10.5t-2 -10.5q0 -13 10 -21q10 -22 56 -47q21 -11 113 -11
q25 0 46 18l18 18q6 -1 11 -1q22 0 39.5 22.5t17.5 45.5q0 15 -4 22q4 16 10 16q2 0 8 -1.5t10 -1.5q9 0 20 12l16 18v7q-1 11 10 20t11 18v68q0 12 -21 34.5t-31 22.5q-3 0 -29 -23q-19 -1 -41.5 -21.5t-22.5 -38.5q0 -16 8.5 -29t8.5 -19q0 -11 -11 -21.5t-23 -10.5
q-27 0 -27 25q0 23 3 37q10 10 17 31q6 16 11 33l19 19q6 9 18 26l10 6q12 6 33 17q4 6 13 15q4 3 9 2l9 -2q12 0 18.5 5t13.5 11l9 -1q12 -4 35 -14q4 -5 16 -13q3 -1 24 2q8 -14 17 -28q18 -26 42 -26q23 0 23 17q0 6 -5 13q-3 20 -3 18q0 12 9 21q37 10 40 10
q12 0 12 -32zM205 380q0 8 -22 8q-3 0 -9 7.5t-12 8.5q-11 -13 -41 -21q-40 -40 -40 -45.5t-9.5 -27t-9.5 -31.5q0 -13 12 -18q9 -3 46.5 35.5l37.5 38.5l10 1q1 2 21 22q16 16 16 22z" />
    <glyph glyph-name="quotesingle" unicode="'" horiz-adv-x="230" 
d="M320 528q13 -50 -11 -85q-9 -7 -24 -23q-6 -10 -13 -20q-10 -13 -19 -13q-3 0 -5 1q-7 -2 -22 11.5t-11 21.5q6 12 25 26q23 16 25 19q1 6 -5 10t-11 8q1 11 -11 24.5t-12 21.5q0 27 39 29q16 1 21 -3q11 -10 34 -28z" />
    <glyph glyph-name="parenleft" unicode="(" horiz-adv-x="281" 
d="M258 504q0 -19 -13 -34q-12 0 -59 -49q-42 -44 -50 -56v-11l-14 -12l-1 -15q-16 -13 -14 -34l-12 -14q-1 -9 -4 -30t-3 -31q0 -19 7 -31l-15 -18v-24l12 -12q2 -8 0 -19q-3 -15 -3 -20q0 -22 19 -34v-2q0 -8 6.5 -24t7.5 -21l14 -13v-14l32 -32q19 -20 22 -38l16 -18
l14 -3q12 -17 12 -33l-6 -19l-17 -3q-33 0 -55 16q-11 8 -44 43l-3 16l-11 12q-2 23 -7 25h-23q-14 0 -15 17q2 -24 2 26l-1 5q-11 4 -16 27q-7 28 -12 35l1 20l-11 13l-2 19l10 19l-22 20l-1 13l1 19l9 10q0 30 2 47l14 14v11q12 16 12 25q0 11 -7 25.5t-7 13.5
q0 11 21.5 27t31.5 16l-1 2q0 13 17 31.5t18 32.5q10 4 10 11q-1 -11 -1 16q0 13 12 24t25 12l7 8l-1 12q25 19 62 19q34 0 34 -38z" />
    <glyph glyph-name="parenright" unicode=")" horiz-adv-x="281" 
d="M251 144q0 -5 -3.5 -16t-2.5 -18q-7 -6 -7 -32q0 -16 -9 -30q-13 -4 -8 -19l-16 -15q0 -17 -24 -37.5t-23 -37.5l-14 -12l-6 -23q-15 -18 -51 -48q-14 -2 -41 -12l-14 5v42l9 11q20 -1 23 26q49 16 88 102l36 88q1 6 8 39q5 25 5 38q0 19 -8 70q-7 45 -5 69q-11 9 -30 27
q0 28 -24 24q-18 16 -22 23.5t-1 27.5q-79 63 -79 96q0 16 22 16q24 0 34 -14t20 -14q20 0 17 -20l30 -28q18 -20 16 -35q7 -7 19 -14l-1 -10q15 -11 17 -34q16 -7 19 -31q10 -6 12 -15q-1 1 -1 -18q0 -9 9 -14l6 -44v-113z" />
    <glyph glyph-name="asterisk" unicode="*" horiz-adv-x="455" 
d="M428 376q10 -11 10 -28q0 -30 -27 -49q-24 -1 -58 -13q26 -55 26 -65q-6 -12 -18 -35q-12 -18 -25 -18q-16 0 -39 30q-26 34 -33.5 38t-26.5 2q-3 -7 -7 -13q-7 -11 -49.5 -48.5t-50.5 -37.5l-27 24q-13 14 -13 28q0 16 19 37q28 30 31 35q1 3 -9.5 11.5t-10.5 10.5
q-4 2 -14 -2q-16 -6 -19 -6l-41 -9q-7 4 -18.5 28t-11.5 30q0 21 7 29l23 23l28 20q5 0 15.5 -10t15.5 -10q10 0 19 2q2 2 4 3q-65 57 -65 95q0 21 14 43t35 22q2 0 55 -16l14 -16q-1 -12 8 -39t16 -35q4 -5 14 -12q22 45 45 89t46 44q16 0 33.5 -19t17.5 -49q0 -1 -10 -70
l-30 -9l-2 -8q1 -12 -6 -16l60 3q12 0 30.5 -4.5t24.5 -9.5z" />
    <glyph glyph-name="plus" unicode="+" horiz-adv-x="380" 
d="M347 183q0 -30 -36 -30q-6 0 -18.5 1.5t-17.5 1.5q-13 0 -28 -15v-10q0 -9 -12.5 -50.5t-17.5 -45.5l-27 -3q-30 -1 -30 37v17q1 12 1 16q0 12 -19 31v7q7 7 11 16q-85 -7 -75 -7q-50 0 -50 42q0 21 19 33q18 9 37 18h16q3 -6 20 -14.5t25 -8.5q5 0 14 2q-8 82 -8 76
q0 46 42 47q21 0 34 -18q10 -18 19 -36l1 -15q-13 -7 -22 -37q13 2 22 2q10 0 52 -13t46 -18z" />
    <glyph glyph-name="comma" unicode="," horiz-adv-x="257" 
d="M233 -68q0 -3 -8 -19.5t-9 -30.5q-8 -8 -26 -21q-8 -4 -20 -19t-19 -16q2 0 -13 0q-7 0 -10.5 -10t-7.5 -11h-46q-11 0 -52 40l-1 12q7 10 18 4h56q20 0 42.5 33.5t22.5 56.5q0 15 -2 25l-15 9q-1 19 -3 21q-3 7 -19 7h-46q-8 0 -17 5l-20 31v63q13 15 20 27l9 4
q13 0 40.5 1.5t39.5 1.5q4 0 9 -6q23 -30 60 -58q0 1 0 -27q0 -8 8.5 -20t8.5 -18v-85z" />
    <glyph glyph-name="hyphen" unicode="-" horiz-adv-x="280" 
d="M242 188q0 -17 -18 -19q9 1 -30 1q-8 0 -21 -12h-5q-13 13 -40 13q-11 0 -33 -3t-30 -3q-33 0 -33 29q0 14 12 21t24 13h11q2 -4 13 -9.5t16 -5.5t30 7t38 7q6 0 33.5 -8.5t30.5 -12.5q2 -17 2 -18z" />
    <glyph glyph-name="period" unicode="." horiz-adv-x="242" 
d="M208 129q5 -9 5 -17q0 -11 -9.5 -27.5t-9.5 -24.5q0 -3 2 -7q-6 -4 -17 -12q-3 -2 -16 -16.5t-15 -14.5h-46q-5 0 -12 7.5t-11 9.5q-8 0 -23 4q-8 5 -21 17q-2 1 -2 16v46q0 2 7.5 9.5l9.5 9.5v17q13 8 25 20q6 6 15 6h70q34 -19 48 -43z" />
    <glyph glyph-name="slash" unicode="/" horiz-adv-x="412" 
d="M396 573q0 -21 -20 -38q-35 -29 -37 -32q-19 -24 -19 -61q0 -24 -20 -35v-17q-31 -30 -32.5 -35.5t-1.5 -56.5q2 -2 2 -7q0 -15 -18 -24q-4 -28 -22 -38q-3 -18 -2 -69q-15 -16 -17 -55l-15 -17l-3 -22q-3 0 -20.5 -44.5t-18.5 -49.5l-15 -13l1 -30q-16 -13 -19 -40
l-14 -13q-8 -36 -18 -42t-51 -6q-13 0 -13 35q22 27 43 79q31 76 35 84q1 2 1 12q1 11 -2 13q5 11 22 17l-1 15l14 19l2 31q19 20 45.5 96.5t26.5 106.5l1 20l13 16l2 20l20 14q0 -1 0 23q0 13 12 24t10 37q6 9 10 26.5t7 24.5q15 17 39 55q-5 1 37 1q36 0 36 -24z" />
    <glyph glyph-name="zero" unicode="0" horiz-adv-x="490" 
d="M468 223q0 -19 -21 -41.5t-21 -47.5q0 -9 2 -20q-6 -13 -41 -50t-44 -36q-7 -7 -14 -15q-4 -2 -31 -2l-8 -11q-17 -5 -29 -5l-13 2q-12 15 -15 15q-7 0 -12 -16q-4 -3 -9 -3q-8 0 -24 19t-47 16q-5 9 -39 35q-20 16 -17 46q-16 20 -17.5 24.5t-1.5 29.5q-14 10 -14 32
q0 14 7 41t7 42t36 57q31 36 51 52q22 0 29 16l5 -2q6 0 18 2.5t19 2.5q30 19 45 19l19 -4l12 -13l12 -3q3 -3 13 -4.5t14 -3.5q31 -22 63 -44q13 -12 31 -66q2 -5 9 -9t7 -13t9.5 -21.5t9.5 -20.5zM350 179q0 39 -27 63v22q0 8 -6 14t-7 9l-3 24q-2 13 -26.5 16.5
t-24.5 21.5q0 9 -10 9q-6 -6 -11 -12q-1 -1 -15 -1q-4 0 -14.5 -12.5t-15.5 -14.5q-12 -1 -28 -7q-16 -26 -16 -81q0 1 -12 -22.5t-12 -36.5q0 -17 27.5 -45t27.5 -32q-1 -4 -1 -8q0 -5 14 -11q18 -7 27 -16q4 -1 12.5 -3t12.5 -2q11 0 46 7q11 16 31 34q17 15 22 27
q9 19 9 57z" />
    <glyph glyph-name="one" unicode="1" horiz-adv-x="342" 
d="M253 359q0 -25 -8 -28q1 0 -28 0q-4 0 -17.5 -25.5t-13.5 -28.5q0 -27 1 -81v-82q0 -20 8.5 -28t19.5 -17l12 1q26 -21 26 -45q0 -13 -10 -23h-115l-18 -15h-50q-32 22 -32 32l4 9q7 5 15 9q2 2 2 16q0 10 26 21t26 24v184q0 8 -49 54q-3 20 -3 45v3l16 10h161
q10 0 18.5 -12.5t8.5 -22.5z" />
    <glyph glyph-name="two" unicode="2" horiz-adv-x="392" 
d="M370 121q-13 -9 -15 -25q1 -15 1 -31v-7q-13 -9 -19 -16q0 -21 -13 -23q-17 -2 -22 -15l-15 -3h-201q-17 0 -21 9q-2 4 -2 23v8q22 31 72 74q29 4 50.5 29t22.5 54l1 8q6 6 13 12q3 4 3 19q0 21 -5 30q-2 2 -21 25h-2l-36 1q-6 0 -28 -22q-25 -27 -29 -29q-18 -1 -54 3
q-5 8 -5 21q0 12 8.5 26.5t8.5 31.5q0 9 43.5 52t55.5 43h38q6 -8 15 -13q12 0 31.5 -8t34.5 -8q13 -12 26.5 -25.5t13.5 -29.5q0 -7 9.5 -12t9.5 -24q0 -18 -23.5 -38t-23.5 -47q0 -8 -16.5 -26.5t-14.5 -34.5q-18 -13 -50 -42q-1 -14 7 -14q26 0 34 2q13 18 28 18
q5 0 9 -8.5t8 -10.5q11 3 8 26q15 19 43 36q8 -6 22 -19v-20z" />
    <glyph glyph-name="three" unicode="3" horiz-adv-x="415" 
d="M381 289q0 -22 -9 -42q-11 -7 -6 -23q-9 -12 -27 -7q-26 -33 -51 -50q-38 -26 -51 -37l5 -11q11 0 27 -8q1 -2 28 -34q21 -24 21 -60q8 -16 8 -39t-8 -49q0 -2 -5.5 -13t-8.5 -13q0 -18 -30 -49q-22 -21 -44 -43l-10 1q-13 0 -17 -32.5t-24 -32.5q-4 0 -6 3q-5 29 -17 33
q-11 -6 -37 -6h-69q-2 0 -23 23q-1 22 -10 25.5t-9 7.5q0 25 1 33q13 12 35 40l25 -3q3 -3 30 -27q19 -17 21 -30l7 -1q20 -1 56.5 31t36.5 45q0 9 -8 25q8 13 11 23q14 5 14 16q0 17 -21 33v6q2 23 -32 27q-14 13 -28 13q-2 0 -16 -6t-23 -5l-17 1l-28 23v14l29 28l13 -1
l11 15q14 0 40 8.5t30 8.5q26 29 58 29q12 0 24 32q9 27 9 47q0 29 -11 37q-15 0 -33 8.5t-23 8.5q-10 0 -20 -12q-22 -1 -43 -22h-48q-18 0 -19 21q1 -18 1 33q0 9 29 36q26 24 37 30q6 1 22.5 6.5t18.5 5.5h73l47 -10l46 -44q18 -19 18 -67z" />
    <glyph glyph-name="four" unicode="4" horiz-adv-x="515" 
d="M468 83q0 -19 -13 -23l-5 -6q0 -17 -3.5 -22.5t-19.5 -5.5h-62l-43 -40q11 -22 11 -34q0 11 7 -87l11 -14v-26l-11 -13v-8q1 -14 -12 -14h-104l-12 9v11q0 13 14 38q3 5 3 35q0 21 -1 58.5t-1 40.5q0 7 2 11q18 2 18 18q0 4 -5.5 9.5t-9.5 5.5h-56l-3 -2q-39 3 -44 -14
l-23 3l-12 13q-18 0 -28 -12q-17 -2 -22 -2q-16 0 -32 14l-18 1v4q0 12 23.5 32.5t23.5 36.5q16 12 26.5 33t18.5 27q-1 13 6 27t19 12q0 1 53 64q32 38 57 59q13 1 30 27q22 35 28 40h6q16 0 24 16h8l24 -20t12 -28q0 -28 -9 -35l-1 -7q12 -6 12 -15q0 -12 -16 -35
q3 -32 -7 -80q-12 -53 -12 -75l7 -18h70q22 29 33 29q10 0 36 -21zM263 225q0 13 -11 27t-22 14q-14 0 -13 0q-21 -25 -67 -70q0 -7 -3 -16.5t-21 -26.5q-9 -8 -9 -31q0 -8 -7.5 -14.5t-7.5 -11.5v-2q3 -3 10 -3h15q10 1 15 1q25 15 31 15l8 -2l3 -6q12 -4 28 -4
q26 0 29 14.5t4 30.5q1 5 8.5 13t7.5 10q0 4 -8 8t-8 8t8 8t9 5q1 -7 1 33zM305 -45q0 13 -14 13q-15 0 -15 -24q0 -14 3 -26l6 -2q20 16 20 39z" />
    <glyph glyph-name="five" unicode="5" horiz-adv-x="388" 
d="M386 403q-17 -25 -30 -59q-29 -13 -59 -52q-35 -47 -53 -61q-9 0 -22.5 11t-23.5 10h-18q-6 -12 -26 -35q5 -19 28 -45t40 -31l8 -10l-1 -5q0 -10 21 -44.5t22 -69.5l9 -10q8 -37 8 -33q0 -26 -51.5 -107t-74.5 -94l-17 2q-13 0 -29 -16q-22 -1 -23 -1q-6 -3 -6 -21
l-13 -11q-20 0 -20 26q0 47 37 75q34 19 67 39q34 24 28 64q21 14 16 28l8 25q0 8 -4 23t-4 24q-29 33 -59 66q-45 43 -72 37q-8 7 -16 22q17 15 24.5 80t23.5 79l-1 35q-1 21 10 21h59q12 0 35 -8.5t36 -7.5l34 1l15 12h2q14 -1 20 7.5t5 24.5q15 6 26 22h32z" />
    <glyph glyph-name="six" unicode="6" horiz-adv-x="515" 
d="M527 481q-18 -10 -35 -19.5t-41 -6.5l-17 -16h-55l-17 -18l-19 -2q-7 -20 -21 -20q-3 0 -8 1q-12 -7 -39 -33t-27 -35q0 -20 20 -20q5 0 14 1t13 1q12 0 35 -17h14q20 -18 57 -56q-15 -23 -15 -37q0 -25 13 -37l-13 -19l1 -13q-28 -36 -56 -71q-40 -48 -61 -58l-19 1
q-14 1 -44 -7.5t-45 -8.5h-64q-14 9 -28 18.5t-25 22.5l1 7q1 11 -8 16q0 7 -5.5 21.5t-5.5 18.5v92q0 11 36 55q-3 10 -3 17q0 11 19 28q2 20 19 39q16 16 33 31l4 23q23 1 48 30q30 36 43 42q7 -2 17 -2l17 3q23 28 55 35q9 11 29 34l16 -1q21 -1 41 15l27 -2l21 3
q6 21 30 21q30 0 42 -26q10 -20 6 -51zM311 197q0 24 -15 30q-23 8 -26 13q0 -4 0 11q0 8 -8.5 9.5t-16.5 1.5q-9 11 -31 11q-15 0 -29 -11h-1q-14 1 -41 -24q0 -2 1 -6v-5q0 -6 -6 -11t-7 -8q1 -13 -3 -38q0 -2 -9 -9.5t-9 -27.5q0 -17 11.5 -27t13.5 -14q8 -2 24 -7
q33 -18 34 -18q3 0 12 5q8 3 12 0q4 1 22 17q46 6 46 46q7 4 20 14q0 7 3 23t3 25z" />
    <glyph glyph-name="seven" unicode="7" horiz-adv-x="490" 
d="M460 313l-16 -19l-25 -3q-12 -10 -69 -91q2 -4 2 -12q0 -19 -17 -31l-3 -34l-14 -19v-14q-17 -5 -19 -18v-29l-1 -16q-20 -19 -23 -24q-6 -10 -6 -32q0 -16 -15 -25v-3q0 -7 -7.5 -22t-8.5 -27l-1 -18l-36 -27q-2 -23 -18 -55q-19 -36 -39 -36q-10 0 -24 9t-14 19
q0 7 8 19.5t8 14.5q0 58 2 63q7 3 16 30t26 41h13q12 13 40 37v9q-1 10 19 32v86l36 54q20 32 20 60q0 38 -58 38q-6 0 -30 4q-18 3 -28 0q-15 4 -21 -9l2 -19q1 -15 -3 -17q-8 -3 -15 -6q-2 -1 -14 -2q-5 0 -8 -6l-11 -5h-48q-18 0 -18 12v125q0 6 39 45h70l10 13l15 -13
q39 0 66 -8.5t28 -8.5h147q7 0 31 -22q-1 -24 12 -40z" />
    <glyph glyph-name="eight" unicode="8" horiz-adv-x="474" 
d="M422 185q0 -2 -4 -13t-4 -15l-7 -8q0 -86 -23 -103q-1 -16 -7.5 -20.5t-27.5 -8.5l-11 -12q-32 -1 -42 -14h-54q-6 0 -15.5 6.5t-14.5 6.5q-42 0 -59 17q-20 22 -40 45l-7 2l-38 60v40l11 15v5q-1 18 23 38q19 16 39 32l4 -1q16 -1 16 19q0 26 -15 37v16q-14 8 -19 19
q-13 -1 -26 17q-10 14 -19 28v43q-14 14 -14 24v83q17 28 46 45.5t39 29.5h3q8 1 18.5 -7t15.5 -8h54l16 12q8 -9 30 -13q19 -2 34 1l29 -28l24 -4q2 -17 18 -57q15 -36 15 -62q0 -24 -12 -40q-1 -2 -31 -30q-15 0 -34 -21q-26 -29 -31 -32v-7q-1 -12 5 -15t19 -2
q5 -9 41 -29q30 -16 28 -41l21 -16q6 -21 6 -34zM338 468q0 14 -9.5 23t-9.5 25q0 9 -14 16t-25 7q-18 11 -40 11q-32 0 -34 -12q-13 0 -31.5 -22.5t-32 -22.5t-13.5 -15t11 -17q-7 1 24 1q12 0 12 -23q2 -2 3 -6q-3 -6 -3 -12q0 -11 12 -34.5t12 -33.5q0 -12 -9 -22v-5
q8 -5 22 -5q2 0 9.5 0.5t11.5 -0.5q29 17 49 36q11 38 33 41q18 3 18 36q0 6 2 17t2 17zM326 147q0 19 -15 43q-12 20 -25 40h1q0 13 -13.5 20.5t-25.5 7.5q-4 0 -8.5 7t-10.5 7q-25 -25 -51 -52q-1 -12 -12 -37t-11 -42q0 -31 22 -53q1 -10 -1 -26q4 -4 7 -4q1 0 11 5t16 5
q14 -17 36 -17q35 0 44 17q9 0 12 7q2 4 1 15q23 22 23 57z" />
    <glyph glyph-name="nine" unicode="9" horiz-adv-x="480" 
d="M445 143q0 -20 -29 -67q-10 -30 -31 -73q-25 -29 -114.5 -85.5t-102.5 -71.5l-38 2l-21 -6l-12 -13l-14 1q-12 1 -33 -7.5l-21 -8.5q-35 0 -63 7q-41 12 -41 36l5 15q8 4 30 4q10 0 24 18q11 2 29 0q22 -3 28 -3q25 0 72.5 25.5t59.5 25.5q17 0 14 19l16 21v21
q-12 15 -23 15q-7 0 -21.5 -5t-22.5 -4l-7 1q-8 13 -20 15q-4 1 -27 0q-11 15 -23 22q0 17 -13 30q-17 15 -19 22q17 11 17 22q0 4 -2 7q-9 15 -9 35t9 36q0 15 14 27l-1 6q0 15 28 33l13 -1q13 20 24.5 27t33.5 7q6 0 22 7.5t41 7.5q20 0 51 19l9 -4q14 6 31 5l15 14l17 -1
l11 -11l29 -5q7 -10 22 -30q24 -2 35 -43q8 -28 8 -61v-53zM316 207q0 15 -14 34t-29 19q-7 0 -16 -6q-12 -8 -16 -9q-34 -9 -42 -39q-16 -9 -34.5 -36.5t-18.5 -44.5q0 -6 6 -26.5t11.5 -22t19.5 -6.5q4 -3 19 -21q11 -14 23 -14q34 0 55 26q11 13 20 25t17 36q0 1 7 17
q4 8 4 18q0 9 -6 24.5t-6 25.5z" />
    <glyph glyph-name="colon" unicode=":" horiz-adv-x="244" 
d="M233 260q0 -1 -20 -31q-21 -16 -32 -16t-25.5 7.5t-22.5 7.5q-4 0 -12 -1h-11q-4 1 -5 21q-6 8 -11 11q0 4 -3 12t-3 13q0 15 20 33q17 16 33 22q21 0 59 -7q3 -4 12 -13q3 -3 3 -18t9 -28zM216 26l-1 -16q-9 -7 -37 -38q-8 -1 -18 -1q-11 0 -18 1q-14 20 -30 17
q-1 1 -6 8.5t-9 7.5q-8 20 -8 35q0 19 13 45q12 0 20 6.5t15 6.5h35q4 0 14.5 -2.5t13.5 -3.5l9 -8q5 1 8 1q16 0 16 -24q0 -16 -6 -22q-10 -9 -11 -13z" />
    <glyph glyph-name="semicolon" unicode=";" horiz-adv-x="257" 
d="M233 -68q0 -3 -8 -19.5t-9 -30.5q-8 -8 -26 -21q-8 -4 -20 -19t-19 -16q2 0 -13 0q-7 0 -10.5 -10t-7.5 -11h-46q-11 0 -52 40l-1 12q7 10 18 4h56q20 0 42.5 33.5t22.5 56.5q0 15 -2 25l-15 9q-1 19 -3 21q-3 7 -19 7h-46q-8 0 -17 5l-20 31v63q13 15 20 27l9 4
q13 0 40.5 1.5t39.5 1.5q4 0 9 -6q23 -30 60 -58q0 1 0 -27q0 -8 8.5 -20t8.5 -18v-85zM208 316q5 -9 5 -18q0 -10 -9.5 -27t-9.5 -24q0 -4 2 -7q-6 -4 -17 -12q-3 -3 -16 -17t-15 -14h-46q-5 0 -12 7t-11 9q-8 0 -23 5q-8 5 -21 16q-2 2 -2 17v46q0 1 7.5 8.5t9.5 10.5v17
q13 8 25 20q6 6 15 6h70q34 -20 48 -43z" />
    <glyph glyph-name="less" unicode="&#x3c;" horiz-adv-x="1000" 
d="M9 126q0 -6 4 -11q8 -9 8 -10l3 -21l11 -7q21 -27 28 -27q34 -14 72 -14t79 14q9 11 18 23q9 8 27 8q19 19 50 49q6 5 18 2q18 14 18 21l-1 2q-12 7 -12 14q0 10 17 15q0 -5 0 11q0 14 11 15q16 1 19 5q12 18 34 18q10 0 31 -3q3 0 6.5 -8t4.5 -9q11 -7 28 -26v-25
q0 -8 10 -19t10 -18q0 -18 -23 -27q-18 -7 -36 -6q-3 -1 -7.5 -9t-8.5 -8h-53q-13 -17 -32 -16q-20 -22 -24 -27q-12 -16 -13 -32q-17 -9 -18 -20q1 7 1 -27q0 -18 -10 -26.5t-10 -17.5q0 -4 1 -10.5t1 -9.5q18 -21 18 -22q-2 8 -2 -28q0 -9 27 -41t36 -35q4 -5 8 -9
q22 -14 49 -14q21 0 36 12q4 5 8 11q3 3 16 3l8 2q3 5 9 13q9 2 26 5q5 13 5 65q0 15 -1 22q-7 0 -30 -16v-7q1 -10 -7 -19q-13 -17 -13 -18l-5 -3q-5 1 -12 0q-9 -1 -12 -1q-16 0 -22 16q-16 6 -33.5 13.5t-17.5 27.5q0 14 17 22q6 43 50 45q10 17 14 17q5 0 9.5 -10.5
t9.5 -10.5t13.5 9.5t12.5 10.5q11 0 32 2q3 1 10.5 7.5t27.5 8.5q4 0 4 20q15 13 15 26v112q0 4 -7 18.5t-8 27.5q-3 3 -17 3l-8 2q-4 5 -14 12q-10 -1 -28 9v54q0 4 6.5 8.5t10.5 4.5h102q12 0 19 -9t10 -10h12q31 -22 28 -46q5 -3 14 -14l-1 -13q0 -4 8.5 -8.5t10.5 -8.5
q3 -9 16 -30q2 -11 22 -44l7 1q12 1 26 -15t39 -16q9 0 15 -2q10 -10 18.5 -20t8.5 -23q0 -7 -3 -25l-14 -9q-1 -1 -1 -13t-10 -14q-16 -2 -18 -4q-7 -6 -14 -13q-5 -3 -19 -6q-6 -7 -6 -16q0 -8 15 -35q6 -3 24 -21q14 -14 26 -14t17.5 -10t27.5 -10q6 0 13.5 8.5t10 10
t16.5 2.5q9 0 12 8q-2 3 -2 7q0 10 15 19q1 6 0 16q-1 12 -1 17q0 15 11 27t22 23q3 7 3 23q0 14 -1 24q-14 14 -15 24.5t-3 14.5q-18 13 -22 17q-7 9 -7 26q0 2 -9 6.5t-10 11.5q-3 17 -20 34q-28 29 -29 30t-1 16q0 9 -31.5 34.5t-44.5 23.5q-5 7 -10 15q-3 4 -20 3
l-14 15q-4 -2 -7 -2q-8 0 -20 12q-15 14 -20 16v101q7 4 21 14l-1 30q-2 47 28 49q10 -10 32 -30q11 -2 26 -12q7 -5 14 -11q57 -11 72 -11q26 0 26 36q0 4 -3 54v10q-8 7 -24 24l-13 -1q-3 0 -10 8l-7 8q-49 -7 -99 0q-22 -25 -72 -67q-1 -3 -1 -27q0 -8 -11 -29t-16 -24.5
t-7 -27.5q-1 -17 1 -45q1 -33 1 -30q0 -12 -25 -12q-4 -5 -8.5 -10.5t-9.5 -5.5h-136l-8 8l-1 2q0 11 18 20q15 8 28 8q2 8 7 22q6 5 15 16q1 3 1 17q0 7 16.5 18t15.5 17q-2 11 -2 68q0 -1 2 11q-6 4 -16 16q0 8 1 13q-28 43 -68 43q-6 0 -24.5 -1t-31.5 -1
q-16 0 -30 -16.5t-36 -16.5q-10 0 -16 2l-6 6q0 13 -3 37q-5 5 -13 15q-4 6 -3 15q2 17 2 15q0 6 -12.5 16t-18.5 10t-20 -10t-14 -14q-2 -13 -3 -16t-11 -10v-8q1 -15 -23.5 -38t-24.5 -39q0 -28 2 -31q9 -11 18 -23h34q21 0 31 -16q9 -5 15 -5q2 0 3 1h50q14 0 23.5 11
t29.5 10l13 -1q2 0 13 -16q8 -11 30 -30q0 -6 1 -17v-17q0 -9 -2 -17l-40 -44h-44q-11 0 -18.5 10.5t-35.5 10.5q-16 0 -33 -3q-13 -16 -25 -17t-17 -5q-20 -21 -63 -61q-2 -13 -10 -30q-6 -13 -6 -33q0 -15 -19 -19q-21 -37 -36 -37q-11 0 -22.5 13t-12.5 25q-1 3 1 10
t2 10q0 7 -23.5 26.5t-31.5 19.5q-28 0 -28 -69q0 -17 3 -44zM263 198q0 12 13 12q12 0 12 -9q0 -12 -11 -12l-4 1h-1q-9 0 -9 8zM463 46q0 16 12 17q8 -6 8 -19q0 -17 -13 -17q-7 6 -7 19zM493 77q0 12 16 24t29 12t13 -21q0 -6 -4 -14q-5 -2 -14.5 -11.5t-15.5 -9.5
q-24 0 -24 20zM728 207q0 27 18 27q3 -2 20 -2q9 0 20 -17t15 -20q30 -16 30 -31q0 -8 10 -20.5t10 -20.5q0 -9 -15.5 -20.5t-24.5 -11.5t-26 16q-14 13 -21 23q-1 9 -7 25q-2 3 -11 9q-4 3 -2 18q-2 4 -9 8.5t-7 16.5z" />
    <glyph glyph-name="equal" unicode="=" horiz-adv-x="407" 
d="M391 277q0 -4 -10 -18.5t-11 -22.5q-38 -10 -48 -23l-13 -3q-9 0 -20.5 6.5t-14.5 6.5h-139q-6 0 -15.5 5t-17.5 5h-57q-10 4 -10 16q0 15 7.5 21.5t17.5 13.5l7 2h15.5h14.5q9 0 18 1q12 7 35 7h198q11 0 27 -6t16 -11zM385 139q0 -5 -10 -24.5t-10 -30.5
q-39 -15 -48 -32l-14 -4q-9 0 -20.5 8.5t-13.5 8.5h-139q-6 0 -16 7.5t-18 7.5h-57q-10 5 -10 21q0 20 5 27q10 11 20 21l7 3h15q11 -1 15 -1q9 0 18 3q12 8 35 8l198 1q11 0 27 -8t16 -16z" />
    <glyph glyph-name="greater" unicode="&#x3e;" horiz-adv-x="1000" 
d="M991 126q0 -6 -5 -11q-8 -9 -8 -10l-3 -21l-11 -7q-21 -27 -28 -27q-34 -14 -72 -14t-79 14q-9 11 -18 23q-9 8 -27 8q-18 19 -50 49q-6 5 -18 2q-18 14 -18 21l1 2q12 7 12 14q0 10 -17 15q1 -5 1 11q0 14 -12 15q-15 1 -19 5q-11 18 -34 18q-10 0 -30 -3q-4 0 -7.5 -8
t-4.5 -9q-11 -7 -28 -26v-25q0 -8 -10 -19t-10 -18q0 -18 23 -27q18 -7 37 -6q2 -1 6.5 -9t9.5 -8h52q13 -17 32 -16q20 -22 24 -27q12 -16 14 -32q16 -9 17 -20q-1 7 -1 -27q0 -18 10.5 -26.5t10.5 -17.5q0 -4 -1.5 -10.5t-1.5 -9.5q-17 -21 -18 -22q2 8 2 -28
q0 -9 -27 -41t-33.5 -36t-9.5 -8q-23 -14 -50 -14q-21 0 -36 12q-4 5 -8 11q-2 3 -16 3l-8 2q-3 5 -9 13q-9 2 -26 5q-5 13 -5 65q0 15 1 22q7 0 31 -16l-1 -7q0 -10 7 -19q13 -17 13 -18l6 -3q4 1 11 0q10 -1 12 -1q17 0 22 16q17 6 34 13.5t17 27.5q0 14 -17 22
q-6 43 -50 45q-10 17 -14 17q-5 0 -9.5 -10.5t-9.5 -10.5t-13.5 9.5t-12.5 10.5q-11 0 -32 2q-3 1 -10.5 7.5t-27.5 8.5q-4 0 -4 20q-14 13 -14 26l-1 112q0 4 7.5 18.5t7.5 27.5q3 3 17 3l9 2q4 5 13 12q10 -1 29 9v54q0 4 -7 8.5t-11 4.5h-102q-12 0 -19 -9t-9 -10h-13
q-31 -22 -27 -46q-6 -3 -15 -14l1 -13q0 -4 -8.5 -8.5t-10.5 -8.5q-3 -9 -16 -30q-2 -11 -22 -44l-7 1q-11 1 -25 -15t-39 -16q-10 0 -16 -2l-18 -20t-9 -23q0 -7 4 -25l14 -9v-12q0 -13 10 -15q16 -2 18 -4q8 -6 15 -13q4 -3 19 -6q5 -7 5 -16q0 -8 -15 -35q-6 -3 -24 -21
q-14 -14 -26 -14t-17.5 -10t-27.5 -10q-6 0 -13.5 8.5t-10 10t-14 2t-14.5 8.5q2 3 2 7q0 10 -15 19v16q1 12 1 17q0 15 -11 27t-22 23q-3 7 -3 23q0 14 2 24q13 14 14 24.5t3 14.5q18 13 22 17q7 9 7 26q0 2 9 6.5t10 11.5q3 17 20 34q28 29 29 30t1 16q0 9 31.5 34.5
t44.5 23.5q5 7 10 15q3 4 21 3l13 15q4 -2 7 -2q8 0 21.5 13t18.5 15v101q-7 4 -21 14l1 30q2 47 -28 49q-10 -10 -31 -30q-12 -2 -26 -12q-8 -5 -15 -11q-57 -11 -71 -11q-26 0 -26 36q0 4 2 54v10q9 7 24 24l13 -1q4 0 10.5 8l6.5 8q49 -7 99 0q22 -25 73 -67v-27
q0 -8 11 -29t16.5 -24.5t6.5 -27.5q1 -17 0 -45q-2 -33 -2 -30q0 -12 25 -12q4 -5 8.5 -10.5t9.5 -5.5h136l8 8l1 2q0 11 -16.5 19.5t-29.5 8.5q-2 8 -7 22q-6 5 -14 16q-1 3 -1 17q0 7 -17 18t-16 17q2 11 2 68q0 -1 -2 11q6 4 16 16q0 8 -1 13q28 43 69 43q6 0 24 -1
t32.5 -1t28.5 -16.5t37 -16.5q9 0 15 2l6 6q0 13 3 37q5 5 13 15q4 6 3 15q-2 17 -2 15q0 6 12.5 16t19.5 10q5 0 19 -10t15 -14q1 -13 2 -16t11 -10v-8q-1 -15 23.5 -38t24.5 -39q0 -28 -2 -31q-9 -11 -18 -23q1 0 -34 0q-20 0 -30 -16q-10 -5 -16 -5q-2 0 -3 1h-50
q-14 0 -23.5 11t-28.5 10l-14 -1q-2 0 -13 -16q-7 -11 -30 -30v-17q-1 -12 -1 -17q0 -9 2 -17q20 -22 41 -44h43q11 0 18.5 10.5t35.5 10.5q16 0 33 -3q13 -16 25 -17t17 -5q20 -21 63 -61q2 -13 10 -30q6 -13 6 -33q0 -15 19 -19q22 -37 36 -37q12 0 23 13t13 25
q0 3 -1.5 10t-1.5 10q0 7 23.5 26.5t31.5 19.5q27 0 27 -69q0 -17 -2 -44zM736 198q0 12 -13 12q-12 0 -12 -9q0 -12 11 -12l4 1h2q8 0 8 8zM536 46q0 16 -12 17q-8 -6 -8 -19q0 -17 13 -17q7 6 7 19zM506 77q0 12 -16 24t-29 12t-13 -21q0 -6 4 -14q5 -2 16 -12q8 -9 14 -9
q24 0 24 20zM271 207q0 27 -17 27q-4 -2 -21 -2q-9 0 -19.5 -17t-15.5 -20q-30 -16 -30 -31q0 -8 -10 -20.5t-10 -20.5q0 -9 15.5 -20.5t24.5 -11.5t26 16q15 13 21 23q1 9 7 25q2 3 11 9q4 3 3 18q1 4 8 8.5t7 16.5z" />
    <glyph glyph-name="question" unicode="?" horiz-adv-x="416" 
d="M401 307q-15 -53 -109 -80q-12 3 -25 3q-30 -2 -34 -23q-7 -7 -16 -38q-3 -9 -17 -26q-8 -5 -25 -10q-13 0 -29 4q0 6 -3 16l26 87q6 21 41 46q11 4 30 11h13q4 0 25 12q14 7 28 15q11 8 20 27q7 5 8 9q1 5 -10 10q3 6 7 17q-1 7 -1 23q-9 22 -37 21q-14 -3 -41 -6h-3
q-1 1 -18 21q-12 14 -9 22q4 15 24.5 35.5t34.5 20.5l37 3q5 0 17.5 -9t21.5 -10q3 -15 5 -29q4 -18 23 -14q4 -4 14.5 -12t10.5 -10q0 5 -8 -20q11 -50 14 -54q1 -11 0 -14zM231 63q-7 -22 -31.5 -43.5t-47.5 -23.5l-9 1q-8 -3 -17 10q-5 9 -11 18q-2 9 -2 14q2 9 8 28
q6 23 21 34q11 0 33 1q9 1 25 14l6 1q27 2 27 -35q0 -10 -2 -19z" />
    <glyph glyph-name="A" unicode="A" horiz-adv-x="1162" 
d="M1150 558q0 -7 -13 -26q-16 -24 -18 -29l-3 -33q-19 -10 -19 -44q0 -10 -3 -14q-33 -19 -33 -69l6 -11q-1 -5 -7 -9q-9 -6 -10 -9q-2 -11 -13 -34.5t-10 -39.5q6 -13 6 -12q0 -4 -7.5 -10.5t-8.5 -10.5t-3 -15q-7 -7 -16 -22q-7 -37 -7 -49t5 -15v-3q1 -3 -10 -15l-1 -12
q6 -17 19 -29q30 0 30 -18l-2 -8q-38 -24 -43 -24h-216q-12 0 -12 19l2 7q8 7 22 23q4 0 11.5 -1t10.5 -1q14 0 24 11t16 11l2 -1q4 -5 11 -5q13 0 19.5 13.5t20.5 13.5q11 0 15 12l2 22q0 3 17 25q9 36 9 52q0 39 -34 35q-3 5 -15 5t-22 -5h-6q-9 0 -15 -5.5t-12 -11.5
q-9 4 -15 4q-11 0 -21 -24l-12 -32q-6 -8 -19 -24h-10q-7 0 -21 -12q-10 -9 -21 -18q-4 -3 -15.5 -4.5t-18.5 -10.5q-2 -6 -13.5 -21.5t-11.5 -22.5q0 -4 2 -6l-11 -11q1 0 -11 0q-8 0 -19 -13q-1 0 -27 -9q-22 -7 -22 -24q0 -4 -11 -5t-12 -2q-6 -7 -20 -18l-14 2
q-1 1 -5 1q-11 0 -23 -11q-15 -2 -70 -18q-43 -11 -72 -11q-30 0 -96 15q-9 7 -34 6t-34 11q-50 16 -96 65q-2 11 -17.5 32.5t-15.5 22.5q-1 6 -4 18q-2 5 -11 12q-5 3 -5 32q0 8 -7.5 21.5t-7.5 21.5v72q0 6 12 36q1 9 9 26q32 37 72 37q21 0 37 -7q16 -15 16 -34
q0 -11 -7.5 -29.5t-7.5 -30.5q-6 -4 -11 -7t-5 -15q0 -4 -15 -25.5t-15 -45.5q0 -29 40 -78q31 -38 65 -66q4 -4 22 -4q4 -6 14 -18q85 -11 88 -11q31 0 64 12q38 14 52 35l4 1q5 0 12 -5t12 -5q13 0 34 18q14 14 29 28l10 -1h3q22 27 34 31q16 6 19 9q39 37 65 69
q3 -1 6 -1q17 0 50 46q8 6 23 19q33 38 68 77q57 40 88 87q9 0 24 7q8 9 73 67q10 3 13.5 8t9 6t17.5 6q1 0 41 45q27 28 50 28q9 0 16 -5q1 -3 1 -7zM992 385q0 11 -18 11h-3q-9 -6 -21 -10q-5 -1 -12 -11q-8 -13 -9 -14q-19 -16 -46 -43q-8 -12 -8 -22l4 -7.5t13 -7.5
q30 0 52 10q30 14 25 41q2 7 13 27q10 17 10 26z" />
    <glyph glyph-name="B" unicode="B" horiz-adv-x="557" 
d="M537 438q0 -9 -5.5 -22t-6.5 -19q-6 -5 -6 -9q0 -5 6 -9q1 -5 -36.5 -33t-52.5 -28q-11 0 -33 -28q-18 -10 -18 -21l3 -7q9 -4 23 -5q19 0 24 -1q22 -4 56.5 -32.5t34.5 -47.5v-39q-19 -33 -18 -51l-4 -4h-1q-8 0 -23 -15.5t-20.5 -24.5t-17.5 -12q-18 -5 -20 -6l-8 -9
q-6 -3 -18.5 -4t-26.5 -11h-44q-19 -13 -63 -13q-99 0 -103 13q-9 0 -30 -1.5t-32 -1.5q-42 0 -64 18l-1 10q17 21 57 23l7 3l8 -1q14 -1 17 8q1 2 1 18q0 4 1.5 11.5t1.5 11.5q-3 5 -3 7l9.5 17.5t9.5 29.5q0 3 -1.5 8t-1.5 7q0 9 10 21q8 9 16 19q5 7 4 21q-2 27 -2 21
q0 5 12 10q5 17 7 51q-6 9 -6 18q0 3 4 9q12 1 12 23q0 15 8.5 19.5t9 7.5t5.5 18q4 11 4 18t-9 10q0 5 5.5 11.5t5.5 10.5q0 12 -10 18q-5 6 -19 14h-54h-6q-9 5 -9 11q0 5 26 27q15 1 28 7q108 0 93 -1h3l6 3q12 0 32 9h36q10 0 32 -7t37 -5q9 -3 44 -12q24 -7 44 -22
q3 -5 19 -28q11 -15 11 -32zM473 398q0 22 -20 31l-2 3q5 4 5 10q0 9 -10 9q-7 8 -21.5 13t-21.5 14q-11 6 -24 6q-1 0 -4 -2t-5 -2t-4 1q-18 23 -28 24q-9 -3 -22 -14q-3 -4 -14.5 -33.5t-11.5 -33.5t6 -11v-3q0 -6 -5.5 -13t-6.5 -10q0 -9 -3 -25q-2 -4 -11 -9
q-10 -27 -10 -40q0 -19 15 -31l9 -1h55q16 8 34 20q2 5 9 13q4 1 13 -1q11 2 35.5 26t32.5 29q10 12 10 30zM462 167l-2 6q-16 16 -24 26q-15 18 -16 28q-11 21 -40 21q-1 0 -9 9q-3 3 -17 3q-1 0 -6.5 5.5t-8.5 5.5q-1 0 -7.5 -6t-13.5 -6h-58q-7 -5 -21 -17q0 -4 -4 -13
t-4 -15q0 -7 8 -11l-3 -9q-7 -6 -15 -13q-2 -3 1 -23q-19 -27 -19 -35q0 -7 5 -12v-4q1 -6 -8.5 -13t-9.5 -20q0 -15 7 -21q14 -13 16 -15q8 -4 28 -4q6 0 12.5 -5.5t10.5 -5.5l11 9q8 -2 18 -2q20 0 34 6q3 7 14 15q-8 -2 18 -2q10 0 18 15q53 40 56 43q29 28 29 60z" />
    <glyph glyph-name="C" unicode="C" horiz-adv-x="522" 
d="M499 495l-1 -20q-22 -19 -31 -36q-15 -28 -23 -39l-6 -1q-5 2 -7 10q-1 6 0 16q2 13 2 14q0 19 -24 40l-40 30q-5 0 -10.5 -5t-10.5 -10q-12 3 -24 3q-34 0 -65 -22q-9 0 -28 -19l-27 -27q-1 -2 -0.5 -5.5t0.5 -4.5q0 -13 -40.5 -51.5t-38.5 -62.5v-4l8 -8
q-37 -50 -37 -105q0 -6 2 -17t2 -17q0 -12 6.5 -19t6.5 -9q0 -19 23.5 -38.5t41.5 -18.5l8 -4q12 -17 45 -17q48 0 66 40q3 0 9 -2t8 -3q10 6 20 25.5t11 31.5q8 8 12 8q17 0 17 -38q0 -18 -8 -30t-8 -21q0 -28 -50 -45q-39 -13 -74 -13h-52q-38 0 -78 28q-16 4 -34.5 23.5
t-21.5 35.5q-18 18 -18 43q0 142 12 159q7 10 7 30q0 12 18 30t18 31q11 11 16 21q15 25 69 66q17 2 27.5 18.5t18.5 19.5q34 13 73 16q69 7 73 7q17 15 20 15q2 0 12.5 -5t16.5 -6q5 -1 14.5 1t12.5 2t7.5 -8t8 -10.5t12.5 -0.5l15 2q19 0 18 -24z" />
    <glyph glyph-name="D" unicode="D" horiz-adv-x="694" 
d="M679 326q-2 -21 -11.5 -44t-10.5 -40q0 -12 -8.5 -30.5t-10.5 -28t-7 -26.5q-5 -10 -20 -32q-7 -11 -46 -41l-9 1q-10 -12 -35 -30q-7 -1 -20 -4q-5 -2 -13 -12q-5 -5 -16 -4.5t-18 -8t-13 -8.5q-4 0 -12.5 2.5t-13.5 2.5q-25 1 -56 -6q-31 -21 -152 -21q-9 0 -180 7
q-7 8 -6 24q0 16 9 21h55q33 2 52 15q31 -3 32 24q0 3 -1.5 8.5t-1.5 7.5q0 6 9.5 11.5t10.5 11.5q3 10 16 33q12 20 12 30v1q-9 9 -9 17q0 4 4 10q21 10 23 52q1 8 -4 16l1 11v7q7 5 14 9q3 3 2 19q6 5 16 16q2 8 8 24q2 3 10 7.5t9 15.5q0 7 2.5 22t3.5 22q1 28 -22 41
q-6 8 -10 9q-3 0 -11.5 -9t-14.5 -9q-5 1 -11.5 7t-8.5 7q-10 1 -26 11q-1 8 -2 25q1 18 21 18q6 0 20 -2.5t21 -2.5q19 0 26 13q16 7 40 6q25 -1 45 -11q3 -7 8 -8q15 0 45.5 2t45.5 1q1 0 57 -11q8 -8 36 -9q69 -31 104 -94q2 -10 8 -32q14 -53 14 -64zM602 307
q1 24 -10 48.5t-11 25.5q0 4 2.5 10.5t2.5 10.5q1 10 -6 24q-5 4 -11 11q-1 4 1.5 10.5t2.5 9.5q0 7 -14 15l-12 -1q-5 0 -18 8.5t-21 7.5q-6 8 -16 8q-11 1 -33 -10q-5 2 -12 12t-15 11q-16 0 -38.5 -23t-23.5 -40q0 -5 -6.5 -10.5t-8.5 -8.5t-2 -11t-4 -21.5t-5 -19.5
q0 -4 3 -13.5t3 -15.5l-5 -11q-11 -10 -12 -25q-1 -19 -4 -24q-7 -6 -17 -18q-3 -9 -19 -34q-12 -19 -13 -38q-1 -13 6 -22q-2 -9 -12.5 -27t-10.5 -30q-1 -9 5 -17v-3q-1 -5 -11 -10t-10 -11q-1 -9 22 -19q19 -8 32 -9q15 -1 44.5 1t45.5 1q9 -1 28 15q-1 0 11 -1
q8 0 31 31q2 0 6 -1q19 -1 43 24.5t28 45.5q17 12 17 33q7 7 13 10q3 12 5.5 22.5t16.5 21.5q5 19 12 57z" />
    <glyph glyph-name="E" unicode="E" horiz-adv-x="574" 
d="M546 457q0 -32 -36 -32q-8 0 -15 2l-25 27q0 11 -8.5 23.5t-19.5 12.5q-13 0 -39.5 -2t-38.5 -2t-14.5 -12t-3.5 -22q-6 -3 -15 -11q-9 -22 -34 -69q-10 -15 -10 -34q0 -47 26 -47q64 0 72 1q35 6 57 37h7q12 -12 12 -17t-6 -18q-1 -4 -4 -40q-2 -28 -10 -44.5t-17 -16.5
q-10 0 -9 20q1 30 -75 30q-30 0 -89 -4q-5 -1 -10 -21q-4 -16 -4 -27q0 -4 3 -12t3 -11q0 -4 -8 -18t-8 -40q0 -6 -9.5 -13t-9.5 -17q0 -6 14 -23t18 -17q8 0 37 3q22 3 36 0q7 4 30 8q19 4 34 16q24 2 49 4q5 2 34 35q6 -3 12 -14q14 -10 13 -24q-3 -6 -9.5 -12.5
t-7.5 -22.5q-6 -13 -22 -30q-6 -1 -28 -3q-18 -1 -29 -1q-14 0 -19 4q-11 0 -33.5 5.5t-33.5 5.5q-18 0 -26 -10.5t-19 -10.5q-10 0 -14.5 9t-10.5 9q-65 0 -83 -6q-8 -8 -29 -17q-43 -4 -62 -4q-16 0 -36 15v8q5 9 20 23q10 2 25 13t25 11t11 8q2 15 14 29q18 20 21 26
q1 11 4 32q2 4 7 9t5 17q0 9 11 21t13 17l-1 12q0 2 10 25t10 36l-1 7q-4 5 -4 9q0 3 13 24t15 27q3 1 8.5 28.5t15.5 39.5v47q-4 7 -12 10q-7 1 -18 0q-15 -1 -16 -1q-12 0 -19 4q-3 4 -3 11q0 10 26 25q23 14 29 14q5 0 16 -15q106 1 211 7q2 1 9.5 10t18.5 9q28 0 45 -29
q14 -26 14 -56z" />
    <glyph glyph-name="F" unicode="F" horiz-adv-x="574" 
d="M232 -17q-11 0 -37 11.5t-37 11.5q-10 0 -19.5 -8.5t-17.5 -9.5q-43 -4 -62 -4q-16 0 -36 15v8q5 9 20 23q10 2 25 13t25 11t11 8q2 15 14 29q18 20 21 26q1 11 4 32q2 4 7 9t5 17q0 9 9.5 13t12.5 10l5 42q4 9 8 17q8 16 8 29l-1 7q-4 5 -4 9q0 3 13 24t15 27
q3 1 8.5 28.5t15.5 39.5v47q-4 7 -12 10q-7 1 -18 0q-15 -1 -16 -1q-12 0 -19 4q-3 4 -3 11q0 10 26 25q23 14 29 14q5 0 16 -15q106 1 211 7q2 1 9.5 10t18.5 9q28 0 45 -29q14 -26 14 -56q0 -32 -36 -32q-8 0 -15 2l-25 27q0 11 -8.5 23.5t-19.5 12.5q-13 0 -39.5 -2
t-38.5 -2t-14.5 -12t-3.5 -22q-6 -3 -15 -11q-9 -22 -34 -69q-10 -15 -10 -34q0 -47 26 -47q64 0 72 1q35 6 57 37l18 7q1 -1 1 -24q0 -5 -6 -18q-1 -17 -4 -40q-11 -68 -31 -68t-19 38q1 23 -40 23q1 0 -110 -8q-5 -1 -10 -21q-4 -16 -4 -27q0 -4 3 -12t3 -11q0 -4 -8 -18
t-8 -40q0 -6 -9.5 -13t-9.5 -17q0 -6 18 -25.5t22 -19.5q28 -9 28 -22q0 -10 -17.5 -20t-26.5 -10z" />
    <glyph glyph-name="G" unicode="G" horiz-adv-x="582" 
d="M565 484q0 -6 -19 -22.5t-23 -23.5v-5q0 -11 -9.5 -24.5t-20.5 -13.5q-15 0 -16 23q1 -18 1 32q0 1 -15 18v8q1 27 -58 27q-12 0 -18 -3q-19 -4 -28 -13q-13 -12 -20 -15q-28 -13 -79 -17q-4 0 -9.5 -9t-10.5 -9q-2 1 -6 1q-23 0 -23 -26q0 -8 -13 -20q-16 -14 -18 -18
q-2 -7 -6 -19q-9 -11 -27 -34q-1 -7 -3 -20q-22 -17 -22 -41q0 -7 3 -14q-18 -20 -18 -41q0 -28 19 -67.5t19 -35.5q0 -3 -1.5 -9.5t-1.5 -9.5q0 -16 24 -16q3 0 24.5 -21.5t38.5 -18.5q7 -11 15 -11q7 0 11 10q10 0 13.5 12.5t8.5 14.5l11 -1q38 37 34 47q21 21 38 56.5
t17 63.5q0 32 -24 32q-17 0 -29.5 -9.5t-26.5 -9.5q-6 0 -12 4q-1 2 -1 5q0 17 21 31.5t39 14.5q7 0 21 -2t21 -2q37 0 81 6l7 -8q2 -16 2 -25q0 -17 -9.5 -21t-9.5 -22q0 -3 -7.5 -7.5t-9.5 -9.5q-10 -23 -10 -34q0 -10 6 -13l-2 -12q-11 -7 -12 -19q0 6 0 -23l-3 -9
q-18 -25 -56 -63q-11 4 -21 4q-6 0 -13 -4q-10 -13 -42 -26.5t-49 -13.5q-8 0 -23 8t-28 8q-6 0 -16 -2t-15 -2q-3 0 -5 1q-5 7 -9 15q-1 1 -17 1q-4 0 -18 13q-10 9 -19 17q-7 1 -21 7q-41 35 -38 98l-3 5v69q0 15 7.5 45.5t7.5 47.5q27 23 29 31q5 21 7.5 25.5t15.5 12.5
q9 6 22.5 23.5t23.5 23.5q1 0 4.5 -1t5.5 -1q6 0 11 8q0 8 5.5 22t27 29.5t34 15.5t22.5 1q5 7 11 13q2 3 19 4h10q11 14 17 14t12 -5q12 1 40 9q25 8 41 8q34 0 69 -12l20 -20q-4 2 31 2q11 0 28.5 -11t17.5 -22z" />
    <glyph glyph-name="H" unicode="H" horiz-adv-x="712" 
d="M696 476q0 -2 -7 -7.5t-5 -14.5q-6 -6 -13 -8q-10 -3 -13 -3q-16 -8 -32 -42q0 -1 -18 -17q-14 -12 -16 -34v-4l6 -8q-7 -7 -13 -14q-10 -12 -12 -33q-1 -10 4 -16l-4 -11q-10 -4 -11 -8v-13q0 -4 -7.5 -8t-9.5 -7q0 -14 -19 -29q-4 -9 -9 -28q-1 -8 4 -17l-2 -6
q-20 -19 -22 -42q-1 -25 5 -35t29 -11l6 -1l12 -8q0 -6 -1 -20q0 -8 -8.5 -13.5t-15.5 -10.5l-17 1q-23 3 -52.5 -5.5t-40.5 -7.5q-29 2 -47 22q-4 2 -23 7q-10 8 -10 16q1 7 8 16t14 17l4 -1q23 -1 57 48q33 46 34 72q1 5 9.5 16t10.5 30q1 19 -12 21q-16 0 -32 1
q-5 0 -35.5 -4.5t-36.5 -6.5q-11 0 -32.5 2.5t-31.5 3.5q-4 0 -8 -5q-12 -11 -32 -33q-1 -2 -3 -29l-3 -7q-8 -3 -18 -16t-11 -21q0 -4 2.5 -11.5t2.5 -11.5q-1 -4 -7 -10.5t-7 -12.5q-1 -10 16 -14q25 -6 30 -9q16 -10 15 -33q-1 -12 -6 -21q-5 -5 -46 -9t-49 -3
q-8 -3 -24 -11l-54 3q-1 0 -9 -6t-9 -6q-5 6 -12 14q-5 0 -15 2q-22 21 -21 41q1 16 21 29h3q36 -4 65 14t31 53l-2 5v2q0 13 12 22q18 15 19 16v6q1 10 10.5 16.5t11.5 27.5q0 7 6.5 20t8.5 33q0 6 8 9.5t9 5.5q4 7 7 43l1 7q11 9 23 19.5t9 22.5q12 11 16 17q7 10 8 22
q1 17 -23 24l-36 8l-8 9l4 62q1 10 18 9l9 -2q5 -7 9.5 -13t18.5 -5q5 -8 18 -17q5 0 13 5.5t10 5.5q9 -1 9 -20q3 -10 47 -13q8 -1 12.5 5t8.5 11h9q30 0 29 -18l-2 -9q-8 -6 -24 -15h-7q-8 1 -13 -4l-11 -11q-13 -6 -37 -18q-13 -24 -13 -28q0 -3 3 -9.5t3 -10.5
q-20 -21 -41 -51q0 -2 2 -5.5t2 -4.5t-13 -14q-3 -7 -3 -14q-1 -15 21 -17q17 0 34 1q15 6 54 5l58 -2l6 3q6 -2 10 -2q16 -1 36 19q3 10 7 30q0 4 -2 10t-1 9q0 2 16.5 13.5t17.5 35.5q1 8 10 15t10 13q0 9 -23.5 23.5t-23.5 25.5q1 5 3 12q25 23 75 19q4 0 14 -7.5
t27 -9.5q25 -1 33 11l13 1q4 -2 11 -11t6 -14z" />
    <glyph glyph-name="I" unicode="I" horiz-adv-x="432" 
d="M416 507q-5 -19 -32 -25q-21 -4 -43 -7q-2 -4 -28 -26q-15 -13 -16 -38q-19 -15 -19 -37q0 -4 2 -11.5t2 -11.5q0 -2 -7 -8t-9 -9q-1 -12 -5 -32q-2 -7 -5 -23q2 -3 8 -10l2 -6l-5 -9q-10 -7 -10 -8q0 2 0 -14q0 -2 -11.5 -16t-11.5 -26q0 -7 4 -13q-5 -6 -12 -18
q-3 -6 -2 -15q1 -15 1 -14q0 -4 -12 -16.5t-12 -27.5q0 -18 15.5 -31t33.5 -13l2 -1q1 -1 12 -13q8 -8 8 -14q0 -8 -5 -15h-159q-4 -1 -11 -3q-16 -17 -27 -17l-7 2q-1 4 -10.5 15.5t-9.5 18.5l3 8q4 2 17 19q5 -2 10 -2q23 0 70 57q5 23 12 54q8 18 23 55q1 3 1 25
q0 6 5 32q9 8 9 29q0 13 4 17q11 10 12 11q3 13 10 37q5 6 12 19v20q0 6 3 16.5t3 15.5q-4 9 -4 34q0 9 -22 16q-26 7 -29.5 13t-3.5 12q0 19 15 19l169 -1q7 0 13.5 8.5t12.5 8.5q9 0 21.5 -11t12.5 -20z" />
    <glyph glyph-name="J" unicode="J" horiz-adv-x="584" 
d="M575 518q1 -5 -10 -35q-25 -16 -56 -18l-6 -1q-2 -3 -8 -11h-6q-17 1 -32.5 -15.5t-18.5 -31.5q-3 -4 -10.5 -28t-7.5 -29l7 -6v-3q1 -4 -5 -11.5t-4 -21.5l-1 -8q-14 -12 -13 -25q2 -2 5 -7q0 -1 -7 -6.5t-7 -13.5q1 -5 3 -14q6 -6 22 -6q5 0 15 1h14q16 0 17 -8
q1 -12 -18 -14q0 -4 -45 -8q-16 0 -31.5 -25.5t-14.5 -38.5q1 -5 7 -10q0 -3 -5 -7.5t-6 -6.5v-13l-8 -4q-8 -10 -5 -36q0 -2 -7 -15.5t-5 -36.5q1 -18 -4 -32q-10 -5 -11 -12q1 9 2 -16v-1q-7 -5 -13 -9q-1 -1 0 -18q0 -1 -4.5 -14.5t-5.5 -18.5q-8 -4 -22 -16l1 -2
q1 -10 -22 -32q-17 -15 -34 -29q-38 -11 -83 -22q-8 0 -26 5q-21 6 -27 6q-15 10 -42 34q-2 5 -10 12q3 24 4 25q2 6 18 23h8q20 1 21 -10q-2 -8 -4 -23q0 -5 9 -16q3 -2 22 -22q12 -11 37 -11q2 0 43 5q12 8 39 37q-4 4 -8 14v3q7 5 14 9q1 1 0 17q-1 6 5.5 11.5t6.5 7.5
l-4 23q20 6 17 33l-2 18q-2 3 -5 7q-1 14 22 27l-1 9q0 4 6 8t7 6l4 30q0 3 -4 7.5t-4 7.5q0 1 6 5.5t5 13.5q-1 3 1 5q13 4 14 13q0 -2 -2 17q0 2 7.5 10t6.5 17q-1 12 -14 17q-2 -1 -6 -1l-64 -1q-10 0 -28 8t-18 15q-2 21 71 21q-5 0 35 -6q2 -6 13 -6q3 1 8 1
q10 8 30 26q3 26 4 23l-1 3q-5 3 -6 7q0 6 6.5 10t5.5 15q0 3 6.5 5.5t8.5 4.5l-1 17q-1 3 4 14t4 25v4q13 4 15 12q1 2 0 19q16 35 16 37q-1 13 -21 13q-7 0 -22 -5t-24 -5q-8 0 -23.5 4t-24.5 4q-12 0 -40 -18q-3 1 -8 1l-8 -2q-22 -17 -20 -39l2 -6l15 -16q6 -8 7 -20
q1 -4 0 -11q-7 -5 -10 -9q-7 -1 -19 -2q-15 0 -27 20q-10 16 -12 30q0 1 -14 7v2q6 2 11 30q15 20 24 29q22 10 43 38l7 -1q10 0 34.5 5.5t50.5 5.5q15 0 43 -9t36 -8q27 0 26 28q4 2 14 12q14 2 35 16h7q15 8 38 8q33 0 49 -14z" />
    <glyph glyph-name="K" unicode="K" horiz-adv-x="749" 
d="M741 493q-39 -22 -59 -22q-1 0 -8 -3t-9 -3q-42 -6 -58 -17q-5 -1 -14 -2q-4 -4 -13 -9q-2 0 -8 -2q-32 -31 -83 -80q-22 -16 -61 -47q1 -10 -4 -25q-5 -4 -13 -13q-7 -13 -3 -43q3 -4 10 -16q2 -11 7 -32q6 -6 16 -21q0 -12 2 -36q1 -6 12.5 -10t11.5 -11q-6 -7 -6 -14
q0 -16 24 -38q21 -16 41 -32q3 -3 2 -12q-1 -10 -7 -12h-119q-10 0 -10 13q0 6 2 15l2 10q3 25 -1 38q-8 8 -20 22q1 -2 3 17q3 28 -4 71q-1 6 -10 11t-11 10q3 8 3 23q-5 15 -24 30q-2 9 -15 22q-20 -5 -24 -37q-1 -8 -11 -13q-14 -9 -16 -11q-2 -6 -4 -13t4 -12
q1 -7 -12 -22t-13 -23q0 -6 7 -12q2 -2 2 -4q0 -4 -11 -10t-13 -9q-7 -12 -7 -30q0 -34 25 -36q12 0 33 -2q4 -1 29 -14q-1 -5 1 -14q1 0 11 -7q7 -5 5 -9q-4 -4 -6 -4h-91q-1 0 -7 4.5t-8 4.5q-28 3 -39 -3l-11 -6h-122q-3 1 -8 4q-3 17 0 35q7 4 21 9q6 -1 18 0
q37 15 62 47q3 3 1.5 10.5t1.5 10.5q18 7 18 24v30q2 10 10 19t7 14q13 -1 20 13q6 11 4 21q-1 18 -3 14q5 7 15 20q14 23 8 38q-7 16 -5 20q4 4 12.5 4.5t11.5 7.5q6 10 -2 25q-3 8 7 17q6 1 16 8q23 34 23 56q0 19 -15 30q-8 0 -24 5l-23 20q-3 3 -2 10q13 8 26 15
q4 2 18 2h44q-5 0 6 2q4 1 14 -5q4 -5 14 -11q9 -1 15 -1q14 0 23.5 7.5t21.5 7.5h83q11 -3 11 -11q0 -10 -14 -22t-22 -13q-1 0 -8 8t-12 5q-4 -5 -13 -17q-7 1 -21 0q-25 -10 -42 -35q-10 -4 -11 -11.5t-1.5 -13t-4 -15t-3.5 -13.5q0 -8 10 -14q0 -8 -8 -16l-14 -14
q0 -7 -1 -19q-5 -4 -17 -12q-2 -8 4 -11.5t10 -5.5q14 -10 29 -10q25 0 41 19q3 3 1 10t1 11q4 1 11 5q4 3 13 15q6 -2 24 5q5 7 16 16q27 16 78 69q4 1 10 4q26 21 26 35q0 6 -3 14q-5 5 -14 17q-3 20 10 20h174q11 -2 11 -15q0 -9 -8 -14z" />
    <glyph glyph-name="L" unicode="L" horiz-adv-x="559" 
d="M539 145q0 -4 -17 -17q-2 -10 -5 -21q-2 -10 1 -21q-5 -6 -14 -18q0 -6 -3 -16q-25 -50 -91 -50q-16 0 -45 6.5t-38 6.5q-5 0 -21 -8t-25 -8l-6 1q-14 12 -40 12q-31 0 -88 -4q-61 -5 -87 -6q-14 4 -38 21q3 16 33 26q41 14 54 25q28 23 28 70q0 7 10.5 19t10.5 35
q0 10 5 16q9 10 11 12q0 7 4 20q9 15 22 27q2 2 43 68q4 13 19 37q2 6 13 24q7 12 7 28q0 21 -23 25q-19 1 -39 1l-7 1q-4 9 -4 15q0 15 11.5 29t26.5 14q6 0 18 -1t19 -1q38 0 61 5q32 11 103 27q21 -5 21 -28q0 -29 -45 -39.5t-45 -33.5q-6 -5 -16 -16q-1 -6 -4 -15.5
t-15 -22t-15 -18.5q-9 -21 -29 -60q-11 -20 -11 -22q0 -3 3 -7.5t3 -7.5q0 -4 -3 -14q-35 -27 -35 -46q0 -7 4 -14q-6 -7 -12 -13q-12 -13 -12 -29q0 -8 3 -16q-19 -21 -19 -45q0 -18 12 -34.5t28 -16.5q21 0 63 3t63 3q27 0 53.5 22.5t36.5 49.5q13 11 14 30q4 6 21 26
q8 -8 17.5 -18t9.5 -18z" />
    <glyph glyph-name="M" unicode="M" horiz-adv-x="1000" 
d="M1001 547q0 -22 -15 -34q-19 -14 -20 -17q-2 -10 -5 -21t-15 -10q-4 3 -11 4q-14 0 -27.5 -9.5t-11.5 -22.5q-1 -4 -23 -9t-22 -34q-1 -6 1 -17t2 -16q-1 -18 -14 -32q1 -6 0 -14q0 -14 -16 -41.5t-16 -44.5q0 -6 1 -12q-4 -20 -15 -32q-3 2 -7 2q-12 0 -19 -8
q0 -3 -3 -21q4 -6 4 -13q0 -10 -11.5 -36.5t-12.5 -38.5q5 -11 17 -11q11 1 21 1q12 0 29.5 -18t17.5 -29v-3l-6 -4q-41 1 -239 -7l-8 7q-4 6 -4 12q1 17 30 36l11 -1q5 6 16 16q15 8 35 29q0 8 4 24q6 9 11 18q2 5 2 23q1 3 16 31.5t19 32.5l1 45q7 6 20 40l4 4q17 3 17 18
q1 19 -16 19h-3q-76 -76 -75 -97q-3 -4 -14 -7q-14 -2 -18 -4q-19 -23 -45 -51q-21 -18 -41 -37q-25 -25 -25 -45q-8 -9 -16 -17t-24 -8q-5 0 -25 -22l-24 -28q-20 -3 -36 -14.5t-18 -11.5q-14 1 -14 20q1 8 11 16.5t11 15.5q0 13 -12 18q-4 6 -3 11l23 81q8 5 27 15l1 3
q1 11 -16 19q-4 12 -3 23q2 11 3 22q0 6 -3 12q2 25 3 50q0 41 -11 41q-8 0 -16 -8t-8 -16q0 -16 -20 -36q-30 -29 -32 -32q-6 -14 -22 -40q-13 -9 -34 -31q-3 -17 -15 -49q-5 -12 -36 -39q-23 -21 -23 -48q0 -12 27 -20t27 -32q0 -9 -6 -17q-5 0 -19 -1.5t-21 -1.5
q-19 1 -26 8.5t-9 7.5l-2 -1q-12 -17 -24 -16q-32 -3 -96 -4l-15 1l-16 18q-10 13 -10 19q0 16 31 34q28 17 46 16.5t27 4.5q6 5 20 23.5t23 25.5q14 4 40 24q5 -2 9 -2q18 0 18.5 30.5t24.5 57t25 36.5q14 15 18 25q1 10 6 23q5 4 27.5 26t22.5 24q2 18 12.5 29t21.5 23
q2 4 3 8q0 13 -26 36q-9 0 -23 7l-24 24q-19 18 -19 22q7 16 97.5 16.5t105.5 20.5q4 1 8 1q18 0 18 -15q0 -13 -1.5 -39.5t-1.5 -40.5q0 -5 -8.5 -24.5t-9.5 -27.5l-2 -152q0 -3 -7 -11.5t-7 -13.5q0 -7 9 -13q-4 -5 -9 -16q-1 -13 -5 -40q-5 -7 -10 -25q1 -2 1 -4
q5 -5 10 -5q6 0 21 17q15 5 18 12q15 4 17 13q-1 11 -1 21q0 12 10 15q18 5 19 5q7 6 44 50q19 22 32 32q21 14 102 102q1 2 7 24q16 11 84 85q3 3 4 23q17 17 34 18q23 1 31 5q4 2 18 23q13 18 23 17q7 0 13 -11t13 -11q4 0 11.5 2t11.5 2q18 -1 18 -25z" />
    <glyph glyph-name="N" unicode="N" horiz-adv-x="815" 
d="M797 499q0 -6 -4.5 -15t-5.5 -13q-5 -5 -19 -6q-2 0 -11.5 -9.5t-26.5 -9.5q-11 0 -37 -26q-25 -7 -28 -66q-6 -14 -8 -22q-10 -5 -10 -24q0 -9 -16 -35t-16 -55q0 2 -19 -30.5t-19 -62.5q0 -33 8 -43q0 -13 14.5 -27.5t14.5 -33.5q0 -35 -21 -35q-20 0 -33 19h-79
q-12 7 -13 19q-2 16 -5 21q-12 20 -12 23l1 4h1q11 0 11 16q0 9 -7 16t-7 12q0 3 3 10t3 13q0 17 -10.5 33.5t-26.5 14.5q-5 4 -5 17q0 4 4 11q-2 16 -6 29q-11 10 -11 28.5t-10 26.5t-10 17q0 3 1.5 11t1.5 12q0 12 -9.5 28.5t-10.5 27.5q-3 3 -9 4q-29 -18 -29 -44
q0 -7 2 -13q-2 -6 -11.5 -10t-9.5 -25q0 -13 -9.5 -30t-9.5 -35q0 -6 3 -15t3 -14v-1q-16 -10 -29 -30t-12 -37l1 -1q7 -9 7 -12t-9 -11t-9 -18q0 -27 29 -41h6q18 0 43 -16q5 -18 5 -20q0 -18 -29 -39q-3 0 -10.5 -1t-11.5 -1q-10 0 -23 11t-30 11t-29 -10.5t-13 -10.5h-97
q-14 5 -27.5 9t-25.5 17l-1 19l1 14q16 16 69 16q20 0 59 23l8 11q14 10 14 28l2 6q14 7 16 12q-1 -2 -1 21q0 7 11 25.5t11 31.5v4q-9 8 -9 14q0 1 23.5 22.5t27 25.5t4.5 11q1 5 0 14q-1 10 -1 13q6 3 16 12q0 -3 0 10l10.5 27t10.5 44q0 16 -6 29l-17 7q-17 -17 -35 -17
q-8 0 -12 5.5t-13 7.5l-18 4q-2 5 -15 17q-6 6 -6 24l1 10q3 3 24.5 14t24.5 11q11 0 17.5 -7.5t10.5 -7.5h96q4 0 14 -2.5t15 -2.5q9 0 19 5q7 -3 7 -17q0 -3 3.5 -9t4.5 -8q3 -13 9 -40q1 -3 10 -12.5t9 -14.5q0 -3 -2 -9.5t-2 -10.5q0 -61 36 -80l2 -10l-8 -10
q4 -31 24 -53v-10l1 -5l9 -4l-1 -6q0 -2 5 -10q7 -11 8 -11q-2 -16 -2 -19q0 -14 15 -14q8 0 20 10t17 17q1 3 1 32l2 8q13 7 13 23q0 4 5 7t6 5.5t13 45.5q-3 6 -7 9l3 8q6 1 16 10q6 16 6 56q0 30 -5.5 36.5t-34.5 6.5q-6 0 -17 5q-6 7 -11 13.5t-5 19.5q0 12 4.5 19.5
t17.5 21.5h5q12 1 19 -8.5t15 -9.5h63l23 12h11q5 0 23 6h58q7 -6 7 -14z" />
    <glyph glyph-name="O" unicode="O" horiz-adv-x="552" 
d="M536 310q0 -15 -19 -34.5t-23 -48.5q3 -6 6 -10l1 -7q0 -6 -6.5 -11.5t-13.5 -10.5l1 -11q0 -18 -65 -79t-97 -65q-7 -9 -23 -25q-6 -4 -32.5 -9t-37.5 -5q-15 0 -34 6q-22 6 -46 8h-3q-8 12 -11.5 14.5t-14.5 3.5q-5 1 -10 4q-12 8 -32.5 31t-22.5 35q-1 5 -10 10.5
t-12 10.5t-8 36.5t-5 41.5q0 22 7 45q4 4 9 26q5 19 5 28q0 3 -2.5 8.5t-2.5 8.5q0 6 8.5 14.5t10.5 14.5q9 36 42 59q12 9 12 21q0 3 -1 8v8q0 10 8 16h7q15 0 21 17q15 2 35.5 20.5t33.5 18.5q9 0 13.5 7t9.5 13h8q8 0 11 4h4q4 0 14.5 6t14.5 7q9 3 70 3q17 0 43.5 -13
t39.5 -13q6 0 10.5 -9t9.5 -10q7 1 11 1h2q10 -7 27 -23v-3q-1 -20 10.5 -26.5t11.5 -11.5q0 -2 -2 -7.5t-2 -8.5q0 -24 19 -60v-54zM457 370q0 29 -23 43v3q0 5 2 14.5t2 13.5q0 26 -22 43t-49 17q-7 0 -13 -1q-5 6 -11 13t-14 7q-7 0 -16.5 -11t-17.5 -11h-3q-7 7 -12 7
q-11 0 -33.5 -25t-26.5 -38q-20 -17 -23 -20q-10 -13 -8 -27q-2 -4 -15 -10q-8 -4 -5 -20q-2 -5 -13 -28q-9 -17 -9 -28q0 -3 4 -9t3 -10q-8 -4 -18 -13q-12 -27 -12 -63q0 -10 6 -22t5 -18v-5q-7 -5 -15 -11q-4 -5 -4 -20q0 -17 4 -30q5 -7 14 -17q2 -47 66 -59
q13 -11 25 -11q28 0 37 13l2 -1q36 -2 74 54q16 29 33 58q17 9 34.5 30t15.5 37q19 26 19 56q0 13 -4 23l-1 9q5 7 16 16q6 56 6 51z" />
    <glyph glyph-name="P" unicode="P" horiz-adv-x="535" 
d="M525 395q0 -14 -3 -22q-14 -25 -27 -50q-19 -36 -45 -38q-14 -11 -37 -11q-11 0 -14 -4q-9 -10 -9 -11l-9 1q-8 0 -15 -15q-4 -1 -13 -1t-19 1q-4 4 -4 11q0 12 22 14q3 2 8 8q3 3 15 3q4 0 8.5 7t5.5 8l7 2q7 9 29 27q15 12 24 35l10 18t5 28q0 15 -13 32q-2 7 -6 20
q-11 10 -23 19q-4 2 -31 2q-9 0 -17 7.5t-18 7.5q-12 0 -31 -7.5t-31 -7.5q-18 0 -18 -37q0 -1 2 -5t2 -8q0 -5 -6.5 -8.5t-7.5 -6.5q-8 -17 -6 -33v-1q5 -5 5 -10q0 -6 -5 -13q-7 -11 -7 -12q-1 -8 -2 -22q-2 -8 -4 -24l5 -8v-6v-5l-3 -4q-21 -5 -21 -62q8 -9 8 -11
q0 -4 -7.5 -9.5t-8.5 -8.5l-5 -40q0 -3 2.5 -8.5t2.5 -7.5q0 -1 -6.5 -7.5t-6.5 -12.5q0 -8 11 -23v-3q0 -10 12 -23.5t23 -11.5q13 1 17 1q7 0 22.5 -8.5t15.5 -14.5q0 -9 -27 -28q-4 0 -11 1h-11q-11 0 -21 -7t-14 -7q-1 0 -13.5 7t-32.5 7q-25 0 -30 -7l-5 -1l-9 -5
l-60 8q-38 9 -38 37q0 26 12 33q8 6 36 6q18 0 32.5 15.5t14.5 33.5q0 -3 -8 12q1 9 11.5 14t10.5 17q0 5 -2.5 16t-2.5 16v2q22 15 20 41v7q-6 5 -6 11q0 5 3 11q28 15 15 71q4 6 10 19q18 47 18 89q0 20 -11 20q-4 0 -9 -4t-8 -5q-29 -6 -31 -6l-20 -22q-8 1 -11.5 12
t-8.5 13h-7q-25 -2 -25 21q0 12 33 42q-8 0 24 0q6 0 18 -3t19 -3q13 0 38 8.5t37 8.5t19.5 9t12.5 9q7 0 10.5 -9t16.5 -9h113q9 0 28 -6t34 -6q4 0 7 -1q13 -12 27 -27q19 -35 19 -92z" />
    <glyph glyph-name="Q" unicode="Q" horiz-adv-x="690" 
d="M1198 -135q0 -17 -62 -74.5t-79 -57.5q-35 0 -36 18q3 5 17 15q10 6 21 13q10 2 27 5q36 8 67 82q19 21 30 21q15 0 15 -22zM1018 -260q-8 -5 -32 -6.5t-38 -13.5q-9 -1 -18 -1q-12 0 -29 9.5t-25 9.5q-7 0 -17 -7q-5 -1 -13 6q-11 9 -13 9q-5 -2 -11 -2q-1 0 -16 9
t-24 9q-8 0 -15 -7q-9 0 -15 2q-3 7 -11.5 11.5t-15.5 1.5q-3 7 -14 18q-8 3 -82 41q-51 27 -84 33q-6 5 -18 11q-11 1 -36 9q-9 9 -17.5 16t-24.5 8q-40 24 -105 56q-10 1 -18 3t-19 12q-12 1 -31 5q-19 9 -59 19l-8 4q-32 3 -53 3q-19 0 -55 -9q-40 -9 -51 -19h-7
q-7 0 -14 1q-19 20 -19 38l1 11l6 9q84 3 180 9q26 6 77 19q10 7 32 14l5 3h2q19 -1 19 22q0 15 -16 16q32 -2 -28 -2q-70 0 -86 81q-16 20 -16 97q0 5 13 39q15 9 38 54q24 49 29 55q93 95 120 94q11 15 35 15q16 0 47 11t48 11q12 0 34.5 -5.5t34.5 -5.5q9 0 16.5 -8
t21.5 -8q8 0 23 -18l2 -18t9 -14q6 -24 23 -70v-51q-5 -11 -11 -34q-4 -17 -17 -37q-1 -8 -6 -20.5t-14.5 -19t-11.5 -9.5q0 -9 -5 -24q-8 -10 -36 -40q-31 -33 -37 -36q-12 -6 -23 -12q-3 -2 -19 -18q-6 2 -11 2q-13 0 -20.5 -23.5t-23.5 -25.5q-11 16 -22 16
q-7 0 -17 -27.5t-32 -27.5q-6 0 -10 4q-5 14 -30 14q-22 0 -22 -16q4 -3 13 -9q4 -13 25 -15q17 0 33 -1q2 -2 17 -7q5 -1 8.5 -7.5t6.5 -11.5q9 -5 41 -18q23 -8 40 -26q3 -2 20 -7.5t23 -5.5q2 0 22 -12q16 -5 47 -24q5 -7 23 -17q10 -10 24 -10q18 -14 35 -28
q24 -18 38 -21l10 -8q19 -6 24 -6l7 1q12 7 15 7q10 0 13.5 -11t6.5 -13q7 -1 15.5 -8t18.5 -7q6 0 15.5 5.5t15.5 5.5q8 0 23.5 -10t23.5 -10q4 0 10 5h6q0 -17 21 -17q6 0 18 2t16 2q21 0 31 -23zM627 441q0 57 -31 77h-2q-11 -1 -27.5 15.5t-26.5 16.5q-31 0 -54 -4
q-6 -1 -17 -9t-23 -8q-38 -28 -36 -37h-2q-5 0 -39 -32q-31 -28 -39 -39q-3 -15 -4.5 -18t-12.5 -16q-2 -8 -2 -34q0 -3 -6 -7t-7 -6.5t-1 -26.5q0 -10 -8 -20t-9 -22q-5 -4 -16 -12v-9q3 -3 10 -8q5 -25 20 -25q4 0 8 2q7 -5 7 -10q0 -6 -6 -15.5t-6 -15.5q0 -7 7 -13
q6 -1 14 0q21 -19 56 -42q9 3 17 16t14 14q4 -10 12 -10q2 0 21 7.5t20 9.5q29 32 89 96q9 7 21 20q6 13 5 19q10 9 26 28q5 8 6 18v18q2 12 14 20q8 29 8 62z" />
    <glyph glyph-name="R" unicode="R" horiz-adv-x="552" 
d="M528 428q0 -7 -8.5 -26t-9.5 -30q-52 -58 -60 -63q-24 -16 -83 -14q-13 1 -13 -9q15 -44 13 -73q7 -5 18 -18q-2 -2 -3 -6q0 -5 7 -14.5t8 -13.5q-5 -8 -6 -15q0 -10 25 -39v-17q18 -21 58 -57q9 1 24 2q13 0 13 -11q0 -9 -12 -19.5t-21 -10.5q-7 0 -11.5 10t-10.5 11
q-8 -1 -24 -1q-14 0 -42 17t-26 30q3 3 4 7q0 4 -10 14.5t-12 14.5q6 7 6 14q0 11 -19 31.5t-19 30.5l1 4q5 4 5 8q0 5 -8 13t-15 14q1 22 0 33q-7 18 -23 18q-11 1 -21.5 -6.5t-10.5 -18.5q0 -5 2.5 -10.5t2.5 -7.5q0 -7 -13 -20t-13 -20q0 -5 6 -10q0 -7 -10.5 -19
t-11.5 -41q-8 -7 -18 -33q-1 -24 8 -29q4 -2 29 -3q5 -1 14 -3q1 -1 8 -9t7 -13l-5 -8q-34 0 -103 -1q-9 -10 -25 -10q-6 0 -17.5 1.5t-16.5 1.5q-7 0 -18.5 -4t-17.5 -3q-17 0 -32 15l-1 3q1 27 33 26q3 0 6 3q27 29 57 36q8 1 8 19q-1 12 -1 25q0 5 5 19q12 11 13 14t4 20
q5 4 14 13q1 1 3 16q7 7 17 22q0 3 1 26q1 8 7 13q10 7 12.5 11.5t20.5 39t19 39.5q0 11 1 35q0 6 18 31t18 44q1 32 -28 33q-7 -1 -21 -2q-9 0 -17 8l-15 15q9 23 33 29q13 4 46 2q15 0 20.5 -9t24.5 -10q18 -1 53 1q35 1 53 0q48 -1 70 -15h12q5 0 15.5 -23.5t9.5 -29.5z
M467 407q0 7 -1 21.5t-1 21.5q1 14 -23.5 35t-39.5 21q-16 1 -29 -14t-14 -32l-1 -7q-17 -12 -27 -35q-11 -30 -14 -34q-21 -26 -22 -45q0 -17 10 -31l14 -1q28 -2 47 2q4 6 15 9t15 6q70 55 71 83zM351 248l-9 6q-2 -2 -2 -6v-6l8 -1z" />
    <glyph glyph-name="S" unicode="S" horiz-adv-x="432" 
d="M412 478q0 -19 -14 -33q0 6 0 -13q0 -3 -26 -29h-7l-4 13q0 3 3 12t3 14q0 8 -23 34t-27 26h-1q-1 -1 -7.5 -12t-10.5 -11q-1 0 -10 4.5t-18 4.5q-23 0 -44.5 -18t-22.5 -41q-19 -14 -19 -34q0 -18 22 -41q19 -20 37 -28q8 2 22 5q6 -2 6 -18.5t19 -35.5q17 -15 33 -30
v-3q0 -6 16.5 -34t16.5 -35q0 -4 -2 -11.5t-2 -10.5q-8 -8 -10 -18q1 -10 1 -21v-2q-9 -10 -28 -47q-11 -21 -51 -41q-7 -6 -25 -14q-2 5 -9 5q-6 0 -16 -3t-14 -4q-21 -21 -33 -21q-17 0 -49 12t-50 12q-2 0 -14 -5.5t-21 -5.5q-8 0 -15 4q-2 8 -2 18q0 18 12.5 40t12.5 26
q0 5 -3 15.5t-3 15.5l3 8q9 9 12 20q5 19 6 21q8 7 17 7l8 -5q2 -3 2 -28q0 -13 8.5 -22t8.5 -12q0 -4 -2.5 -12t-2.5 -13q0 -28 15 -35q5 2 9 2q-1 0 21.5 -10t39.5 -10q44 0 65 41q11 2 29 13q0 10 12.5 25t12.5 28q0 23 -21 40q-4 20 -19.5 36t-31.5 31q-12 5 -19 16
q-4 8 -24 9q-5 3 -6 12t-3 12q-6 9 -19 17q-16 10 -19 13v4q0 9 -8 28t-8 33q0 28 6 45q8 7 9 10q-2 -13 -2 12q0 9 30 30q26 18 40 24q6 19 18 19q4 0 10 -3t9 -3q30 0 44 11l22 18q8 0 23 1q12 -17 35 -18h42l5 -10v-46z" />
    <glyph glyph-name="T" unicode="T" horiz-adv-x="668" 
d="M659 543q0 -30 -43 -60q-79 -17 -82 -17l-85 3q-8 0 -29.5 -32t-21.5 -42q-35 -34 -35 -95q0 -7 -2 -15q-14 -15 -14 -20q2 19 2 -22q0 -7 -8.5 -12.5t-9.5 -8.5t-12 -28q-8 -18 -8 -26t4 -17q-3 -4 -12.5 -9.5t-9.5 -14.5q0 -4 1 -10q-7 -8 -7 -23q0 -27 9.5 -35
t34.5 -8q8 0 13 -2l12 -12q8 -8 8 -16q0 -9 -6 -14l-6 1q-10 1 -22 -9.5t-20 -10.5q-15 0 -46.5 1t-46.5 1h-69q-23 0 -41 -17q-14 0 -41 1q-2 0 -3 5q-1 9 -8 21q-1 2 -7 8.5t-6 12.5q0 10 64 33q70 26 88 53q41 62 46 78q2 17 9 49q7 4 16 16v26v2q0 5 6.5 11t8.5 9
q-1 7 4 21q16 19 18 30q0 2 -1 37q12 9 23.5 28t11.5 33q0 18 -33 31q-27 10 -49 10q2 0 -25 -14l-22 3q-7 -7 -31 -19l-29 11q-3 1 -6 1q-25 0 -25 -72q0 -10 5 -30t5 -31q0 -12 -5 -21h-29h-20l-20 12q-4 3 -8 22q-1 6 -8.5 19t-7.5 21q0 7 8 21q4 3 8 18t11 25q4 3 4 22
q10 1 27 4q4 2 17 17.5t23 15.5q5 -4 9 -4q14 0 42 7.5t36 7.5q16 0 57 1q37 1 57 1h6q22 -15 33 -15q9 0 26 20q4 1 7 1q7 0 15.5 -10t17.5 -10h63q8 0 21.5 -6t17.5 -6q2 0 16.5 6t25.5 6q7 0 16 18q10 22 14 26q1 0 2 20v4q5 5 14 5q12 0 24.5 -14.5t12.5 -27.5z" />
    <glyph glyph-name="U" unicode="U" horiz-adv-x="637" 
d="M34 253l7 23l77 168l-2 35l-10 -2q-3 -3 -6 -3q-2 0 -7 4.5t-9 4.5q-4 15 12 30q4 0 15 6l11 -1l26 11q4 0 11.5 -8t9.5 -8l39 3q26 20 34 20q12 0 26 -13.5t21 -13.5l-4 -14l-22 -17q-17 -3 -35 -5q-16 -5 -27 -31l-47 -108q-16 -35 -44 -96q-2 -6 -7 -10
q-17 -47 -17 -82t18 -71q3 -5 11.5 -6.5t11.5 -3.5h1q12 1 15 -12q21 -4 27 -17h8q49 -2 81 27l5 -2q7 0 34.5 21t35.5 24l5 14q4 6 11 16q15 9 28 39q21 49 26 52l16 43l82 181l-13 22q-55 -1 -23 -1q-14 0 -14 8q0 2 1 5l6 15q9 2 26 13l11 -1l26 11q11 1 26 2l41 -4
q5 4 11 3q9 -3 10 -3q13 0 18 -3.5t13 -3.5l-4 -22l-14 -22q-14 -2 -29 -3q-8 -5 -20 -31l-40 -92q-6 -9 -14 -22q0 -15 -12 -37q-16 -34 -18 -37q5 -1 5 -2t-5.5 -6t-7.5 -10l-19 -44q-16 -38 -61 -75q-40 -30 -81 -61q-9 -7 -26.5 -12.5t-27.5 -13.5l-22 -4l-11 -8
q-29 -8 -44 -8q-4 0 -29 3l-9 -3q-16 -7 -32 -7q4 0 -44 8q-25 0 -31 13q-23 0 -49 70l13 26q-1 1 -2 1t-3.5 -1.5t-3.5 -1.5q-2 0 -2 9q-2 3 -3 10q2 4 4 17l3 20q-2 9 13 43l6 18q3 10 13 24z" />
    <glyph glyph-name="V" unicode="V" horiz-adv-x="671" 
d="M655 518q0 -26 -56 -41q-40 -8 -79 -17l-15 -15l-10 1q-9 0 -27 -26q-1 -20 -9 -28h-12q-8 0 -46 -41q-34 -34 -45 -49h-8q-11 0 -74 -65q-55 -57 -70 -77q-2 -9 -10 -28q-7 -10 -21 -15q-14 0 -42 -31q-18 -21 -37 -43q-8 -8 -25.5 -14.5t-17.5 -7.5l-18 -22
q-12 -13 -22 -13q-5 0 -10 4v2q0 4 6.5 9.5t7.5 9.5q6 23 6 54l-4 8l1 12q12 10 13 27q1 5 12 14t11 24q0 5 -2 16t-2 17l1 8q12 8 15 19q0 2 2 25v3q9 8 12 20q5 16 8 21q7 4 16 17v24l1 9q11 10 12 18q3 12 6.5 16.5t11.5 15.5q7 22 7 64q0 20 -16.5 36.5t-16.5 28.5v2
q15 7 169 10q11 -11 11 -17q0 -10 -32 -40q-34 -33 -40 -54q0 -3 2 -9t2 -8q0 -7 -7 -11q-5 0 -9 -3q-8 -16 -22 -50q-12 -7 -14.5 -12.5t-7 -17t-4.5 -17.5q0 -8 8 -13q-2 -6 -10 -24q-3 -9 -3 -32l-1 -2q-6 -6 -12.5 -11.5t-6.5 -13.5q0 -25 14 -25q12 0 60 50l60 64
q-3 0 12 0q6 0 37.5 32t31.5 46q0 8 10.5 9.5t12.5 2.5q20 16 59 67q7 4 19 14q4 4 4 12q0 7 -6 17q-10 1 -20 3t-10 15q0 12 12.5 25t24.5 13l6 -1q2 -2 9 -13q4 -8 13 -8t15 7q9 11 9 12q6 4 75 7q4 -7 9.5 -14t13.5 -7q10 0 19.5 12.5t13.5 12.5q19 0 19 -20z" />
    <glyph glyph-name="W" unicode="W" horiz-adv-x="979" 
d="M508 527q6 4 74 7q3 -3 6 -3q2 0 8.5 3t11.5 3h18q9 1 13 1q19 0 19 -20q0 -30 -82 -47q-22 -21 -28 -29q-16 -18 -20 -33q-1 -3 1 -9t2 -8q0 -7 -6 -11q-6 0 -10 -3q-8 -16 -22 -50q-12 -7 -14.5 -12.5t-7 -17t-4.5 -17.5q0 -8 8 -13q-1 -6 -9 -24q-4 -9 -4 -32v-2
q-6 -6 -12.5 -11.5t-6.5 -13.5q0 -25 14 -25q12 0 59 50l60 64q-2 0 12 0q6 0 37.5 32t31.5 46q0 8 10.5 9.5t12.5 2.5q20 16 60 67q6 4 18 14q4 4 4 12q0 7 -6 17q-9 1 -19 3t-10 15q0 12 12 25t24 13l6 -1q2 -2 8 -11.5t14 -9.5q10 0 15 7q9 11 10 12q5 4 74 7l10 -14
t13 -7q10 0 19.5 12.5t14.5 12.5q18 0 18 -20q0 -26 -56 -41q-39 -8 -78 -17q-1 0 -16 -15l-10 1q-9 0 -27 -26q-1 -20 -9 -28h-12q-7 0 -46 -41q-33 -34 -45 -49h-8q-11 0 -74 -65q-55 -57 -70 -77q-2 -9 -10 -28q-7 -10 -20 -15q-14 0 -42 -31q-19 -21 -38 -43
q-8 -8 -25.5 -14.5t-17.5 -7.5l-18 -22q-12 -13 -22 -13q-4 0 -9 4l-1 2q0 4 6.5 9.5t7.5 9.5q6 23 6 54l-4 8l1 12q12 10 14 27q0 5 11 14t11 24q0 5 -2 16t-2 17l1 8q12 8 15 19q1 2 2 25v3q9 8 13 20q4 16 9.5 20.5t14.5 17.5v24v9q11 10 12 18q3 12 5 17q11 4 24 16
q-4 3 -8 12q-10 -4 -47 -43q-32 -33 -42 -47h-8q-12 0 -74 -65q-55 -57 -70 -77q-2 -9 -11 -28q-7 -10 -20 -15q-14 0 -42 -31q-19 -21 -37 -43q-8 -8 -25.5 -14.5t-18.5 -7.5q-8 -11 -17 -22q-12 -13 -22 -13q-5 0 -10 4v2q0 4 6.5 9.5t7.5 9.5q6 23 6 54l-4 8l1 12
q11 10 13 27q1 5 11.5 14t10.5 24q0 5 -1.5 16t-1.5 17v8q13 8 16 19q0 2 1 25v3q10 8 13 20q5 16 8 21q7 4 16 17v24l1 9q10 10 12 18q2 12 6 16.5t11 15.5q8 22 8 64q0 20 -17 36.5t-17 28.5l1 2q14 7 169 10q11 -11 11 -17q0 -10 -32 -40q-34 -33 -40 -54q-1 -3 1 -9
t2 -8q0 -7 -6 -11q-5 0 -9 -3q-8 -16 -22 -50q-12 -7 -17 -13q0 -5 -4.5 -16.5t-4.5 -17.5q0 -8 8 -13q-2 -6 -10 -24q-4 -9 -4 -32v-2q-6 -6 -12.5 -11.5t-6.5 -13.5q0 -25 14 -25q12 0 59 50q30 32 61 64q-3 0 12 0q6 0 37.5 32t31.5 46q0 8 8 9q13 2 15 3q20 16 59 67
q8 5 20 16q-1 16 -12 29q-21 1 -21 16q0 3 1 7q-1 4 -1 9v2q2 1 8 1q13 19 29 19l5 -1q22 -2 47 -2z" />
    <glyph glyph-name="X" unicode="X" horiz-adv-x="609" 
d="M597 510q-6 -9 -19 -23q-12 -2 -34 -21h-6q-28 1 -50 -22q-18 -22 -35 -44q-10 -5 -25 -20q0 -9 -5 -27q-1 -1 -22 -19q-1 0 -6 -9t-10 -8q-7 1 -9 1q-18 0 -17 -33l-8 -8q6 -32 9 -59q15 -20 15 -47q0 -11 8.5 -21t10.5 -16q6 -23 11 -47q10 -35 26 -35q8 0 18 9l11 -2
q20 -16 20 -32q0 -11 -8 -21l-10 2q-5 -1 -13 -9.5t-11 -8.5h-151q-6 0 -26 23q-1 10 -1 13v4q9 9 18 9.5t14.5 4t15 29t9.5 35.5q0 25 -20 43q3 11 3 23q0 35 -21 37q-14 -10 -38 -37q-1 -5 -3 -16q-2 -5 -18 -32q-13 -23 -13 -39q0 -20 15 -43q1 -21 -1 -31
q-12 -7 -38.5 -6.5t-36.5 -6.5t-27 -9q-24 -3 -29 -4q-14 -13 -22 -13q-10 0 -30 19.5t-20 28.5q0 33 60 33q38 0 49 25h8q26 -2 26 14q0 4 -2 8q5 3 9.5 6t4.5 10q0 12 18 27.5t18 39.5q0 1 9.5 7t9.5 22q0 7 16 21t16 31q0 53 -21 64l-1 4q0 6 4 19.5t4 19.5q0 20 -8.5 29
t-8.5 10q-1 7 -2 14.5t-8 11.5q-1 19 -22 27q-18 5 -37 10q-5 9 -5 22t4 23h198q4 0 4 -19t-17 -23q-29 -6 -30 -7l-12 -15q-16 -11 -16 -21q0 -12 7 -16q12 -7 14 -10q-2 -6 -2 -14q0 -18 11.5 -35.5t28.5 -17.5q11 0 22 14q8 13 16 25q6 3 15 12q1 3 0 18q11 8 21 16
q14 11 14 20q0 11 -9 21t-19 6q-6 2 -6 14l2 9q3 4 10 8q13 19 45 19q10 0 30.5 -2.5t29.5 -2.5q29 0 36 23l9 -3q7 -16 30 -13q2 -5 6 -16z" />
    <glyph glyph-name="Y" unicode="Y" horiz-adv-x="507" 
d="M486 509q-1 -5 -23 -15.5t-28 -23.5l-13 -4l-8 -8l-7 -15l-13 -12q-5 -24 -27 -32q-3 -8 -19 -29t-24 -25q0 -3 -1 -9q-2 -9 -16.5 -19t-17.5 -19.5t-16 -15.5q-1 -2 -13 -23q-4 -6 -23 -24l-4 -14l-9 -10q-4 -23 -13 -68q-6 -15 -16 -45l6 -6l-3 -4l-10 -36q-1 -5 -1 -8
q0 -13 21.5 -14.5t19.5 -9.5q-3 -14 -12 -16t-10 -6l-7 -2l-8 6l-136 -3q-4 4 -14 10v4q10 3 19 10h9q1 0 16 2q8 4 22 13q2 4 5 12l42 158q-3 10 0 20l-7 3v12l-10 5v1q2 6 -13 36q-14 26 -21 34h-8l-1 9l4 5q-3 4 -4 15q1 2 6 5l1 5q-19 18 -19 21q0 2 2 4q-4 4 -5.5 16.5
t-4 16.5t-2.5 13q-2 4 -4 10l-7 14l4 21q1 5 -3 5q-2 0 -7.5 -2t-7.5 -2q-4 0 -2 7q-5 5 -11.5 10t-6.5 11q9 8 18 12l47 2q42 2 62 -3l23 9l5 -6q12 -2 31 0q2 -3 13 2t13 5q3 0 3 -3q-1 -2 -2 -5q2 -8 2 -13q0 -11 -8 -11q-6 0 -11 3q-45 -6 -46 -7q-26 -7 -29 -28
q9 -31 39 -116l9 -13l6 -12q9 -3 13 -14t8 -21q1 -9 8 -9q8 0 18 10v5l11 6q4 11 23 35t25 38q18 10 18 18q13 6 18 29l12 16q6 3 11 22q2 7 17 14q3 6 7 16q2 7 -7 9q-6 1 -19 0l-16 -2q-10 0 -14 2q-7 3 -5 12l12 15l51 1l8 4l64 2l29 -2q-4 -5 -8 -16z" />
    <glyph glyph-name="Z" unicode="Z" horiz-adv-x="737" 
d="M168 6q2 4 -11.5 6t-13.5 4l1 1q-16 2 -28 2q-13 0 -40 -9t-35 -19h-5q-5 0 -10 1q-13 20 -13 38l1 11l4 9q59 2 127 9q18 6 54 19q-1 0 1 0q0 1 1 2q6 6 23 19q-3 6 -3 17q1 11 5 12q-1 5 18 21q-1 1 7 31q32 23 66 51l2 12l16 2l-2 16l10 15q27 32 34 39q10 12 35 30
l21 8l10 23q23 27 51 47.5t42 38.5q3 6 3 10q0 6 -20 8q-9 -8 -22 -21q-5 4 -17 4q-28 0 -85 -19l-66 2q-1 0 -11 -8.5t-11 -8.5l-19 -2q-4 0 -6 -2q2 -4 -1 -22l-22 -60q-23 -53 -55 -49q-9 1 -9 12q0 15 16 47.5l16 32.5q5 40 8 48l21 55v26q1 20 15 17q8 3 15 3
q9 0 20 -6q16 -9 18 -10t9 -4t11 -3q6 0 11 5l10 -11l22 -9q7 -3 17 -3q15 0 45 8t38 9q6 16 16 10l20 -9v-2l12 2l7 6l23 3q11 3 37 -2q39 -2 102 -20q22 -13 22 -27q0 -9 -8.5 -16t-15.5 -7q-3 0 -3 2q-2 -3 -5 -3q-5 0 -18.5 5t-18.5 5q-2 0 -4 -1q-1 -5 -3 -5
q-1 0 -6.5 4.5t-8.5 4.5q-2 0 -4 -2l-14 -16l-21 -10q-5 4 -11 6q-4 -4 -8 -13q-7 -4 -23 -15q3 -7 -21 -24l-7 -31q1 0 -16.5 -13t-18.5 -14q-6 -6 -20 -29t-16 -31l-9 3l-11 -6l-5 -10l-9 -19q-28 -33 -35 -40q-3 -1 -21 -5q-10 -2 -14 -18l-5 -25l-20 -12
q-22 -26 -43 -41.5t-36 -33.5q2 -13 3 -28q6 -6 13 -5q14 2 13 2q1 -2 12 -7l11 -19q5 -5 28 -18q16 -9 29 -26q2 -2 14 -7.5t16 -5.5q1 0 15 -12q11 -5 33 -24q4 -7 17 -17q7 -10 17 -9q12 -15 24 -29q18 -18 27 -21l7 -8q13 -6 17 -6l5 1q8 7 10 7q7 0 10 -11t6.5 -12
t9.5 -8t13 -7q4 0 10.5 5.5t11.5 5.5t16 -10.5t17 -10.5q3 0 7 5h4q0 -19 45 -11v3q1 5 21 6.5t23 4.5q7 2 19 5.5t15 34.5q5 46 7 50t21 11t26 7t27.5 -10t20.5 -16q0 -25 -53 -71q-61 -54 -118 -50q-33 -7 -43 -19q-6 -2 -12 -2q-9 0 -21 9.5t-17 9.5q-6 0 -12 -7
q-4 0 -10.5 7.5t-8.5 8.5q-3 -2 -7 -2q-1 0 -12 9t-17 9t-10 -7q-7 0 -11 1q-6 21 -19 13q-2 7 -10 18q-5 3 -58 42q-36 26 -59 33q-4 4 -12 11q-9 0 -26 9q-7 8 -12.5 15t-17.5 8q-28 24 -74 56q-6 1 -12 2.5t-13 12.5q-7 1 -20 4q-16 5 -35 14z" />
    <glyph glyph-name="backslash" unicode="\" horiz-adv-x="412" 
d="M23 573q0 -21 19 -38q35 -29 37 -32q20 -24 20 -61q0 -24 19 -35l1 -17q30 -30 32 -35.5t2 -56.5q-2 -2 -2 -7q0 -15 18 -24q3 -28 22 -38q2 -18 1 -69q15 -16 17 -55l15 -17l4 -22q2 0 19.5 -44.5t18.5 -49.5l15 -13l-1 -30q16 -13 19 -40l14 -13q8 -36 20 -43
q9 -5 49 -5q14 0 14 35q-23 27 -44 79q-31 76 -34 84q-2 2 -2 12q0 11 2 13q-4 11 -21 17v15l-14 19l-2 31q-18 20 -44.5 96.5t-26.5 106.5l-2 20l-13 16l-2 20l-20 14q0 -1 0 23q0 13 -12 24t-10 37q-6 9 -10 26.5t-7 24.5q-15 17 -38 55q4 1 -37 1q-36 0 -36 -24z" />
    <glyph glyph-name="asciicircum" unicode="^" horiz-adv-x="364" 
d="M291 472q-7 6 -30 32q-17 19 -34 24q-1 0 -17 12q-15 9 -23 9q-5 0 -9 -3q-1 2 -4 2q-6 0 -22 -14.5t-19 -14.5q-34 -11 -78 -44q-18 3 -18 12q0 13 20 32q29 28 30 29q5 1 14 6q8 0 15 13q11 7 25 20q5 5 10 14q6 4 14 12q5 -1 5 1.5t5.5 2t17.5 0.5q8 -1 18 -10
q28 -37 50 -37q2 -10 8 -22q0 -1 30 -29q20 -19 20 -32q0 -10 -28 -15z" />
    <glyph glyph-name="underscore" unicode="_" horiz-adv-x="687" 
d="M677 -151q-7 -3 -13 -3q-11 0 -34 17t-42 17q-15 0 -32 -8t-31 6l-13 -6q-31 18 -36 18q-4 0 -42 -19q-2 -3 -5 -4q-11 -5 -23 8q-22 -7 -35 7q-14 -4 -52 -23q-16 8 -47 -5l-16 9l-18 -5q-1 2 -39 3t-42 -1l-15 9l-22 -11q-14 10 -35 4l-14 8q-14 -3 -21 -3
q-14 0 -21 11q-4 7 -14 38q-4 13 23 25q27 -10 71 -12q66 -1 73 -2q2 0 10 3t9 6q10 0 19 -14l11 6l18 -6l24 9q15 -8 63 -8q80 0 110 14l15 6l15 -6l16 5l17 -14q4 1 12.5 6t13.5 5q4 0 10.5 -4t12.5 -4q8 0 20 7q8 -2 21 0q16 2 22 2q8 -1 25 -8.5t27 -7.5q4 -11 11 -34
q10 -33 -7 -41z" />
    <glyph glyph-name="grave" unicode="`" horiz-adv-x="268" 
d="M235 392q-5 -5 -22 -5q-9 0 -14 5q-11 0 -26.5 23.5t-39.5 23.5q-13 0 -15.5 7.5t-5.5 15.5q-2 4 -6 8t-4 15q0 4 -26 20q-29 18 -34 24q3 27 11 58q4 0 23 -1.5t21 -1.5q12 0 23 -13t21 -25h5h10q1 -2 2.5 -7t1.5 -8l-3 -12q8 -16 23 -15l6 -10q-3 -19 -3 -12
q0 -3 3 -10t2 -12q9 -1 22 -8q5 -6 16 -21z" />
    <glyph glyph-name="a" unicode="a" 
d="M330 304q0 -10 -3 -18q-13 -10 -14 -30q0 -7 -3 -14q-10 -19 -19.5 -39t-9.5 -43q0 -3 -16 -22t-19 -26v-14q-18 -10 -18 -25v-2l5 -9q3 -2 5 -2q11 0 21.5 12.5t6.5 22.5q19 29 36 29l6 -2q5 -10 5 -18q0 -16 -18 -36l1 -13q2 -18 -19.5 -41t-39.5 -23l-13 -13
q-4 1 -10 7.5t-28 6.5q-11 0 -15 5l-1 28q0 15 8.5 37t8.5 29q0 10 -7 15q-24 -14 -54 -47q-43 -46 -49 -52q-13 -4 -32 -16q-14 -10 -35 -11l-7 5q-2 7 -2 18v65q0 18 21 58q10 8 39 51q22 35 45 38q6 1 10 8t4 13l11 16q7 11 15 11q23 3 47 22q21 18 53 18q10 0 28 18
t27 18q10 0 19.5 -12.5t9.5 -22.5zM233 245q0 13 -19 13q-23 0 -109 -89q-4 -4 -6 -14t-3.5 -13t-11.5 -12q-4 -5 -4 -18q0 -29 11 -29q6 3 15 17q36 11 57 42q8 14 16 29l12 -1l8 6l20 34q14 23 14 35z" />
    <glyph glyph-name="b" unicode="b" horiz-adv-x="323" 
d="M324 277l-1 -8q-9 -8 -19 -15v-26q0 -10 -7 -17q-10 -11 -12 -13q0 -7 -4 -21q-10 -9 -28 -30q-4 -13 -17 -36q-17 -24 -77 -82q-4 -4 -18 -4q-5 0 -9 -7q-6 -10 -8 -11q-3 1 -6 1q-7 0 -23 -11.5t-27 -11.5q-58 0 -57 114q15 33 17 44v48q0 10 10 19t7 27q1 2 13 17
q2 3 2 26q0 10 8.5 14t9.5 7q6 12 5 35q-3 47 -3 36q0 4 7.5 11t8.5 8q9 23 30 65q7 11 7 20l-1 11q0 12 10.5 26t10.5 29q0 11 -10 24t-10 30q0 19 23 23q6 1 40 1q39 0 39 -26q0 -1 -7 -40q-10 -10 -10 -19q1 16 1 -20q0 -10 -14 -19q-3 -2 -17 -45q-15 -46 -30.5 -61.5
t-13.5 -38.5q-3 -9 -3 -16q0 -8 5 -13v-2q0 -2 -10.5 -25t-10.5 -35q0 -14 10 -14l6 1q10 9 25 38q13 23 29 33q6 1 17 5q29 22 53 22q60 0 59 -68zM258 270q0 25 -28 25q-14 0 -46 -28q-28 -25 -37 -42q-1 -1 -4 -18q-4 -6 -52 -55q-38 -40 -38 -54q0 -16 18 -31t33 -14
l20 1q3 2 39 41t37 41q1 7 4 21q5 4 13 14q1 1 11 28t10 29q20 22 20 42z" />
    <glyph glyph-name="c" unicode="c" horiz-adv-x="286" 
d="M280 298q0 -32 -29 -53h-13q-11 9 -23 21q-2 9 -5 18q-4 13 -21 13q-14 0 -43 -27.5t-33 -41.5q1 2 1 -20q0 -9 -9 -17t-10 -14q0 -11 -2 -32q-5 -3 -13 -11q-1 -7 -9.5 -24t-8.5 -20q0 -7 24 -39q7 -2 13 -2q21 0 39 18q7 7 27 35q5 3 20 21q7 2 13 2q7 0 8 -11
q-6 -4 -14 -14q2 -10 2 -18q0 -14 -26.5 -42.5t-39 -31t-32.5 -2.5h-27q-16 0 -34 20.5t-18 37.5v40q0 11 9 28t9 33q0 7 7 20.5t7 28.5q0 12 20 32q24 24 27 30q3 10 22 36q5 5 36 9l7 5q47 13 65 13q20 0 37 -11t17 -30z" />
    <glyph glyph-name="d" unicode="d" horiz-adv-x="397" 
d="M426 556q0 -1 -1 -6q-9 -20 -21 -72q0 -2 -7.5 -27t-9.5 -27q-7 -5 -17 -18q-4 -14 -3 -37q1 -26 -1 -36q-21 -11 -21 -34q0 -4 2.5 -11.5t2.5 -10.5q0 -7 -10.5 -23t-10.5 -24q0 -5 3 -14t3 -14q0 -2 -11 -14t-11 -28q0 -3 2 -7.5t2 -7.5t-8.5 -15t-10.5 -15
q2 -12 3 -24q4 -15 14 -15q14 0 24 18h2q15 0 30 -22q-1 -11 -11 -20.5t-20 -17.5q-4 2 -8 2q-10 0 -14 -17q-4 -22 -6 -25l-6 1q-10 1 -19.5 -8t-13.5 -9q-13 0 -28.5 16t-15.5 29q0 7 3.5 20t3.5 20q0 12 -2 26l-6 7l-3 1q-7 0 -45 -45t-60 -49q-19 -20 -30 -20q4 0 -21 3
q-7 10 -25.5 18t-25.5 15q-12 14 -12 42q0 17 7 20q11 4 15 12v11q0 2 5.5 10t6.5 10q1 9 5 24q6 6 17 20l1 13q38 45 52 59q33 35 59 50q7 5 20 15q10 11 21.5 22t24.5 11q12 0 23 -8t14 -8q14 0 25 25q14 33 16 36q1 8 6 25.5t5 27.5q0 5 -3 13.5t-3 12.5q0 6 9 20.5
t9 22.5q0 5 -10 14.5t-10 30.5q0 14 5 17q2 0 35.5 3.5t40.5 3.5q24 0 24 -18zM275 252q0 46 -32 46q-18 0 -48 -34t-30 -51q0 -4 -1 -5q-20 -20 -45 -61q-28 -47 -28 -69q0 -27 17 -27q13 0 21 15q10 9 33 24q8 0 20 7q7 17 15.5 34.5t22.5 26.5q37 24 35 52q6 6 13 14.5
t7 27.5z" />
    <glyph glyph-name="e" unicode="e" horiz-adv-x="268" 
d="M266 283l-1 -8q0 -15 -18.5 -38.5t-33.5 -31.5q-23 -6 -48 -15q-4 -4 -12 -14q0 1 -20 1q-30 0 -41 -44q-8 -8 -21 -30v-12q5 -3 13.5 -21.5t17.5 -18.5q3 0 11 -1q7 -1 11 0q5 0 7 4q11 3 20 16.5t17 27.5q6 3 15 3q18 0 18 -16q0 -20 -58 -78q-4 -4 -25 -10
q-4 -5 -9 -10.5t-8 -5.5q-10 0 -18 5q-11 7 -15 8q-13 1 -39 1q-5 5 -5 19q0 6 -7.5 19.5t-7.5 23.5v42q0 10 7.5 30.5t7.5 33.5q0 10 4 18q12 9 108 126q13 1 36 12t46 11q50 0 48 -47zM219 286q0 16 -17 16q-18 0 -46 -39.5t-28 -48.5q0 -10 16 -10l7 1q21 18 42 35
q26 25 26 46z" />
    <glyph glyph-name="f" unicode="f" horiz-adv-x="238" 
d="M429 521q0 -17 -7 -32q-10 -20 -25 -20q-9 0 -18 8l-3 16q-46 43 -50 43q-17 0 -23 -22q-9 0 -28 -7q-8 -9 -22 -26q-10 -4 -20 -18q2 -5 2 -9q0 -1 -11.5 -15t-11.5 -26q0 -4 2 -9.5t2 -6.5t-10 -15t-10 -31l1 -5q13 -10 58 -10q13 0 13 -18q0 -17 -16.5 -29.5
t-32.5 -12.5q-10 0 -19 6.5t-10 6.5q-20 0 -20 -36q-11 -11 -21 -21.5t-10 -31.5q0 -6 4 -15.5t4 -15.5l-1 -6q-6 -5 -16 -17v-5q1 -6 -7 -19.5t-8 -31.5q0 -10 -14 -29.5t-14 -34.5q0 -13 10 -29q0 -4 -14 -31t-18 -30q-1 -14 -11.5 -25t-10.5 -34q0 -11 -15 -19
q-20 -11 -26 -19q-4 -1 -18 -2q-16 -17 -47 -17q-21 0 -41 -22q-17 -1 -27 -3q-12 5 -12 24q0 15 8.5 29.5t22.5 14.5q12 0 24 -13h11q13 -1 19 5q11 10 14 11l8 -1q11 0 14 9q0 9 1 18q5 7 13 19q1 7 4 22q8 7 16 21q0 4 -1 10.5t-1 10.5q0 10 12.5 19t12.5 17q11 14 13 34
v37v4q15 15 16.5 20t1.5 26q12 26 27 72q15 24 15 52q0 29 -11 35q-5 3 -34 3q-7 0 -16 7t-9 14q0 26 47.5 27.5t48.5 28.5l2 4q16 8 28 33t11 43q5 3 13 11v19q38 36 75 73q20 12 119 12q47 0 47 -45z" />
    <glyph glyph-name="g" unicode="g" horiz-adv-x="314" 
d="M317 312q0 -7 -12 -23.5t-18 -16.5q-5 0 -13.5 9.5t-13.5 9.5q-8 0 -21 -14t-13 -23v-37q0 -15 -14 -43v-8q0 -24 -11 -36q-23 -25 -24 -27q1 -5 1 -9q0 -10 -21 -30q-12 0 -39 -15t-36 -26l-14 2q-9 -5 -9 -11q0 -5 6.5 -12.5t6.5 -9.5q0 -30 31 -52q28 -16 55 -31
q0 -1 18 -16q11 -10 20 -10q3 0 7 1q8 -7 17 -15q6 -6 6 -21q0 -2 9.5 -12.5t9.5 -20.5q0 -19 -13 -37t-31 -14q-13 -17 -40 -34q-18 -1 -27 -7q-12 -8 -20 -9q-24 -6 -75 -6q-21 0 -69 6q-7 7 -15 7q-5 0 -14.5 -2.5t-14.5 -2.5q-9 0 -35 18q-3 6 -7 10v4q1 8 -9 16.5
t-10 28.5q0 30 17 50q4 5 15.5 8t13.5 4q23 16 52 33q9 2 31 2l10 -1l8 -6q-6 -11 -41 -35q-31 -20 -31 -42q0 -6 2 -13q6 -21 37 -29q4 -2 20 -12q12 -7 30 -7q4 0 10.5 3t7.5 3q4 0 11 -6t10 -6q5 0 10.5 10t12.5 10q5 0 12 -7.5t15 -7.5q7 0 22.5 18t32.5 17q13 8 13 26
q0 17 -8.5 37t-22.5 26q-6 0 -19 3q-6 6 -21 13q-21 -1 -64 -1q-6 6 -6.5 25t-16.5 33q-1 6 -5 18q-2 3 -11 8t-8 13v8q4 7 24 10q17 3 17 21q0 27 -7 33q-11 8 -23 17q-2 9 -11 24q1 17 2 33q2 21 9 32l9 15v18q0 4 2 7q16 12 18 24q3 17 7 23q43 67 62 77.5t97 14.5
q5 1 26 2q16 2 26 2q17 0 34 -6q21 -8 21 -23zM182 228q0 20 -8 38q-10 23 -27 23q-23 0 -36 -27l-21 -42q0 -10 -1 -30q-2 -7 -8.5 -14.5t-6.5 -33.5q0 -11 -9.5 -19t-9.5 -26q0 -15 7.5 -23.5t16.5 -17.5q14 1 34 25t20 39q0 6 10 9t12 6q5 9 10 37q5 25 15 34q2 12 2 22z
" />
    <glyph glyph-name="h" unicode="h" horiz-adv-x="353" 
d="M342 242q0 -5 -4 -13q-10 -8 -20 -49q-9 -36 -9 -57q0 -11 -10 -19t-9 -29q-7 -4 -19 -15q0 -10 -7 -27q-37 -41 -77 -41q-51 0 -51 28q0 9 7.5 21.5t15.5 12.5q5 0 14.5 -6t15.5 -6q13 0 32 22.5t18 36.5v7q-1 4 -1 7q0 5 17.5 36t18.5 45q22 14 22 32q0 26 -36 49h-7
l-6 -1q-2 0 -13 -15q-3 -5 -36 -28q-44 -31 -75 -89q-5 -8 -20.5 -21.5t-20.5 -20.5q-1 -2 -1 -15l-2 -9q-16 -10 -17 -19q2 14 2 -23q0 -5 -7 -11q-10 -8 -11 -10q-1 -9 -3 -18q-2 -12 -17 -12l-12 1q-14 13 -14 34q0 12 6.5 29t6.5 38q0 8 7.5 16t9.5 12q4 10 2 24l-2 23
l13 18q5 6 6 13q0 4 -1 12.5t-1 12.5l1 5q23 17 23 39q0 5 -3 11.5t-3 8.5q0 5 9 12.5t10 11.5q5 12 5 33q-2 36 -2 34v5q15 9 15 41q0 10 17 32v94q1 7 8 17q7 -1 18 0q12 2 17 2q16 0 29 -10.5t13 -26.5q0 -22 -20 -38q-7 -16 -14 -31q-9 -19 -9 -32q0 -7 9 -19
q-14 -16 -30 -53l-5 -9q0 7 0 -21q0 -9 -12 -24t-12 -35q0 -11 6 -14v-1q0 -11 -8 -16q-12 -3 -12 -29q0 -24 13 -27q16 19 49 56q7 4 23 22q12 14 28 13l7 3q28 36 61 36q45 0 45 -35q0 -4 9.5 -12t9.5 -19z" />
    <glyph glyph-name="i" unicode="i" horiz-adv-x="228" 
d="M228 528q0 -12 -12 -19v-1q0 -9 -10 -22t-17 -13q-8 0 -13 11q-10 2 -20 6t-10 28l2 7q17 19 23 23q11 8 29 8q11 0 19.5 -8.5t8.5 -19.5zM200 308q-16 -25 -34 -59v-30q0 -5 -4 -12q-28 -15 -34 -34q2 -6 2 -15q0 -8 -19.5 -38t-19.5 -44q0 -9 9 -16h2q41 39 52 39
q12 0 12 -16q0 -9 -32 -38t-42 -27q-11 -2 -27 -9q-4 -6 -8.5 -12t-11.5 -6q-16 0 -29 23q5 11 10 23q2 6 2 27q0 7 9.5 12.5t10.5 10.5q1 4 0 12q-2 9 -2 11q0 7 18 35t16 48q1 0 11 7q5 4 5 18q0 15 -9 22q2 0 -28 -2q-4 2 -4 10q0 6 18 26q22 22 24 27q1 1 22 20
q10 0 24.5 10t22.5 10q11 0 22.5 -11t11.5 -22z" />
    <glyph glyph-name="j" unicode="j" horiz-adv-x="246" 
d="M255 506q0 -13 -20 -12l-7 -4q-4 -6 -7.5 -13t-12.5 -7q-49 0 -49 12q0 18 22 37.5t41 19.5q10 0 21.5 -11t11.5 -22zM122 52q3 -4 3 -8q0 -9 -13 -30q-9 -19 -19 -38q-12 -23 -27 -29q-9 -8 -25 -22q-2 -7 -9 -21q-3 -4 -49 -56q-36 -40 -36 -58q0 -3 -5 -7
q-12 0 -37 -4q-4 -1 -23.5 -18.5t-40.5 -17.5q-17 0 -41 15.5t-24 31.5q0 3 16 25q26 9 36 9q15 0 32 -11.5t21 -11.5q10 0 21 15l16 24q0 1 25.5 14.5t38.5 35.5q1 9 6 24q13 11 18 37q10 10 11 12t1 16.5t27 68.5q2 0 13 4q16 67 16 76q26 26 29 31q8 14 8 43q0 25 -14 37
q-8 0 -20.5 -16l-12.5 -16q-6 0 -10 5q-3 22 -3 21l4 12q11 14 67 56q60 45 72 45q8 0 15 -9t7 -18t-4.5 -28t-4.5 -28.5t-4.5 -14.5t-14.5 -16t-15.5 -26t-10.5 -29q-5 -6 -11 -21q-1 -5 0.5 -15t1.5 -13q0 -10 -8 -22q-11 -16 -12 -20q-4 -11 -11 -34zM111 82l-2 -2
q2 1 2 2z" />
    <glyph glyph-name="k" unicode="k" horiz-adv-x="333" 
d="M108 130q18 -2 18 -5t14 -15l6 -5v0q0 2 4.5 10.5t4.5 12t50.5 28.5t51.5 39q18 11 18 22q0 34 -21 47l-6 4l-9 -3q-4 -1 -5.5 -6t-2.5 -6q-6 -9 -16 -14.5t-19 -11.5q-53 -37 -77 -83q-4 -6 -11 -14zM416 -54q0 -6 -17 -17q-21 -14 -22 -15q-37 -18 -56 -18q-18 0 -43 6
q-14 3 -32 38q-16 31 -30 29q-1 0 -22.5 38t-34.5 38q-2 0 -8 6.5t-8 5.5l-10 2q3 20 -17.5 34.5t-36.5 9.5l-1 -1q-1 -2 -1 -15l-2 -9q-16 -10 -17 -19q2 14 2 -23q0 -5 -7 -11q-10 -8 -11 -10q-1 -9 -3 -18q-3 -12 -17 -12l-12 1q-14 13 -14 34q0 12 6.5 29t6.5 38
q0 8 7.5 16t9.5 12q4 10 2 24l-2 23l13 18q5 6 6 13q0 4 -1 12.5t-1 12.5v5q23 17 23 39q0 5 -2.5 11.5t-2.5 8.5q0 5 9 12.5t10 11.5q5 12 4 33q-1 36 -1 34v5q15 9 15 41q0 10 16 32v94q2 7 9 17q7 -1 17 0q13 2 18 2q16 0 29 -10.5t13 -26.5q0 -22 -20 -38
q-7 -16 -14 -31q-9 -19 -9 -32q0 -7 9 -19q-14 -16 -30 -53l-6 -9q1 7 1 -21q0 -9 -12 -24t-12 -35q0 -11 6 -14v-1q0 -11 -8 -16q-12 -3 -12 -29q0 -24 13 -27q16 19 48 56q8 4 24 22q12 14 28 13l6 3q29 36 62 36q45 0 45 -35q0 -4 9.5 -12t9.5 -19q0 -5 -4 -13
q-13 -10 -26 -30q-14 -23 -14 -39q0 -9 -7.5 -10t-14.5 -1q-16 -1 -15 -20q-17 -8 -38 -24q-2 -4 -21 -2t-20 1l-7 -11l-2 -10q14 2 36.5 -11.5t22.5 -23.5q0 -2 -1 -4q11 -4 10.5 -15t2.5 -11q8 0 11 -13.5t22 -12.5q10 -12 28 -33q27 -33 37 -33q7 0 9 17q2 28 2 29
q13 8 31 8q8 0 13 1q3 1 3 0q2 -5 3 -9q0 -7 8.5 -13t8.5 -13z" />
    <glyph glyph-name="l" unicode="l" horiz-adv-x="246" 
d="M243 498q0 -11 -17.5 -44.5t-19.5 -61.5v-4q-13 -17 -27 -35q-3 -7 -3 -52q0 -4 -8 -10.5t-10 -8.5v-26q0 -10 -11 -20t-10 -30q-17 -12 -15 -46q-21 -15 -21 -41q0 -46 0 -36q7 -8 12 -8q4 0 32 17.5t31 17.5q4 0 9 -4v-9q-8 -7 -9 -16q0 -12 -1.5 -13.5t-25 -21.5
t-25.5 -20q-9 1 -16 1q-19 0 -31 -20.5t-29 -20.5q-14 0 -30.5 10t-16.5 23q0 6 15 20q4 4 5 13t3 12q8 5 19 20q-2 -5 -2 21q0 3 7.5 20t7.5 45q0 19 17 32q1 13 8 29t7 47q0 17 10 21.5t10 32.5q0 5 17 35t18 35q-1 -3 -1 37q0 10 10.5 21.5t10.5 21.5q0 9 -11.5 18.5
t-11.5 15.5l3 6q1 1 23 6q12 2 18 18l5 2q3 0 10 1t10 1q8 0 33 -27q0 -4 1 -13v-12z" />
    <glyph glyph-name="m" unicode="m" horiz-adv-x="557" 
d="M553 296q0 -13 -9 -35t-9 -42q0 -12 -8 -17q-12 -6 -13 -8q-19 -39 -42 -83h-11q-15 0 -15 -22q0 -19 17 -19q14 0 39.5 29t42.5 29l2 -1l2 -6q-11 -21 -30 -48q-26 -36 -36 -34l-8 2q-3 0 -9 -8t-9 -9t-31 -1q-19 0 -29 -11t-20 -11q-8 0 -10.5 5.5t-2.5 11.5
q0 29 20 46q31 26 34 30q1 1 1 25q0 10 16 27.5t16 39.5q0 9 15 37t15 33l-2 6q-11 8 -25 8q-36 0 -87 -62q-5 -6 -6.5 -15.5t-4.5 -13.5q-10 -9 -26 -28q-4 -7 -4 -12v-4q1 -3 1 -4q0 -5 -17 -16q0 -7 -1 -20q-12 -9 -30 -27q-2 -11 -10 -32q-13 -12 -37 -38q-14 -7 -22 -7
l-11 4q-7 7 -7 16q0 15 16.5 39.5t16.5 41.5q0 13 6.5 19.5t7.5 11.5t3.5 16t13.5 16t15 12q8 13 9 46q22 19 25 22q8 11 8 30q0 11 8.5 21.5t8.5 15.5q0 14 -13 14q-12 0 -21 -9q-15 -13 -17 -14q-7 -1 -20 -6q-23 -20 -37 -43q0 -14 -11 -26q-18 -19 -19 -21q-1 -9 -8 -27
q-9 -7 -24 -18q-19 -17 -38.5 -48t-22.5 -53q0 -6 -31.5 -36.5t-37.5 -30.5q-14 0 -28 20q1 4 7 16q4 9 4 26.5t19 32.5t20 28v2q9 10 21 35q9 20 18 39q3 7 29 34q19 20 19 39q0 32 -19 32q-8 0 -34.5 -29t-43.5 -29q-10 0 -10 24q0 18 34 49q39 36 44 44q5 2 11 2l6 -2
q9 -17 28 -17h4h4q23 0 23 -41q0 -12 11 -21h2q3 0 11 7t22 8q16 24 13 30q1 2 23 14.5t23 12.5q13 1 25.5 2.5t18.5 16.5q23 -5 23 -62q0 -24 18 -24q8 0 24.5 9.5t26.5 11.5l15 18q6 1 14 0q29 22 59 22q15 0 26.5 -11t11.5 -27z" />
    <glyph glyph-name="n" unicode="n" horiz-adv-x="346" 
d="M334 299q0 -8 -15 -80q-11 -16 -17 -39q-2 -8 -14 -20q-17 -18 -18 -19t-5 -17t-4 -20q0 -12 14 -21.5t14 -16.5q0 -23 -29 -33l-36 -8q-2 -1 -12 -16.5t-21 -15.5q-20 0 -34 14q-2 6 -2 12q0 11 16.5 29.5t16.5 36.5q5 7 16 20q6 3 14 12l-1 7q0 10 10 19.5t11 32.5
q14 14 27 28.5t13 39.5q0 36 -32 36q-13 0 -49 -38q-47 -52 -48 -52l1 -3q0 -12 -36 -57q-24 -29 -47 -59q-10 -18 -20.5 -38t-25.5 -32q-8 -5 -18 -5l-10 4q-3 12 -3 25q0 9 7 24t6 19q4 4 4.5 14t5.5 14q20 18 35 51q10 12 26 31q4 6 12 26q5 12 30 32q2 6 2 10
q0 21 -30 21q-7 0 -14 -2q-7 -6 -13 -13q-9 -8 -16 -8q-6 0 -10 5q1 32 44 72q35 13 60 13q14 0 26 -4q3 -6 3 -10q0 -8 -11 -16t-11 -27l1 -23q7 -7 13 -7q5 0 20 18l14 1q14 20 50 51q10 3 24 11q24 12 35 11h13q18 -18 18 -40z" />
    <glyph glyph-name="o" unicode="o" horiz-adv-x="276" 
d="M255 216q0 -16 -8 -44.5t-8 -43.5q0 -8 -15 -20t-18 -21v-11l-1 -9q-13 -12 -39 -34q-9 -2 -25 -10q-10 -8 -20 -14.5t-29 -6.5q-53 0 -62 43q-16 24 -16 53q0 21 8 39q9 8 9 17q-1 -25 -1 19q0 7 10 17.5t10 32.5q0 15 49.5 63t64.5 48q11 0 19 6q13 9 17 11
q6 -6 19 -14l13 1q23 -19 23 -55v-67zM216 252q0 40 -27 38l-8 -1q-12 -1 -49.5 -47t-37.5 -55q0 -6 3.5 -16.5t3.5 -15.5q0 -4 -5 -9q-20 -8 -20 -43q0 -52 23 -52l9 1q30 26 44 49q1 8 6 22q13 10 30 29q1 8 6 23q7 6 16 21q6 46 6 56z" />
    <glyph glyph-name="p" unicode="p" horiz-adv-x="318" 
d="M314 276q0 -24 -15 -55v-37q0 -21 -56 -87q-52 -63 -77 -78q-8 -3 -26 -12q-11 -7 -48 -8q-32 -2 -40 -15q0 -4 2 -14t2 -16q0 -14 -9.5 -29t-9.5 -33q0 -9 -8 -15.5t-9 -10.5q-4 -14 -19 -43v-93q0 -16 -17 -16l-6 2q-6 8 -20 16l-6 -3q-13 3 -22.5 16t-9.5 27
q0 11 16 39q10 15 19 30v23q0 4 9 22t11 26q9 10 12.5 23.5t16.5 25.5q0 24 7 72q5 16 20 40q11 17 11 43q0 7 9.5 12.5t10.5 10.5q-1 -3 -1 35q0 18 7 28.5t7 35.5q0 8 7.5 13.5t8.5 7.5q1 14 -11 15q19 -1 -23 -1q-8 0 -14 7q-1 18 12.5 20t27.5 2l7 6q3 4 3 21
q0 8 7.5 13t7.5 21l2 7q3 4 22 22q14 -4 32 -37q15 -28 51 -28q5 0 12 7q4 5 9 10q9 -6 17 -11q5 -2 22.5 -2t28 -17.5t10.5 -37.5zM274 258q0 13 -11.5 21.5t-25.5 8.5q-11 0 -24 -8h-7q-5 7 -10.5 14t-14.5 7q-14 0 -29 -19.5t-12 -33.5q-23 -20 -23 -41q0 -5 1 -17.5
t1 -21.5q0 -10 -9.5 -28.5t-18.5 -24.5q-11 -54 -11 -43q0 -13 10.5 -22.5t23.5 -9.5q22 0 40 23q8 2 23 7q18 28 36 58q1 8 5 22q11 9 28 31q1 12 3 34q1 2 13 13.5t12 29.5z" />
    <glyph glyph-name="q" unicode="q" horiz-adv-x="342" 
d="M338 319q-1 -15 -8.5 -43.5t-7.5 -41.5t-5 -18l-10 -10t-5 -12.5t-1 -10.5q-7 -9 -13 -18q-9 -13 -9 -32q0 -9 7 -13l1 -3q0 -4 -8 -11.5t-9 -12.5q0 1 0 -25q0 -10 -4 -26q-4 -19 -5 -26q-8 -5 -9 -20q0 -12 1 -23l-1 -2q-22 -16 -22 -59q0 -11 7 -18v-3
q0 -4 -12.5 -17.5t-12.5 -41.5q0 -7 4 -20t4 -18q0 -7 -10.5 -19t-10.5 -18.5t-5 -18.5q-9 -7 -63 -7q-13 0 -39 15.5t-26 27.5q0 23 22 28l36 6q5 2 7 11t3 16q12 5 13 22q2 24 5 30q29 22 29 60q0 9 8 14.5t8 9.5q0 16 9 33q8 14 16 29q16 9 16 50q0 22 -23 22
q-8 0 -16.5 -11t-15.5 -20l1 -10q-2 -5 -13 -13q-4 -8 -15 -20q-3 1 -6 1q-60 -39 -72 -39q-7 0 -28 15q-4 -1 -7 -1q-33 0 -33 95q0 7 15 51q13 13 16.5 25.5t7.5 19.5q19 27 50 52l58 44l18 20q13 14 23 14q6 0 16.5 -5t14.5 -6q4 1 12 9q6 5 16 5q8 0 18 -11l14 -18h1
q6 0 18.5 13.5t19.5 13.5q2 0 4 -1zM256 229q0 24 -2 32q-5 17 -23 17q-25 0 -49 -26q-19 -23 -37 -46q-16 -12 -33 -28v-13q0 -11 -25 -32t-25 -37q0 -14 10.5 -22.5t24.5 -8.5q25 0 35 10t24 8q16 16 36 40q2 13 12 31q34 23 39 29q13 15 13 46z" />
    <glyph glyph-name="r" unicode="r" horiz-adv-x="270" 
d="M302 265v-2q0 -11 -10.5 -23.5t-21.5 -12.5q-5 0 -10 5q-3 26 -20 26q-27 0 -31.5 -4.5t-4.5 -29.5q0 -13 -12 -21q-15 -11 -18 -17q-1 -9 -5 -27q-33 -24 -50 -51q-9 -14 -31 -63v-8q1 -10 -9.5 -21.5t-20.5 -11.5t-22.5 9.5t-12.5 18.5q0 35 5 45q18 14 23.5 22.5
t5.5 28.5q0 10 5 15q13 12 19.5 26t13.5 28q1 1 15 1t14 15q0 6 -7.5 8.5t-9.5 5.5v24q0 12 -8 19l-7 -2q-9 -14 -19 -27q-14 -18 -25 -18q-21 0 -21 15l3 6q30 19 28 55q14 22 22.5 28.5t29.5 6.5q9 0 16 -1q15 -15 25 -23q1 -5 1 -10t-5.5 -11.5t-7.5 -10.5l3 -9
q7 -9 8 -18.5t3 -12.5l8 -7q14 2 33 37q22 42 31 49q2 2 22 2q10 0 22.5 9.5t20.5 9.5q12 0 12 -12q0 -8 -1 -26.5t-1 -27.5q3 -3 2 -7z" />
    <glyph glyph-name="s" unicode="s" horiz-adv-x="256" 
d="M252 306q0 -24 -7 -33q-8 -12 -32 -12q-9 0 -19 7.5t-14 7.5h-2q-12 -12 -12 -27q0 -13 9.5 -38.5t9.5 -39.5v-46q0 -31 -33 -64.5t-63 -29.5q-24 -23 -52 -23q-15 0 -21 13l-12 26q0 4 6 16.5t6 27t11.5 16t23.5 3.5q17 -38 37 -38q38 0 38 59q0 30 -10 66
q-17 12 -17 26q0 23 27 61q24 32 49 50q11 9 37 9q40 0 40 -37z" />
    <glyph glyph-name="t" unicode="t" horiz-adv-x="249" 
d="M264 297q0 -7 -3 -12q-32 -23 -36 -23q-2 0 -10.5 9t-16.5 9q-16 0 -37 -28v-3q0 -10 -14.5 -29.5t-14.5 -31.5q0 -6 3.5 -11.5t3.5 -6.5q0 -6 -6 -15q-13 -2 -18.5 -18.5t-10.5 -30.5q-9 -8 -9 -13q0 -17 14 -17q11 0 26 13t23 13l14 -1q5 -2 7 -16q-27 -50 -75 -52
q-16 -15 -26 -22q-13 0 -24.5 -9.5t-17.5 -9.5q-7 0 -15 8v56q2 5 23 41q13 24 13 45q0 12 10 27t10 36v6q18 5 18 34q0 22 -11 28q-5 -4 -10 -4q-19 0 -19 23l3 9q12 16 23 20q8 2 30 2q3 0 26 38t44 38l7 -2q5 -6 5 -15q0 -4 -2 -13.5t-2 -13.5q0 -8 5 -13q7 -27 30 -26
q7 6 10 12q8 -1 27 -15q3 -7 3 -16z" />
    <glyph glyph-name="u" unicode="u" horiz-adv-x="346" 
d="M352 129q-2 -7 -11 -7q-12 0 -12 9q0 5 6 11h2q13 0 15 -13zM345 292q0 -11 -18 -40q1 11 1 -38q0 -13 -8 -15.5t-11 -8.5q-7 -22 -26 -65q-3 -3 -15.5 -11t-12.5 -18q0 -14 15 -14q11 0 27 15q19 19 26 22q5 -9 5 -22q0 -11 -29 -44t-43 -42q-18 -11 -48 -11q-6 0 -13 4
q-4 12 -4 22q0 5 21 67q7 7 14 30q-1 7 2 21q1 3 7.5 9.5t6.5 11.5q0 7 -6 11h-6q-18 -24 -74 -74h-12q-6 1 -10 -13q-10 -12 -34 -32q-5 -19 -16 -35q-15 -20 -31 -16q-15 -17 -26 -17t-11 10v66q6 15 24 43q10 14 10 50q0 21 11 25t11 21q0 13 -12 28.5t-12 30.5t23 37
t37 20q40 19 54 19q11 0 20 -5l4 -9q0 -28 -12 -45t-25 -34q-7 -12 -18 -52q-10 -30 -29 -52q-3 -4 -3 -17q0 -27 9 -30q108 103 125 123q5 5 8 18t5 17q7 14 21 25q23 18 24 19l10 30q7 21 30 21q14 0 14 -11v-45z" />
    <glyph glyph-name="v" unicode="v" horiz-adv-x="401" 
d="M404 316q0 -7 -7 -17q-10 -6 -20 -40t-10 -50q0 -11 -5 -16q-7 -9 -9 -12q-1 -9 -7 -26q-5 -4 -13 -14q-2 -17 -16 -49q-9 -13 -40 -40q-27 -25 -38 -43h-9l-20.5 -10.5t-38.5 -10.5q-75 0 -75 74v51q0 11 8 27t8 27q21 17 21 42q0 9 -4 23q-4 19 -4 24l10 3
q3 -14 14 -33q14 3 13 33q9 1 16 10.5t7 18.5q0 16 -12 16q-4 0 -11.5 -8t-12.5 -9q-25 -5 -51 -10q-34 -11 -34 -35q0 -7 7 -14l-3 -11q-11 -14 -23 -28q-18 -20 -27 -20q-14 0 -14 20q0 64 7 80q4 9 50 56q17 2 57 17q36 14 62 14q68 0 68 -43q0 -15 -35.5 -51.5
t-38.5 -61.5q-12 -9 -22.5 -19t-10.5 -25q0 -7 -3.5 -21.5t-3.5 -22.5q0 -23 16 -46t38 -23q14 0 28.5 10t13.5 24q4 8 9 13q5 -2 9 -2q11 0 16 18q8 24 9 26q1 -1 5 -1q3 0 10 2q41 52 46 73q2 9 2 99l10 34q8 26 20 26t36 -30q2 -11 2 -19z" />
    <glyph glyph-name="w" unicode="w" horiz-adv-x="600" 
d="M151 229q13 3 13 32q9 1 16 11t7 19q0 16 -13 16q-3 0 -10.5 -8t-12.5 -9q-26 -5 -51 -10q-34 -11 -34 -35q0 -8 7 -14l-3 -12q-12 -14 -23 -27q-18 -21 -27 -21q-15 0 -15 20q0 65 8 80q4 10 49 56q18 2 58 18q36 14 62 14q68 0 68 -43q0 -15 -36 -52t-39 -61
q-11 -9 -22 -19t-11 -25q0 -7 -3 -22t-3 -22q0 -24 15 -45q16 -24 38 -24q47 0 45 20q10 6 23 15q1 1 1 3.5t1 2.5q11 0 11 8q1 12 3 16q1 -1 5 5t5 6q-4 0 14 7q4 13 14 34l-12 26q4 3 15 7q5 2 5 11t5.5 21t3.5 20l10 11q0 5 -8.5 26.5t-8.5 32.5q6 13 18 29q16 20 28 20
q19 0 33 -18q1 -3 -1.5 -12t-2.5 -12q0 -10 -7 -21q-7 -4 -11 -30q-4 -22 -7 -44q1 -2 -1 -7q-3 -17 -6 -23q-8 -15 -9 -17q-1 -9 -7 -25q-1 -2 -8 -8q-1 -5 -3.5 -18t-2.5 -20q0 -23 15.5 -46t37.5 -23q14 0 29 10t13 24q4 8 9 13q5 -2 9 -2q11 0 17 18q7 24 8 26
q1 -1 5 -1t10 2q42 52 47 73q2 9 2 99q4 17 9 34q9 26 20 26q12 0 36 -30q2 -11 2 -19q0 -7 -6 -17q-10 -6 -20.5 -40t-10.5 -50q0 -11 -5 -16q-7 -9 -8 -12q-1 -9 -7 -26q-5 -4 -14 -14q-2 -17 -15 -49q-10 -13 -38.5 -39t-39.5 -44h-10l-20 -10.5t-39 -10.5q-75 0 -75 74
v7q-20 -17 -54 -57h-9q-1 0 -21 -10.5t-38 -10.5q-76 0 -76 74v51q0 11 8 26.5t8 27.5q22 17 22 42q0 -2 1 -2t6 10.5t9 8.5z" />
    <glyph glyph-name="x" unicode="x" horiz-adv-x="436" 
d="M432 299q0 -18 -14.5 -43t-30.5 -25l-11 3q-3 2 -17 21q-9 12 -25 12q-17 0 -54 -36t-37 -56q0 -50 32 -53q4 -5 7 -22t9 -17q7 0 20.5 11.5t22.5 11.5q21 0 21 -28q0 -15 -19.5 -30t-19.5 -34q0 -8 -12 -20.5t-20 -12.5q-4 0 -10 6.5t-9 7.5q-10 0 -30 4l-16 21l-2 10
q6 7 6 18q0 29 -20 36l-6 6v6q1 28 -11 28l-9 -3q-18 -20 -46 -48q-20 -21 -60 -60q-13 -6 -36 -22q-10 -1 -19 -4q-12 18 -12 48q0 6 2 14q18 11 18 12q0 4 -14 13q-1 2 -1 5q0 9 13 20t23 11q11 0 12 -13q-1 7 -1 -21q0 -11 9 -18q5 0 10 5.5t10 11.5l8 -1q15 0 52 42
t37 66q0 16 -1 29q-13 18 -13 19q1 -6 1 24q0 21 -10 21q-9 0 -24.5 -20.5t-26.5 -20.5q-15 0 -15 14q0 13 14 28q1 8 8 24l33 33q27 27 33 27q13 0 22.5 -15.5t9.5 -29.5q1 -1 10 -9q6 -6 6 -10q0 -3 -4.5 -9.5t-4.5 -14.5q0 -12 7 -23t18 -11t47 38q46 49 49 51
q14 2 28.5 14t18.5 12q14 0 29 -20t15 -34z" />
    <glyph glyph-name="y" unicode="y" horiz-adv-x="310" 
d="M299 293q0 -15 -9.5 -40.5t-8.5 -32.5q-3 -8 -18 -9q-8 -10 -12 -31q-3 -17 -7 -33q-12 -12 -29 -32q0 -8 -6 -23q-5 -4 -13 -14q-1 -15 -10 -43q-8 -13 -37 -25q-7 -3 -9 -10q-3 -11 -3 -12q-20 -34 -52 -47q-8 -8 -24 -21q-3 -8 -10 -21q-3 -4 -49 -57q-35 -40 -35 -57
q0 -3 -5 -7q-13 -1 -38 -5q-4 -1 -23.5 -18.5t-40.5 -17.5q-17 0 -41 15.5t-24 31.5q0 3 16 25q26 10 37 10q14 0 31.5 -12t20.5 -12q10 0 21 16l16 24l26 14t38 36l6 24q13 11 18 36q11 10 11.5 12t0.5 17q0 6 9 9.5t11 7.5q1 1 13 36.5t12 37.5q15 96 15 167q0 27 -4 46
q-8 11 -18 11q-23 0 -36.5 -29.5t-21.5 -29.5q-15 0 -15 13q0 8 11 19t11 19q0 5 -3 10q6 7 64 59q6 2 12 2q3 0 10 -8t12 -9q2 0 11.5 1.5t12.5 1.5q15 0 15 -29v-141q0 -10 9.5 -23.5t19.5 -13.5q7 0 29 46.5t22 59.5q0 11 -3.5 34t-3.5 34q0 10 3 18q7 7 14.5 14t15.5 7
q35 0 35 -51z" />
    <glyph glyph-name="z" unicode="z" horiz-adv-x="403" 
d="M403 -20q0 -18 -11 -30q-35 -17 -79 -17q-12 0 -47 7q-30 6 -45 4l-32 38t-45 38q-7 0 -15 -4l-5 5q1 -7 1 14q0 15 -35 15q-41 0 -41 -37q0 -11 8 -15l1 -4q0 -19 -19 -19l-4 1q-6 3 -8 11l-5 13q-2 4 -11 9t-9 12q0 4 10.5 15t11.5 18q6 35 44 61q21 12 41 24q2 3 2 18
l9 6q22 0 41 28q1 8 6 23q1 4 9 11q5 6 5 14q0 14 -8 18h-3q-8 0 -20.5 6t-21.5 6q-3 0 -19 -27q-18 -31 -25 -38q-8 5 -8 15v36q1 24 1 36q4 9 15 9l8 3q27 23 58 23q19 0 54 -11l9 -7q18 0 42.5 12.5t42.5 11.5h2q15 -9 15 -22q0 -31 -37 -44q-29 -9 -95 -92
q-8 -9 -22 -15q-17 -7 -22.5 -10.5t-3.5 -21.5q-2 -2 -11.5 -6.5t-9.5 -9.5q0 -2 14 -15q11 -10 13 -11.5t7.5 -2.5t15 -4t25.5 -24t26 -23q13 3 22 3q8 0 19 -9.5t30 -7.5q9 -20 24 -20q17 0 26 19q3 7 10 34q9 6 18 6q14 0 20 -12t11 -24q-1 -7 -0.5 -21t0.5 -19z" />
    <glyph glyph-name="bar" unicode="|" horiz-adv-x="412" 
d="M327 609q3 -8 3 -16q0 -14 -17.5 -43t-17.5 -52q0 -18 8 -39q8 -23 -6 -39l6 -17q-18 -38 -18 -45q0 -4 19 -52q3 -2 4 -7q6 -13 -8 -28q7 -27 -7 -43q4 -18 23 -66q-5 -12 -5 -21t10 -36l-9 -21l5 -22q-2 -1 -3 -49q0 -48 1 -52l-9 -18l11 -28q-10 -17 -3 -44l-9 -17
q3 -17 3 -26q0 -18 -11 -26q-7 -6 -39 -18q-12 -5 -25 28q11 34 12 89q2 82 3 91q0 3 -3.5 12.5t-6.5 10.5q0 13 14 24l-6 14l6 23l-9 30q8 19 8 78q0 99 -14 137l-5 18l6 20l-5 19l13 21q-1 5 -6 16t-5 17t4.5 14t4.5 14q0 10 -8 26q3 9 0 26q-2 20 -2 27q1 10 8.5 31.5
t7.5 33.5q12 5 35 14q33 13 42 -9z" />
    <glyph glyph-name="asciitilde" unicode="~" horiz-adv-x="466" 
d="M412 616q0 -10 -14 -24q-18 -18 -20 -21q-1 -8 -7 -24q-14 -13 -37 -35q-3 -1 -11 -1.5t-12 -0.5q-6 0 -13 2q-15 17 -29 17h-87q-2 0 -22.5 -19t-30.5 -19q-15 0 -15 18t17 25q7 19 20 57q12 18 33.5 25.5t42.5 14.5q7 3 9 3q7 0 17.5 -8.5t15.5 -8.5h62q5 6 17 14
q14 0 26 8t13 8l23 -20z" />
    <glyph glyph-name="uni00A0" unicode="&#xa0;" 
 />
    <glyph glyph-name="exclamdown" unicode="&#xa1;" horiz-adv-x="260" 
d="M-26 36l3 13q0 -1 1 -3q1 2 5 21l14 18q8 5 12 20l27 110q1 6 11 35q9 23 9 33q0 8 -6 9q-1 2 7 10.5t8 10.5q2 8 -6 15v0q1 1 8 6q4 4 6 14.5t7 14.5q12 9 40 13q6 1 16 -10t14 -11q2 0 4 1q-1 -11 -6 -25t-7 -24q-9 -4 -19 -14v-1q-1 -4 4 -6l10 -4q-1 -11 -5 -34
q-2 -12 -8.5 -26.5t-6.5 -19.5v-127q0 -17 -22 -44q-27 -33 -60 -33q-19 0 -38 11q-1 2 -12 13t-10 14zM184 416l-29 -12l-43 -2q-20 1 -24 5q-7 5 -7 26q0 9 1 23t14 27.5t24 14.5q17 14 28 14q4 0 22 -7q6 0 15.5 -2.5t8.5 -7.5q12 -5 12 -26q0 -28 -22 -53z" />
    <glyph glyph-name="cent" unicode="&#xa2;" horiz-adv-x="475" 
d="M186 71q0 1 -4 24l2 12q20 31 34 96q5 25 12 66q8 52 10 64q-2 -2 -6 -5q-26 -5 -28 -13v-3v-3q-1 -5 -8 -9q-14 -11 -18 -18l-4 -21q-2 -9 -13 -17.5t-10 -13.5q-9 -12 -12 -26q-3 -12 -4 -36.5t-3.5 -35t8.5 -14.5l16 -6v-3q-6 -22 28 -38zM177 -68q-20 0 -6 60
q-38 17 -43 14q-6 4 -12 4q-3 0 -8 -2t-8 -2q-10 0 -4 24q-1 8 -22 7q-4 2 -4 7t1 12q5 10 5 11q1 6 -5.5 19.5t-6.5 23.5q-13 15 -9 34l15 72q2 7 10.5 23t9.5 24q3 -1 9 11t7 13q5 7 32 25q20 13 24 34q2 7 10 8t15 1q6 6 20 15q9 1 27 2h7l9 7q15 54 40 54q16 0 16 -43
h55q17 -4 48 -11q4 -6 14 -17l-9 -44q-2 -12 -24 -20q-16 -5 -31 -5q-9 0 -25 23q-20 29 -29 35v-5l-5 -26q-6 -5 -17 -31.5t-13 -38.5q-3 -12 -8.5 -72t-12.5 -89q-1 -7 -10 -34h12q25 0 47 10l7 1q33 35 47 35q5 0 9.5 -6t3.5 -12q-1 -5 -12.5 -15t-13.5 -19l-1 -5
q-17 -8 -50 -38l-31 1q-9 0 -16 -2q-10 -8 -23 -13q-18 -51 -22 -56q-18 -4 -19 -4z" />
    <glyph glyph-name="sterling" unicode="&#xa3;" horiz-adv-x="559" 
d="M344 294h-7q-14 11 -40 13q-7 -10 -7 -17q0 -2 2 -8t2 -10q0 -5 -2 -11q-35 -27 -35 -46q0 -7 4 -14l-12 -13t-12 -28q0 -8 3 -17q-17 -19 -17 -49q0 -47 38 -47q21 0 63 3t63 3q27 0 55 24q25 21 35 48q13 11 14 30q4 6 21 26l18 -18q9 -8 9 -14q0 -9 -17 -21
q-6 -36 -4 -42q-5 -6 -14 -18q0 -6 -3 -16q-21 -50 -91 -50q-15 0 -42 6.5t-41 6.5q-6 0 -23 -9t-29 -6q-14 12 -66 12q-31 0 -84 -5q-57 -5 -65 -5q-14 5 -38 21q3 16 33 26q41 14 54 25q28 23 28 70q0 6 10.5 19t10.5 35q0 9 7 17t9 11q0 7 4 20q15 19 42 58
q-21 -2 -29 -2q-46 0 -46 31q0 15 19 25l32 12h15q9 -11 38 -16q4 5 10 11l23 73q3 11 21 27q14 13 14 37q0 7 15 24.5t17 25.5q12 34 39 58.5t61 24.5q14 0 23 10q29 10 45 10q21 0 32 -13q-3 1 14 1l10 -5q-1 -12 7.5 -33.5t8.5 -30.5q0 -24 -41 -35q-7 -2 -16 0
q-13 2 -16 2q-15 0 -15 11q0 4 1.5 11.5t1.5 11.5q0 21 -35 21q-27 0 -31 -16q-6 -24 -9 -27q-29 0 -43 -43q-4 -14 -12 -68q-17 -13 -35 -30q-5 -21 -13 -45q17 2 59.5 -5t52.5 -16q1 -7 1 -13q0 -22 -19 -27q-19 0 -38 -1q-24 -1 -38 -11z" />
    <glyph glyph-name="currency" unicode="&#xa4;" horiz-adv-x="363" 
d="M556 509q0 -54 -1 -45q-4 -12 -14 -12q-16 0 -22 12.5t-10 24.5q-9 6 -18 22q0 25 -18 25q-22 0 -28 -19h-12q-6 0 -12 -9l-9 -14q-12 -8 -24 -17t-9 -27q-5 -5 -16 -18l1 -14q1 -19 -22 -38q-2 -13 -14 -48.5t-18 -44.5q1 -8 1 -16q0 -10 -8 -23t-8 -34q0 -10 -11 -23.5
t-11 -35.5q0 -6 3.5 -18.5t3.5 -18.5q0 -5 -9.5 -9.5t-9.5 -9.5q-2 -14 -13 -32.5t-11 -57.5q0 -11 -9 -33t-9 -35q0 -11 4 -20q-6 -5 -15 -18q0 -13 -3 -37q-4 -5 -11 -15q-3 -13 -12 -36q-12 -4 -30 -20q-18 -31 -49 -31q-17 0 -30 9q-16 10 -16 26q0 20 35 32
q43 14 50 22q11 12 14 26.5t5 28.5q7 9 17 29q0 11 2 32q14 12 24 52q7 33 7 59t17 50v11q0 15 6 23q8 13 10 19q1 3 6 34q4 20 13 33q3 13 13 42q8 23 8 41q0 7 7 18t7 30q0 3 10.5 18.5t10.5 32.5q0 20 -10 23q-1 1 -26 1q-9 0 -18.5 6.5t-14.5 6.5h-2q-29 -27 -40 -40
q-21 -24 -30 -48q0 -9 -7 -24q-14 -14 -17 -25q-1 -6 -1 -31q0 -10 -2 -19q-1 0 -17 -28.5t-16 -30.5q1 6 1 -32q0 -13 -6 -18q-8 -8 -10 -13q0 -9 -2 -26q-6 -10 -15 -31q-3 -30 -27 -113l-5 -8v-7q0 -7 -4 -20.5t-4 -20.5t3.5 -20.5t3.5 -20.5q0 -12 -6 -18.5t-13 -13.5
q-2 -17 -16 -50q-1 -1 -39 -45q-10 -2 -34 -14q-20 -10 -36 -10q-45 0 -45 37q0 15 6 24h17q11 1 18 1q11 0 26.5 -7.5t21.5 -7.5q25 0 32 38q4 27 7 54l11 12q3 19 3 59q0 9 6 20.5t7 35.5v3l5 6q14 6 16 18q-1 -8 -1 26q0 18 9 31q8 3 10 8q0 20 3 51q3 14 3 12q0 4 -3 12
t-3 12q0 8 13.5 17.5t15.5 12.5q5 9 5 64q-2 4 -2 9q0 6 6.5 12t7.5 9t2 17q1 8 11 15q21 38 43 93q5 12 19 24l22 20h12q5 0 13.5 8.5t12.5 10.5l33 3q4 1 12 12.5t24 11.5t22 -12t26 -12q22 0 50 26h6q15 -1 27.5 12t23.5 13h49l25 -7q19 -12 19 -37z" />
    <glyph glyph-name="brokenbar" unicode="&#xa6;" horiz-adv-x="225" 
d="M81 392q9 5 18 5q10 0 27 -9.5t24 -9.5q4 0 7 1q4 -5 12 -16q2 -4 18 -17q13 -12 13 -14v-46q0 -5 -7 -12t-9 -11q0 -8 -5 -23q-5 -8 -17 -22q-1 -1 -16 -1h-46q-1 0 -8.5 7.5t-11.5 8.5t-16 1q-8 12 -20 25q-6 6 -6 15v70q20 33 43 48zM81 593q9 6 18 6q10 0 27 -9.5
t24 -9.5q4 0 7 1q4 -5 12 -17q2 -3 18 -16q13 -12 13 -15v-46q0 -4 -6 -10q-8 -9 -10 -12q0 -8 -5 -23q-5 -9 -17 -22q-1 -1 -16 -1h-46q-1 0 -8.5 7t-11.5 8t-16 2q-8 12 -20 25q-6 6 -6 14v71q20 33 43 47zM78 181q9 5 18 5q10 0 27 -9t24 -9q4 0 7 1q4 -6 12 -17
q3 -3 17.5 -16t14.5 -15v-46q0 -5 -7 -10q-8 -9 -10 -12q0 -8 -5 -23q-5 -9 -16 -22q-2 -2 -17 -2h-46q-1 0 -8.5 7.5l-9.5 9.5q-6 0 -18 1q-8 12 -20 25q-5 6 -5 14v71q19 33 42 47z" />
    <glyph glyph-name="section" unicode="&#xa7;" horiz-adv-x="308" 
d="M231 225q7 -5 17 -13q1 -9 2 -26q1 -12 11.5 -21.5t11.5 -25.5q1 -9 1 -25q-5 -4 -15 -15l1 -9q1 -11 -22.5 -39t-22.5 -31h-4q-9 -1 -22 -13l-82 -9q-15 8 -24 6q-5 10 -8 11q1 0 -12 -2h-4q-30 21 -31 28l-4 49q5 11 20 13l9 -1l21 -21q1 -5 1 -14q2 -12 17 -23t26 -10
q20 2 36 5q26 22 22 51q1 2 10 10q6 6 4 21q-2 24 -21.5 44t-41.5 23q-4 0 -12 7.5t-22 6.5q-7 -1 -11 4l-1 11t-27.5 31.5t-28.5 43.5q-2 19 4 46q6 6 13 13.5t6 17.5q-3 37 40 54l9 12q4 1 9 3q-15 13 -29 25q-20 17 -22 38q-2 19 3 46l14 14t6 17q-4 37 40 55l9 11
q8 4 22 8l74 8q26 3 46 -15l2 -11l5 -6q3 -6 3 -16q2 -18 -3 -36q-6 -23 -22 -25q-10 -1 -23 9v5q0 9 -15 16q-11 4 -21 8l-14 -2q-5 15 -15 14q-11 -2 -33.5 -31.5t-21.5 -46.5q4 -40 68 -35h2q1 0 22 -23q11 -11 26 -10q1 0 49 -34q0 -9 2 -26q1 -11 11 -20.5t12 -26.5
q0 -8 1 -25q-6 -4 -15 -14v-10q1 -11 -22 -39t-23 -31q-1 1 -4 0q-4 0 -9 -4zM217 343q-7 1 -16 8l1 5q-1 9 -16 15q-10 5 -21 9l-14 -3q-5 15 -15 14t-33.5 -31t-20.5 -46v-3h1l21 -21q1 -2 1 -6q17 -7 45 -5h2q10 -13 32 -31v0q26 22 22 51q1 2 9 11q6 6 5 20q-1 6 -3 13z
" />
    <glyph glyph-name="dieresis" unicode="&#xa8;" horiz-adv-x="420" 
d="M349 520q0 -1 -12 -11l-25 -25q-3 -3 -15 -3q-7 0 -10 2q-12 12 -38 32q-2 6 -2 11q0 11 10 20t19 17q3 6 10 13q6 3 18 3t21 -3q6 -2 15 -15t9 -20v-21zM200 527q0 -6 -16 -22v-6q0 -18 -34 -18q-4 0 -7 1q-4 6 -14 15q-4 2 -11 8q-1 1 -0.5 4.5t0.5 4.5q0 6 -6.5 11.5
t-6.5 10.5q0 6 11 15q8 7 16 13q2 5 11 15q8 0 12 -0.5t9.5 -8.5t8.5 -10q27 -15 27 -33z" />
    <glyph glyph-name="copyright" unicode="&#xa9;" horiz-adv-x="1000" 
d="M496 492q-13 0 -41.5 7.5t-37.5 13.5q-14 10 -32 56q-17 43 -17 63q0 39 36.5 69.5t76.5 30.5q3 0 9.5 2t9.5 2q37 0 74.5 -33.5t37.5 -69.5q0 -110 -78 -126q-5 -1 -17.5 -8t-20.5 -7zM507 714q-3 0 -13 5q-13 -1 -39 -7q-7 -5 -21 -16q-13 -5 -34 -20q-5 -7 -7 -19
q-6 -7 -6 -26q0 -25 7 -41l15 -34q10 -22 74 -40q4 -2 22 -2q6 0 32 14t29 19q31 55 31 79q0 21 -29.5 56t-50.5 33zM537 643q-21 27 -48 27q-14 0 -24 -17q-14 -4 -14 -28t14 -37q5 -23 38 -23q12 0 22 6q5 0 5 -6t-16.5 -11.5t-25.5 -5.5q-23 0 -40.5 13.5t-18.5 36.5
q-8 7 -8 12q0 14 14 45q7 16 28 23q2 1 37 8q12 -6 17 -6q1 0 5.5 1.5t6.5 1.5q4 0 7.5 -13t3.5 -20q0 -5 -3 -7zM781 333q-22 22 -32 22q-14 0 -14 -13q0 -9 11 -17.5t20 -8.5q19 0 19 -23q0 6 -7 -30q-13 -11 -34 -11q-9 0 -18.5 10t-9.5 19t7 9h4q13 -27 25 -27
q21 0 21 17q0 13 -25 21.5t-25 33.5q0 12 6 25q2 0 10 5.5t10 5.5q4 0 9.5 -3.5t8.5 -3.5q2 1 8 1h2q6 -5 6 -17q0 -6 -2 -15zM925 106q-33 0 -33 -14q0 -5 5 -8q-3 -5 -3 -10q0 -10 15 -17q12 -7 23 -7q3 1 11 5l11 5v-4q1 -2 1 -4q0 -7 -15.5 -12t-25.5 -5q-16 0 -29 17.5
t-13 34.5q0 6 3 13v11q3 12 18.5 22.5t28.5 10.5q11 0 25 -9t14 -19t-14 -11q28 1 -22 1zM938 124q0 13 -22 13q-6 0 -13 -6t-7 -12q0 -7 9 -7q2 0 7 1t7 1h9q10 0 10 10zM708 331q-9 -4 -20 -4q-4 0 -13 1t-13 1q-19 0 -21 -20l5 -4q-4 -5 -4 -10q0 -8 15 -16t24 -8
q3 0 9.5 5t9.5 5t3 -7q0 -5 -15.5 -11t-22.5 -6q-17 0 -31.5 16t-14.5 33q0 6 3 12q1 3 2 16q0 10 17 21t28 11q12 0 26 -9t14 -20q0 -2 -1 -6zM681 336q4 4 4 8q0 14 -18 14q-23 0 -23 -18q0 -6 8 -6h5q3 0 24 2zM607 256l-52 -3q-2 3 -2 5q0 5 8.5 9.5t9.5 7.5q2 14 1 45
q-2 53 -2 44q2 2 2 6t-1.5 11.5t-1.5 11.5q0 15 -16 19v2q0 16 24 16q10 0 15 -3q4 -21 4 -31q0 -5 -2 -15.5t-2 -15.5v-89q0 -6 7.5 -9.5t7.5 -10.5zM852 116q-4 0 -12.5 3t-12.5 3q-10 0 -10 -22q0 -24 5 -46q9 -2 19 -13q-6 -8 -26 -8q-14 0 -28 4q2 3 13 14q1 8 1 17
q0 10 -3.5 30t-3.5 30q0 4 8.5 9.5t13.5 5.5h1q1 -3 1 -13q5 0 18 6.5t15 6.5q9 0 9 -17q0 -10 -8 -10zM441 406q-6 2 -12 5q-9 3 -9 7q0 18 17 18q12 0 12 -16q0 -12 -8 -14zM536 257q-17 -1 -51 -4q-2 1 -2 8q6 4 17 15q0 -5 1 18v17q0 6 -1.5 18t-1.5 18l3 29l-3 5
q-1 21 -3 24q-7 4 -13 8q0 17 25 17q8 0 13 -3q3 -11 3 -30q0 -5 -1.5 -15.5t-1.5 -15.5v-86q0 -10 14 -16zM760 115q-3 0 -11 4t-12 4q-11 0 -11 -19q0 -5 5 -51q5 -3 17 -9v-5q-7 -6 -28 -6q-18 0 -24 4v3q2 3 12 11q2 15 2 30q0 17 -2 28q-6 18 -6 17q0 6 8.5 11.5
t14.5 5.5h1q-1 6 -1 -9q0 -3 4 -5q1 0 12.5 7t15.5 7q11 0 11 -16q0 -12 -8 -12zM463 269q1 -2 1 -4q0 -3 -2 -9h-54q-4 3 -4 6t8.5 5t9.5 3q7 8 7 28q0 15 -5 43q-9 8 -9 11q0 6 29 10q5 -7 5 -23q0 -7 -1 -20.5t-1 -20.5q0 -32 16 -29zM633 34q-5 0 -16 2t-16 2
q-9 0 -18 24q-8 21 -8 33q0 22 15.5 37.5t37.5 15.5q53 0 53 -53q0 -24 -12 -41q-13 -20 -36 -20zM657 98q0 1 2 4t2 6q0 17 -32 33q-35 -9 -35 -48q0 -41 36 -51l9 6q5 0 13 4q1 4 3 13l7 20q0 3 -2.5 7t-2.5 6zM397 331q0 -4 -9 -8.5t-10.5 -8t-1.5 -30.5q0 -13 -26.5 -24
t-42.5 -11q-37 0 -53 7.5t-34 37.5q-15 24 -15 45q0 30 25.5 62t55.5 32q12 0 23 -6q5 2 10 2q8 0 23 -6l15 -7q2 0 6 2t6 2q8 0 8 -20q0 -5 -2 -26h-5q-20 28 -22 32q-15 15 -34 15q-33 0 -54 -21.5t-21 -54.5q0 -28 5 -34l-1 -4q0 -17 21.5 -32t39.5 -15q48 0 48 26
q0 31 -4 33q-16 6 -16 9l1 2l3 2q-12 1 49 1q5 0 12 -2zM558 196q6 -6 6 -25q0 -15 -6 -20q-2 1 -25 29q-15 18 -42 18q-30 0 -43 -23q-3 -6 -18 -48v-3q0 7 4 -9q0 -5 2 -16q7 -20 27 -37q21 -20 40 -20q13 0 27 10q10 8 22 16l2 -9q-10 -17 -33 -23q-2 0 -42 -6l-4 3h-5
q-26 0 -47 30q-19 27 -19 54q0 59 41 84q15 -1 20 4h2q7 0 14 6h8q32 0 51 -14zM720 -146q0 -13 -9.5 -22.5t-9.5 -11.5q-7 -1 -17.5 -6.5t-16.5 -5.5q-45 0 -45 48q0 12 12 25l21 19q0 11 -14 11q-8 0 -13.5 12.5t-5.5 21.5q0 18 13 33.5t31 15.5q2 0 8 -2q5 -1 8 0l6 -5
q1 1 4 1q9 0 16.5 -12t7.5 -22q0 -21 -25 -45q3 -5 6 -15q15 -10 19 -16t4 -24zM703 -63q0 -4 -5 17q0 3 -2 9q-9 10 -25 10q-6 0 -14.5 -8.5t-9.5 -14.5q5 -2 5 -8.5t3 -8.5q20 -16 24 -16q6 0 15 7t9 13zM697 -129q-4 3 -9 3q-6 7 -11 13q-8 8 -13 8h-1q-4 -4 -12 -8
q-12 -13 -10 -22q-3 -6 -3 -8t7 -10.5t7 -14.5q1 -1 17.5 -5t19.5 -4h4q7 14 7 20q0 5 -1.5 14t-1.5 14zM552 -189q-5 0 -15 2l-14 4q-20 27 -20 52q0 20 15 34t35 14q49 0 49 -50q0 -56 -50 -56zM585 -144q0 2 -2.5 6.5t-2.5 6.5q3 8 3 10q0 10 -11 20t-21 10q-5 0 -16 -10
t-12 -14.5t-1 -11.5q0 -17 6 -32q8 -21 22 -21q23 0 23 7q12 16 12 29zM285 110q-9 -4 -20 -4q-4 0 -13 1t-13 1q-18 0 -21 -21l5 -3q-4 -6 -4 -10q0 -9 14.5 -16.5t24.5 -7.5q3 0 9.5 4.5t10.5 4.5h3v-3q0 -9 -8.5 -12t-16 -6t-14.5 -3q-17 0 -31 16.5t-14 33.5q0 -2 5 28
q2 13 17 22t29 9q11 0 24.5 -9t13.5 -19q0 -2 -1 -6zM258 115q5 3 5 8q0 14 -19 14q-22 0 -22 -19v-5h12q4 0 24 2zM437 -189l-30 6q-20 27 -20 52q0 18 14 32.5t32 14.5q7 0 18 -1t23 -15.5t12 -25.5q0 -63 -49 -63zM469 -144q0 2 -2.5 6.5t-2.5 6.5q3 8 3 10q0 10 -11 20
t-21 10q-5 0 -16 -10t-12 -14.5t-1 -11.5q0 -16 7 -32q9 -21 22 -21q16 0 23 7q11 16 11 29zM184 86q1 -3 1 -10q0 -35 -12 -50q-7 4 -35 5q-11 0 -56 -1l-38 -1q-10 0 -14 3q3 11 14 15q8 4 8 37v39q0 4 2 10.5t2 9.5q0 2 -2 5.5t-2 5.5q2 -11 2 32q0 7 -9 12t-10 7l8 5h53
q4 0 9 -4q0 -4 -11.5 -8.5t-11.5 -6.5q0 -19 -1.5 -56t-1.5 -56q0 -18 3 -23t18 -11l8 -4q3 0 9.5 2.5t10.5 2.5q2 0 7 -1.5t8 -1.5q9 0 22 18q17 24 19 25zM367 -164q0 -25 -27 -25q-23 0 -34 3q-5 -8 -14 -8q-8 0 -18 8l-1 1q0 4 26 29l32 30q1 3 1 14q0 2 2 5
q-6 12 -25 12q-7 0 -16 -4.5t-10 -4.5q-4 0 -4 7v4q28 21 40 21t25 -7t13 -18q0 -4 -4 -9q4 -3 6 -5q-1 -3 -12 -9q1 -2 1 -5q0 -7 -16 -21l-22 -19q2 -3 5 -3q1 0 3 1.5t4 1.5q3 0 8 -4q13 3 29 14q8 0 8 -9z" />
    <glyph glyph-name="guillemotleft" unicode="&#xab;" horiz-adv-x="364" 
d="M294 316q-6 -8 -32 -30q-19 -17 -24 -34q-1 -1 -11.5 -16.5t-10.5 -24.5q0 -5 4 -8q-3 -2 -3 -4q0 -7 15 -23t15 -18q11 -34 44 -78q-3 -18 -12 -18q-13 0 -32 20q-28 29 -29 30q-2 5 -6 13q0 9 -13 16q-8 10 -20 24q-5 5 -14 11q-4 5 -12 14q1 5 -1.5 5t-2 5.5
t-0.5 17.5q1 8 10 18q37 28 37 50q10 1 22 8q1 0 29 29q19 20 32 20q10 0 15 -27zM159 318q-5 -7 -31 -30q-19 -16 -25 -34q0 -1 -10.5 -16t-10.5 -24q0 -5 3 -9q-2 -1 -2 -4q0 -6 14.5 -22t15.5 -18q10 -35 44 -78q-4 -19 -13 -19q-12 0 -32 21q-28 29 -29 29q-1 5 -6 14
q0 9 -12 16q-8 10 -20 24q-6 5 -15 10q-4 6 -12 14q1 5 -1 5.5t-2 6t-1 16.5q1 8 10 18q38 29 37 50q11 2 22 8q1 1 29 30q20 20 32 20q10 0 15 -28z" />
    <glyph glyph-name="macron" unicode="&#xaf;" horiz-adv-x="407" 
d="M382 511q0 -6 -10 -25.5t-10 -29.5q-39 -15 -48 -32l-14 -4q-9 0 -20 8.5t-14 8.5h-139q-6 0 -16 7.5t-18 7.5h-57q-10 5 -10 21q0 20 5 27q10 11 20 21l7 3h15q11 -1 15 -1q10 0 18 2q12 9 35 9l198 1q12 0 27.5 -8t15.5 -16z" />
    <glyph glyph-name="degree" unicode="&#xb0;" horiz-adv-x="320" 
d="M308 481q0 -12 -15 -25.5t-15 -28.5q0 -6 2 -13q-5 -7 -30 -30t-31 -22q-5 -5 -9 -8t-23 -3l-6 -6q-12 -4 -20 -4l-10 2q-8 9 -11 9q-5 0 -8 -9q-3 -2 -6 -2q-6 0 -17.5 11.5t-33.5 9.5q-4 5 -28 21q-14 10 -12 29q-11 11 -13 14q-1 3 0 18q-11 7 -11 20q0 9 5 25.5
t5 25.5t26 34q22 23 37 32q15 1 20 10l4 -1q4 0 12.5 1.5t13.5 1.5q21 12 32 12l14 -3l8 -8l9 -1q7 -1 19 -6q23 -13 45 -26q10 -8 22 -41q2 -3 7 -5.5t5 -7.5t6.5 -13t6.5 -13zM224 454q0 24 -19 39v13q0 5 -4.5 9t-4.5 5q-1 5 -2.5 14t-19 11t-17.5 13q0 6 -7 6
q-10 -8 -19 -8q-3 0 -10.5 -7.5t-10.5 -9.5q-9 0 -20 -4q-12 -16 -12 -50q-17 -27 -17 -35q0 -11 19.5 -28t20.5 -19q-1 -3 -1 -6t11.5 -7t17.5 -9q3 -1 9 -2t9 -1q8 0 33 4q15 14 31 28q13 13 13 44z" />
    <glyph glyph-name="plusminus" unicode="&#xb1;" horiz-adv-x="932" 
d="M896 52l-23 -27q-44 53 -77 80q-21 6 -37 2l-17 20l-23 -1l-24 17h-44q-15 12 -24 14q1 -1 -31 -1q-7 16 -18 16q-9 0 -18 -15h-4q-15 -1 -26 14h-51l-6 -6l-1 -14q-2 -23 13 -38l3 -33l16 -12v-16q0 -14 6.5 -41t5.5 -45q11 -15 35 -42q-1 3 -1 -24q0 -9 10 -13
q8 -15 40 -46q24 -21 47 -43l19 -3l5 -6v-37l-21 -25q-20 -2 -53 6.5t-48 8.5q-8 0 -15 -1q-9 17 -27 17q-12 0 -29 -18h-19l-20 17h-32l-19 -17q-8 3 -54 2q-53 -1 -62 0l-2 38q21 28 48 31q9 8 27 38q15 26 27 32l5 21l24 8l5 20q13 10 15 26q0 4 -1 33q12 10 22 70
q8 52 8 83l-14 14h-100q-14 -11 -38 -15q-11 -10 -26 -33h-17q-22 1 -38 -24l-26 -6q-42 -40 -90 -93h-38l-8 7l1 4q0 18 -16 33l-1 39q15 12 17 25q0 -3 0 34q0 1 7.5 15.5t7.5 28.5q0 6 -1 13q-14 19 -14 46q0 11 -17 26v46q19 36 35 36q15 0 39 -32l23 -4q8 -12 29 -30
t29 -31h16l17 -16l31 -1q8 -6 69 -18q55 -11 65 -11h37q2 7 14 30q8 17 8 31q0 7 -2 14l-13 12q1 5 1 57q0 -1 -17 28.5t-17 58.5q0 16 -61.5 85l-61.5 69q0 9 9.5 19t18.5 10h166q8 0 11 -3q5 -6 10 -8l34 11q16 -15 24 -15q21 19 43 22l6 9l42 3l8 -1l18 -34
q-19 -26 -60 -60q-45 -36 -62 -57q-24 -2 -15 -38q-29 -19 -31 -47q-14 -8 -16 -24q0 -4 2 -31l-14 -20l-1 -52q5 -3 15 -11l-2 -9q0 -16 18 -27q15 -9 32 -9q8 0 31 17l20 -12q15 15 49 12l14 16h14l17 16q4 0 43 10t41 12l5 25q12 6 28 22t25 22h4q11 -1 14 8q3 6 2 18
l5 5h5q19 1 19 -64q0 -21 -2 -53.5t-2 -34.5q10 -11 10 -22q0 -10 -10 -15v-76l14 -22l-1 -25zM100 277q0 16 -11 16t-11 -19q0 -15 12 -15q10 0 10 18z" />
    <glyph glyph-name="acute" unicode="&#xb4;" horiz-adv-x="268" 
d="M261 557q-16 -34 -70 -78q-5 -8 -19 -23q-8 -1 -23 -7q-6 -4 -26.5 -30.5t-33.5 -26.5q-9 0 -16 7q-3 27 -3 24q0 12 17.5 31.5t19.5 34.5q11 10 31 32l3 15q6 24 34 47.5t52 23.5q13 0 16 -16t14 -21z" />
    <glyph glyph-name="mu" unicode="&#xb5;" horiz-adv-x="1066" 
d="M1043 498q0 -9 -18 -26q-6 -7 -43 -14q-27 -6 -27 -31q0 -3 2.5 -10t2.5 -11q0 3 -14 -17.5t-14 -49.5q0 -4 -6 -8.5t-6 -5.5q-4 -6 -4 -16q1 -17 1 -16v-2q-29 -22 -28 -99q-6 -2 -12 -10q-1 -8 -4.5 -28.5t-3.5 -29.5q0 -7 3.5 -19t3.5 -17q0 -9 2 -24q2 -5 11 -6
q44 -54 44 -68q0 -9 -10 -13q-11 -14 -37 -14q-3 5 -12 15q-7 2 -13 1q-12 12 -33 12h-121q-5 7 -5 9q0 23 21 41q18 15 44 19q13 10 15 16q3 10 5 20q13 4 14 16q-1 -11 -1 25q0 13 7.5 22t4.5 33q6 3 15 13q8 37 21 91q6 3 5 14q-8 16 -24 16q-11 0 -43 -29t-31 -32
q1 -6 1 -7q0 -3 -30.5 -43t-36.5 -46q1 -8 -5 -20q-60 -47 -98 -147l-15 -12q-11 -8 -16 -8q-1 0 -24 25q-4 12 -4 25q0 18 25 73v5q0 14 8.5 41.5t8.5 40.5v126q0 7 2.5 22t2.5 23q0 56 -17 56q-9 0 -14 -19l-7 -9q-3 -8 -1 -27q-7 -5 -9 -11.5t-5 -19.5q-9 -7 -24 -24
q-1 -4 -2 -31q-13 -7 -27 -36t-14 -46v-2q-9 -8 -24 -24q0 -18 -14.5 -29t-14.5 -35q-17 -7 -47 -38q-35 -36 -47 -44q-1 -8 -2.5 -12t-15.5 -6l-18 -2q-41 -12 -47 -12.5t-65 -0.5q-2 0 -55.5 22t-54.5 24q-8 9 -18 29.5t-10 30.5v63q0 13 10 24t19 21v5q0 23 34 28h46
q5 0 19 -3.5t20 -3.5q4 -7 19 -6q10 -9 21 -19q17 -15 17 -20q0 -4 -54 -54q-17 1 -35 -10q-21 -12 -21 -29l3 -10q32 -33 77 -33q34 0 54 16q17 15 33 30q16 2 22 7q13 11 16 12l6 -1q9 0 38.5 33t26.5 45q8 8 21 18h4q13 -1 13 8q1 14 4 17q11 11 12 18v20v3
q14 13 27 26.5t13 36.5q0 5 7.5 13t7.5 29l1 8q18 8 18 62q0 19 -30 28q-6 8 -10 10q-5 -2 -13 -9q-13 -2 -31 -10q-13 0 -39.5 1t-39.5 1q-16 0 -39 -24v-7l-2 -9q-11 -6 -11 -14q0 -6 7.5 -12t13.5 -11l16 -2q18 -20 18 -25q0 -8 -12 -14q-14 -37 -24 -37q-4 0 -12.5 5.5
t-11.5 6.5q-9 1 -26 3l-16 14l-3 10q2 4 2 9q0 8 -7 22.5t-7 23.5q0 11 5.5 31t5.5 30q0 6 46 48l42 3q5 5 8 9h51l6 -6q4 0 12 -1h12q11 0 27 7q25 11 26 12l11 -1q6 -1 18.5 4t17.5 5h114l11 -5q1 -5 1 -12q0 -28 -22 -68v-14q1 -11 1 -14q0 -9 -6 -27t-6 -29
q0 -18 2 -54.5t2 -55.5l2 -6q0 -69 -1 -74q5 -9 15 -9q17 0 32 20v3q0 10 18 31q12 14 25 29l18 4.5t10 9.5q0 3 -2 7q30 32 29 47q18 18 39 47q13 13 45.5 56.5t36.5 54.5t30.5 27t39.5 16q5 0 15.5 -2t16.5 -1q6 -6 28 -12q1 -2 9.5 -10t8.5 -13zM869 366q0 7 -17 7
q-19 0 -19 -15q0 -17 14 -17l6 2q16 20 16 23z" />
    <glyph glyph-name="mu" unicode="&#x3bc;" horiz-adv-x="1066" 
d="M1043 498q0 -9 -18 -26q-6 -7 -43 -14q-27 -6 -27 -31q0 -3 2.5 -10t2.5 -11q0 3 -14 -17.5t-14 -49.5q0 -4 -6 -8.5t-6 -5.5q-4 -6 -4 -16q1 -17 1 -16v-2q-29 -22 -28 -99q-6 -2 -12 -10q-1 -8 -4.5 -28.5t-3.5 -29.5q0 -7 3.5 -19t3.5 -17q0 -9 2 -24q2 -5 11 -6
q44 -54 44 -68q0 -9 -10 -13q-11 -14 -37 -14q-3 5 -12 15q-7 2 -13 1q-12 12 -33 12h-121q-5 7 -5 9q0 23 21 41q18 15 44 19q13 10 15 16q3 10 5 20q13 4 14 16q-1 -11 -1 25q0 13 7.5 22t4.5 33q6 3 15 13q8 37 21 91q6 3 5 14q-8 16 -24 16q-11 0 -43 -29t-31 -32
q1 -6 1 -7q0 -3 -30.5 -43t-36.5 -46q1 -8 -5 -20q-60 -47 -98 -147l-15 -12q-11 -8 -16 -8q-1 0 -24 25q-4 12 -4 25q0 18 25 73v5q0 14 8.5 41.5t8.5 40.5v126q0 7 2.5 22t2.5 23q0 56 -17 56q-9 0 -14 -19l-7 -9q-3 -8 -1 -27q-7 -5 -9 -11.5t-5 -19.5q-9 -7 -24 -24
q-1 -4 -2 -31q-13 -7 -27 -36t-14 -46v-2q-9 -8 -24 -24q0 -18 -14.5 -29t-14.5 -35q-17 -7 -47 -38q-35 -36 -47 -44q-1 -8 -2.5 -12t-15.5 -6l-18 -2q-41 -12 -47 -12.5t-65 -0.5q-2 0 -55.5 22t-54.5 24q-8 9 -18 29.5t-10 30.5v63q0 13 10 24t19 21v5q0 23 34 28h46
q5 0 19 -3.5t20 -3.5q4 -7 19 -6q10 -9 21 -19q17 -15 17 -20q0 -4 -54 -54q-17 1 -35 -10q-21 -12 -21 -29l3 -10q32 -33 77 -33q34 0 54 16q17 15 33 30q16 2 22 7q13 11 16 12l6 -1q9 0 38.5 33t26.5 45q8 8 21 18h4q13 -1 13 8q1 14 4 17q11 11 12 18v20v3
q14 13 27 26.5t13 36.5q0 5 7.5 13t7.5 29l1 8q18 8 18 62q0 19 -30 28q-6 8 -10 10q-5 -2 -13 -9q-13 -2 -31 -10q-13 0 -39.5 1t-39.5 1q-16 0 -39 -24v-7l-2 -9q-11 -6 -11 -14q0 -6 7.5 -12t13.5 -11l16 -2q18 -20 18 -25q0 -8 -12 -14q-14 -37 -24 -37q-4 0 -12.5 5.5
t-11.5 6.5q-9 1 -26 3l-16 14l-3 10q2 4 2 9q0 8 -7 22.5t-7 23.5q0 11 5.5 31t5.5 30q0 6 46 48l42 3q5 5 8 9h51l6 -6q4 0 12 -1h12q11 0 27 7q25 11 26 12l11 -1q6 -1 18.5 4t17.5 5h114l11 -5q1 -5 1 -12q0 -28 -22 -68v-14q1 -11 1 -14q0 -9 -6 -27t-6 -29
q0 -18 2 -54.5t2 -55.5l2 -6q0 -69 -1 -74q5 -9 15 -9q17 0 32 20v3q0 10 18 31q12 14 25 29l18 4.5t10 9.5q0 3 -2 7q30 32 29 47q18 18 39 47q13 13 45.5 56.5t36.5 54.5t30.5 27t39.5 16q5 0 15.5 -2t16.5 -1q6 -6 28 -12q1 -2 9.5 -10t8.5 -13zM869 366q0 7 -17 7
q-19 0 -19 -15q0 -17 14 -17l6 2q16 20 16 23z" />
    <glyph glyph-name="paragraph" unicode="&#xb6;" horiz-adv-x="697" 
d="M687 501q-8 -32 -68 -36l-10 -6q-3 0 -20 2t-27 2q-39 0 -39 -22v-177q2 -4 2 -9q0 -6 -10 -16.5t-10 -32.5q0 -10 1 -18l12 -9l5 -15v-371q0 -20 -17 -37v-19q-6 -4 -12 -4q-7 0 -36 23q0 10 1 29l6 11q11 9 13 14v19q0 43 -1 150q-1 96 0 150q0 83 3 149q-3 10 -21 20
l5 10q15 2 15 21v109q0 20 -30 24q-8 18 -24 18q-17 0 -24 -18q-20 -3 -24.5 -8.5t-8.5 -27.5q-16 -12 -16 -39q0 -7 1 -22t1 -22q0 -6 -5.5 -14.5t-5.5 -13.5v-2q4 -4 11 -13q0 -4 -1 -12v-12q0 -10 9.5 -28.5t9.5 -27.5l-1 -200q0 -9 2 -15l8 -12q10 -36 10 -63v-105
q0 -13 -7 -40l-9 -8l-4 -9l1 -13q-6 -6 -17 -6q-27 0 -27 20v142q0 7 6.5 26t10.5 17q-1 5 0 13q2 10 2 13q0 15 -15 22q0 1 -6 31l-26 24q-67 0 -78 5q-31 11 -43 13l-8 6q-3 0 -8.5 -2.5t-8.5 -2.5l-4 1l-19 18q-8 15 -16 16q13 -2 -22 -2q-5 0 -12 5q-9 9 -23 29
q0 2 1 7.5t1 8.5l-1 5q2 9 -8 19q-13 13 -15 17q-3 19 -22 66q-2 3 -5 27q11 15 13 18.5t4 19.5q1 6 7.5 12.5t8.5 9.5l1 38v1q41 47 90 98q16 5 47 18h200q33 16 45 16q17 0 35 -14l12 -2h174q6 4 17 13h1q4 0 13 -7.5t10 -12.5zM279 408q0 14 -15 14q-11 0 -11 -10
q0 -12 13 -12t13 8zM144 220q0 20 -14 21q-8 -7 -8 -23q0 -21 15 -20q7 7 7 22z" />
    <glyph glyph-name="periodcentered" unicode="&#xb7;" horiz-adv-x="449" 
d="M252 336q4 1 10 1q7 0 24 -3.5t25 -3.5q4 0 19 45q19 56 31 78l9 36q5 18 -17 34q-17 13 -27 13q-17 0 -23 -22q-9 0 -28 -7q-8 -9 -22 -26q-10 -4 -20 -18q2 -5 2 -9q0 -1 -11.5 -15t-11.5 -26q0 -4 2 -9.5t2 -6.5t-10 -15t-10 -31l1 -5q14 -11 55 -10zM464 304
q0 -8 -3 -13q-32 -23 -36 -23q-2 0 -11 9t-16 9q-16 0 -38 -28v-3q0 -10 -14 -29t-14 -32q0 -5 3 -10.5t3 -7.5q0 -5 -5 -14q-13 -3 -19 -19t-10 -31q-9 -7 -9 -13q0 -17 14 -17q11 0 26 13t23 13h14q4 -3 7 -16q-27 -50 -75 -52q-17 -15 -27 -22q-13 0 -24.5 -9.5
t-17.5 -9.5t-14 8v56q2 5 22 41q14 23 14 44q0 13 9.5 28t10.5 36v6q17 5 17 34q0 22 -11 28q-2 -2 -56 3h-3q-10 0 -21.5 3t-12.5 3q-20 0 -20 -36q-11 -11 -21 -21.5t-10 -31.5q0 -6 4 -15.5t4 -15.5l-1 -6q-6 -5 -16 -17v-5q1 -6 -7 -19.5t-8 -31.5q0 -10 -14 -29.5
t-14 -34.5q0 -13 10 -29q0 -4 -14 -31t-18 -30q-1 -14 -11.5 -25t-10.5 -34q0 -11 -15 -19q-20 -11 -26 -19q-4 -1 -18 -2q-16 -17 -47 -17q-21 0 -41 -22q-17 -1 -27 -3q-12 5 -12 24q0 15 8.5 29.5t22.5 14.5q12 0 24 -13h11q13 -1 19 5q11 10 14 11l8 -1q11 0 14 9
q0 9 1 18q5 7 13 19q1 7 4 22q8 7 16 21q0 4 -1 10.5t-1 10.5q0 10 12.5 19t12.5 17q11 14 13 34v37v4q15 15 16.5 20t1.5 26q12 26 27 72q15 24 15 52q0 29 -11 35q-5 3 -34 3q-7 0 -16 7t-9 14q0 26 47.5 27.5t48.5 28.5l2 4q16 8 28 33t11 43q5 3 13 11v19q38 36 75 73
q20 12 119 12q47 0 47 -45q0 -6 -1 -13h1q3 -4 -4.5 -41t-18.5 -54q-5 -6 -11.5 -25.5t-6.5 -26.5t5 -12q7 -28 30 -26q8 6 11 11q7 -1 27 -15q3 -7 3 -15z" />
    <glyph glyph-name="cedilla" unicode="&#xb8;" horiz-adv-x="387" 
d="M158 -73q0 -4 12 -6t18 -1q63 -55 56 -94q-8 -6 -15 -26t-18 -29v-14q-4 -2 -17 -17q-10 -11 -18 -10l-9 1q-14 15 -32 28l-1 5q0 13 17.5 27t30.5 10q10 9 20 19.5t10 22.5q0 8 -13.5 14.5t-20.5 6.5l-13 17q-4 -1 -7.5 6t-7.5 7l-22 3l-12 -10q0 4 -6 4h-5q-3 -1 -5 -1
q-18 0 -14 27q2 8 25 22q20 13 18 22q22 10 44 19q31 15 33 29q-4 3 -4 6q0 8 18 8l8 8q12 11 20 11q12 0 18 -19q-8 1 -58 -42t-50 -54z" />
    <glyph glyph-name="guillemotright" unicode="&#xbb;" horiz-adv-x="364" 
d="M79 316q6 -8 32 -30q19 -17 24 -34q1 -1 11.5 -16.5t10.5 -24.5q0 -5 -4 -8q3 -2 3 -4q0 -7 -14.5 -23t-15.5 -18q-11 -34 -44 -78q3 -18 12 -18q13 0 33 20q28 29 28 30q2 5 6 13q0 9 13 16q8 10 20 24q6 5 14 11q5 5 12 14q0 5 2 5t2 5.5v17.5q0 8 -10 18
q-37 28 -37 50q-10 1 -22 8l-28 29q-20 20 -33 20q-9 0 -15 -27zM214 318q5 -7 32 -30q19 -16 24 -34q0 -1 12 -17q9 -14 9 -23q0 -5 -3 -9q2 -1 2 -4q0 -6 -14.5 -22t-14.5 -18q-11 -35 -44 -78q3 -19 12 -19q13 0 32 21q28 29 29 29q1 5 6 14q0 9 13 16q7 10 20 24
q5 5 14 10q4 6 12 14q-1 5 1 5.5t2 6t1 16.5q-1 8 -10 18q-37 29 -37 50q-10 2 -22 8q-1 1 -29 30q-19 20 -32 20q-10 0 -15 -28z" />
    <glyph glyph-name="questiondown" unicode="&#xbf;" horiz-adv-x="358" 
d="M13 209q15 53 108 85q13 -2 26 0q30 4 34 25q7 6 16 37q2 9 16 27q8 5 25 11q13 1 29 -2q1 -6 4 -15l-24 -86q-6 -20 -41 -47q-10 -5 -29 -13l-14 -1q-4 0 -25 -13q-14 -8 -28 -17q-10 -8 -19 -27q-7 -5 -8 -10q-2 -4 10 -9q-3 -5 -7 -16q2 -7 2 -22q10 -21 38 -18
q14 4 41 9h3q1 -1 19 -18q12 -13 10 -22q-4 -14 -24 -35t-35 -23l-37 -5q-5 0 -18 7.5t-22 8.5l-5 24q-4 16 -16 16q-4 0 -8 -1q-4 3 -13 9q-13 8 -13 10q0 -6 7 20q-12 47 -15 51q-1 10 0 13zM180 457q6 22 30.5 44.5t46.5 25.5h10q2 1 4 1q7 0 15 -11q5 -8 10 -15
q2 -8 3 -13q-3 -9 -8 -27q-6 -23 -21 -35q-15 -1 -41 -5q-3 -1 -17 -14l-6 -1q-29 -4 -29 33q0 9 3 17z" />
    <glyph glyph-name="Agrave" unicode="&#xc0;" horiz-adv-x="1162" 
d="M1150 558q0 -7 -13 -26q-16 -24 -18 -29l-3 -33q-19 -10 -19 -44q0 -10 -3 -14q-33 -19 -33 -69l6 -11q-1 -5 -7 -9q-9 -6 -10 -9q-2 -11 -13 -34.5t-10 -39.5q6 -13 6 -12q0 -4 -7.5 -10.5t-8.5 -10.5t-3 -15q-7 -7 -16 -22q-7 -37 -7 -49t5 -15v-3q1 -3 -10 -15l-1 -12
q6 -17 19 -29q30 0 30 -18l-2 -8q-38 -24 -43 -24h-216q-12 0 -12 19l2 7q8 7 22 23q4 0 11.5 -1t10.5 -1q14 0 24 11t16 11l2 -1q4 -5 11 -5q13 0 19.5 13.5t20.5 13.5q11 0 15 12l2 22q0 3 17 25q9 36 9 52q0 39 -34 35q-3 5 -15 5t-22 -5h-6q-9 0 -15 -5.5t-12 -11.5
q-9 4 -15 4q-11 0 -21 -24l-12 -32q-6 -8 -19 -24h-10q-7 0 -21 -12q-10 -9 -21 -18q-4 -3 -15.5 -4.5t-18.5 -10.5q-2 -6 -13.5 -21.5t-11.5 -22.5q0 -4 2 -6l-11 -11q1 0 -11 0q-8 0 -19 -13q-1 0 -27 -9q-22 -7 -22 -24q0 -4 -11 -5t-12 -2q-6 -7 -20 -18l-14 2
q-1 1 -5 1q-11 0 -23 -11q-15 -2 -70 -18q-43 -11 -72 -11q-30 0 -96 15q-9 7 -34 6t-34 11q-50 16 -96 65q-2 11 -17.5 32.5t-15.5 22.5q-1 6 -4 18q-2 5 -11 12q-5 3 -5 32q0 8 -7.5 21.5t-7.5 21.5v72q0 6 12 36q1 9 9 26q32 37 72 37q21 0 37 -7q16 -15 16 -34
q0 -11 -7.5 -29.5t-7.5 -30.5q-6 -4 -11 -7t-5 -15q0 -4 -15 -25.5t-15 -45.5q0 -29 40 -78q31 -38 65 -66q4 -4 22 -4q4 -6 14 -18q85 -11 88 -11q31 0 64 12q38 14 52 35l4 1q5 0 12 -5t12 -5q13 0 34 18q14 14 29 28l10 -1h3q22 27 34 31q16 6 19 9q39 37 65 69
q3 -1 6 -1q17 0 50 46q8 6 23 19q33 38 68 77q57 40 88 87q9 0 24 7q8 9 73 67q10 3 13.5 8t9 6t17.5 6q1 0 41 45q27 28 50 28q9 0 16 -5q1 -3 1 -7zM992 385q0 11 -18 11h-3q-9 -6 -21 -10q-5 -1 -12 -11q-8 -13 -9 -14q-19 -16 -46 -43q-8 -12 -8 -22l4 -7.5t13 -7.5
q30 0 52 10q30 14 25 41q2 7 13 27q10 17 10 26zM1286 521q-4 -6 -22 -6q-8 0 -13 6q-12 0 -27 23.5t-39 23.5q-13 0 -16 7t-5 16q-2 4 -8 9q-2 2 -2 13q0 5 -26 21q-29 18 -34 24q3 26 11 58q4 0 23 -1.5t21 -1.5q11 0 24 -15q10 -11 20 -23h4l11 -1q0 -2 1.5 -6.5
t1.5 -7.5l-3 -12q8 -16 24 -16l6 -9q-3 -20 -3 -12q0 -3 3 -10.5t1 -11.5q10 -1 23 -8q4 -6 16 -22z" />
    <glyph glyph-name="Aacute" unicode="&#xc1;" horiz-adv-x="761" 
d="M749 504q0 -16 -15 -40q-22 -36 -23 -38v-9q0 -12 -23 -56t-26 -67q6 -10 10 -14q0 -4 -20.5 -43.5t-20.5 -50.5q2 -6 4 -14q0 -4 -8.5 -11t-10.5 -9q-3 -7 -3 -18v-18v-3q-17 -9 -18 -22q0 -15 27 -40t27 -37q-1 -15 -13 -15q-7 0 -17 6.5t-14 6.5q1 0 -21 -11
q-6 1 -17 0q-6 9 -17 18q-3 0 -8 -8.5t-7 -9.5q-31 -3 -94 -4l-17 2q-36 21 -35 34q0 14 27 13l12 15q38 0 67 16q36 18 38 53q6 4 16 16q0 2 1 26q0 6 2.5 17.5t2.5 16.5q1 12 -10 21l-17 1h-14q-19 -9 -55 -10q-41 -1 -57 -7q-32 -10 -56 -45q-8 -13 -16.5 -26.5
t-9.5 -29.5l-18 -15.5t-19 -29.5q0 -7 8 -19t8 -20q-1 -10 -21 -12q-26 -3 -32 -8q-13 -9 -94 -12q-62 -3 -100 -2q-12 1 -22 19.5t-10 31.5q1 10 11 21t20 11q5 -1 11 -4l22 -2q36 -2 52.5 11t20.5 14q13 1 36 20q3 -2 7 -2q16 0 33 16q14 15 21 32q1 3 21 4q11 0 18 20
q9 25 17 31q38 7 55 53q8 2 21 7q18 9 29 32q9 18 25 18q16 18 51 52q20 0 49 26q24 22 37 44q71 55 110 106l8 3l11 -1q16 -10 43 -36v-15zM615 383q1 16 -12 17q-26 1 -31 -20q-8 -31 -8 -32h-3q-29 3 -63 -44q-3 -4 -20 -15.5t-16 -14.5l1 -9q6 -5 15 -5q5 0 14 3t13 3
t11.5 -4t12.5 -5q21 0 41.5 22.5t19.5 43.5q7 5 20 14q-1 3 -1 7q0 7 3 19.5t3 19.5zM842 652q-27 -26 -93 -48q-8 -6 -26 -15q-8 2 -24 2q-9 -2 -33.5 -17.5t-35.5 -15.5q-14 0 -20 13l6 24q4 11 27 23t31 25q14 5 40 19q3 4 8 13q12 15 37.5 26.5t48.5 11.5
q12 0 21.5 -3.5t9.5 -12.5q0 -2 -1 -8t-1 -9q0 -9 6 -15z" />
    <glyph glyph-name="Acircumflex" unicode="&#xc2;" horiz-adv-x="1162" 
d="M1150 558q0 -7 -13 -26q-16 -24 -18 -29l-3 -33q-19 -10 -19 -44q0 -10 -3 -14q-33 -19 -33 -69l6 -11q-1 -5 -7 -9q-9 -6 -10 -9q-2 -11 -13 -34.5t-10 -39.5q6 -13 6 -12q0 -4 -7.5 -10.5t-8.5 -10.5t-3 -15q-7 -7 -16 -22q-7 -37 -7 -49t5 -15v-3q1 -3 -10 -15l-1 -12
q6 -17 19 -29q30 0 30 -18l-2 -8q-38 -24 -43 -24h-216q-12 0 -12 19l2 7q8 7 22 23q4 0 11.5 -1t10.5 -1q14 0 24 11t16 11l2 -1q4 -5 11 -5q13 0 19.5 13.5t20.5 13.5q11 0 15 12l2 22q0 3 17 25q9 36 9 52q0 39 -34 35q-3 5 -15 5t-22 -5h-6q-9 0 -15 -5.5t-12 -11.5
q-9 4 -15 4q-11 0 -21 -24l-12 -32q-6 -8 -19 -24h-10q-7 0 -21 -12q-10 -9 -21 -18q-4 -3 -15.5 -4.5t-18.5 -10.5q-2 -6 -13.5 -21.5t-11.5 -22.5q0 -4 2 -6l-11 -11q1 0 -11 0q-8 0 -19 -13q-1 0 -27 -9q-22 -7 -22 -24q0 -4 -11 -5t-12 -2q-6 -7 -20 -18l-14 2
q-1 1 -5 1q-11 0 -23 -11q-15 -2 -70 -18q-43 -11 -72 -11q-30 0 -96 15q-9 7 -34 6t-34 11q-50 16 -96 65q-2 11 -17.5 32.5t-15.5 22.5q-1 6 -4 18q-2 5 -11 12q-5 3 -5 32q0 8 -7.5 21.5t-7.5 21.5v72q0 6 12 36q1 9 9 26q32 37 72 37q21 0 37 -7q16 -15 16 -34
q0 -11 -7.5 -29.5t-7.5 -30.5q-6 -4 -11 -7t-5 -15q0 -4 -15 -25.5t-15 -45.5q0 -29 40 -78q31 -38 65 -66q4 -4 22 -4q4 -6 14 -18q85 -11 88 -11q31 0 64 12q38 14 52 35l4 1q5 0 12 -5t12 -5q13 0 34 18q14 14 29 28l10 -1h3q22 27 34 31q16 6 19 9q39 37 65 69
q3 -1 6 -1q17 0 50 46q8 6 23 19q33 38 68 77q57 40 88 87q9 0 24 7q8 9 73 67q10 3 13.5 8t9 6t17.5 6q1 0 41 45q27 28 50 28q9 0 16 -5q1 -3 1 -7zM992 385q0 11 -18 11h-3q-9 -6 -21 -10q-5 -1 -12 -11q-8 -13 -9 -14q-19 -16 -46 -43q-8 -12 -8 -22l4 -7.5t13 -7.5
q30 0 52 10q30 14 25 41q2 7 13 27q10 17 10 26zM1258 562q-7 6 -30 32q-17 19 -34 24q-1 1 -16 11.5t-24 10.5q-5 0 -9 -4q-1 3 -4 3q-6 0 -22 -14.5t-19 -15.5q-34 -11 -78 -44q-18 3 -18 12q0 13 20 33l30 28q5 2 14 6q9 0 16 13q10 8 24 20q5 5 10 14q6 5 14 12
q5 0 5.5 2t6 2h16.5q8 0 18 -10q29 -37 50 -37q2 -10 8 -22q1 0 30 -28q20 -20 20 -33q0 -9 -28 -15z" />
    <glyph glyph-name="Atilde" unicode="&#xc3;" horiz-adv-x="761" 
d="M749 504q0 -16 -15 -40q-22 -36 -23 -38v-9q0 -12 -23 -56t-26 -67q6 -10 10 -14q0 -4 -20.5 -43.5t-20.5 -50.5q2 -6 4 -14q0 -4 -8.5 -11t-10.5 -9q-3 -7 -3 -18v-18v-3q-17 -9 -18 -22q0 -15 27 -40t27 -37q-1 -15 -13 -15q-7 0 -17 6.5t-14 6.5q1 0 -21 -11
q-6 1 -17 0q-6 9 -17 18q-3 0 -8 -8.5t-7 -9.5q-31 -3 -94 -4l-17 2q-36 21 -35 34q0 14 27 13l12 15q38 0 67 16q36 18 38 53q6 4 16 16q0 2 1 26q0 6 2.5 17.5t2.5 16.5q1 12 -10 21l-17 1h-14q-19 -9 -55 -10q-41 -1 -57 -7q-32 -10 -56 -45q-8 -13 -16.5 -26.5
t-9.5 -29.5l-18 -15.5t-19 -29.5q0 -7 8 -19t8 -20q-1 -10 -21 -12q-26 -3 -32 -8q-13 -9 -94 -12q-62 -3 -100 -2q-12 1 -22 19.5t-10 31.5q1 10 11 21t20 11q5 -1 11 -4l22 -2q36 -2 52.5 11t20.5 14q13 1 36 20q3 -2 7 -2q16 0 33 16q14 15 21 32q1 3 21 4q11 0 18 20
q9 25 17 31q38 7 55 53q8 2 21 7q18 9 29 32q9 18 25 18q16 18 51 52q20 0 49 26q24 22 37 44q71 55 110 106l8 3l11 -1q16 -10 43 -36v-15zM615 383q1 16 -12 17q-26 1 -31 -20q-8 -31 -8 -32h-3q-29 3 -63 -44q-3 -4 -20 -15.5t-16 -14.5l1 -9q6 -5 15 -5q5 0 14 3t13 3
t11.5 -4t12.5 -5q21 0 41.5 22.5t19.5 43.5q7 5 20 14q-1 3 -1 7q0 7 3 19.5t3 19.5zM895 669q0 -10 -14 -24q-19 -19 -20 -21q-2 -8 -7 -24q-14 -13 -38 -36h-11q-8 -1 -12 -1q-6 0 -12 1q-15 18 -29 18h-87q-3 0 -23 -19t-31 -19q-15 0 -15 18q0 17 17 25q8 19 20 57
q12 18 34 25.5t43 14.5q7 3 9 3q7 0 17 -8.5t16 -8.5h61q5 5 17 14q14 -1 26.5 7.5l12.5 8.5q1 0 24 -21z" />
    <glyph glyph-name="Adieresis" unicode="&#xc4;" horiz-adv-x="761" 
d="M749 504q0 -16 -15 -40q-22 -36 -23 -38v-9q0 -12 -23 -56t-26 -67q6 -10 10 -14q0 -4 -20.5 -43.5t-20.5 -50.5q2 -6 4 -14q0 -4 -8.5 -11t-10.5 -9q-3 -7 -3 -18v-18v-3q-17 -9 -18 -22q0 -15 27 -40t27 -37q-1 -15 -13 -15q-7 0 -17 6.5t-14 6.5q1 0 -21 -11
q-6 1 -17 0q-6 9 -17 18q-3 0 -8 -8.5t-7 -9.5q-31 -3 -94 -4l-17 2q-36 21 -35 34q0 14 27 13l12 15q38 0 67 16q36 18 38 53q6 4 16 16q0 2 1 26q0 6 2.5 17.5t2.5 16.5q1 12 -10 21l-17 1h-14q-19 -9 -55 -10q-41 -1 -57 -7q-32 -10 -56 -45q-8 -13 -16.5 -26.5
t-9.5 -29.5l-18 -15.5t-19 -29.5q0 -7 8 -19t8 -20q-1 -10 -21 -12q-26 -3 -32 -8q-13 -9 -94 -12q-62 -3 -100 -2q-12 1 -22 19.5t-10 31.5q1 10 11 21t20 11q5 -1 11 -4l22 -2q36 -2 52.5 11t20.5 14q13 1 36 20q3 -2 7 -2q16 0 33 16q14 15 21 32q1 3 21 4q11 0 18 20
q9 25 17 31q38 7 55 53q8 2 21 7q18 9 29 32q9 18 25 18q16 18 51 52q20 0 49 26q24 22 37 44q71 55 110 106l8 3l11 -1q16 -10 43 -36v-15zM615 383q1 16 -12 17q-26 1 -31 -20q-8 -31 -8 -32h-3q-29 3 -63 -44q-3 -4 -20 -15.5t-16 -14.5l1 -9q6 -5 15 -5q5 0 14 3t13 3
t11.5 -4t12.5 -5q21 0 41.5 22.5t19.5 43.5q7 5 20 14q-1 3 -1 7q0 7 3 19.5t3 19.5zM854 617l-10.5 -9.5t-26.5 -26.5q-3 -3 -15 -3q-7 0 -10 2q-13 12 -38 33q-2 5 -2 10q0 11 10 20t19 17q3 6 10 13q6 3 18 3t21 -3q5 -2 14.5 -15t9.5 -20v-21zM705 624q0 -6 -16 -22v-6
q0 -18 -34 -18q-5 0 -7 1q-4 6 -14 15q-5 2 -12 8v5q1 3 1 4q0 6 -6.5 11.5t-6.5 10.5q0 6 11 15q8 7 16 13q1 5 11 15q8 0 12 -0.5t9.5 -8.5t8.5 -10q27 -15 27 -33z" />
    <glyph glyph-name="Aring" unicode="&#xc5;" horiz-adv-x="761" 
d="M749 504q0 -16 -15 -40q-22 -36 -23 -38v-9q0 -12 -23 -56t-26 -67q6 -10 10 -14q0 -4 -20.5 -43.5t-20.5 -50.5q2 -6 4 -14q0 -4 -8.5 -11t-10.5 -9q-3 -7 -3 -18v-18v-3q-17 -9 -18 -22q0 -15 27 -40t27 -37q-1 -15 -13 -15q-7 0 -17 6.5t-14 6.5q1 0 -21 -11
q-6 1 -17 0q-6 9 -17 18q-3 0 -8 -8.5t-7 -9.5q-31 -3 -94 -4l-17 2q-36 21 -35 34q0 14 27 13l12 15q38 0 67 16q36 18 38 53q6 4 16 16q0 2 1 26q0 6 2.5 17.5t2.5 16.5q1 12 -10 21l-17 1h-14q-19 -9 -55 -10q-41 -1 -57 -7q-32 -10 -56 -45q-8 -13 -16.5 -26.5
t-9.5 -29.5l-18 -15.5t-19 -29.5q0 -7 8 -19t8 -20q-1 -10 -21 -12q-26 -3 -32 -8q-13 -9 -94 -12q-62 -3 -100 -2q-12 1 -22 19.5t-10 31.5q1 10 11 21t20 11q5 -1 11 -4l22 -2q36 -2 52.5 11t20.5 14q13 1 36 20q3 -2 7 -2q16 0 33 16q14 15 21 32q1 3 21 4q11 0 18 20
q9 25 17 31q38 7 55 53q8 2 21 7q18 9 29 32q9 18 25 18q16 18 51 52q20 0 49 26q24 22 37 44q71 55 110 106l8 3l11 -1q16 -10 43 -36v-15zM615 383q1 16 -12 17q-26 1 -31 -20q-8 -31 -8 -32h-3q-29 3 -63 -44q-3 -4 -20 -15.5t-16 -14.5l1 -9q6 -5 15 -5q5 0 14 3t13 3
t11.5 -4t12.5 -5q21 0 41.5 22.5t19.5 43.5q7 5 20 14q-1 3 -1 7q0 7 3 19.5t3 19.5zM762 699q7 0 16.5 -9t24.5 -6q4 -3 17.5 -16t12.5 -16q6 -8 6 -16l4 -3q2 -6 1 -10l-1 -5q-6 -4 -6 -5q0 -3 6 -5q1 -1 1 -3q0 -3 -7 -8.5t-7 -16.5q-3 -2 -14 -13q-6 -8 -17 -6
q-9 -7 -20 -6q-4 -5 -13 -5q-5 0 -15 3t-15 3q-16 0 -40 32q1 8 -5 11l1 2q0 2 -1 6t-1 7q-6 11 -6 16q1 2 2 7l5 4l1 4q1 4 4 10q8 11 17 22q5 4 25 10q2 1 3.5 3.5t5 2.5t8 3t7.5 3zM731 595q4 -3 25 -3q6 -3 20 -6q7 0 10.5 7t5.5 8q4 8 7 19q0 3 -2 16q-6 4 -6 7l2 5
q-1 0 -15 1l-14 2q-6 1 -11 -4l-8 1q-3 0 -3 -5t-2 -5q-5 -2 -11.5 -3t-8 -6t-8.5 -4l7 -7q9 -7 9 -8q1 -7 3 -15z" />
    <glyph glyph-name="Ccedilla" unicode="&#xc7;" horiz-adv-x="522" 
d="M232 1q-74 -58 -74 -74q0 -4 12 -6t18 -1q63 -55 56 -94q-8 -6 -15 -26t-18 -29v-14q-4 -2 -17 -17q-10 -11 -18 -10l-9 1q-14 15 -32 28l-1 5q0 13 17.5 27t30.5 10q10 9 20 19.5t10 22.5q0 8 -13.5 14.5t-20.5 6.5l-13 17q-4 -1 -7.5 6t-7.5 7l-22 3l-12 -10q0 4 -6 4
h-5q-3 -1 -5 -1q-18 0 -14 27q2 8 25 22q20 13 18 22q19 8 38 17q28 12 36 23h-21q-38 0 -78 28q-16 4 -34.5 23.5t-21.5 35.5q-18 18 -18 43q0 142 12 159q7 10 7 30q0 12 18 30t18 31q11 11 16 21q15 25 69 66q17 2 27.5 18.5t18.5 19.5q34 13 73 16q69 7 73 7
q17 15 20 15q2 0 12.5 -5t16.5 -6q5 -1 14.5 1t12.5 2t7.5 -8t8 -10.5t12.5 -0.5l15 2q19 0 18 -24l-1 -20q-22 -19 -31 -36q-15 -28 -23 -39l-6 -1q-5 2 -7 10q-1 6 0 16q2 13 2 14q0 19 -24 40l-40 30q-5 0 -10.5 -5t-10.5 -10q-12 3 -24 3q-34 0 -65 -22q-9 0 -28 -19
l-27 -27q-1 -2 -0.5 -5.5t0.5 -4.5q0 -13 -40.5 -51.5t-38.5 -62.5v-4l8 -8q-37 -50 -37 -105q0 -6 2 -17t2 -17q0 -12 6.5 -19t6.5 -9q0 -19 23.5 -38.5t41.5 -18.5l8 -4q12 -17 45 -17q48 0 66 40q3 0 9 -2t8 -3q10 6 20 25.5t11 31.5q8 8 12 8q17 0 17 -38q0 -18 -8 -30
t-8 -21q0 -28 -50 -45q-39 -13 -74 -13h-2z" />
    <glyph glyph-name="Egrave" unicode="&#xc8;" horiz-adv-x="574" 
d="M546 457q0 -32 -36 -32q-8 0 -15 2l-25 27q0 11 -8.5 23.5t-19.5 12.5q-7 0 -54 -3q-7 -5 -22 -5q-2 0 -9 3q-6 -3 -8 -13.5t-3 -19.5q-6 -3 -15 -11q-9 -22 -34 -69q-10 -15 -10 -34q0 -47 26 -47q64 0 72 1q35 6 57 37h7q12 -12 12 -17t-6 -18q-1 -4 -4 -40
q-2 -28 -10 -44.5t-17 -16.5q-10 0 -9 20q1 30 -75 30q-30 0 -89 -4q-5 -1 -10 -21q-4 -16 -4 -27q0 -4 3 -12t3 -11q0 -4 -8 -18t-8 -40q0 -6 -9.5 -13t-9.5 -17q0 -6 14 -23t18 -17q8 0 37 3q22 3 36 0q7 4 30 8q19 4 34 16q24 2 49 4q5 2 34 35q6 -3 12 -14
q14 -10 13 -24q-3 -6 -9.5 -12.5t-7.5 -22.5q-6 -13 -22 -30q-6 -1 -28 -3q-18 -1 -29 -1q-14 0 -19 4q-11 0 -33.5 5.5t-33.5 5.5q-18 0 -26 -10.5t-19 -10.5q-10 0 -14.5 9t-10.5 9q-65 0 -83 -6q-8 -8 -29 -17q-43 -4 -62 -4q-16 0 -36 15v8q5 9 20 23q10 2 25 13t25 11
t11 8q2 15 14 29q18 20 21 26q1 11 4 32q2 4 7 9t5 17q0 9 11 21t13 17l-1 12q0 2 10 25t10 36l-1 7q-4 5 -4 9q0 3 13 24t15 27q3 1 8.5 28.5t15.5 39.5v47q-4 7 -12 10q-7 1 -18 0q-15 -1 -16 -1q-12 0 -19 4q-3 4 -3 11q0 10 26 25q23 14 29 14q5 0 16 -15q37 0 73 1
q-13 17 -34 17q-14 0 -16.5 7.5t-4.5 15.5q-2 5 -8 9q-2 3 -2 14q0 5 -26 20q-29 18 -34 25q3 26 11 57q4 1 23 -0.5t21 -1.5q11 0 24 -15l20 -24l4 1l11 -1q0 -2 1.5 -7t1.5 -7q0 -1 -3 -12q8 -17 24 -16l6 -10q-3 -19 -3 -12q0 -3 3 -10t1 -12q10 -1 23 -7q4 -6 16 -22
l1 -6q40 1 78 3q2 1 9.5 10t18.5 9q28 0 45 -29q14 -26 14 -56z" />
    <glyph glyph-name="Eacute" unicode="&#xc9;" horiz-adv-x="574" 
d="M546 457q0 -32 -36 -32q-8 0 -15 2l-25 27q0 11 -8.5 23.5t-19.5 12.5q-13 0 -39.5 -2t-38.5 -2t-14.5 -12t-3.5 -22q-6 -3 -15 -11q-9 -22 -34 -69q-10 -15 -10 -34q0 -47 26 -47q64 0 72 1q35 6 57 37h7q12 -12 12 -17t-6 -18q-1 -4 -4 -40q-2 -28 -10 -44.5t-17 -16.5
q-10 0 -9 20q1 30 -75 30q-30 0 -89 -4q-5 -1 -10 -21q-4 -16 -4 -27q0 -4 3 -12t3 -11q0 -4 -8 -18t-8 -40q0 -6 -9.5 -13t-9.5 -17q0 -6 14 -23t18 -17q8 0 37 3q22 3 36 0q7 4 30 8q19 4 34 16q24 2 49 4q5 2 34 35q6 -3 12 -14q14 -10 13 -24q-3 -6 -9.5 -12.5
t-7.5 -22.5q-6 -13 -22 -30q-6 -1 -28 -3q-18 -1 -29 -1q-14 0 -19 4q-11 0 -33.5 5.5t-33.5 5.5q-18 0 -26 -10.5t-19 -10.5q-10 0 -14.5 9t-10.5 9q-65 0 -83 -6q-8 -8 -29 -17q-43 -4 -62 -4q-16 0 -36 15v8q5 9 20 23q10 2 25 13t25 11t11 8q2 15 14 29q18 20 21 26
q1 11 4 32q2 4 7 9t5 17q0 9 11 21t13 17l-1 12q0 2 10 25t10 36l-1 7q-4 5 -4 9q0 3 13 24t15 27q3 1 8.5 28.5t15.5 39.5v47q-4 7 -12 10q-7 1 -18 0q-15 -1 -16 -1q-12 0 -19 4q-3 4 -3 11q0 10 26 25q23 14 29 14q5 0 16 -15h13v8q0 12 17 31.5t20 33.5q11 11 30 32
q1 6 3 16q7 23 35 46.5t51 23.5q14 0 17 -14q3 -18 14 -22l3 -13q-16 -34 -69 -78q-6 -9 -20 -23q-8 -2 -23 -7q-6 -4 -28 -33q75 2 148 6q2 1 9.5 10t18.5 9q28 0 45 -29q14 -26 14 -56z" />
    <glyph glyph-name="Ecircumflex" unicode="&#xca;" horiz-adv-x="574" 
d="M546 457q0 -32 -36 -32q-8 0 -15 2l-25 27q0 11 -8.5 23.5t-19.5 12.5q-13 0 -39.5 -2t-38.5 -2t-14.5 -12t-3.5 -22q-6 -3 -15 -11q-9 -22 -34 -69q-10 -15 -10 -34q0 -47 26 -47q64 0 72 1q35 6 57 37h7q12 -12 12 -17t-6 -18q-1 -4 -4 -40q-2 -28 -10 -44.5t-17 -16.5
q-10 0 -9 20q1 30 -75 30q-30 0 -89 -4q-5 -1 -10 -21q-4 -16 -4 -27q0 -4 3 -12t3 -11q0 -4 -8 -18t-8 -40q0 -6 -9.5 -13t-9.5 -17q0 -6 14 -23t18 -17q8 0 37 3q22 3 36 0q7 4 30 8q19 4 34 16q24 2 49 4q5 2 34 35q6 -3 12 -14q14 -10 13 -24q-3 -6 -9.5 -12.5
t-7.5 -22.5q-6 -13 -22 -30q-6 -1 -28 -3q-18 -1 -29 -1q-14 0 -19 4q-11 0 -33.5 5.5t-33.5 5.5q-18 0 -26 -10.5t-19 -10.5q-10 0 -14.5 9t-10.5 9q-65 0 -83 -6q-8 -8 -29 -17q-43 -4 -62 -4q-16 0 -36 15v8q5 9 20 23q10 2 25 13t25 11t11 8q2 15 14 29q18 20 21 26
q1 11 4 32q2 4 7 9t5 17q0 9 11 21t13 17l-1 12q0 2 10 25t10 36l-1 7q-4 5 -4 9q0 3 13 24t15 27q3 1 8.5 28.5t15.5 39.5v47q-4 7 -12 10q-7 1 -18 0q-15 -1 -16 -1q-12 0 -19 4q-3 4 -3 11q0 10 26 25q23 14 29 14q5 0 16 -15q106 1 211 7q2 1 9.5 10t18.5 9q28 0 45 -29
q14 -26 14 -56zM468 557q-7 5 -30 31q-17 20 -34 25q-1 0 -16 10.5t-24 10.5q-5 0 -9 -3q-1 2 -4 2q-6 0 -22 -14.5t-19 -15.5q-34 -10 -77 -44q-19 4 -19 13q0 12 21 32q29 28 29 29q5 1 14 6q9 0 16 12q10 8 24 20q5 6 10 15q6 4 14 12q5 -1 5.5 1t6 2t16.5 1q8 -1 18 -10
q29 -37 50 -37q2 -11 8 -22q1 -1 30 -29q20 -20 20 -32q0 -10 -28 -15z" />
    <glyph glyph-name="Edieresis" unicode="&#xcb;" horiz-adv-x="574" 
d="M546 457q0 -32 -36 -32q-8 0 -15 2l-25 27q0 11 -8.5 23.5t-19.5 12.5q-13 0 -39.5 -2t-38.5 -2t-14.5 -12t-3.5 -22q-6 -3 -15 -11q-9 -22 -34 -69q-10 -15 -10 -34q0 -47 26 -47q64 0 72 1q35 6 57 37h7q12 -12 12 -17t-6 -18q-1 -4 -4 -40q-2 -28 -10 -44.5t-17 -16.5
q-10 0 -9 20q1 30 -75 30q-30 0 -89 -4q-5 -1 -10 -21q-4 -16 -4 -27q0 -4 3 -12t3 -11q0 -4 -8 -18t-8 -40q0 -6 -9.5 -13t-9.5 -17q0 -6 14 -23t18 -17q8 0 37 3q22 3 36 0q7 4 30 8q19 4 34 16q24 2 49 4q5 2 34 35q6 -3 12 -14q14 -10 13 -24q-3 -6 -9.5 -12.5
t-7.5 -22.5q-6 -13 -22 -30q-6 -1 -28 -3q-18 -1 -29 -1q-14 0 -19 4q-11 0 -33.5 5.5t-33.5 5.5q-18 0 -26 -10.5t-19 -10.5q-10 0 -14.5 9t-10.5 9q-65 0 -83 -6q-8 -8 -29 -17q-43 -4 -62 -4q-16 0 -36 15v8q5 9 20 23q10 2 25 13t25 11t11 8q2 15 14 29q18 20 21 26
q1 11 4 32q2 4 7 9t5 17q0 9 11 21t13 17l-1 12q0 2 10 25t10 36l-1 7q-4 5 -4 9q0 3 13 24t15 27q3 1 8.5 28.5t15.5 39.5v47q-4 7 -12 10q-7 1 -18 0q-15 -1 -16 -1q-12 0 -19 4q-3 4 -3 11q0 10 26 25q23 14 29 14q5 0 16 -15q106 1 211 7q2 1 9.5 10t18.5 9q28 0 45 -29
q14 -26 14 -56zM508 605q0 -1 -12 -11q-8 -9 -25 -26q-3 -2 -15 -2q-7 0 -10 1q-12 13 -38 33q-2 6 -2 11q0 10 10 19.5t19 17.5q3 5 10 13q6 3 18 3t21 -3q5 -2 14.5 -15.5t9.5 -19.5v-21zM359 612q0 -6 -16 -23v-5q0 -19 -34 -19q-5 0 -7 1q-4 6 -14 16q-5 2 -12 7
q0 2 1 5v5q0 5 -6.5 10.5t-6.5 10.5q0 7 11 16q8 6 16 13q1 5 11 14h11q5 -1 10.5 -9t8.5 -9q27 -15 27 -33z" />
    <glyph glyph-name="Igrave" unicode="&#xcc;" horiz-adv-x="432" 
d="M416 507q-5 -19 -32 -25q-21 -4 -43 -7q-2 -4 -28 -26q-15 -13 -16 -38q-19 -15 -19 -37q0 -4 2 -11.5t2 -11.5q0 -2 -7 -8t-9 -9q-1 -12 -5 -32q-2 -7 -5 -23q2 -3 8 -10l2 -6l-5 -9q-10 -7 -10 -8q0 2 0 -14q0 -2 -11.5 -16t-11.5 -26q0 -7 4 -13q-5 -6 -12 -18
q-3 -6 -2 -15q1 -15 1 -14q0 -4 -12 -16.5t-12 -27.5q0 -18 15.5 -31t33.5 -13l2 -1q1 -1 12 -13q8 -8 8 -14q0 -8 -5 -15h-159q-4 -1 -11 -3q-16 -17 -27 -17l-7 2q-1 4 -10.5 15.5t-9.5 18.5l3 8q4 2 17 19q5 -2 10 -2q23 0 70 57q5 23 12 54q8 18 23 55q1 3 1 25
q0 6 5 32q9 8 9 29q0 13 4 17q11 10 12 11q3 13 10 37q5 6 12 19v20q0 6 3 16.5t3 15.5q-4 9 -4 34q0 9 -22 16q-26 7 -29.5 13t-3.5 12q0 19 15 19l99 -1q-20 30 -44 30q-13 0 -15.5 7t-4.5 16q-2 4 -8 9q-3 2 -3 13q0 5 -27 22t-32 23q2 27 11 58q3 0 22 -1.5t22 -1.5
q11 0 22 -13t22 -25h4h11q0 -2 1.5 -7t1.5 -8l-3 -12q8 -16 23 -15l6 -10q-2 -19 -2 -12q0 -3 3 -10.5t1 -11.5q9 -1 22 -8q5 -6 17 -22l4 -21h16q7 0 13.5 8.5t12.5 8.5q9 0 21.5 -11t12.5 -20z" />
    <glyph glyph-name="Iacute" unicode="&#xcd;" horiz-adv-x="432" 
d="M416 507q-5 -19 -32 -25q-21 -4 -43 -7q-2 -4 -28 -26q-15 -13 -16 -38q-19 -15 -19 -37q0 -4 2 -11.5t2 -11.5q0 -2 -7 -8t-9 -9q-1 -12 -5 -32q-2 -7 -5 -23q2 -3 8 -10l2 -6l-5 -9q-10 -7 -10 -8q0 2 0 -14q0 -2 -11.5 -16t-11.5 -26q0 -7 4 -13q-5 -6 -12 -18
q-3 -6 -2 -15q1 -15 1 -14q0 -4 -12 -16.5t-12 -27.5q0 -18 15.5 -31t33.5 -13l2 -1q1 -1 12 -13q8 -8 8 -14q0 -8 -5 -15h-159q-4 -1 -11 -3q-16 -17 -27 -17l-7 2q-1 4 -10.5 15.5t-9.5 18.5l3 8q4 2 17 19q5 -2 10 -2q23 0 70 57q5 23 12 54q8 18 23 55q1 3 1 25
q0 6 5 32q9 8 9 29q0 13 4 17q11 10 12 11q3 13 10 37q5 6 12 19v20q0 6 3 16.5t3 15.5q-4 9 -4 34q0 9 -22 16q-26 7 -29.5 13t-3.5 12q0 19 15 19l54 -1v3q-1 12 16.5 31.5t19.5 34.5q12 10 31 32l3 15q7 24 35 47.5t51 23.5q13 0 16.5 -16t13.5 -21l4 -12
q-16 -35 -69 -78q-6 -9 -20 -24q-8 -1 -23 -7q-7 -4 -25 -29h62q7 0 13.5 8.5t12.5 8.5q9 0 21.5 -11t12.5 -20z" />
    <glyph glyph-name="Icircumflex" unicode="&#xce;" horiz-adv-x="432" 
d="M416 507q-5 -19 -32 -25q-21 -4 -43 -7q-2 -4 -28 -26q-15 -13 -16 -38q-19 -15 -19 -37q0 -4 2 -11.5t2 -11.5q0 -2 -7 -8t-9 -9q-1 -12 -5 -32q-2 -7 -5 -23q2 -3 8 -10l2 -6l-5 -9q-10 -7 -10 -8q0 2 0 -14q0 -2 -11.5 -16t-11.5 -26q0 -7 4 -13q-5 -6 -12 -18
q-3 -6 -2 -15q1 -15 1 -14q0 -4 -12 -16.5t-12 -27.5q0 -18 15.5 -31t33.5 -13l2 -1q1 -1 12 -13q8 -8 8 -14q0 -8 -5 -15h-159q-4 -1 -11 -3q-16 -17 -27 -17l-7 2q-1 4 -10.5 15.5t-9.5 18.5l3 8q4 2 17 19q5 -2 10 -2q23 0 70 57q5 23 12 54q8 18 23 55q1 3 1 25
q0 6 5 32q9 8 9 29q0 13 4 17q11 10 12 11q3 13 10 37q5 6 12 19v20q0 6 3 16.5t3 15.5q-4 9 -4 34q0 9 -22 16q-26 7 -29.5 13t-3.5 12q0 19 15 19l169 -1q7 0 13.5 8.5t12.5 8.5q9 0 21.5 -11t12.5 -20zM437 552q-7 5 -30 32q-16 19 -34 24q-1 0 -16 10.5t-24 10.5
q-5 0 -9 -3q-1 2 -4 2q-6 0 -22 -14.5t-18 -15.5q-35 -10 -78 -43q-18 3 -18 12q0 13 20 32q29 28 29 29q5 1 14 6q9 0 16 13q10 7 24 20q5 5 11 14q5 4 13 12q5 -1 5.5 1t6 2t16.5 1q9 -1 18 -10q29 -37 50 -37q2 -10 8 -22q1 -1 30 -29q20 -19 20 -32q0 -10 -28 -15z" />
    <glyph glyph-name="Idieresis" unicode="&#xcf;" horiz-adv-x="432" 
d="M416 507q-5 -19 -32 -25q-21 -4 -43 -7q-2 -4 -28 -26q-15 -13 -16 -38q-19 -15 -19 -37q0 -4 2 -11.5t2 -11.5q0 -2 -7 -8t-9 -9q-1 -12 -5 -32q-2 -7 -5 -23q2 -3 8 -10l2 -6l-5 -9q-10 -7 -10 -8q0 2 0 -14q0 -2 -11.5 -16t-11.5 -26q0 -7 4 -13q-5 -6 -12 -18
q-3 -6 -2 -15q1 -15 1 -14q0 -4 -12 -16.5t-12 -27.5q0 -18 15.5 -31t33.5 -13l2 -1q1 -1 12 -13q8 -8 8 -14q0 -8 -5 -15h-159q-4 -1 -11 -3q-16 -17 -27 -17l-7 2q-1 4 -10.5 15.5t-9.5 18.5l3 8q4 2 17 19q5 -2 10 -2q23 0 70 57q5 23 12 54q8 18 23 55q1 3 1 25
q0 6 5 32q9 8 9 29q0 13 4 17q11 10 12 11q3 13 10 37q5 6 12 19v20q0 6 3 16.5t3 15.5q-4 9 -4 34q0 9 -22 16q-26 7 -29.5 13t-3.5 12q0 19 15 19l169 -1q7 0 13.5 8.5t12.5 8.5q9 0 21.5 -11t12.5 -20zM456 619q0 -1 -13 -11q-8 -9 -25 -26q-2 -2 -15 -2q-6 0 -9 1
q-13 13 -38 33q-2 6 -2 11q0 10 10 19t19 18q3 5 9 13q7 2 19 2t21 -2q5 -2 14.5 -15.5t9.5 -19.5v-21zM307 625q0 -6 -17 -22q1 -2 1 -5q0 -19 -34 -19q-5 0 -8 1q-4 6 -14 16q-4 2 -11 7v5q1 4 1 5q0 5 -6.5 10.5t-6.5 10.5q0 7 10 16q8 6 16 13q2 5 11 14h12q4 -1 10 -9
t9 -9q27 -15 27 -34z" />
    <glyph glyph-name="Eth" unicode="&#xd0;" horiz-adv-x="694" 
d="M221 228h-11q-6 0 -16 7.5t-18 7.5h-57q-10 6 -10 22q0 20 5 27l20 22l7 2q6 1 16 0.5t14 -0.5q10 0 18 2q13 9 35 9h21v4q6 5 16 16q2 8 8 24q2 3 10 7.5t9 15.5q0 7 2.5 22t3.5 22q1 28 -22 41q-6 8 -10 9q-3 0 -11.5 -9t-14.5 -9q-5 1 -11.5 7t-8.5 7q-10 1 -26 11
q-1 8 -2 25q1 18 21 18q6 0 20 -2.5t21 -2.5q19 0 26 13q16 7 40 6q25 -1 45 -11q3 -7 8 -8q15 0 45.5 2t45.5 1q1 0 57 -11q8 -8 36 -9q69 -31 104 -94q2 -10 8 -32q14 -53 14 -64q-2 -21 -11.5 -44t-10.5 -40q0 -12 -8.5 -30.5t-10.5 -28t-7 -26.5q-5 -10 -20 -32
q-7 -11 -46 -41l-9 1q-10 -12 -35 -30q-7 -1 -20 -4q-5 -2 -13 -12q-5 -5 -16 -4.5t-18 -8t-13 -8.5q-4 0 -12.5 2.5t-13.5 2.5q-25 1 -56 -6q-31 -21 -152 -21q-9 0 -180 7q-7 8 -6 24q0 16 9 21h55q33 2 52 15q31 -3 32 24q-2 5 -3 16q0 6 9.5 11.5t10.5 11.5q3 10 16 33
q12 20 12 30v1q-9 9 -9 17q0 4 4 10q7 3 12 11zM465 303q0 -5 -10 -25t-10 -30q-39 -15 -48 -33l-14 -3q-9 0 -20 8t-14 8h-59q-9 -15 -10 -33q-1 -13 6 -22q-2 -9 -12.5 -27t-10.5 -30q-1 -9 5 -17v-3q-1 -5 -11 -10t-10 -11q-1 -9 22 -19q19 -8 32 -9q15 -1 44.5 1t45.5 1
q9 -1 28 15q-1 0 11 -1q8 0 31 31q2 0 6 -1q19 -1 43 24.5t28 45.5q17 12 17 33q7 7 13 10q3 12 5.5 22.5t16.5 21.5q5 19 12 57q1 24 -10 48.5t-11 25.5q0 4 2.5 10.5t2.5 10.5q1 10 -6 24q-5 4 -11 11q-1 4 1.5 10.5t2.5 9.5q0 7 -14 15l-12 -1q-5 0 -18 8.5t-21 7.5
q-6 8 -16 8q-11 1 -33 -10q-5 2 -12 12t-15 11q-16 0 -38.5 -23t-23.5 -40q0 -5 -6.5 -10.5t-8.5 -8.5t-2 -11t-4 -21.5t-5 -19.5q0 -4 3 -13.5t3 -15.5l-5 -11q-3 -3 -6 -7h83q12 0 27.5 -8t15.5 -16z" />
    <glyph glyph-name="Ntilde" unicode="&#xd1;" horiz-adv-x="815" 
d="M797 499q0 -6 -4.5 -15t-5.5 -13q-5 -5 -19 -6q-2 0 -11.5 -9.5t-26.5 -9.5q-11 0 -37 -26q-25 -7 -28 -66q-6 -14 -8 -22q-10 -5 -10 -24q0 -9 -16 -35t-16 -55q0 2 -19 -30.5t-19 -62.5q0 -33 8 -43q0 -13 14.5 -27.5t14.5 -33.5q0 -35 -21 -35q-20 0 -33 19h-79
q-12 7 -13 19q-2 16 -5 21q-12 20 -12 23l1 4h1q11 0 11 16q0 9 -7 16t-7 12q0 3 3 10t3 13q0 17 -10.5 33.5t-26.5 14.5q-5 4 -5 17q0 4 4 11q-2 16 -6 29q-11 10 -11 28.5t-10 26.5t-10 17q0 3 1.5 11t1.5 12q0 12 -9.5 28.5t-10.5 27.5q-3 3 -9 4q-29 -18 -29 -44
q0 -7 2 -13q-2 -6 -11.5 -10t-9.5 -25q0 -13 -9.5 -30t-9.5 -35q0 -6 3 -15t3 -14v-1q-16 -10 -29 -30t-12 -37l1 -1q7 -9 7 -12t-9 -11t-9 -18q0 -27 29 -41h6q18 0 43 -16q5 -18 5 -20q0 -18 -29 -39q-3 0 -10.5 -1t-11.5 -1q-10 0 -23 11t-30 11t-29 -10.5t-13 -10.5h-97
q-14 5 -27.5 9t-25.5 17l-1 19l1 14q16 16 69 16q20 0 59 23l8 11q14 10 14 28l2 6q14 7 16 12q-1 -2 -1 21q0 7 11 25.5t11 31.5v4q-9 8 -9 14q0 1 23.5 22.5t27 25.5t4.5 11q1 5 0 14q-1 10 -1 13q6 3 16 12q0 -3 0 10l10.5 27t10.5 44q0 16 -6 29l-17 7q-17 -17 -35 -17
q-8 0 -12 5.5t-13 7.5l-18 4q-2 5 -15 17q-6 6 -6 24l1 10q3 3 24.5 14t24.5 11q11 0 17.5 -7.5t10.5 -7.5h96q4 0 14 -2.5t15 -2.5q9 0 19 5q7 -3 7 -17q0 -3 3.5 -9t4.5 -8q3 -13 9 -40q1 -3 10 -12.5t9 -14.5q0 -3 -2 -9.5t-2 -10.5q0 -61 36 -80l2 -10l-8 -10
q4 -31 24 -53v-10l1 -5l9 -4l-1 -6q0 -2 5 -10q7 -11 8 -11q-2 -16 -2 -19q0 -14 15 -14q8 0 20 10t17 17q1 3 1 32l2 8q13 7 13 23q0 4 5 7t6 5.5t13 45.5q-3 6 -7 9l3 8q6 1 16 10q6 16 6 56q0 30 -5.5 36.5t-34.5 6.5q-6 0 -17 5q-6 7 -11 13.5t-5 19.5q0 12 4.5 19.5
t17.5 21.5h5q12 1 19 -8.5t15 -9.5h63l23 12h11q5 0 23 6h58q7 -6 7 -14zM690 670q0 -8 -15 -20q-19 -15 -21 -17q-1 -7 -7 -20q-15 -11 -40 -30q-4 0 -13 -1h-12q-6 0 -13 1q-16 15 -31 15h-93q-3 0 -24.5 -16t-32.5 -16q-16 0 -16 15t18 21q8 16 21 48q13 14 36.5 20.5
t45.5 12.5q8 2 10 2q7 0 18 -7t17 -7h66q5 5 18 12q15 -1 28 6l13 7q1 0 25 -17z" />
    <glyph glyph-name="Ograve" unicode="&#xd2;" horiz-adv-x="552" 
d="M536 310q0 -15 -19 -34.5t-23 -48.5q3 -6 6 -10l1 -7q0 -6 -6.5 -11.5t-13.5 -10.5l1 -11q0 -18 -65 -79t-97 -65q-7 -9 -23 -25q-6 -4 -32.5 -9t-37.5 -5q-15 0 -34 6q-22 6 -46 8h-3q-8 12 -11.5 14.5t-14.5 3.5q-5 1 -10 4q-12 8 -32.5 31t-22.5 35q-1 5 -10 10.5
t-12 10.5t-8 36.5t-5 41.5q0 22 7 45q4 4 9 26q5 19 5 28q0 3 -2.5 8.5t-2.5 8.5q0 6 8.5 14.5t10.5 14.5q9 36 42 59q12 9 12 21q0 3 -1 8v8q0 10 8 16h7q15 0 21 17q15 2 35.5 20.5t33.5 18.5q9 0 13.5 7t9.5 13h8q8 0 11 4h4q4 0 14.5 6t14.5 7q9 3 70 3q14 0 55 -18
q-19 29 -43 29q-13 0 -15.5 7.5t-5.5 15.5q-2 4 -7 9q-3 2 -3 14q0 4 -26 20q-29 18 -34 24q3 27 11 58q4 0 23 -1.5t21 -1.5q11 0 24 -14l20 -24h4h11q0 -2 1.5 -7t1.5 -8l-2 -12q7 -16 23 -15l6 -10q-3 -19 -3 -12q0 -3 3 -10.5t2 -11.5q9 -1 22 -8q5 -6 16 -22l8 -38
q-2 -3 -16 -5q2 -3 6 -4q7 1 11 1h2q10 -7 27 -23v-3q-1 -20 10.5 -26.5t11.5 -11.5q0 -2 -2 -7.5t-2 -8.5q0 -24 19 -60v-54zM457 370q0 29 -23 43v3q0 5 2 14.5t2 13.5q0 26 -22 43t-49 17q-7 0 -13 -1q-5 6 -11 13t-14 7q-7 0 -16.5 -11t-17.5 -11h-3q-7 7 -12 7
q-11 0 -33.5 -25t-26.5 -38q-20 -17 -23 -20q-10 -13 -8 -27q-2 -4 -15 -10q-8 -4 -5 -20q-2 -5 -13 -28q-9 -17 -9 -28q0 -3 4 -9t3 -10q-8 -4 -18 -13q-12 -27 -12 -63q0 -10 6 -22t5 -18v-5q-7 -5 -15 -11q-4 -5 -4 -20q0 -17 4 -30q5 -7 14 -17q2 -47 66 -59
q13 -11 25 -11q28 0 37 13l2 -1q36 -2 74 54q16 29 33 58q17 9 34.5 30t15.5 37q19 26 19 56q0 13 -4 23l-1 9q5 7 16 16q6 56 6 51z" />
    <glyph glyph-name="Oacute" unicode="&#xd3;" horiz-adv-x="552" 
d="M536 310q0 -15 -19 -34.5t-23 -48.5q3 -6 6 -10l1 -7q0 -6 -6.5 -11.5t-13.5 -10.5l1 -11q0 -18 -65 -79t-97 -65q-7 -9 -23 -25q-6 -4 -32.5 -9t-37.5 -5q-15 0 -34 6q-22 6 -46 8h-3q-8 12 -11.5 14.5t-14.5 3.5q-5 1 -10 4q-12 8 -32.5 31t-22.5 35q-1 5 -10 10.5
t-12 10.5t-8 36.5t-5 41.5q0 22 7 45q4 4 9 26q5 19 5 28q0 3 -2.5 8.5t-2.5 8.5q0 6 8.5 14.5t10.5 14.5q9 36 42 59q12 9 12 21q0 3 -1 8v8q0 10 8 16h7q15 0 21 17q15 2 35.5 20.5t33.5 18.5q9 0 13.5 7t9.5 13h8q8 0 11 4h4q4 0 14.5 6t14.5 7q14 5 70 3h3q1 1 18 23
q12 14 14 27q12 11 31 32q1 5 3 16q7 23 34.5 46.5t51.5 23.5q13 0 16 -14q4 -18 14 -23l4 -12q-16 -34 -70 -78q-5 -9 -19 -23q-8 -2 -23 -7q-7 -5 -25 -28q19 -9 31 -9q6 0 10.5 -9t9.5 -10q7 1 11 1h2q10 -7 27 -23v-3q-1 -20 10.5 -26.5t11.5 -11.5q0 -2 -2 -7.5
t-2 -8.5q0 -24 19 -60v-54zM457 370q0 29 -23 43v3q0 5 2 14.5t2 13.5q0 23 -17.5 39t-41.5 20q-3 -1 -6 -1q-4 0 -9 2q-5 0 -10 -1q-5 6 -11 13t-14 7q-7 0 -16.5 -11t-17.5 -11h-3q-7 7 -12 7q-11 0 -33.5 -25t-26.5 -38q-20 -17 -23 -20q-10 -13 -8 -27q-2 -4 -15 -10
q-8 -4 -5 -20q-2 -5 -13 -28q-9 -17 -9 -28q0 -3 4 -9t3 -10q-8 -4 -18 -13q-12 -27 -12 -63q0 -10 6 -22t5 -18v-5q-7 -5 -15 -11q-4 -5 -4 -20q0 -17 4 -30q5 -7 14 -17q2 -47 66 -59q13 -11 25 -11q28 0 37 13l2 -1q36 -2 74 54q16 29 33 58q17 9 34.5 30t15.5 37
q19 26 19 56q0 13 -4 23l-1 9q5 7 16 16q6 56 6 51z" />
    <glyph glyph-name="Ocircumflex" unicode="&#xd4;" horiz-adv-x="552" 
d="M536 310q0 -15 -19 -34.5t-23 -48.5q3 -6 6 -10l1 -7q0 -6 -6.5 -11.5t-13.5 -10.5l1 -11q0 -18 -65 -79t-97 -65q-7 -9 -23 -25q-6 -4 -32.5 -9t-37.5 -5q-15 0 -34 6q-22 6 -46 8h-3q-8 12 -11.5 14.5t-14.5 3.5q-5 1 -10 4q-12 8 -32.5 31t-22.5 35q-1 5 -10 10.5
t-12 10.5t-8 36.5t-5 41.5q0 22 7 45q4 4 9 26q5 19 5 28q0 3 -2.5 8.5t-2.5 8.5q0 6 8.5 14.5t10.5 14.5q9 36 42 59q12 9 12 21q0 3 -1 8v8q0 10 8 16h7q15 0 21 17q15 2 35.5 20.5t33.5 18.5q9 0 13.5 7t9.5 13h8q8 0 11 4h4q4 0 14.5 6t14.5 7q9 3 70 3q17 0 43.5 -13
t39.5 -13q6 0 10.5 -9t9.5 -10q7 1 11 1h2q10 -7 27 -23v-3q-1 -20 10.5 -26.5t11.5 -11.5q0 -2 -2 -7.5t-2 -8.5q0 -24 19 -60v-54zM457 370q0 29 -23 43v3q0 5 2 14.5t2 13.5q0 26 -22 43t-49 17q-7 0 -13 -1q-5 6 -11 13t-14 7q-7 0 -16.5 -11t-17.5 -11h-3q-7 7 -12 7
q-11 0 -33.5 -25t-26.5 -38q-20 -17 -23 -20q-10 -13 -8 -27q-2 -4 -15 -10q-8 -4 -5 -20q-2 -5 -13 -28q-9 -17 -9 -28q0 -3 4 -9t3 -10q-8 -4 -18 -13q-12 -27 -12 -63q0 -10 6 -22t5 -18v-5q-7 -5 -15 -11q-4 -5 -4 -20q0 -17 4 -30q5 -7 14 -17q2 -47 66 -59
q13 -11 25 -11q28 0 37 13l2 -1q36 -2 74 54q16 29 33 58q17 9 34.5 30t15.5 37q19 26 19 56q0 13 -4 23l-1 9q5 7 16 16q6 56 6 51zM518 548q-6 6 -24 36q-13 22 -29 30q-1 0 -15.5 14t-23.5 14q-3 0 -6 -2q-2 3 -5 3q-7 0 -24.5 -11t-19.5 -11q-36 -5 -85 -30
q-17 6 -15 15q2 13 25 29q34 22 34 23q5 0 15 3q8 -1 18 10q11 6 27 16q6 4 13 12q6 3 15 9q5 -1 5.5 1t5.5 1q3 0 9.5 -1.5t8.5 -1.5q8 -2 16 -13q21 -41 43 -45q-1 -10 3 -23q1 -1 25 -33q16 -23 14 -36q-2 -9 -30 -9z" />
    <glyph glyph-name="Otilde" unicode="&#xd5;" horiz-adv-x="552" 
d="M536 310q0 -15 -19 -34.5t-23 -48.5q3 -6 6 -10l1 -7q0 -6 -6.5 -11.5t-13.5 -10.5l1 -11q0 -18 -65 -79t-97 -65q-7 -9 -23 -25q-6 -4 -32.5 -9t-37.5 -5q-15 0 -34 6q-22 6 -46 8h-3q-8 12 -11.5 14.5t-14.5 3.5q-5 1 -10 4q-12 8 -32.5 31t-22.5 35q-1 5 -10 10.5
t-12 10.5t-8 36.5t-5 41.5q0 22 7 45q4 4 9 26q5 19 5 28q0 3 -2.5 8.5t-2.5 8.5q0 6 8.5 14.5t10.5 14.5q9 36 42 59q12 9 12 21q0 3 -1 8v8q0 10 8 16h7q15 0 21 17q15 2 35.5 20.5t33.5 18.5q9 0 13.5 7t9.5 13h8q8 0 11 4h4q4 0 14.5 6t14.5 7q9 3 70 3q17 0 43.5 -13
t39.5 -13q6 0 10.5 -9t9.5 -10q7 1 11 1h2q10 -7 27 -23v-3q-1 -20 10.5 -26.5t11.5 -11.5q0 -2 -2 -7.5t-2 -8.5q0 -24 19 -60v-54zM457 370q0 29 -23 43v3q0 5 2 14.5t2 13.5q0 26 -22 43t-49 17q-7 0 -13 -1q-5 6 -11 13t-14 7q-7 0 -16.5 -11t-17.5 -11h-3q-7 7 -12 7
q-11 0 -33.5 -25t-26.5 -38q-20 -17 -23 -20q-10 -13 -8 -27q-2 -4 -15 -10q-8 -4 -5 -20q-2 -5 -13 -28q-9 -17 -9 -28q0 -3 4 -9t3 -10q-8 -4 -18 -13q-12 -27 -12 -63q0 -10 6 -22t5 -18v-5q-7 -5 -15 -11q-4 -5 -4 -20q0 -17 4 -30q5 -7 14 -17q2 -47 66 -59
q13 -11 25 -11q28 0 37 13l2 -1q36 -2 74 54q16 29 33 58q17 9 34.5 30t15.5 37q19 26 19 56q0 13 -4 23l-1 9q5 7 16 16q6 56 6 51zM593 690q0 -8 -15 -19q-19 -16 -21 -18q-2 -7 -7 -20q-15 -11 -41 -30h-12q-7 -1 -12 -1q-6 0 -14 1q-15 15 -30 15h-93q-3 0 -24.5 -16
t-32.5 -16q-16 0 -16 15t18 21q8 16 21 48q13 14 37 22q23 5 45 11q8 2 9 2q8 0 19 -7t17 -7h65q6 5 19 12q14 0 27.5 7l13.5 7q1 0 25 -18z" />
    <glyph glyph-name="Odieresis" unicode="&#xd6;" horiz-adv-x="552" 
d="M536 310q0 -15 -19 -34.5t-23 -48.5q3 -6 6 -10l1 -7q0 -6 -6.5 -11.5t-13.5 -10.5l1 -11q0 -18 -65 -79t-97 -65q-7 -9 -23 -25q-6 -4 -32.5 -9t-37.5 -5q-15 0 -34 6q-22 6 -46 8h-3q-8 12 -11.5 14.5t-14.5 3.5q-5 1 -10 4q-12 8 -32.5 31t-22.5 35q-1 5 -10 10.5
t-12 10.5t-8 36.5t-5 41.5q0 22 7 45q4 4 9 26q5 19 5 28q0 3 -2.5 8.5t-2.5 8.5q0 6 8.5 14.5t10.5 14.5q9 36 42 59q12 9 12 21q0 3 -1 8v8q0 10 8 16h7q15 0 21 17q15 2 35.5 20.5t33.5 18.5q9 0 13.5 7t9.5 13h8q8 0 11 4h4q4 0 14.5 6t14.5 7q9 3 70 3q17 0 43.5 -13
t39.5 -13q6 0 10.5 -9t9.5 -10q7 1 11 1h2q10 -7 27 -23v-3q-1 -20 10.5 -26.5t11.5 -11.5q0 -2 -2 -7.5t-2 -8.5q0 -24 19 -60v-54zM457 370q0 29 -23 43v3q0 5 2 14.5t2 13.5q0 26 -22 43t-49 17q-7 0 -13 -1q-5 6 -11 13t-14 7q-7 0 -16.5 -11t-17.5 -11h-3q-7 7 -12 7
q-11 0 -33.5 -25t-26.5 -38q-20 -17 -23 -20q-10 -13 -8 -27q-2 -4 -15 -10q-8 -4 -5 -20q-2 -5 -13 -28q-9 -17 -9 -28q0 -3 4 -9t3 -10q-8 -4 -18 -13q-12 -27 -12 -63q0 -10 6 -22t5 -18v-5q-7 -5 -15 -11q-4 -5 -4 -20q0 -17 4 -30q5 -7 14 -17q2 -47 66 -59
q13 -11 25 -11q28 0 37 13l2 -1q36 -2 74 54q16 29 33 58q17 9 34.5 30t15.5 37q19 26 19 56q0 13 -4 23l-1 9q5 7 16 16q6 56 6 51zM508 643q0 -1 -12 -11q-8 -9 -25 -26q-3 -2 -15 -2q-7 0 -10 1q-12 13 -38 33q-2 6 -2 11q0 10 10 19.5t19 17.5q3 5 10 13q6 2 18 2t21 -2
q6 -2 15.5 -15.5t9.5 -19.5zM359 649q0 -5 -16 -22q1 -2 1 -5q0 -26 -20 -26q-1 0 -22 8q-4 6 -14 16q-4 2 -11 7v5.5v4.5q0 5 -6 10.5t-6 10.5q0 7 10 16q8 6 16 13q2 5 11 14h12q4 -1 9.5 -9t8.5 -9q27 -15 27 -34z" />
    <glyph glyph-name="Oslash" unicode="&#xd8;" horiz-adv-x="552" 
d="M154 54q9 21 17 36q1 3 1 13q1 10 -2 12q5 12 22 17l-1 15l14 20l2 31q19 19 45 95.5t26 107.5l2 19l13 17l2 19l20 15q0 -2 0 23q0 12 5.5 18t11.5 11h-3q-7 0 -16.5 -11t-17.5 -11h-3q-7 7 -12 7q-11 0 -33.5 -25t-26.5 -38q-20 -17 -23 -20q-10 -13 -8 -27
q-2 -4 -15 -10q-8 -4 -5 -20q-2 -5 -13 -28q-9 -17 -9 -28q0 -3 4 -9t3 -10q-8 -4 -18 -13q-12 -27 -12 -63q0 -10 6 -22t5 -18v-5q-7 -5 -15 -11q-4 -5 -4 -20q0 -17 4 -30q5 -7 14 -17q1 -25 20 -40zM389 501q-2 -20 -19 -29l-1 -17q-30 -30 -32 -35.5t-2 -56.5q3 -3 3 -8
q0 -14 -18 -23q-4 -28 -23 -38q-2 -18 -1 -69q-15 -16 -17 -56l-15 -16l-3 -22q-3 -1 -20.5 -45t-18.5 -49l-10 -10q6 -3 13 -3q28 0 37 13l2 -1q36 -2 74 54q16 29 33 58q17 9 34.5 30t15.5 37q19 26 19 56q0 13 -4 23l-1 9q5 7 16 16q6 56 6 51q0 29 -23 43v3q0 5 2 14.5
t2 13.5q0 42 -49 57zM465 638q0 -23 -30 -46q-34 -27 -41 -54q33 -16 45 -16q6 0 10.5 -9t9.5 -10q7 1 11 1h2q10 -7 27 -23v-3q-1 -20 10.5 -26.5t11.5 -11.5q0 -2 -2 -7.5t-2 -8.5q0 -24 19 -60v-54q0 -15 -19 -34.5t-23 -48.5q3 -6 6 -10l1 -7q0 -6 -6.5 -11.5
t-13.5 -10.5l1 -11q0 -18 -65 -79t-97 -65q-7 -9 -23 -25q-6 -4 -32.5 -9t-37.5 -5t-19 2v-2q-16 -13 -19 -40l-14 -13q-8 -36 -18.5 -42.5t-50.5 -6.5q-13 0 -14 35q24 29 47 88q-8 10 -21 11q-5 1 -10 4q-12 8 -32.5 31t-22.5 35q-1 5 -10 10.5t-12 10.5t-8 36.5t-5 41.5
q0 22 7 45q4 4 9 26q5 19 5 28q0 3 -2.5 8.5t-2.5 8.5q0 6 8.5 14.5t10.5 14.5q9 36 42 59q12 9 12 21q0 3 -1 8v8q0 10 8 16h7q15 0 21 17q15 2 35.5 20.5t33.5 18.5q9 0 13.5 7t9.5 13h8q8 0 11 4h4q4 0 14.5 6t14.5 7q10 4 51 4v6q6 8 10 26t7 25q15 16 39 54q-5 1 37 1
q35 0 35 -23z" />
    <glyph glyph-name="Ugrave" unicode="&#xd9;" horiz-adv-x="637" 
d="M34 253l7 23l77 168l-2 35l-10 -2q-3 -3 -6 -3q-2 0 -7 4.5t-9 4.5q-4 15 12 30q4 0 15 6l11 -1l26 11q5 0 11.5 -6t8.5 -6l40 -1q26 20 34 20q12 0 26 -13.5t21 -13.5l-4 -14l-22 -17q-17 -3 -35 -5q-16 -5 -27 -31l-47 -108q-16 -35 -44 -96q-2 -6 -7 -10
q-17 -47 -17 -82t18 -71q3 -5 11.5 -6.5t11.5 -3.5h1q12 1 15 -12q21 -4 27 -17h8q49 -2 81 27l5 -2q7 0 34.5 21t35.5 24l5 14q4 6 11 16q15 9 28 39q21 49 26 52l16 43l82 181l-13 22q-55 -1 -23 -1q-14 0 -14 8q0 2 1 5l6 15q9 2 26 13l11 -1l26 11q11 1 26 2l41 -4
q5 4 11 3q9 -3 10 -3q13 0 18 -3.5t13 -3.5l-4 -22l-14 -22q-14 -2 -29 -3q-8 -5 -20 -31l-40 -92q-6 -9 -14 -22q0 -15 -12 -37q-16 -34 -18 -37q5 -1 5 -2t-5.5 -6t-7.5 -10l-19 -44q-16 -38 -61 -75q-40 -30 -81 -61q-9 -7 -26.5 -12.5t-27.5 -13.5l-22 -4l-11 -8
q-29 -8 -44 -8q-4 0 -29 3l-9 -3q-16 -7 -32 -7q4 0 -44 8q-25 0 -31 13q-23 0 -49 70l13 26q-1 1 -2 1t-3.5 -1.5t-3.5 -1.5q-2 0 -2 9q-2 3 -3 10q2 4 4 17l3 20q-2 9 13 43l6 18q3 10 13 24zM409 512q-4 -6 -22 -6q-8 0 -14 6q-11 0 -26.5 23.5t-39.5 23.5q-13 0 -15.5 7
t-4.5 15q-3 5 -8 10q-3 2 -3 13q0 5 -27 21.5t-32 23.5q2 26 11 58q3 0 22 -1.5t22 -1.5q11 0 22 -13.5t21 -24.5h5l11 -1q0 -2 1.5 -6.5t1.5 -7.5l-3 -12q8 -16 23 -16l6 -9q-2 -20 -2 -12q0 -3 3 -10.5t1 -11.5q9 -1 22 -8q5 -6 17 -22z" />
    <glyph glyph-name="Uacute" unicode="&#xda;" horiz-adv-x="637" 
d="M34 253l7 23l77 168l-2 35l-10 -2q-3 -3 -6 -3q-2 0 -7 4.5t-9 4.5q-4 15 12 30q4 0 15 6l11 -1l26 11q5 0 11.5 -6t8.5 -6l40 -1q26 20 34 20q12 0 26 -13.5t21 -13.5l-4 -14l-22 -17q-17 -3 -35 -5q-16 -5 -27 -31l-47 -108q-16 -35 -44 -96q-2 -6 -7 -10
q-17 -47 -17 -82t18 -71q3 -5 11.5 -6.5t11.5 -3.5h1q12 1 15 -12q21 -4 27 -17h8q49 -2 81 27l5 -2q7 0 34.5 21t35.5 24l5 14q4 6 11 16q15 9 28 39q21 49 26 52l16 43l82 181l-13 22q-55 -1 -23 -1q-14 0 -14 8q0 2 1 5l6 15q9 2 26 13l11 -1l26 11q11 1 26 2l41 -4
q5 4 11 3q9 -3 10 -3q13 0 18 -3.5t13 -3.5l-4 -22l-14 -22q-14 -2 -29 -3q-8 -5 -20 -31l-40 -92q-6 -9 -14 -22q0 -15 -12 -37q-16 -34 -18 -37q5 -1 5 -2t-5.5 -6t-7.5 -10l-19 -44q-16 -38 -61 -75q-40 -30 -81 -61q-9 -7 -26.5 -12.5t-27.5 -13.5l-22 -4l-11 -8
q-29 -8 -44 -8q-4 0 -29 3l-9 -3q-16 -7 -32 -7q4 0 -44 8q-25 0 -31 13q-23 0 -49 70l13 26q-1 1 -2 1t-3.5 -1.5t-3.5 -1.5q-2 0 -2 9q-2 3 -3 10q2 4 4 17l3 20q-2 9 13 43l6 18q3 10 13 24zM531 661q-16 -34 -70 -78q-5 -8 -19 -23q-8 -1 -23 -7q-6 -4 -28 -32
q-18 -25 -32 -25q-9 0 -16 7q-2 26 -2 24q0 12 17 31.5t19 34.5q12 10 31 32l3 15q7 24 34.5 47.5t51.5 23.5q13 0 16.5 -16t13.5 -21z" />
    <glyph glyph-name="Ucircumflex" unicode="&#xdb;" horiz-adv-x="637" 
d="M34 253l7 23l77 168l-2 35l-10 -2q-3 -3 -6 -3q-2 0 -7 4.5t-9 4.5q-4 15 12 30q4 0 15 6l11 -1l26 11q8 -5 20 -12l40 -12q2 1 17 18q12 13 17 13q12 0 26 -13.5t21 -13.5l-4 -14l-22 -17q-17 -3 -35 -5q-16 -5 -27 -31l-47 -108q-16 -35 -44 -96q-2 -6 -7 -10
q-17 -47 -17 -82t18 -71q3 -5 11.5 -6.5t11.5 -3.5h1q12 1 15 -12q21 -4 27 -17h8q49 -2 81 27l5 -2q7 0 34.5 21t35.5 24l5 14q4 6 11 16q15 9 28 39q21 49 26 52l16 43l82 181l-13 22q-55 -1 -23 -1q-14 0 -14 8q0 2 1 5l6 15q9 2 26 13l11 -1l26 11q11 1 26 2l41 -4
q5 4 11 3q9 -3 10 -3q13 0 18 -3.5t13 -3.5l-4 -22l-14 -22q-14 -2 -29 -3q-8 -5 -20 -31l-40 -92q-6 -9 -14 -22q0 -15 -12 -37q-16 -34 -18 -37q5 -1 5 -2t-5.5 -6t-7.5 -10l-19 -44q-16 -38 -61 -75q-40 -30 -81 -61q-9 -7 -26.5 -12.5t-27.5 -13.5l-22 -4l-11 -8
q-29 -8 -44 -8q-4 0 -29 3l-9 -3q-16 -7 -32 -7q4 0 -44 8q-25 0 -31 13q-23 0 -49 70l13 26q-1 1 -2 1t-3.5 -1.5t-3.5 -1.5q-2 0 -2 9q-2 3 -3 10q2 4 4 17l3 20q-2 9 13 43l6 18q3 10 13 24zM502 550q-8 6 -31 32q-16 19 -33 24q-2 0 -18 12q-14 9 -23 9q-5 0 -8 -3
q-2 2 -5 2q-6 0 -22 -14.5t-18 -14.5q-34 -11 -78 -44q-18 3 -18 12q0 13 20 32q29 28 29 29q5 1 14 6q9 0 16 13q10 7 24 20q5 5 11 14q5 4 14 12q5 -1 5 1.5t5.5 2t17.5 0.5q8 -1 18 -10q28 -37 50 -37q1 -10 7 -22q1 -1 30 -29q20 -19 20 -32q0 -10 -27 -15z" />
    <glyph glyph-name="Udieresis" unicode="&#xdc;" horiz-adv-x="637" 
d="M34 253l7 23l77 168l-2 35l-10 -2q-3 -3 -6 -3q-2 0 -7 4.5t-9 4.5q-4 15 12 30q4 0 15 6l11 -1l26 11q8 -5 20 -12l25 -9q37 29 49 28q12 0 26 -13.5t21 -13.5l-4 -14l-22 -17q-17 -3 -35 -5q-16 -5 -27 -31l-47 -108q-16 -35 -44 -96q-2 -6 -7 -10q-17 -47 -17 -82
t18 -71q3 -5 11.5 -6.5t11.5 -3.5h1q12 1 15 -12q21 -4 27 -17h8q49 -2 81 27l5 -2q7 0 34.5 21t35.5 24l5 14q4 6 11 16q15 9 28 39q21 49 26 52l16 43l82 181l-13 22q-55 -1 -23 -1q-14 0 -14 8q0 2 1 5l6 15q9 2 26 13l11 -1l26 11q11 1 26 2l41 -4q5 4 11 3q9 -3 10 -3
q13 0 18 -3.5t13 -3.5l-4 -22l-14 -22q-14 -2 -29 -3q-8 -5 -20 -31l-40 -92q-6 -9 -14 -22q0 -15 -12 -37q-16 -34 -18 -37q5 -1 5 -2t-5.5 -6t-7.5 -10l-19 -44q-16 -38 -61 -75q-40 -30 -81 -61q-9 -7 -26.5 -12.5t-27.5 -13.5l-22 -4l-11 -8q-29 -8 -44 -8q-4 0 -29 3
l-9 -3q-16 -7 -32 -7q4 0 -44 8q-25 0 -31 13q-23 0 -49 70l13 26q-1 1 -2 1t-3.5 -1.5t-3.5 -1.5q-2 0 -2 9q-2 3 -3 10q2 4 4 17l3 20q-2 9 13 43l6 18q3 10 13 24zM536 629l-12 -10q-8 -9 -25 -26q-3 -3 -15 -3q-7 0 -10 2q-12 13 -38 33q-1 5 -1 10q0 11 9.5 20t18.5 17
q3 6 10 13q6 3 18 3t21 -3q6 -1 15.5 -14.5t9.5 -19.5zM387 636q0 -6 -16 -22q1 -3 1 -5q0 -19 -35 -19q-4 0 -7 1q-4 6 -14 16q-4 1 -11 7v5v5q0 5 -6 10.5t-6 10.5q0 6 9 14t17 14q2 5 11 15q8 0 12 -0.5t10 -8.5t8 -10q27 -14 27 -33z" />
    <glyph glyph-name="Yacute" unicode="&#xdd;" horiz-adv-x="507" 
d="M486 509q-1 -5 -23 -15.5t-28 -23.5l-13 -4l-8 -8l-7 -15l-13 -12q-5 -24 -27 -32q-3 -8 -19 -29t-24 -25q0 -3 -1 -9q-2 -9 -16.5 -19t-17.5 -19.5t-16 -15.5q-1 -2 -13 -23q-4 -6 -23 -24l-4 -14l-9 -10q-4 -23 -13 -68q-6 -15 -16 -45l6 -6l-3 -4l-10 -36q-1 -5 -1 -8
q0 -13 21.5 -14.5t19.5 -9.5q-3 -14 -12 -16t-10 -6l-7 -2l-8 6l-136 -3q-4 4 -14 10v4q10 3 19 10h9q1 0 16 2q8 4 22 13q2 4 5 12l42 158q-3 10 0 20l-7 3v12l-10 5v1q2 6 -13 36q-14 26 -21 34h-8l-1 9l4 5q-3 5 -4 15q1 2 6 5l1 5q-19 18 -19 21q0 2 2 4q-4 4 -5.5 16.5
t-4 16.5t-2.5 13q-2 4 -4 10l-7 14l4 21q1 5 -3 5q-2 0 -7.5 -2t-7.5 -2q-4 0 -2 7q-5 5 -11.5 10t-6.5 11q9 8 18 12l47 2q42 2 62 -3l23 9l5 -6q12 -2 31 0q2 -3 13 2t13 5q3 0 3 -3q-1 -2 -2 -5q2 -8 2 -13q0 -11 -8 -11q-6 0 -11 3q-45 -6 -46 -7q-26 -7 -29 -28
q9 -31 39 -116l9 -13l6 -12q9 -3 13 -14t8 -21q1 -9 8 -9q8 0 18 10v5l11 6q4 11 23 35t25 38q18 10 18 18q13 6 18 29l12 16q6 3 11 22q2 7 17 14q3 6 7 16q2 7 -7 9q-6 1 -19 0l-16 -2q-10 0 -14 2q-7 3 -5 12l12 15l51 1l8 4l64 2l29 -2q-4 -5 -8 -16zM456 667
q-16 -35 -70 -78q-5 -9 -19 -24q-8 -1 -23 -7q-6 -3 -28 -32q-19 -24 -32 -24q-9 0 -16 6q-3 27 -3 24q0 12 17.5 31.5t19.5 34.5q11 10 31 32l3 15q6 24 34 47.5t52 23.5q13 0 16 -16t14 -21z" />
    <glyph glyph-name="Thorn" unicode="&#xde;" horiz-adv-x="543" 
d="M516 269q2 -18 -9 -25q0 -8 -21.5 -30t-37.5 -22q-5 -6 -10.5 -11.5t-14.5 -6.5q-21 -1 -49 -1l-10 -4q-3 -13 -27 -13q-6 0 -18.5 2.5t-19.5 2.5q-10 0 -17 3q-1 3 -1 5q-1 14 24 14q10 0 16 -3q14 2 43 8q2 1 13 7q8 6 12 5q22 15 44.5 31t20.5 42q0 7 -11 17t-10 16
q-12 14 -40 14q-31 0 -42 9q-5 1 -16 1t-28 -5.5t-28 -6.5q-4 -3 -12 -6q-3 -5 -5 -17q0 -3 4 -5l1 -5q0 -2 -6.5 -5t-7.5 -5q-1 -7 -5 -21q2 -3 7 -11q-2 -3 -9 -10q-4 -3 -3 -14q0 -3 -2.5 -8.5t-2.5 -8.5t3.5 -6.5t3.5 -5.5q1 -4 -7 -7.5t-9 -5.5t-1 -7q-3 -8 -5 -25
q0 -7 8 -11v-1q0 -2 -6.5 -5.5t-7.5 -5.5q-7 -13 -5 -30q5 -5 5 -8v-2q-1 -1 -7.5 -4.5t-5.5 -8.5q4 -4 12 -13q1 -4 6 -12q14 -14 49 -14q18 1 39 -13q1 -6 -4 -10q-1 -5 -2.5 -10t-8.5 -5h-40q-11 -6 -42 -11q-8 0 -11 7t-25 6q-10 0 -15 7q-6 1 -14 1q-12 -1 -35 -2.5
t-35 -1.5q-44 0 -45 18q-1 20 22.5 24t47.5 7q24 7 23 31v1l-7 4q0 8 11 10t11 12q-3 8 -7 23q19 10 18 26q0 5 -4 9.5t-4 5.5q0 4 7.5 8.5t8.5 6.5q4 9 2 24q-2 16 0 22q6 4 8 7q0 8 6.5 19.5t6.5 20.5q1 9 -1 28q11 27 11 30q0 4 -1 7q0 3 4 11t4 13q0 4 -4 8.5t-4 5.5
q0 4 7.5 8.5t8.5 7.5q4 8 2.5 23.5t0.5 21.5q7 3 8 9l2 11l-3 5q-2 1 -32 17q-8 1 -22 6q-4 2 -4 10q-1 17 8 22q18 0 53 6q12 0 36.5 -6t37.5 -6h2q19 17 65 17q28 1 29 -19q1 -8 -4 -12q-78 -23 -78 -34q0 -2 3 -5q-4 -2 -10 -6q-2 -5 -9 -12q-4 -3 -3 -14q0 -3 -2.5 -8.5
t-2.5 -8.5t6 -8l-1 -9q-13 -5 -14.5 -13.5t-2.5 -17.5q4 -5 5 -9q8 -5 20 -5q6 0 17 2t17 2q22 1 65.5 -4.5t63.5 -5.5h2l30 -18q4 -6 18 -25q3 -11 5 -33z" />
    <glyph glyph-name="germandbls" unicode="&#xdf;" horiz-adv-x="373" 
d="M463 505q0 -25 -26 -47q-2 -7 -6 -20q-1 -4 -10 -5t-11 -2q-10 -10 -34 -28q-22 0 -34 -10t-23 -21h-10q-1 0 -19.5 -19t-20.5 -23q-9 -8 -16.5 -14.5t-7.5 -27.5q0 -23 19 -51q2 -12 10 -28t9 -35v-2q8 -6 11 -18t7 -17q13 -15 13 -16q0 -5 -10 -15.5t-10 -16.5
q0 -4 3 -8q-3 -4 -11 -9q-4 -2 -4 -16q0 -8 -14.5 -10.5t-15.5 -11.5q-4 -6 -12 -17q-2 -1 -15.5 -1t-16.5 -8.5t-7 -10.5q-3 9 -25 24q-28 -1 -28 38q0 13 9.5 27.5t22.5 14.5q6 0 14.5 -27.5t27.5 -27.5q41 0 41 66q0 36 -17 41q-2 4 -23 85q0 1 -6 9.5t-6 21.5
q0 24 20 68q26 17 42 36q2 5 10 11q4 -1 7 -1t82 47q5 3 14.5 23t9.5 27q0 9 -12 19t-20 10t-14 6q-9 9 -12 10l-12 1q-7 0 -11.5 -8t-8.5 -9q-4 1 -9 1q-19 0 -32.5 -10.5t-26.5 -22.5h-2q-15 1 -21 -22q-8 -11 -9 -35q-22 -12 -39 -41q-12 -26 -25 -52q1 2 1 -21l-1 -6
q-12 -11 -13 -23t-2 -25v-4q-14 -5 -15.5 -22t-2.5 -33l4 -5v-7l-1 -7q-36 -46 -31 -76q-7 -7 -16 -20q-6 -38 -6 -93q0 -6 3.5 -11.5t3.5 -7.5q0 -4 -5.5 -11t-6.5 -10q-4 -11 -5 -35l3 -6v-11q-20 -11 -20 -28q0 -7 5 -13v-1q0 -5 -7.5 -9.5t-9.5 -6.5l-13 -22
q-19 -1 -16 -25l-10 -2q-5 11 -11 11q-5 0 -14 -7.5t-16 -7.5h-74q-17 0 -28 22q-10 18 -10 37q0 11 3 23q4 4 11 4q8 0 24.5 -6t32.5 -7h2q13 -16 24 -16q7 0 11 6l6 10q-6 0 11 0q3 0 5 1l20 20l3 6q26 24 32 70q1 8 2 78v4l2 4q9 7 14 27t10 27q1 27 12 58l6 7v44l2 9
q9 8 11 16q2 6 0 16q-1 14 -1 19q0 3 11 14.5t11 18.5q0 3 -2.5 8.5t-2.5 8.5q0 5 8 8.5t9 9.5q6 21 5 28v10l-4 5q0 3 7 14t6 23q13 6 14 15q1 15 3 18q21 5 51 43q36 44 48 53q27 12 71 37q42 9 97 9q12 0 32.5 -22.5t17.5 -32.5q10 -11 10 -24z" />
    <glyph glyph-name="agrave" unicode="&#xe0;" 
d="M330 304q0 -10 -3 -18q-13 -10 -14 -30q0 -7 -3 -14q-10 -19 -19.5 -39t-9.5 -43q0 -3 -16 -22t-19 -26v-14q-18 -10 -18 -25v-2l5 -9q3 -2 5 -2q11 0 21.5 12.5t6.5 22.5q19 29 36 29l6 -2q5 -10 5 -18q0 -16 -18 -36l1 -13q2 -18 -19.5 -41t-39.5 -23l-13 -13
q-4 1 -10 7.5t-28 6.5q-11 0 -15 5l-1 28q0 14 8.5 36.5t8.5 29.5q0 10 -7 15q-24 -14 -54 -47q-43 -46 -49 -52q-13 -4 -32 -16q-14 -10 -35 -11l-7 5q-2 7 -2 18v65q0 18 21 58q10 8 39 51q22 35 45 38q6 1 10 8t4 13l11 16q7 11 15 11q23 3 47 22q21 18 53 18q10 0 28 18
t27 18q10 0 19.5 -12.5t9.5 -22.5zM233 245q0 13 -19 13q-23 0 -109 -89q-4 -4 -6 -14t-3.5 -13t-11.5 -12q-4 -5 -4 -18q0 -29 11 -29q6 3 15 17q36 11 57 42q8 14 16 29l12 -1l8 6l20 34q14 23 14 35zM368 384q-4 -5 -22 -5q-8 0 -14 5q-11 0 -26.5 23.5t-38.5 23.5
q-14 0 -16.5 7.5t-4.5 15.5q-2 4 -6.5 8t-4.5 15q0 4 -25 20q-29 18 -34 24q3 27 11 58q3 0 22.5 -1.5t21.5 -1.5q11 0 22.5 -13t21.5 -25h4h11q0 -2 1.5 -7t1.5 -8l-3 -12q8 -16 24 -15l5 -10q-2 -19 -2 -12q0 -3 3 -10t1 -12q9 -1 22 -8q5 -6 17 -21z" />
    <glyph glyph-name="aacute" unicode="&#xe1;" 
d="M330 304q0 -10 -3 -18q-13 -10 -14 -30q0 -7 -3 -14q-10 -19 -19.5 -39t-9.5 -43q0 -3 -16 -22t-19 -26v-14q-18 -10 -18 -25v-2l5 -9q3 -2 5 -2q11 0 21.5 12.5t6.5 22.5q19 29 36 29l6 -2q5 -10 5 -18q0 -16 -18 -36l1 -13q2 -18 -19.5 -41t-39.5 -23l-13 -13
q-4 1 -10 7.5t-28 6.5q-11 0 -15 5l-1 28q0 14 8.5 36.5t8.5 29.5q0 10 -7 15q-24 -14 -54 -47q-43 -46 -49 -52q-13 -4 -32 -16q-14 -10 -35 -11l-7 5q-2 7 -2 18v65q0 18 21 58q10 8 39 51q22 35 45 38q6 1 10 8t4 13l11 16q7 11 15 11q23 3 47 22q21 18 53 18q10 0 28 18
t27 18q10 0 19.5 -12.5t9.5 -22.5zM233 245q0 13 -19 13q-23 0 -109 -89q-4 -4 -6 -14t-3.5 -13t-11.5 -12q-4 -5 -4 -18q0 -29 11 -29q6 3 15 17q36 11 57 42q8 14 16 29l12 -1l8 6l20 34q14 23 14 35zM416 525q-17 -34 -70 -78q-6 -8 -20 -23q-8 -1 -23 -7q-6 -4 -28 -32
q-18 -25 -31 -25q-9 0 -16 7q-3 27 -3 24q0 12 17 31.5t20 34.5q11 10 30 32l3 15q7 24 35 47.5t52 23.5q13 0 16 -16t14 -21z" />
    <glyph glyph-name="acircumflex" unicode="&#xe2;" 
d="M330 304q0 -10 -3 -18q-13 -10 -14 -30q0 -7 -3 -14q-10 -19 -19.5 -39t-9.5 -43q0 -3 -16 -22t-19 -26v-14q-18 -10 -18 -25v-2l5 -9q3 -2 5 -2q11 0 21.5 12.5t6.5 22.5q19 29 36 29l6 -2q5 -10 5 -18q0 -16 -18 -36l1 -13q2 -18 -19.5 -41t-39.5 -23l-13 -13
q-4 1 -10 7.5t-28 6.5q-11 0 -15 5l-1 28q0 14 8.5 36.5t8.5 29.5q0 10 -7 15q-24 -14 -54 -47q-43 -46 -49 -52q-13 -4 -32 -16q-14 -10 -35 -11l-7 5q-2 7 -2 18v65q0 18 21 58q10 8 39 51q22 35 45 38q6 1 10 8t4 13l11 16q7 11 15 11q23 3 47 22q21 18 53 18q10 0 28 18
t27 18q10 0 19.5 -12.5t9.5 -22.5zM233 245q0 13 -19 13q-23 0 -109 -89q-4 -4 -6 -14t-3.5 -13t-11.5 -12q-4 -5 -4 -18q0 -29 11 -29q6 3 15 17q36 11 57 42q8 14 16 29l12 -1l8 6l20 34q14 23 14 35zM416 419q-7 5 -30 31q-17 19 -34 25q-1 0 -16 10.5t-24 10.5
q-5 0 -9 -3q-1 2 -4 2q-6 0 -22 -14.5t-19 -15.5q-34 -10 -78 -44q-18 4 -18 13q0 12 21 32q29 28 29 29q5 1 14 6q9 0 16 12q10 8 24 20q5 6 10 15q6 4 14 12q5 -1 5.5 1t6 2t16.5 1q8 -1 18 -10q29 -37 50 -37q2 -11 8 -22q1 -1 30 -29q20 -20 20 -32q0 -10 -28 -15z" />
    <glyph glyph-name="atilde" unicode="&#xe3;" 
d="M330 304q0 -10 -3 -18q-13 -10 -14 -30q0 -7 -3 -14q-10 -19 -19.5 -39t-9.5 -43q0 -3 -16 -22t-19 -26v-14q-18 -10 -18 -25v-2l5 -9q3 -2 5 -2q11 0 21.5 12.5t6.5 22.5q19 29 36 29l6 -2q5 -10 5 -18q0 -16 -18 -36l1 -13q2 -18 -19.5 -41t-39.5 -23l-13 -13
q-4 1 -10 7.5t-28 6.5q-11 0 -15 5l-1 28q0 14 8.5 36.5t8.5 29.5q0 10 -7 15q-24 -14 -54 -47q-43 -46 -49 -52q-13 -4 -32 -16q-14 -10 -35 -11l-7 5q-2 7 -2 18v65q0 18 21 58q10 8 39 51q22 35 45 38q6 1 10 8t4 13l11 16q7 11 15 11q23 3 47 22q21 18 53 18q10 0 28 18
t27 18q10 0 19.5 -12.5t9.5 -22.5zM233 245q0 13 -19 13q-23 0 -109 -89q-4 -4 -6 -14t-3.5 -13t-11.5 -12q-4 -5 -4 -18q0 -29 11 -29q6 3 15 17q36 11 57 42q8 14 16 29l12 -1l8 6l20 34q14 23 14 35zM458 457q0 -8 -14 -19q-20 -16 -22 -18q-1 -7 -7 -20q-15 -11 -40 -30
h-12q-8 -1 -13 -1q-6 0 -13 1q-16 15 -31 15h-92q-3 0 -25 -16t-33 -16q-16 0 -16 15t18 21q9 16 22 48q13 15 36 21t45 12q8 3 10 3q7 0 18 -7.5t17 -7.5h66q5 5 18 12q15 0 28 7l13 7q1 0 25 -18z" />
    <glyph glyph-name="adieresis" unicode="&#xe4;" 
d="M330 304q0 -10 -3 -18q-13 -10 -14 -30q0 -7 -3 -14q-10 -19 -19.5 -39t-9.5 -43q0 -3 -16 -22t-19 -26v-14q-18 -10 -18 -25v-2l5 -9q3 -2 5 -2q11 0 21.5 12.5t6.5 22.5q19 29 36 29l6 -2q5 -10 5 -18q0 -16 -18 -36l1 -13q2 -18 -19.5 -41t-39.5 -23l-13 -13
q-4 1 -10 7.5t-28 6.5q-11 0 -15 5l-1 28q0 14 8.5 36.5t8.5 29.5q0 10 -7 15q-24 -14 -54 -47q-43 -46 -49 -52q-13 -4 -32 -16q-14 -10 -35 -11l-7 5q-2 7 -2 18v65q0 18 21 58q10 8 39 51q22 35 45 38q6 1 10 8t4 13l11 16q7 11 15 11q23 3 47 22q21 18 53 18q10 0 28 18
t27 18q10 0 19.5 -12.5t9.5 -22.5zM233 245q0 13 -19 13q-23 0 -109 -89q-4 -4 -6 -14t-3.5 -13t-11.5 -12q-4 -5 -4 -18q0 -29 11 -29q6 3 15 17q36 11 57 42q8 14 16 29l12 -1l8 6l20 34q14 23 14 35zM453 427q0 -1 -12 -11q-8 -9 -25 -26q-3 -2 -15 -2q-7 0 -10 1
q-12 13 -38 33q-2 6 -2 11q0 10 10 19.5t19 17.5q3 5 10 13q6 3 18 3t21 -3q6 -2 15 -15.5t9 -19.5v-21zM304 434q0 -6 -16 -23v-5q0 -19 -34 -19q-4 0 -7 1q-4 6 -14 16q-4 2 -11 7q-1 2 -0.5 5.5t0.5 4.5q0 5 -6.5 10.5t-6.5 10.5q0 7 11 16q8 6 16 13q2 5 11 14h11
q5 -1 10.5 -9t8.5 -9q27 -15 27 -33z" />
    <glyph glyph-name="aring" unicode="&#xe5;" 
d="M330 304q0 -10 -3 -18q-13 -10 -14 -30q0 -7 -3 -14q-10 -19 -19.5 -39t-9.5 -43q0 -3 -16 -22t-19 -26v-14q-18 -10 -18 -25v-2l5 -9q3 -2 5 -2q11 0 21.5 12.5t6.5 22.5q19 29 36 29l6 -2q5 -10 5 -18q0 -16 -18 -36l1 -13q2 -18 -19.5 -41t-39.5 -23l-13 -13
q-4 1 -10 7.5t-28 6.5q-11 0 -15 5l-1 28q0 14 8.5 36.5t8.5 29.5q0 10 -7 15q-24 -14 -54 -47q-43 -46 -49 -52q-13 -4 -32 -16q-14 -10 -35 -11l-7 5q-2 7 -2 18v65q0 18 21 58q10 8 39 51q22 35 45 38q6 1 10 8t4 13l11 16q7 11 15 11q23 3 47 22q21 18 53 18q10 0 28 18
t27 18q10 0 19.5 -12.5t9.5 -22.5zM233 245q0 13 -19 13q-23 0 -109 -89q-4 -4 -6 -14t-3.5 -13t-11.5 -12q-4 -5 -4 -18q0 -29 11 -29q6 3 15 17q36 11 57 42q8 14 16 29l12 -1l8 6l20 34q14 23 14 35zM328 506q6 0 15.5 -8.5t24.5 -6.5q4 -2 17.5 -15t12.5 -16q6 -9 6 -17
l4 -3q2 -6 2 -10l-2 -5q-5 -4 -5 -5q-1 -2 5 -4q1 -2 1 -4t-7 -8t-7 -17q-3 -1 -13 -13q-7 -7 -18 -6q-9 -6 -20 -6q-4 -5 -13 -5q-5 0 -15 3t-15 3q-16 1 -39 32q0 8 -6 11l1 2q0 2 -1 6t-1 7q-6 11 -6 16q1 3 2 7l5 4l1 4q1 4 4 10q8 11 17 22q5 5 25 11q2 0 3.5 2.5
t5 2.5t8 3t8.5 3zM296 402q4 -2 25 -3q6 -3 20 -6q7 0 11 7.5t5 7.5q4 8 7 19q0 3 -2 16q-6 4 -6 8q0 -1 2 4q-1 1 -15 1q-7 1 -13 3q-7 1 -12 -4h-8q-3 0 -3 -4.5t-2 -5.5q-5 -2 -13 -3q-4 -1 -6 -5.5t-9 -4.5q4 -3 8 -7q8 -7 8 -8q1 -7 3 -15z" />
    <glyph glyph-name="ccedilla" unicode="&#xe7;" horiz-adv-x="286" 
d="M33 -68q0 -4 12 -6t18 -1q63 -55 56 -94q-8 -5 -15 -25.5t-19 -29.5l1 -14q-4 -2 -17 -17q-10 -11 -18 -10l-9 1q-14 15 -32 28l-1 5q0 13 17.5 27t30.5 10q10 9 20 19.5t10 22.5q0 8 -13.5 14.5t-20.5 6.5l-13 17q-4 -1 -7.5 6t-7.5 7l-22 3l-12 -10q0 4 -6 4h-4.5h-5.5
q-18 0 -15 26q4 9 21.5 22.5t22.5 21.5q19 9 38 17q28 12 36 23h-9q-16 0 -34 20.5t-18 37.5v40q0 11 9 28t9 33q0 7 7 20.5t7 28.5q0 12 20 32q24 24 27 30q3 10 22 36q5 5 36 9l7 5q47 13 65 13q20 0 37 -11t17 -30q0 -32 -29 -53h-13q-11 9 -23 21q-2 9 -5 18
q-4 13 -21 13q-14 0 -43 -27.5t-33 -41.5q1 2 1 -20q0 -9 -9 -17t-10 -14q0 -11 -2 -32q-5 -3 -13 -11q-1 -7 -9.5 -24t-8.5 -20q0 -7 24 -39q7 -2 13 -2q21 0 39 18q7 7 27 35q5 3 20 21q7 2 13 2q7 0 8 -11q-6 -4 -14 -14q2 -10 2 -18q0 -14 -26.5 -42.5t-40.5 -31.5
q-8 -1 -19 -2q-75 -58 -75 -74z" />
    <glyph glyph-name="egrave" unicode="&#xe8;" horiz-adv-x="268" 
d="M235 392q-5 -5 -22 -5q-9 0 -14 5q-11 0 -26.5 23.5t-39.5 23.5q-13 0 -15.5 7.5t-5.5 15.5q-2 4 -6 8t-4 15q0 4 -26 20q-29 18 -34 24q3 27 11 58q4 0 23 -1.5t21 -1.5q12 0 23 -13t21 -25h5h10q1 -2 2.5 -7t1.5 -8l-3 -12q8 -16 23 -15l6 -10q-3 -19 -3 -12
q0 -3 3 -10t2 -12q9 -1 22 -8q5 -6 16 -21zM267 299q0 -3 -5 -10t-5 -9q-2 -7 -2 -55q0 -2 -12 -13q-7 -7 -13 -8q-3 -1 -10 0q-9 1 -15 1q-13 0 -24 -9q-17 -15 -20 -16q-12 -5 -36 -17q-5 2 -9 2q-26 0 -26 -31q0 -25 20 -35q1 -7 1 -12q0 -4 -4.5 -9.5t-5.5 -7.5v-8
q10 -12 24 -12q13 0 22 9q24 10 25 39q8 4 15 4q6 0 10 -4v-10v-14q-6 -14 -17 -38q-4 -2 -27.5 -24t-27.5 -22q-5 0 -9 9t-9 9q-4 0 -9 -7.5t-12 -7.5q-3 0 -39 18q-17 40 -17 92q0 4 3 24q4 1 12 23.5t11 27.5v11q28 34 28 72q0 2 7.5 7.5t9.5 6.5q-2 8 6 21h10h2
q7 8 25 22q8 4 39.5 12t39.5 8q11 0 27.5 -14.5t16.5 -24.5zM209 243q0 10 -13 23t-23 13q-21 0 -41.5 -28.5t-20.5 -49.5q0 -16 9 -16q13 0 13 9q0 3 -1 4q3 2 8 6q69 13 69 39z" />
    <glyph glyph-name="eacute" unicode="&#xe9;" horiz-adv-x="268" 
d="M365 560q-16 -34 -70 -78q-5 -8 -19 -23q-8 -2 -23 -7q-6 -4 -28 -33q-18 -24 -32 -24q-9 0 -15 7q-3 26 -3 24q0 12 17 31.5t19 34.5q12 10 31 31q1 6 3 16q7 23 34.5 46.5t51.5 23.5q13 0 16 -14q4 -17 14 -22zM280 278q0 -10 -6 -13q-10 -6 -13 -10q-8 -19 -33 -56
q-4 -10 -7 -12t-9 -1q-9 2 -13 2q-9 0 -22.5 -10t-21.5 -10q-34 0 -34 12q0 3 11 10q8 5 15 9q67 18 67 63q0 30 -19 30q-23 0 -53 -41q-1 -9 -9.5 -23t-8.5 -22q0 -15 -17.5 -30t-17.5 -45q0 -12 -11 -19.5t-11 -15.5q0 -11 20.5 -28.5t31.5 -17.5q12 0 29 24t29 24
q5 0 13 -5q5 -2 5 -22q0 -17 -18 -30q-21 -17 -25 -25q-36 -26 -82 -25h-13q-13 4 -34 14l-12 -1h-3q-4 4 -6 12q5 6 5 13q0 10 -5 23q16 62 16 94q0 8 7 12q26 13 30 57q1 8 22.5 32.5t31.5 31.5q12 4 38 25q10 2 28 12t30 10q6 0 17 -3.5t16 -3.5q2 -2 16 -10q3 -5 16 -16
q10 -9 10 -15z" />
    <glyph glyph-name="ecircumflex" unicode="&#xea;" horiz-adv-x="268" 
d="M266 283l-1 -8q0 -15 -18.5 -38.5t-33.5 -31.5q-23 -6 -48 -15q-4 -4 -12 -14q0 1 -20 1q-30 0 -41 -44q-8 -8 -21 -30v-12q5 -3 13.5 -21.5t17.5 -18.5q3 0 11 -1q7 -1 11 0q5 0 7 4q11 3 20 16.5t17 27.5q6 3 15 3q18 0 18 -16q0 -20 -58 -78q-4 -4 -25 -10
q-4 -5 -9 -10.5t-8 -5.5q-10 0 -18 5q-11 7 -15 8q-13 1 -39 1q-5 5 -5 19q0 6 -7.5 19.5t-7.5 23.5v42q0 10 7.5 30.5t7.5 33.5q0 10 4 18q12 9 108 126q13 1 36 12t46 11q50 0 48 -47zM219 286q0 16 -17 16q-18 0 -46 -39.5t-28 -48.5q0 -10 16 -10l7 1q21 18 42 35
q26 25 26 46zM341 408q-7 6 -30 32q-16 19 -34 24q-1 1 -16 11.5t-24 10.5q-5 0 -9 -4q-1 3 -4 3q-6 0 -22 -14.5t-18 -15.5q-35 -11 -78 -44q-18 3 -18 12q0 13 20 32l29 29q5 2 14 6q9 0 16 13q10 8 24 20q5 5 11 14q5 4 13 12q5 -1 5.5 1.5t6 2t16.5 0.5q9 -1 18 -10
q29 -37 50 -37q2 -10 8 -22q1 0 30 -29q20 -19 20 -32q0 -10 -28 -15z" />
    <glyph glyph-name="edieresis" unicode="&#xeb;" horiz-adv-x="268" 
d="M266 283l-1 -8q0 -15 -18.5 -38.5t-33.5 -31.5q-23 -6 -48 -15q-4 -4 -12 -14q0 1 -20 1q-30 0 -41 -44q-8 -8 -21 -30v-12q5 -3 13.5 -21.5t17.5 -18.5q3 0 11 -1q7 -1 11 0q5 0 7 4q11 3 20 16.5t17 27.5q6 3 15 3q18 0 18 -16q0 -20 -58 -78q-4 -4 -25 -10
q-4 -5 -9 -10.5t-8 -5.5q-10 0 -18 5q-11 7 -15 8q-13 1 -39 1q-5 5 -5 19q0 6 -7.5 19.5t-7.5 23.5v42q0 10 7.5 30.5t7.5 33.5q0 10 4 18q12 9 108 126q13 1 36 12t46 11q50 0 48 -47zM219 286q0 16 -17 16q-18 0 -46 -39.5t-28 -48.5q0 -10 16 -10l7 1q21 18 42 35
q26 25 26 46zM363 416q-1 0 -13 -10q-8 -9 -25 -26q-3 -2 -15 -2q-7 0 -10 1q-12 13 -37 33q-2 6 -2 11q0 10 9.5 19t18.5 18q4 5 10 12q6 3 18 3q13 0 22 -3q5 -1 14.5 -14.5t9.5 -19.5v-22zM213 423q0 -6 -16 -22q1 -3 1 -5q0 -19 -34 -19q-5 0 -8 1q-4 6 -14 16
q-4 2 -11 7v5v5q0 5 -6 10.5t-6 10.5q0 7 9 14.5t17 14.5q2 5 11 14h12q4 -1 10 -9t8 -9q27 -15 27 -34z" />
    <glyph glyph-name="igrave" unicode="&#xec;" horiz-adv-x="228" 
d="M200 308q-16 -25 -34 -59v-30q0 -5 -4 -12q-28 -15 -34 -34q2 -6 2 -15q0 -8 -19.5 -38t-19.5 -44q0 -9 9 -16h2q41 39 52 39q12 0 12 -16q0 -9 -32 -38t-42 -27q-11 -2 -27 -9q-4 -6 -8.5 -12t-11.5 -6q-16 0 -29 23q5 11 10 23q2 6 2 27q0 7 9.5 12.5t10.5 10.5
q1 4 0 12q-2 9 -2 11q0 7 18 35t16 48q1 0 11 7q5 4 5 18q0 15 -9 22q2 0 -28 -2q-4 2 -4 10q0 6 18 26q22 22 24 27q1 1 22 20q10 0 24.5 10t22.5 10q11 0 22.5 -11t11.5 -22zM235 392q-5 -5 -22 -5q-9 0 -14 5q-11 0 -26.5 23.5t-39.5 23.5q-13 0 -15.5 7.5t-5.5 15.5
q-2 4 -6 8t-4 15q0 4 -26 20q-29 18 -34 24q3 27 11 58q4 0 23 -1.5t21 -1.5q12 0 23 -13t21 -25h5h10q1 -2 2.5 -7t1.5 -8l-3 -12q8 -16 23 -15l6 -10q-3 -19 -3 -12q0 -3 3 -10t2 -12q9 -1 22 -8q5 -6 16 -21z" />
    <glyph glyph-name="iacute" unicode="&#xed;" horiz-adv-x="228" 
d="M200 308q-16 -25 -34 -59v-30q0 -5 -4 -12q-28 -15 -34 -34q2 -6 2 -15q0 -8 -19.5 -38t-19.5 -44q0 -9 9 -16h2q41 39 52 39q12 0 12 -16q0 -9 -32 -38t-42 -27q-11 -2 -27 -9q-4 -6 -8.5 -12t-11.5 -6q-16 0 -29 23q5 11 10 23q2 6 2 27q0 7 9.5 12.5t10.5 10.5
q1 4 0 12q-2 9 -2 11q0 7 18 35t16 48q1 0 11 7q5 4 5 18q0 15 -9 22q2 0 -28 -2q-4 2 -4 10q0 6 18 26q22 22 24 27q1 1 22 20q10 0 24.5 10t22.5 10q11 0 22.5 -11t11.5 -22zM261 557q-16 -34 -70 -78q-5 -8 -19 -23q-8 -1 -23 -7q-6 -4 -26.5 -30.5t-33.5 -26.5
q-9 0 -16 7q-3 27 -3 24q0 12 17.5 31.5t19.5 34.5q11 10 31 32l3 15q6 24 34 47.5t52 23.5q13 0 16 -16t14 -21z" />
    <glyph glyph-name="icircumflex" unicode="&#xee;" horiz-adv-x="228" 
d="M200 308q-16 -25 -34 -59v-30q0 -5 -4 -12q-28 -15 -34 -34q2 -6 2 -15q0 -8 -19.5 -38t-19.5 -44q0 -9 9 -16h2q41 39 52 39q12 0 12 -16q0 -9 -32 -38t-42 -27q-11 -2 -27 -9q-4 -6 -8.5 -12t-11.5 -6q-16 0 -29 23q5 11 10 23q2 6 2 27q0 7 9.5 12.5t10.5 10.5
q1 4 0 12q-2 9 -2 11q0 7 18 35t16 48q1 0 11 7q5 4 5 18q0 15 -9 22q2 0 -28 -2q-4 2 -4 10q0 6 18 26q22 22 24 27q1 1 22 20q10 0 24.5 10t22.5 10q11 0 22.5 -11t11.5 -22zM312 407q-7 5 -30 31q-17 19 -34 25q-1 0 -16.5 10.5t-23.5 10.5q-5 0 -9 -3q-1 2 -4 2
q-6 0 -22 -14.5t-19 -15.5q-34 -10 -78 -44q-18 4 -18 12q0 13 20 33q29 28 30 29q5 1 14 6q8 -1 15 12q11 8 25 20q5 6 10 14q5 5 14 13q5 -1 5 1t5.5 2t17.5 1q8 -1 18 -10q28 -38 50 -37q2 -11 8 -22q0 -1 30 -29q20 -20 20 -33q0 -9 -28 -14z" />
    <glyph glyph-name="idieresis" unicode="&#xef;" horiz-adv-x="228" 
d="M200 308q-16 -25 -34 -59v-30q0 -5 -4 -12q-28 -15 -34 -34q2 -6 2 -15q0 -8 -19.5 -38t-19.5 -44q0 -9 9 -16h2q41 39 52 39q12 0 12 -16q0 -9 -32 -38t-42 -27q-11 -2 -27 -9q-4 -6 -8.5 -12t-11.5 -6q-16 0 -29 23q5 11 10 23q2 6 2 27q0 7 9.5 12.5t10.5 10.5
q1 4 0 12q-2 9 -2 11q0 7 18 35t16 48q1 0 11 7q5 4 5 18q0 15 -9 22q2 0 -28 -2q-4 2 -4 10q0 6 18 26q22 22 24 27q1 1 22 20q10 0 24.5 10t22.5 10q11 0 22.5 -11t11.5 -22zM320 423l-12 -10q-8 -9 -25 -26q-3 -3 -15 -3q-7 0 -10 2q-12 12 -37 33q-2 5 -2 10
q0 11 9.5 20t18.5 17q3 6 10 13q6 3 18 3t21 -3q6 -2 15.5 -15t9.5 -20zM171 430q0 -6 -16 -22q1 -3 1 -6q0 -18 -35 -18q-4 0 -7 1q-4 6 -14 15q-4 2 -11 8v5v4q0 6 -6 11.5t-6 10.5q0 6 9 14t17 14q2 5 11 15q8 0 12 -0.5t10 -8.5t8 -10q27 -14 27 -33z" />
    <glyph glyph-name="eth" unicode="&#xf0;" horiz-adv-x="397" 
d="M437 447q0 -11 -13.5 -16t-26.5 -9q-8 -2 -15 -18l-5 -2q-8 4 -17 4q-1 -17 -4 -50q-3 -22 -17 -60q-2 -4 -10 -8.5t-9 -10.5q-1 -24 -9 -71q-5 -10 -10 -31q0 -5 1.5 -14.5t1.5 -13.5q0 -8 -10 -20t-10 -20q0 -17 18 -17q10 0 29 19.5t29 19.5q14 0 14 -27
q0 -13 -8.5 -22t-7.5 -23q-3 -12 -16.5 -19t-25.5 -12q-4 -2 -22 -22q-16 -16 -25 -16q-14 0 -27 18.5t-13 33.5q0 11 6.5 26t6.5 18q0 8 -10 8q-14 0 -20 -15l-4 1q-13 0 -35 -25l-32 -34l-11 1h-3q-37 -24 -71 -24q-9 0 -14.5 2.5t-18 25t-12.5 26.5q0 30 16 70q0 8 2 23
q2 6 9.5 10.5t7.5 13t6.5 15t7.5 9.5q0 9 6 26q25 25 73 77q2 2 18 3q7 7 22 15q13 0 37 5q3 1 10.5 9t19.5 8t18.5 -4.5t12.5 -10.5q12 0 23 15t11 28q0 4 -1.5 13t-1.5 13v0q-36 -18 -48 -18q-26 0 -26 29q0 9 25 35l10 4q3 -4 16 -5q12 -1 17 0q4 2 13 8q-6 7 -6 11
t2.5 13t2.5 14q0 20 -20.5 38t-20.5 44l3 10q8 6 15 6q6 0 13 -5q11 -7 12 -8q6 0 18 -3q25 -7 38 -89q49 4 56 0q9 -20 9 -25zM273 249q0 6 -6 15q0 10 -10.5 18t-20.5 8q-19 0 -45 -25.5t-26 -42.5q-12 -16 -38 -47q-11 -7 -29 -23q-4 -5 -5 -11q0 -4 1 -12t1 -10
q0 -6 -8.5 -18.5t-8.5 -18.5q0 -17 25 -17q20 0 28 8q111 108 123 129q3 5 2 19q17 25 17 28z" />
    <glyph glyph-name="ntilde" unicode="&#xf1;" horiz-adv-x="346" 
d="M334 299q0 -8 -15 -80q-11 -16 -17 -39q-2 -8 -14 -20q-17 -18 -18 -19t-5 -17t-4 -20q0 -12 14 -21.5t14 -16.5q0 -23 -29 -33l-36 -8q-2 -1 -12 -16.5t-21 -15.5q-20 0 -34 14q-2 6 -2 12q0 11 16.5 29.5t16.5 36.5q5 7 16 20q6 3 14 12l-1 7q0 10 10 19.5t11 32.5
q14 14 27 28.5t13 39.5q0 36 -32 36q-13 0 -49 -38q-47 -52 -48 -52l1 -3q0 -12 -36 -57q-24 -29 -47 -59q-10 -18 -20.5 -38t-25.5 -32q-8 -5 -18 -5l-10 4q-3 12 -3 25q0 9 7 24t6 19q4 4 4.5 14t5.5 14q20 18 35 51q10 12 26 31q4 6 12 26q5 12 30 32q2 6 2 10
q0 21 -30 21q-7 0 -14 -2q-7 -6 -13 -13q-9 -8 -16 -8q-6 0 -10 5q1 32 44 72q35 13 60 13q14 0 26 -4q3 -6 3 -10q0 -8 -11 -16t-11 -27l1 -23q7 -7 13 -7q5 0 20 18l14 1q14 20 50 51q10 3 24 11q24 12 35 11h13q18 -18 18 -40zM468 476q0 -8 -15 -19q-20 -16 -21 -18
q-2 -7 -8 -20q-14 -11 -40 -30h-12q-8 -1 -12 -1q-6 0 -14 1q-15 15 -31 15h-92q-3 0 -24.5 -16t-32.5 -16q-16 0 -16 15t18 21q8 16 21 48q13 14 37 22q22 5 45 11q8 2 9 2q8 0 19 -7t16 -7h66q6 5 18 12q15 0 28.5 7l13.5 7q1 0 25 -18z" />
    <glyph glyph-name="ograve" unicode="&#xf2;" horiz-adv-x="276" 
d="M255 216q0 -16 -8 -44.5t-8 -43.5q0 -8 -15 -20t-18 -21v-11l-1 -9q-13 -12 -39 -34q-9 -2 -25 -10q-10 -8 -20 -14.5t-29 -6.5q-53 0 -62 43q-16 24 -16 53q0 21 8 39q9 8 9 17q-1 -25 -1 19q0 7 10 17.5t10 32.5q0 15 49.5 63t64.5 48q11 0 19 6q13 9 17 11
q6 -6 19 -14l13 1q23 -19 23 -55v-67zM216 252q0 40 -27 38l-8 -1q-12 -1 -49.5 -47t-37.5 -55q0 -6 3.5 -16.5t3.5 -15.5q0 -4 -5 -9q-20 -8 -20 -43q0 -52 23 -52l9 1q30 26 44 49q1 8 6 22q13 10 30 29q1 8 6 23q7 6 16 21q6 46 6 56zM235 392q-5 -5 -22 -5q-9 0 -14 5
q-11 0 -26.5 23.5t-39.5 23.5q-13 0 -15.5 7.5t-5.5 15.5q-2 4 -6 8t-4 15q0 4 -26 20q-29 18 -34 24q3 27 11 58q4 0 23 -1.5t21 -1.5q12 0 23 -13t21 -25h5h10q1 -2 2.5 -7t1.5 -8l-3 -12q8 -16 23 -15l6 -10q-3 -19 -3 -12q0 -3 3 -10t2 -12q9 -1 22 -8q5 -6 16 -21z" />
    <glyph glyph-name="oacute" unicode="&#xf3;" horiz-adv-x="276" 
d="M255 216q0 -16 -8 -44.5t-8 -43.5q0 -8 -15 -20t-18 -21v-11l-1 -9q-13 -12 -39 -34q-9 -2 -25 -10q-10 -8 -20 -14.5t-29 -6.5q-53 0 -62 43q-16 24 -16 53q0 21 8 39q9 8 9 17q-1 -25 -1 19q0 7 10 17.5t10 32.5q0 15 49.5 63t64.5 48q11 0 19 6q13 9 17 11
q6 -6 19 -14l13 1q23 -19 23 -55v-67zM216 252q0 40 -27 38l-8 -1q-12 -1 -49.5 -47t-37.5 -55q0 -6 3.5 -16.5t3.5 -15.5q0 -4 -5 -9q-20 -8 -20 -43q0 -52 23 -52l9 1q30 26 44 49q1 8 6 22q13 10 30 29q1 8 6 23q7 6 16 21q6 46 6 56zM261 557q-16 -34 -70 -78
q-5 -8 -19 -23q-8 -1 -23 -7q-6 -4 -26.5 -30.5t-33.5 -26.5q-9 0 -16 7q-3 27 -3 24q0 12 17.5 31.5t19.5 34.5q11 10 31 32l3 15q6 24 34 47.5t52 23.5q13 0 16 -16t14 -21z" />
    <glyph glyph-name="ocircumflex" unicode="&#xf4;" horiz-adv-x="276" 
d="M255 216q0 -16 -8 -44.5t-8 -43.5q0 -8 -15 -20t-18 -21v-11l-1 -9q-13 -12 -39 -34q-9 -2 -25 -10q-10 -8 -20 -14.5t-29 -6.5q-53 0 -62 43q-16 24 -16 53q0 21 8 39q9 8 9 17q-1 -25 -1 19q0 7 10 17.5t10 32.5q0 15 49.5 63t64.5 48q11 0 19 6q13 9 17 11
q6 -6 19 -14l13 1q23 -19 23 -55v-67zM216 252q0 40 -27 38l-8 -1q-12 -1 -49.5 -47t-37.5 -55q0 -6 3.5 -16.5t3.5 -15.5q0 -4 -5 -9q-20 -8 -20 -43q0 -52 23 -52l9 1q30 26 44 49q1 8 6 22q13 10 30 29q1 8 6 23q7 6 16 21q6 46 6 56zM330 402q-7 6 -30 32q-17 19 -34 24
q-1 1 -16.5 11.5t-23.5 10.5q-6 0 -9 -4q-2 3 -4 3q-6 0 -22.5 -15t-18.5 -15q-34 -11 -78 -44q-18 3 -18 12q0 13 20 32q29 29 30 29q5 2 14 6q8 0 15 13l25 20q5 5 10 14q5 4 14 12q5 -1 5 1.5t5.5 2t17.5 0.5q8 -1 18 -10q28 -37 50 -37q1 -10 8 -22l29 -29
q21 -19 21 -32q0 -10 -28 -15z" />
    <glyph glyph-name="otilde" unicode="&#xf5;" horiz-adv-x="276" 
d="M255 216q0 -16 -8 -44.5t-8 -43.5q0 -8 -15 -20t-18 -21v-11l-1 -9q-13 -12 -39 -34q-9 -2 -25 -10q-10 -8 -20 -14.5t-29 -6.5q-53 0 -62 43q-16 24 -16 53q0 21 8 39q9 8 9 17q-1 -25 -1 19q0 7 10 17.5t10 32.5q0 15 49.5 63t64.5 48q11 0 19 6q13 9 17 11
q6 -6 19 -14l13 1q23 -19 23 -55v-67zM216 252q0 40 -27 38l-8 -1q-12 -1 -49.5 -47t-37.5 -55q0 -6 3.5 -16.5t3.5 -15.5q0 -4 -5 -9q-20 -8 -20 -43q0 -52 23 -52l9 1q30 26 44 49q1 8 6 22q13 10 30 29q1 8 6 23q7 6 16 21q6 46 6 56zM377 465q0 -8 -15 -20
q-20 -16 -21 -18q-2 -7 -8 -20q-15 -11 -40 -30h-12q-8 -1 -12 -1q-6 0 -14 1q-15 15 -31 15h-92q-3 0 -24.5 -16t-32.5 -16q-16 0 -16 16q0 14 18 20q8 16 21 48q13 15 36 21.5t46 11.5q8 3 9 3q8 0 19 -7t16 -7h66q6 4 18 11q15 0 28.5 7l13.5 7q1 0 25 -17z" />
    <glyph glyph-name="odieresis" unicode="&#xf6;" horiz-adv-x="276" 
d="M255 216q0 -16 -8 -44.5t-8 -43.5q0 -8 -15 -20t-18 -21v-11l-1 -9q-13 -12 -39 -34q-9 -2 -25 -10q-10 -8 -20 -14.5t-29 -6.5q-53 0 -62 43q-16 24 -16 53q0 21 8 39q9 8 9 17q-1 -25 -1 19q0 7 10 17.5t10 32.5q0 15 49.5 63t64.5 48q11 0 19 6q13 9 17 11
q6 -6 19 -14l13 1q23 -19 23 -55v-67zM216 252q0 40 -27 38l-8 -1q-12 -1 -49.5 -47t-37.5 -55q0 -6 3.5 -16.5t3.5 -15.5q0 -4 -5 -9q-20 -8 -20 -43q0 -52 23 -52l9 1q30 26 44 49q1 8 6 22q13 10 30 29q1 8 6 23q7 6 16 21q6 46 6 56zM349 442l-12 -10q-8 -9 -25 -26
q-3 -2 -15 -2q-7 0 -10 1q-12 13 -38 33q-2 6 -2 11q0 10 10 19t19 18q3 5 10 12q6 3 18 3t21 -3q6 -1 15 -14.5t9 -19.5v-22zM200 449q0 -6 -16 -22v-5q0 -19 -34 -19q-4 0 -7 1q-4 6 -14 16q-4 2 -11 7q-1 2 -0.5 5t0.5 5q0 5 -6.5 10.5t-6.5 10.5q0 7 11 15l16 14
q2 5 11 14h12q4 -1 9.5 -9t8.5 -9q27 -15 27 -34z" />
    <glyph glyph-name="oslash" unicode="&#xf8;" horiz-adv-x="276" 
d="M99 151q37 46 34 65v8l12 8l1 8l19 8q0 -1 -2 9q-1 6 9 10.5t10 10.5q0 3 -1 6q3 3 5 6l-5 -1q-12 -1 -49.5 -47t-37.5 -55q0 -6 3.5 -16.5t3.5 -15.5q0 -2 -2 -4zM82 132q6 5 13 14q-8 -4 -13 -14zM216 245q-27 -14 -27 -19q0 2 3 -18q3 -1 3 -3q1 -6 -16 -11
q-2 -12 -20 -18q-1 -7 3 -27q-13 -8 -12 -24l-15 -8l-1 -10q-3 0 -17.5 -19.5t-14.5 -21.5l-14 -7l1 -5q4 -3 10 -3l9 1q30 26 44 49q1 8 6 22q13 10 30 29q1 8 6 23q7 6 16 21q2 16 6 49zM304 331q1 -8 -16.5 -16.5t-34.5 -16.5q2 -8 2 -15v-67q0 -16 -8 -44.5t-8 -43.5
q0 -8 -15 -20t-18 -21v-11l-1 -9q-13 -12 -39 -34q-9 -2 -25 -10q-10 -8 -20 -14.5t-29 -6.5q-21 0 -38 7q-8 -8 -58 -13q-14 -2 -17 12q23 15 46 46q-11 20 -11 44q0 21 8 39q9 8 9 17q-1 -25 -1 19q0 7 10 17.5t10 32.5q0 15 49.5 63t64.5 48q11 0 19 6q13 9 17 11
q6 -6 19 -14l13 1q3 -2 6 -6q9 2 28 4q36 5 38 -5z" />
    <glyph glyph-name="ugrave" unicode="&#xf9;" horiz-adv-x="346" 
d="M352 129q-2 -7 -11 -7q-12 0 -12 9q0 5 6 11h2q13 0 15 -13zM345 292q0 -11 -18 -40q1 11 1 -38q0 -13 -8 -15.5t-11 -8.5q-7 -22 -26 -65q-3 -3 -15.5 -11t-12.5 -18q0 -14 15 -14q11 0 27 15q19 19 26 22q5 -9 5 -22q0 -11 -29 -44t-43 -42q-18 -11 -48 -11q-6 0 -13 4
q-4 12 -4 22q0 5 21 67q7 7 14 30q-1 7 2 21q1 3 7.5 9.5t6.5 11.5q0 7 -6 11h-6q-18 -24 -74 -74h-12q-6 1 -10 -13q-10 -12 -34 -32q-5 -19 -16 -35q-15 -20 -31 -16q-15 -17 -26 -17t-11 10v66q6 15 24 43q10 14 10 50q0 21 11 25t11 21q0 13 -12 28.5t-12 30.5t23 37
t37 20q40 19 54 19q11 0 20 -5l4 -9q0 -28 -12 -45t-25 -34q-7 -12 -18 -52q-10 -30 -29 -52q-3 -4 -3 -17q0 -27 9 -30q108 103 125 123q5 5 8 18t5 17q7 14 21 25q23 18 24 19l10 30q7 21 30 21q14 0 14 -11v-45zM300 376q-4 -5 -22 -5q-8 0 -13 5q-12 1 -27 24t-39 23
q-13 0 -16 7.5t-5 15.5q-2 4 -8 9q-2 3 -2 14q0 4 -26 20q-29 18 -34 25q3 26 11 57q4 1 23 -0.5t21 -1.5q11 0 24 -15l20 -24l4 1l11 -1q0 -2 1.5 -7t1.5 -7q0 -1 -3 -12q8 -17 24 -16l6 -10q-3 -19 -3 -12q0 -3 3 -10t1 -12q10 -1 23 -7q4 -6 16 -22z" />
    <glyph glyph-name="uacute" unicode="&#xfa;" horiz-adv-x="346" 
d="M352 129q-2 -7 -11 -7q-12 0 -12 9q0 5 6 11h2q13 0 15 -13zM345 292q0 -11 -18 -40q1 11 1 -38q0 -13 -8 -15.5t-11 -8.5q-7 -22 -26 -65q-3 -3 -15.5 -11t-12.5 -18q0 -14 15 -14q11 0 27 15q19 19 26 22q5 -9 5 -22q0 -11 -29 -44t-43 -42q-18 -11 -48 -11q-6 0 -13 4
q-4 12 -4 22q0 5 21 67q7 7 14 30q-1 7 2 21q1 3 7.5 9.5t6.5 11.5q0 7 -6 11h-6q-18 -24 -74 -74h-12q-6 1 -10 -13q-10 -12 -34 -32q-5 -19 -16 -35q-15 -20 -31 -16q-15 -17 -26 -17t-11 10v66q6 15 24 43q10 14 10 50q0 21 11 25t11 21q0 13 -12 28.5t-12 30.5t23 37
t37 20q40 19 54 19q11 0 20 -5l4 -9q0 -28 -12 -45t-25 -34q-7 -12 -18 -52q-10 -30 -29 -52q-3 -4 -3 -17q0 -27 9 -30q108 103 125 123q5 5 8 18t5 17q7 14 21 25q23 18 24 19l10 30q7 21 30 21q14 0 14 -11v-45zM395 544q-17 -34 -70 -78q-5 -8 -19 -23q-8 -1 -23 -7
q-7 -4 -29 -33q-18 -24 -31 -24q-9 0 -16 7q-3 26 -3 24q0 12 17.5 31.5t19.5 34.5q11 10 31 32l3 15q6 24 34 47.5t52 23.5q13 0 16 -16t14 -21z" />
    </font>
</defs>
</svg>
